<?xml version="1.0" encoding="UTF-8" standalone="no"?>
<svg xmlns="http://www.w3.org/2000/svg" xmlns:xlink="http://www.w3.org/1999/xlink" width="297.000mm" height="210.000mm" viewBox="0.000000 0.000000 297.000000 210.000000" stroke-linejoin="round" stroke-linecap="round" fill="none" fill-rule="evenodd"><desc>3DVIA Composer Export</desc><script type="text/ecmascript"><![CDATA[
if(typeof(top) != "undefined")
{
	top.ShowPaper = ShowPaper;
}
function ShowHotSpot(evt,hotspotid)
{
	var svgDocument = evt.target.ownerDocument;
	var strId = "hotspot."+hotspotid;
	var hotspot = svgDocument.getElementById(strId);
	if(hotspot)
		hotspot.setAttribute("opacity",".5");
}
function HideHotSpot(evt,hotspotid)
{
	var svgDocument = evt.target.ownerDocument;
	var strId = "hotspot."+hotspotid;
	var hotspot = svgDocument.getElementById(strId);
	if(hotspot)
		hotspot.setAttribute("opacity","0");

	var toolTip = svgDocument.getElementById('ToolTip');
	if(toolTip)
		toolTip.setAttribute("visibility","hidden");
}
function ShowToolTip(evt,hotspotid,strTooltip)
{
	if(strTooltip=="")
	return;

	// change text
	var svgDocument = evt.target.ownerDocument;
	var tiptext = svgDocument.getElementById('ToolTipText');
	if( !tiptext )
	return;
	tiptext.firstChild.nodeValue = " " + strTooltip + "  " ;

	// show tooltip before, else some refresh issue

	var toolTip = svgDocument.getElementById('ToolTip');
	if(!toolTip)
	return;

	toolTip.setAttribute("visibility","visible");
	toolTip.setAttribute("opacity",".95");

	// move tooltip
	// get viewbox

	var root = svgDocument.documentElement;
	var vbox = (root.getAttribute("viewBox")).split(' ');
	var x0 = parseFloat(vbox[0]);
	var y0 = parseFloat(vbox[1]);
	var vboxW = parseFloat(vbox[2]);
	var vboxH = parseFloat(vbox[3]);

	// get default width of svg

	var strW = root.getAttribute("width");
	var svgW = parseFloat(strW);
	if(strW.indexOf('mm') != -1)
	svgW *= 3.779;

	var strH = root.getAttribute("height");
	var svgH = parseFloat(strH);
	if(strH.indexOf('mm') != -1)
	svgH *= 3.779;  	// 96 dpi  -> 96/25.4 = 3.779

	// update the viewbox / width / height if svg is embedded in html with zoom fit all
	var realx0 = x0;
	var realy0 = y0;
	var realvboxW = vboxW;
	var realvboxH = vboxH;
	var realsvgW = svgW;
	var realsvgH = svgH;

	if ((typeof(top) == "undefined") || (typeof(top.svgctl1) != "undefined")) // embedded in html
	{
		// get window size in pxl

		svgW = window.innerWidth;
		svgH = window.innerHeight;

		// calculate real viewbox

		realsvgW = svgW;
		realsvgH = svgH;
		if((svgW / svgH) > (vboxW / vboxH))
		{
			realvboxW = (vboxH * svgW) / svgH;
			realvboxH = vboxH;
			realx0 = x0 - (realvboxW - vboxW)/2 ;
		}
		else
		{
			realvboxH = (vboxW * svgH) / svgW;
			realvboxW = vboxW;
			realy0 = y0 - (realvboxH - vboxH)/2 ;
		}
	}

	// get user zoom/pan

	var newScale = root.currentScale;
	var translation = root.currentTranslate;

	// transform pxl to user unit

	var xPos = (((evt.clientX+10- translation.x)/newScale) * realvboxW)/realsvgW  + realx0 ;
	var yPos = (((evt.clientY+5- translation.y)/newScale) * realvboxH)/ realsvgH  + realy0 ;
	var scaleForWidth = ( (1 / newScale) * realvboxH) / realsvgH;

	// move tooltip

	toolTip.setAttribute("transform", "translate(" + xPos + "," + yPos + ")" );

	// resize tooltip

	var fontsize = 12;
	tiptext.setAttribute("font-size",fontsize*scaleForWidth);
	tiptext.setAttribute("y", fontsize*scaleForWidth);
	var tipBG = svgDocument.getElementById('ToolTipBG');
	var outline = tiptext.getBBox();
	if(tipBG)
	{
		tipBG.setAttribute("stroke-width", 1*scaleForWidth);
		tipBG.setAttribute("width", Number(outline.width) );
		tipBG.setAttribute("height", Number(outline.height) + fontsize*.5*scaleForWidth );
	}
	var ToolTipShadow = svgDocument.getElementById('ToolTipShadow');
	if(ToolTipShadow)
	{
		ToolTipShadow.setAttribute("width", Number(outline.width) );
		ToolTipShadow.setAttribute("height", Number(outline.height) + fontsize*.5*scaleForWidth );
		ToolTipShadow.setAttribute("x", 3*scaleForWidth);
		ToolTipShadow.setAttribute("y", 3*scaleForWidth);
	}
}
function ShowPaper()
{
  var svgDocument = getDocument();
  var paper = svgDocument.getElementById("paperID");
  if(paper)
  {
    paper.setAttribute("transform","scale(1)");
    paper.setAttribute("opacity","1");
    paper.setAttribute("visibility","visible");
  }
  var svg = svgDocument.getRootElement();
  if(svg)
  {
    svg.setAttribute("width","307.000mm");
    svg.setAttribute("height","220.000mm");
    svg.setAttribute("viewBox","-5.000000 -5.000000 307.000000 220.000000");
  }
}
]]></script><defs/><g><path style="fill:#000000;fill-opacity:0.098;fill-rule:evenodd" d="M133.11,42.94L155.80,29.73L156.14,29.74L156.05,35.93L139.28,45.76L137.93,45.75zM142.47,48.45L142.31,48.01L164.75,35.04L165.10,35.07L165.01,41.26L148.19,51.05L147.18,51.07zM124.49,47.80L132.00,43.45L132.34,43.46L132.34,49.74L130.03,51.08L128.97,51.08L124.49,48.52zM151.30,53.29L173.71,40.36L174.06,40.39L174.09,46.41L157.26,56.19L156.42,56.40L151.36,53.54zM133.45,53.13L141.61,48.54L141.58,54.78L138.94,56.38L138.23,56.41L133.44,53.55zM115.18,53.30L123.40,48.53L123.41,54.81L120.78,56.41L120.02,56.41L115.24,53.54zM160.61,58.45L183.21,45.43L183.30,51.70L166.44,61.44L165.09,61.43L160.61,58.87zM142.31,58.58L150.57,53.86L150.54,60.10L148.05,61.56L147.47,61.73zM124.11,58.58L132.37,53.86L132.34,60.10L130.10,61.51L129.26,61.73zM105.95,58.62L114.08,53.81L114.42,53.82L114.33,60.01L111.53,61.73L111.09,61.69zM169.48,63.91L170.99,62.91L191.92,50.73L192.26,50.74L192.17,56.93L175.39,66.76L174.34,66.76zM151.56,63.68L159.41,59.15L159.50,65.42L157.18,66.76L156.13,66.76L151.64,64.19zM133.52,64.12L133.35,63.69L141.24,59.12L141.58,59.15L141.61,65.17L138.98,66.76L137.97,66.73zM115.31,64.13L115.15,63.69L123.03,59.12L123.38,59.15L123.30,65.33L121.03,66.73L120.02,66.76zM97.33,63.48L104.84,59.13L105.18,59.14L105.18,65.42L102.87,66.76L101.82,66.76L97.33,64.20zM178.46,68.98L200.87,56.04L201.22,56.07L201.14,62.26L184.30,72.06L183.59,72.09L178.52,69.22zM160.61,68.81L168.77,64.22L168.77,70.49L166.14,72.09L165.39,72.08L160.60,69.23zM142.34,68.98L150.56,64.21L150.57,70.49L147.93,72.08L147.18,72.09L142.40,69.22zM124.14,68.97L132.00,64.44L132.34,64.47L132.37,70.49L129.73,72.09L129.02,72.06L124.20,69.22zM88.03,68.98L96.25,64.22L96.25,70.49L93.62,72.09L92.86,72.09L88.08,69.23zM106.36,69.45L106.16,68.98L114.45,64.22L114.42,70.46L111.78,72.06L111.07,72.09zM187.77,74.13L210.37,61.11L210.46,67.38L193.59,77.11L192.25,77.11L187.77,74.55zM169.47,74.26L177.73,69.54L177.70,75.78L175.21,77.24L174.63,77.41zM151.31,74.30L159.53,69.54L159.53,75.81L157.26,77.19L156.42,77.41zM133.10,74.29L141.24,69.49L141.58,69.50L141.58,75.78L138.69,77.41L138.25,77.37zM115.25,74.13L123.41,69.54L123.38,75.78L120.89,77.24L120.31,77.41L115.25,74.55zM96.95,74.26L105.21,69.54L105.18,75.78L102.94,77.19L102.10,77.40zM78.79,74.30L87.00,69.53L87.01,75.81L84.74,77.20L83.90,77.41zM196.63,79.58L219.08,66.41L219.42,66.42L219.42,72.70L202.55,82.44L201.50,82.44zM178.71,79.36L186.69,74.86L186.66,81.10L184.34,82.44L183.29,82.44L178.80,79.87zM160.68,79.80L160.51,79.37L168.39,74.80L168.74,74.83L168.77,80.85L166.40,82.40L165.12,82.40zM142.32,79.59L143.83,78.59L150.20,74.81L150.54,74.82L150.56,80.84L148.23,82.44L147.18,82.44zM124.40,79.36L132.25,74.83L132.34,81.10L130.02,82.43L128.98,82.43L124.48,79.87zM106.36,79.80L106.19,79.37L114.08,74.80L114.42,74.83L114.45,80.85L111.82,82.44L110.77,82.44zM88.15,79.81L87.99,79.37L95.87,74.80L96.22,74.83L96.14,81.02L93.88,82.40L92.60,82.40zM69.80,79.59L71.31,78.59L77.68,74.81L78.02,74.82L78.02,81.10L75.71,82.44L74.66,82.44zM187.71,84.66L195.92,79.89L195.93,86.17L193.29,87.76L192.54,87.77L187.76,84.91zM169.49,84.66L177.36,80.12L177.70,80.15L177.73,86.17L175.09,87.77L174.38,87.74L169.56,84.90zM151.30,84.66L159.15,80.12L159.50,80.15L159.52,86.16L157.14,87.74L156.43,87.77L151.36,84.90zM115.19,84.66L123.40,79.89L123.41,86.17L120.77,87.76L120.02,87.77L115.24,84.91zM96.97,84.66L104.84,80.12L105.18,80.15L105.21,86.17L102.57,87.77L101.86,87.74L97.04,84.90zM78.78,84.66L86.63,80.12L86.98,80.15L87.00,86.16L84.62,87.74L83.91,87.77L78.84,84.90zM60.93,84.49L69.09,79.90L69.09,86.17L66.46,87.77L65.71,87.76L60.92,84.91zM206.04,85.13L205.84,84.66L228.69,71.50L228.66,77.74L211.50,87.77L210.75,87.76zM133.52,85.13L133.32,84.66L141.61,79.90L141.61,86.17L138.98,87.77L138.23,87.76zM214.93,89.81L237.65,76.82L237.62,83.06L220.57,92.92L219.99,93.09L214.93,90.23zM196.63,89.94L204.89,85.22L204.89,91.49L202.62,92.87L201.78,93.08zM178.47,89.98L186.68,85.21L186.69,91.49L184.42,92.88L183.58,93.09zM160.26,89.97L168.65,85.19L168.74,91.46L165.85,93.09L165.41,93.05zM142.41,89.81L150.57,85.22L150.54,91.46L148.05,92.92L147.47,93.09L142.41,90.23zM124.11,89.94L132.37,85.22L132.37,91.49L130.10,92.87L129.26,93.09zM105.95,89.98L114.08,85.17L114.42,85.18L114.42,91.46L111.53,93.09L111.09,93.05zM87.74,89.97L96.25,85.22L96.22,91.46L93.91,92.79L92.57,92.79zM69.89,89.81L78.05,85.22L78.02,91.46L75.53,92.92L74.95,93.09L69.89,90.23zM51.63,89.98L59.84,85.21L59.85,91.49L57.58,92.87L56.74,93.09zM224.08,95.04L246.49,82.11L246.58,88.38L229.70,98.11L228.66,98.11L224.16,95.55zM205.87,95.04L213.76,90.48L214.10,90.51L214.13,96.53L211.50,98.12L210.45,98.12L205.96,95.55zM187.83,95.49L187.67,95.05L195.55,90.48L195.90,90.51L195.82,96.70L193.56,98.08L192.28,98.08zM169.48,95.27L170.99,94.27L177.36,90.49L177.70,90.50L177.70,96.78L175.39,98.12L174.34,98.12zM151.56,95.04L159.53,90.54L159.50,96.78L157.18,98.11L156.14,98.11L151.64,95.55zM133.52,95.48L133.35,95.05L141.23,90.48L141.58,90.51L141.61,96.53L138.98,98.12L137.93,98.12zM115.16,95.27L117.50,93.70L123.04,90.49L123.38,90.50L123.30,96.70L121.04,98.08L119.76,98.08zM96.95,95.26L105.09,90.51L105.18,96.78L102.87,98.12L101.82,98.12zM79.03,95.04L87.01,90.54L86.98,96.78L84.66,98.12L83.61,98.12L79.12,95.55zM61.00,95.48L60.83,95.05L68.71,90.48L69.06,90.51L69.09,96.53L66.72,98.08L65.44,98.08zM42.64,95.27L44.15,94.27L50.52,90.49L50.86,90.50L50.88,96.52L48.55,98.12L47.50,98.12zM214.87,100.34L223.08,95.57L223.09,101.85L220.45,103.44L219.70,103.45L214.92,100.59zM196.65,100.34L204.51,95.80L204.86,95.83L204.89,101.85L202.25,103.45L201.54,103.42L196.72,100.58zM142.33,100.34L150.20,95.80L150.54,95.83L150.57,101.85L147.93,103.44L147.18,103.45L142.40,100.58zM124.14,100.34L131.99,95.80L132.34,95.83L132.37,101.85L129.99,103.41L129.01,103.41L124.20,100.58zM88.03,100.34L96.24,95.57L96.25,101.85L93.61,103.44L92.87,103.44L88.08,100.59zM69.81,100.34L77.68,95.80L78.02,95.83L78.05,101.85L75.41,103.44L74.66,103.45L69.88,100.58zM51.62,100.34L59.47,95.80L59.82,95.83L59.74,102.02L57.47,103.41L56.49,103.41L51.68,100.58zM233.20,100.81L233.00,100.34L255.85,87.18L255.85,93.45L238.66,103.45L237.91,103.44zM178.87,100.81L178.68,100.34L186.32,95.81L186.66,95.82L186.68,101.84L184.30,103.42L183.59,103.45zM160.67,100.81L160.51,100.37L168.76,95.57L168.77,101.85L166.14,103.45L165.39,103.44zM106.36,100.81L106.16,100.34L114.45,95.58L114.42,101.82L111.82,103.45L111.07,103.44zM242.09,105.49L264.81,92.50L264.78,98.74L247.73,108.60L247.15,108.77L242.09,105.91zM223.83,105.66L232.04,100.89L232.05,107.17L229.78,108.55L228.94,108.76zM205.62,105.65L214.01,100.87L214.10,107.14L211.58,108.56L210.74,108.77zM187.42,105.65L195.93,100.90L195.90,107.14L193.26,108.74L192.58,108.74zM169.57,105.49L177.73,100.90L177.70,107.14L175.46,108.55L174.62,108.76L169.57,105.91zM151.31,105.66L159.52,100.89L159.53,107.17L157.26,108.56L156.42,108.77zM133.10,105.65L141.49,100.87L141.58,107.14L138.69,108.77L138.25,108.73zM114.90,105.65L123.41,100.90L123.38,107.14L120.89,108.60L120.31,108.77zM97.05,105.49L105.21,100.90L105.21,107.17L102.94,108.55L102.10,108.76L97.05,105.91zM78.79,105.66L87.00,100.89L87.01,107.17L84.74,108.56L83.90,108.77zM60.58,105.65L69.09,100.90L69.06,107.14L66.17,108.77L65.73,108.73zM251.23,110.72L273.77,97.82L273.74,104.06L256.86,113.79L255.82,113.79L251.32,111.23zM233.20,111.16L233.03,110.73L240.91,106.16L241.26,106.19L241.29,112.21L238.92,113.76L237.60,113.79zM214.84,110.95L216.35,109.95L222.72,106.17L223.06,106.18L223.08,112.20L220.76,113.79L219.44,113.76zM196.63,110.94L204.77,106.19L204.86,112.46L202.54,113.79L201.50,113.80zM178.71,110.72L186.69,106.22L186.66,112.46L184.34,113.80L183.30,113.79L178.80,111.23zM160.68,111.16L160.51,110.73L168.39,106.16L168.74,106.19L168.65,112.38L166.40,113.76L165.08,113.79zM142.32,110.95L143.83,109.95L150.20,106.17L150.54,106.18L150.54,112.46L148.24,113.79L146.92,113.76zM124.11,110.94L132.37,106.22L132.34,112.46L130.02,113.79L128.98,113.79zM106.19,110.72L114.07,106.16L114.42,106.19L114.45,112.21L111.82,113.80L110.77,113.80L106.28,111.23zM88.00,110.95L90.34,109.38L95.88,106.17L96.22,106.18L96.14,112.38L93.88,113.76L92.60,113.76zM69.79,110.94L77.93,106.19L78.02,112.46L75.71,113.80L74.66,113.80zM41.93,101.85L19.79,114.70L18.86,115.01L18.94,108.82L41.93,95.58zM242.02,116.01L249.88,111.48L250.22,111.51L250.25,117.53L247.61,119.12L246.86,119.13L242.08,116.27zM223.82,116.02L231.67,111.48L232.02,111.51L231.93,117.70L229.67,119.09L228.69,119.09L223.88,116.26zM187.71,116.02L195.92,111.25L195.93,117.53L193.29,119.12L192.55,119.12L187.76,116.27zM169.49,116.02L177.35,111.48L177.70,111.51L177.73,117.53L175.09,119.12L174.34,119.13L169.56,116.26zM115.18,116.01L123.04,111.48L123.38,111.51L123.41,117.53L120.77,119.12L120.03,119.12L115.24,116.27zM96.98,116.02L104.83,111.48L105.18,111.51L105.21,117.53L102.83,119.09L101.81,119.12L97.04,116.26zM206.03,116.49L205.84,116.02L214.13,111.26L214.13,117.53L211.50,119.13L210.75,119.12zM151.71,116.49L151.52,116.02L159.16,111.49L159.50,111.50L159.42,117.70L157.15,119.09L156.17,119.09zM133.51,116.49L133.35,116.05L141.60,111.25L141.61,117.53L138.98,119.13L138.23,119.12zM79.19,116.49L79.00,116.02L86.64,111.49L86.98,111.50L87.00,117.52L84.67,119.12L83.65,119.09zM50.86,107.14L28.18,120.33L28.19,113.87L50.89,100.90zM232.78,121.33L241.29,116.58L241.26,122.82L238.37,124.45L237.93,124.41zM214.93,121.17L223.09,116.58L223.06,122.82L220.57,124.28L219.99,124.45L214.93,121.59zM196.66,121.34L204.88,116.57L204.89,122.85L202.62,124.23L201.78,124.44L196.72,121.58zM178.46,121.33L186.32,116.80L186.66,116.83L186.69,122.85L184.42,124.24L183.58,124.45zM160.26,121.33L168.77,116.58L168.74,122.82L166.10,124.42L165.42,124.42zM142.41,121.17L150.57,116.58L150.54,122.82L148.30,124.23L147.46,124.44L142.41,121.59zM124.15,121.34L132.36,116.57L132.37,122.85L130.10,124.24L129.27,124.44zM105.94,121.33L114.33,116.55L114.42,122.82L111.90,124.23L111.06,124.45zM87.74,121.33L96.25,116.58L96.22,122.82L93.58,124.42L92.90,124.42zM260.28,122.87L259.96,122.87L259.96,116.53L260.28,116.53zM59.82,112.46L38.18,124.98L37.06,125.37L37.15,119.19L59.85,106.22zM223.79,126.62L232.05,121.90L232.02,128.14L229.38,129.74L228.98,129.74zM205.88,126.40L213.75,121.84L214.10,121.87L214.13,127.89L211.76,129.44L210.45,129.47L205.96,126.91zM187.68,126.63L189.19,125.63L195.56,121.85L195.90,121.86L195.92,127.88L193.60,129.47L192.28,129.44zM169.47,126.62L177.61,121.87L177.70,128.14L175.38,129.47L174.34,129.48zM151.27,126.62L159.53,121.90L159.50,128.14L157.18,129.48L156.14,129.47zM133.36,126.40L141.23,121.84L141.58,121.87L141.50,128.06L139.24,129.44L137.92,129.47L133.44,126.91zM115.16,126.63L116.67,125.63L123.04,121.85L123.38,121.86L123.38,128.14L121.08,129.47L119.76,129.44zM96.95,126.62L105.09,121.87L105.18,128.14L102.86,129.47L101.82,129.48zM251.04,128.19L250.72,128.19L250.72,121.85L251.04,121.85zM69.09,117.53L46.95,130.38L46.02,130.69L46.11,124.51L69.08,111.25zM214.86,131.69L222.72,127.16L223.06,127.19L223.09,133.21L220.45,134.80L219.71,134.80L214.92,131.95zM196.66,131.70L204.51,127.16L204.86,127.19L204.78,133.38L202.51,134.77L201.49,134.80L196.72,131.94zM142.34,131.69L150.20,127.16L150.54,127.19L150.57,133.21L147.93,134.80L147.19,134.80L142.40,131.95zM124.14,131.70L131.99,127.16L132.34,127.19L132.26,133.38L129.99,134.77L129.01,134.77L124.20,131.94zM178.87,132.17L178.68,131.70L186.32,127.17L186.66,127.18L186.66,133.46L184.35,134.80L183.33,134.77zM160.67,132.17L160.51,131.73L168.76,126.93L168.77,133.21L166.13,134.80L165.39,134.80zM106.35,132.17L106.19,131.73L114.45,126.94L114.45,133.21L111.82,134.81L111.07,134.80zM242.12,133.24L241.85,133.51L241.85,126.98L242.12,126.92zM78.05,122.85L55.35,136.01L55.35,129.55L78.05,116.58zM205.62,137.01L214.01,132.23L214.10,138.50L211.58,139.91L210.74,140.13zM187.42,137.01L195.93,132.26L195.90,138.50L193.26,140.10L192.58,140.10zM169.57,136.85L177.73,132.26L177.73,138.53L175.46,139.91L174.62,140.12L169.57,137.27zM151.31,137.02L159.52,132.25L159.53,138.53L157.26,139.92L156.43,140.12zM133.10,137.01L141.61,132.26L141.58,138.50L139.06,139.91L138.22,140.13zM115.25,136.85L123.41,132.26L123.38,138.50L120.78,140.13L120.06,140.09L115.25,137.27zM233.16,138.28L232.89,138.55L232.80,132.21L233.12,132.21zM86.98,128.14L64.30,141.33L64.31,134.87L87.01,121.90zM196.63,142.30L204.89,137.58L204.86,143.82L202.54,145.15L201.50,145.16zM178.43,142.30L186.69,137.58L186.66,143.82L184.60,145.12L183.29,145.15zM160.60,142.17L168.40,137.53L168.74,137.54L168.76,143.56L166.44,145.16L165.08,145.16L160.61,142.59zM142.31,142.30L150.45,137.55L150.54,143.82L148.23,145.15L146.92,145.12zM124.11,142.30L132.37,137.58L132.34,143.82L129.70,145.42L129.30,145.42zM223.88,143.87L223.56,143.87L223.56,137.53L223.88,137.53zM96.25,133.21L74.30,145.98L73.18,146.37L73.27,140.19L96.24,126.93zM169.50,147.37L177.35,142.84L177.70,142.87L177.62,149.06L175.35,150.45L174.33,150.48L169.56,147.63zM187.83,147.85L187.67,147.40L195.56,142.84L195.90,142.87L195.93,148.89L193.29,150.48L192.55,150.48zM151.72,147.84L151.52,147.38L159.16,142.85L159.50,142.86L159.50,149.14L157.19,150.48L156.17,150.45zM133.51,147.85L133.35,147.41L141.60,142.61L141.61,148.89L138.97,150.48L138.23,150.48zM214.96,148.92L214.69,149.19L214.69,142.66L214.96,142.60zM105.21,138.53L82.51,151.69L82.42,145.42L105.20,132.25zM178.46,152.69L186.32,148.16L186.66,148.19L186.69,154.21L184.42,155.59L183.59,155.80zM160.26,152.69L168.77,147.94L168.74,154.18L166.10,155.77L165.38,155.81zM142.41,152.53L150.57,147.94L150.57,154.21L147.94,155.81L147.22,155.78L142.41,152.95zM206.00,153.96L205.73,154.23L205.64,147.89L205.96,147.89zM114.34,143.74L91.47,157.01L91.47,150.55L114.07,137.52L114.42,137.55zM169.47,157.98L177.73,153.26L177.70,159.50L175.39,160.83L174.08,160.80zM151.27,157.98L159.53,153.26L159.50,159.50L156.86,161.10L156.46,161.10zM196.72,159.55L196.40,159.55L196.40,153.21L196.72,153.21zM123.41,148.89L100.42,162.33L100.43,155.87L123.04,142.84L123.38,142.87zM160.67,163.53L160.51,163.08L168.40,158.52L168.74,158.55L168.77,164.57L166.13,166.16L165.39,166.16zM187.80,164.60L187.53,164.87L187.53,158.34L187.80,158.28zM132.37,154.21L109.67,167.37L109.58,161.10L132.36,147.93zM141.50,159.42L118.63,172.69L118.54,166.42L141.24,153.21L141.58,153.22zM169.56,175.23L169.24,175.23L169.24,168.89L169.56,168.89zM150.57,164.57L128.30,177.62L127.78,177.74L127.78,171.46L150.19,158.52L150.54,158.55zM159.53,169.89L136.83,183.05L136.74,176.78L159.16,163.84L159.50,163.87z"/><g id="Actor_.0"><g style="stroke:#000000;stroke-width:0.176"><path d="M45.96,130.90L45.96,124.56L45.42,124.24"/><path d="M45.96,124.56L183.27,45.31"/><path d="M69.03,116.95L69.03,114.41"/><path d="M78.09,111.72L78.09,109.18"/><path d="M87.16,106.49L87.16,103.95"/><path d="M96.22,101.26L96.22,98.72"/><path d="M105.28,96.03L105.28,93.49"/><path d="M123.41,85.57L123.41,83.03"/><path d="M132.47,80.34L132.47,77.80"/><path d="M150.59,69.88L150.59,67.34"/><path d="M159.65,64.65L159.65,62.11"/></g><g style="stroke:#000000;stroke-width:0.529"><path d="M165.70,61.80L183.27,51.65L183.27,45.31L182.71,45.00L45.42,124.24L45.42,130.58L45.96,130.90L69.03,117.59L69.03,116.95"/><path d="M78.09,111.72L78.09,112.36L75.08,114.10"/><path d="M87.16,106.49L87.16,107.13L84.14,108.87"/><path d="M96.22,101.26L96.22,101.90L93.20,103.64"/><path d="M105.28,96.03L105.28,96.67L102.26,98.41"/><path d="M111.33,93.18L114.34,91.44L114.34,88.26"/><path d="M123.41,85.57L123.41,86.20L120.39,87.95"/><path d="M129.45,82.72L132.47,80.97L132.47,80.34"/><path d="M141.53,72.57L141.53,75.74L138.51,77.49"/><path d="M147.57,72.26L150.59,70.51L150.59,69.88"/><path d="M159.65,64.65L159.65,65.28L156.64,67.03"/></g></g><g id="Actor_.1"><g style="stroke:#000000;stroke-width:0.176"><path d="M63.54,134.70L64.09,135.02L64.09,141.36"/><path d="M64.09,135.02L201.39,55.77"/><path d="M87.16,127.41L87.16,124.88"/><path d="M96.22,122.18L96.22,119.65"/><path d="M105.28,116.95L105.28,114.41"/><path d="M114.34,111.72L114.34,109.18"/><path d="M123.40,106.49L123.40,103.95"/><path d="M141.53,96.03L141.53,93.49"/><path d="M150.59,88.26L150.59,90.80"/><path d="M168.72,80.34L168.72,77.80"/><path d="M177.78,75.11L177.78,72.57"/></g><g style="stroke:#000000;stroke-width:0.529"><path d="M183.82,72.26L201.39,62.11L201.39,55.77L200.85,55.45L63.54,134.70L63.54,141.04L64.09,141.36L87.16,128.05L87.16,127.41"/><path d="M93.20,124.56L96.22,122.82L96.22,122.18"/><path d="M105.28,116.95L105.28,117.59L102.26,119.33"/><path d="M111.33,114.10L114.34,112.36L114.34,111.72"/><path d="M123.40,106.49L123.40,107.13L120.39,108.87"/><path d="M129.45,103.64L132.47,101.90L132.47,98.72"/><path d="M141.53,96.03L141.53,96.66L138.51,98.41"/><path d="M150.59,90.80L150.59,91.44L147.57,93.18"/><path d="M159.65,83.03L159.65,86.21L156.64,87.95"/><path d="M165.70,82.72L168.72,80.97L168.72,80.34"/><path d="M177.78,75.11L177.78,75.74L174.76,77.49"/></g></g><g id="Actor_.2"><g style="stroke:#000000;stroke-width:0.176"><path d="M72.60,139.93L73.15,140.25L73.15,146.59"/><path d="M73.15,140.25L210.46,61.00"/><path d="M96.22,132.64L96.22,130.11"/><path d="M105.28,127.41L105.28,124.88"/><path d="M114.34,122.18L114.34,119.64"/><path d="M123.41,116.95L123.41,114.41"/><path d="M132.47,111.72L132.47,109.18"/><path d="M150.59,101.26L150.59,98.72"/><path d="M159.65,93.49L159.65,96.03"/><path d="M177.78,85.57L177.78,83.03"/><path d="M186.84,80.34L186.84,77.80"/></g><g style="stroke:#000000;stroke-width:0.529"><path d="M96.22,132.64L96.22,133.28L73.15,146.59L72.60,146.27L72.60,139.93L209.91,60.68L210.46,61.00L210.46,67.34L192.88,77.49"/><path d="M105.28,127.41L105.28,128.05L102.26,129.79"/><path d="M111.33,124.56L114.34,122.82L114.34,122.18"/><path d="M123.41,116.95L123.41,117.59L120.39,119.33"/><path d="M132.47,111.72L132.47,112.36L129.45,114.10"/><path d="M141.53,103.95L141.53,107.13L138.51,108.87"/><path d="M147.57,103.64L150.59,101.90L150.59,101.26"/><path d="M159.65,96.03L159.65,96.67L156.64,98.41"/><path d="M165.70,93.18L168.72,91.44L168.72,88.26"/><path d="M177.78,85.57L177.78,86.20L174.76,87.95"/><path d="M186.84,80.34L186.84,80.97L183.82,82.72"/></g></g><g id="Actor_.3"><g style="stroke:#000000;stroke-width:0.176"><path d="M81.66,145.16L82.21,145.48L82.21,151.82"/><path d="M82.21,145.48L219.52,66.23"/><path d="M105.28,137.87L105.28,135.34"/><path d="M114.34,132.64L114.34,130.11"/><path d="M123.41,127.41L123.41,124.87"/><path d="M132.47,122.18L132.47,119.64"/><path d="M141.53,116.95L141.53,114.41"/><path d="M159.65,106.49L159.65,103.95"/><path d="M168.72,101.26L168.72,98.72"/><path d="M186.84,90.80L186.84,88.26"/><path d="M195.90,85.57L195.90,83.03"/></g><g style="stroke:#000000;stroke-width:0.529"><path d="M201.95,82.72L219.52,72.57L219.52,66.23L218.97,65.91L81.66,145.16L81.66,151.50L82.21,151.82L105.28,138.51L105.28,137.87"/><path d="M114.34,132.64L114.34,133.28L111.33,135.02"/><path d="M123.41,127.41L123.41,128.05L120.39,129.79"/><path d="M129.45,124.56L132.47,122.82L132.47,122.18"/><path d="M141.53,116.95L141.53,117.59L138.51,119.33"/><path d="M150.59,109.18L150.59,112.36L147.57,114.10"/><path d="M156.64,108.87L159.65,107.13L159.65,106.49"/><path d="M168.72,101.26L168.72,101.90L165.70,103.64"/><path d="M177.78,93.49L177.78,96.67L174.76,98.41"/><path d="M186.84,90.80L186.84,91.43L183.82,93.18"/><path d="M195.90,85.57L195.90,86.20L192.88,87.95"/></g></g><g id="Actor_.4"><g style="stroke:#000000;stroke-width:0.176"><path d="M90.73,150.39L91.28,150.71L91.28,157.05"/><path d="M91.28,150.71L228.58,71.46"/><path d="M114.34,143.10L114.34,140.57"/><path d="M123.40,137.87L123.40,135.34"/><path d="M132.47,132.64L132.47,130.11"/><path d="M141.53,127.41L141.53,124.88"/><path d="M150.59,122.18L150.59,119.64"/><path d="M168.72,111.72L168.72,109.18"/><path d="M177.78,106.49L177.78,103.95"/><path d="M195.90,96.03L195.90,93.49"/><path d="M204.96,90.80L204.96,88.26"/></g><g style="stroke:#000000;stroke-width:0.529"><path d="M211.01,87.95L228.58,77.80L228.58,71.46L228.03,71.14L90.73,150.39L90.73,156.73L91.28,157.05L114.34,143.74L114.34,143.10"/><path d="M123.40,137.87L123.40,138.51L120.39,140.25"/><path d="M129.45,135.02L132.47,133.28L132.47,132.64"/><path d="M138.51,129.79L141.53,128.05L141.53,127.41"/><path d="M150.59,122.18L150.59,122.82L147.57,124.56"/><path d="M159.65,114.42L159.65,117.59L156.64,119.33"/><path d="M165.70,114.10L168.72,112.36L168.72,111.72"/><path d="M177.78,106.49L177.78,107.13L174.76,108.87"/><path d="M186.84,98.72L186.84,101.90L183.82,103.64"/><path d="M195.90,96.03L195.90,96.66L192.88,98.41"/><path d="M204.96,90.80L204.96,91.44L201.95,93.18"/></g></g><g id="Actor_.5"><g style="stroke:#000000;stroke-width:0.176"><path d="M100.34,162.28L100.34,155.94L99.79,155.62"/><path d="M100.34,155.94L237.64,76.69"/><path d="M123.41,148.33L123.41,145.80"/><path d="M132.47,143.10L132.47,140.57"/><path d="M141.53,137.87L141.53,135.34"/><path d="M150.59,132.64L150.59,130.11"/><path d="M159.65,127.41L159.65,124.88"/><path d="M177.78,116.95L177.78,114.41"/><path d="M186.84,111.72L186.84,109.18"/><path d="M204.97,101.26L204.97,98.72"/><path d="M214.03,96.03L214.03,93.49"/></g><g style="stroke:#000000;stroke-width:0.529"><path d="M220.07,93.18L237.64,83.04L237.64,76.69L237.09,76.38L99.79,155.62L99.79,161.96L100.34,162.28L123.41,148.97L123.41,148.33"/><path d="M129.45,145.48L132.47,143.74L132.47,143.10"/><path d="M141.53,137.87L141.53,138.51L138.51,140.25"/><path d="M150.59,132.64L150.59,133.28L147.57,135.02"/><path d="M156.64,129.79L159.65,128.05L159.65,127.41"/><path d="M165.70,124.56L168.72,122.82L168.72,119.65"/><path d="M174.76,119.33L177.78,117.59L177.78,116.95"/><path d="M186.84,111.72L186.84,112.36L183.82,114.10"/><path d="M195.90,103.95L195.90,107.13L192.88,108.87"/><path d="M204.97,101.26L204.97,101.90L201.95,103.64"/><path d="M211.01,98.41L214.03,96.67L214.03,96.03"/></g></g><g id="Actor_.6"><g style="stroke:#000000;stroke-width:0.176"><path d="M108.85,160.85L109.40,161.17L109.40,167.51"/><path d="M109.40,161.17L246.70,81.92"/><path d="M132.47,153.56L132.47,151.03"/><path d="M141.53,148.33L141.53,145.80"/><path d="M150.59,143.10L150.59,140.56"/><path d="M159.65,137.87L159.65,135.34"/><path d="M168.72,132.64L168.72,130.11"/><path d="M186.84,122.18L186.84,119.64"/><path d="M195.90,114.41L195.90,116.95"/><path d="M214.03,103.95L214.03,106.49"/><path d="M223.09,101.26L223.09,98.72"/></g><g style="stroke:#000000;stroke-width:0.529"><path d="M132.47,153.56L132.47,154.20L109.75,167.31L109.40,167.51L108.85,167.19L108.85,160.85L246.16,81.61L246.71,81.92L246.71,88.27L229.13,98.41"/><path d="M141.53,148.33L141.53,148.97L138.51,150.71"/><path d="M150.59,143.10L150.59,143.74L147.57,145.48"/><path d="M156.64,140.25L159.65,138.51L159.65,137.87"/><path d="M168.72,132.64L168.72,133.28L165.70,135.02"/><path d="M174.76,129.79L177.78,128.05L177.78,124.88"/><path d="M183.82,124.56L186.84,122.82L186.84,122.18"/><path d="M192.88,119.33L195.90,117.59L195.90,116.95"/><path d="M204.96,109.18L204.96,112.36L201.95,114.10"/><path d="M211.01,108.87L214.03,107.13L214.03,106.49"/><path d="M223.09,101.26L223.09,101.90L220.07,103.64"/></g></g><g id="Actor_.7"><g style="stroke:#000000;stroke-width:0.176"><path d="M118.46,172.74L118.46,166.40L255.77,87.15"/><path d="M118.46,166.40L117.91,166.08"/><path d="M141.53,158.79L141.53,156.26"/><path d="M150.59,153.56L150.59,151.03"/><path d="M159.65,148.33L159.65,145.80"/><path d="M168.72,143.10L168.72,140.57"/><path d="M177.78,137.87L177.78,135.34"/><path d="M195.90,127.41L195.90,124.87"/><path d="M204.96,119.64L204.96,122.18"/><path d="M223.09,111.72L223.09,109.18"/><path d="M232.15,106.49L232.15,103.95"/></g><g style="stroke:#000000;stroke-width:0.529"><path d="M238.20,103.64L255.77,93.50L255.77,87.15L255.22,86.84L117.91,166.08L117.91,172.42L118.46,172.74L141.53,159.43L141.53,158.79"/><path d="M150.59,153.56L150.59,154.20L147.57,155.94"/><path d="M156.64,150.71L159.65,148.97L159.65,148.33"/><path d="M168.72,143.10L168.72,143.74L165.70,145.48"/><path d="M177.78,137.87L177.78,138.51L174.76,140.25"/><path d="M186.84,130.11L186.84,133.28L183.82,135.02"/><path d="M195.90,127.41L195.90,128.05L192.88,129.79"/><path d="M204.96,122.18L204.96,122.82L201.95,124.56"/><path d="M214.03,114.42L214.03,117.59L211.01,119.33"/><path d="M223.09,111.72L223.09,112.36L220.07,114.10"/><path d="M229.13,108.87L232.15,107.13L232.15,106.49"/></g></g><g id="Actor_.8"><g style="stroke:#000000;stroke-width:0.176"><path d="M264.83,92.38L127.52,171.63L127.52,177.97"/><path d="M127.52,171.63L126.97,171.31"/><path d="M150.59,164.02L150.59,161.49"/><path d="M159.65,158.79L159.65,156.26"/><path d="M168.72,153.56L168.72,151.03"/><path d="M177.78,148.33L177.78,145.80"/><path d="M186.84,143.10L186.84,140.57"/><path d="M204.97,132.64L204.97,130.11"/><path d="M214.03,124.88L214.03,127.41"/><path d="M232.15,116.95L232.15,114.41"/><path d="M241.21,111.72L241.21,109.18"/></g><g style="stroke:#000000;stroke-width:0.529"><path d="M150.59,164.02L150.59,164.66L127.52,177.97L126.97,177.65L126.97,171.31L264.28,92.07L264.83,92.38L264.83,98.73L247.26,108.87"/><path d="M156.64,161.17L159.65,159.43L159.65,158.79"/><path d="M165.70,155.94L168.72,154.20L168.72,153.56"/><path d="M177.78,148.33L177.78,148.97L174.76,150.71"/><path d="M186.84,143.10L186.84,143.74L183.82,145.48"/><path d="M192.88,140.25L195.90,138.51L195.90,135.34"/><path d="M204.97,132.64L204.97,133.28L201.95,135.02"/><path d="M211.01,129.79L214.03,128.05L214.03,127.41"/><path d="M223.09,119.65L223.09,122.82L220.07,124.56"/><path d="M232.15,116.95L232.15,117.59L229.13,119.33"/><path d="M238.20,114.10L241.21,112.36L241.21,111.72"/></g></g><g id="Actor_.9"><g style="stroke:#000000;stroke-width:0.176"><path d="M31.82,89.77L41.30,95.24L41.85,94.92"/><path d="M41.85,98.72L41.85,95.55L50.36,100.47L50.91,100.15"/><path d="M59.97,105.38L59.42,105.70L50.91,100.78L50.91,103.95"/><path d="M59.97,109.18L59.97,106.01L68.48,110.93L69.03,110.61"/><path d="M69.03,114.41L69.03,111.24L77.54,116.16L78.09,115.84"/><path d="M87.16,121.07L86.61,121.39L78.09,116.47L78.09,119.64"/><path d="M87.16,124.24L87.16,124.88"/><path d="M87.16,121.70L95.67,126.62L96.22,126.30"/><path d="M96.22,130.11L96.22,126.93L104.73,131.85L105.27,131.54"/><path d="M105.28,135.34L105.28,132.16L113.79,137.08L114.34,136.76"/><path d="M114.34,139.93L114.34,140.57"/><path d="M123.41,141.99L122.86,142.31L114.34,137.39"/><path d="M132.47,147.22L131.92,147.54L123.41,142.62L123.41,145.80"/><path d="M132.47,151.03L132.47,147.85L140.98,152.77L141.53,152.45"/><path d="M141.53,156.26L141.53,153.09L150.04,158.00L150.59,157.68"/><path d="M150.59,161.49L150.59,158.32L159.10,163.23L159.65,162.91"/><path d="M159.65,166.72L159.65,163.55L169.13,169.01L169.13,175.36"/><path d="M169.13,169.01L169.68,168.70"/></g><g style="stroke:#000000;stroke-width:0.529"><path d="M41.85,94.92L32.37,89.45L31.82,89.77L31.82,96.11L35.80,98.41"/><path d="M41.85,101.90L44.86,103.64"/><path d="M41.85,95.55L42.39,95.24L50.91,100.15"/><path d="M53.93,108.87L50.91,107.13"/><path d="M59.97,105.38L51.46,100.47L50.91,100.78"/><path d="M59.97,112.36L62.99,114.10"/><path d="M59.97,106.01L60.52,105.70L69.03,110.61"/><path d="M69.03,117.59L72.05,119.33"/><path d="M69.03,111.24L69.58,110.93L78.09,115.84"/><path d="M78.09,122.82L81.11,124.56"/><path d="M87.16,121.07L78.64,116.16L78.09,116.47"/><path d="M90.17,129.79L87.16,128.05"/><path d="M87.16,124.24L87.16,121.70L87.71,121.39L96.22,126.30"/><path d="M99.24,135.02L96.22,133.28"/><path d="M96.22,126.93L96.77,126.62L105.28,131.54"/><path d="M108.30,140.25L105.28,138.51"/><path d="M114.34,136.76L105.83,131.85L105.28,132.16"/><path d="M114.34,143.74L117.36,145.48"/><path d="M123.41,141.99L114.89,137.08L114.34,137.39L114.34,139.93"/><path d="M126.42,150.71L123.41,148.97"/><path d="M123.41,142.62L123.95,142.31L132.47,147.22"/><path d="M135.49,155.94L132.47,154.20"/><path d="M141.53,152.45L133.02,147.54L132.47,147.85"/><path d="M144.55,161.17L141.53,159.43"/><path d="M150.59,157.68L142.08,152.77L141.53,153.08"/><path d="M150.59,164.66L153.61,166.40"/><path d="M150.59,158.31L151.14,158.00L159.65,162.91"/><path d="M159.65,163.54L160.20,163.23L169.68,168.70L169.68,175.04L169.13,175.36L159.65,169.89"/></g></g><g id="Actor_.10"><g style="stroke:#000000;stroke-width:0.176"><path d="M18.23,108.55L18.78,108.87L18.78,115.21"/><path d="M156.08,29.62L18.78,108.87"/><path d="M41.85,101.26L41.85,98.72"/><path d="M50.91,96.03L50.91,93.49"/><path d="M59.97,90.80L59.97,88.26"/><path d="M69.03,85.57L69.03,83.03"/><path d="M78.09,80.34L78.09,77.80"/><path d="M96.22,69.88L96.22,67.34"/><path d="M105.28,62.11L105.28,64.65"/><path d="M123.41,54.19L123.41,51.65"/><path d="M132.47,48.96L132.47,46.42"/></g><g style="stroke:#000000;stroke-width:0.529"><path d="M138.51,46.10L156.08,35.96L156.08,29.62L155.53,29.30L18.23,108.55L18.23,114.89L18.78,115.21L19.57,114.75L41.85,101.90L41.85,101.26"/><path d="M50.91,96.03L50.91,96.67L47.89,98.41"/><path d="M59.97,90.80L59.97,91.43L56.95,93.18"/><path d="M69.03,85.57L69.03,86.20L66.01,87.95"/><path d="M78.09,80.34L78.09,80.97L75.08,82.72"/><path d="M87.16,72.57L87.16,75.74L84.14,77.49"/><path d="M96.22,69.88L96.22,70.51L93.20,72.26"/><path d="M102.26,67.03L105.28,65.28L105.28,64.65"/><path d="M114.34,56.88L114.34,60.05L111.33,61.80"/><path d="M123.41,54.19L123.41,54.82L120.39,56.57"/><path d="M132.47,48.96L132.47,49.59L129.45,51.34"/></g></g><g id="Actor_.11"><g style="stroke:#000000;stroke-width:0.176"><path d="M36.35,119.01L36.90,119.33L36.90,125.67"/><path d="M36.90,119.33L174.21,40.08"/><path d="M59.97,111.72L59.97,109.18"/><path d="M69.03,106.49L69.03,103.95"/><path d="M78.10,101.26L78.10,98.72"/><path d="M87.16,96.03L87.16,93.49"/><path d="M96.22,90.80L96.22,88.26"/><path d="M114.34,80.34L114.34,77.80"/><path d="M123.40,75.11L123.40,72.57"/><path d="M141.53,64.65L141.53,62.11"/><path d="M150.59,59.42L150.59,56.88"/></g><g style="stroke:#000000;stroke-width:0.529"><path d="M156.64,56.57L174.21,46.42L174.21,40.08L173.66,39.76L36.35,119.01L36.35,125.35L36.90,125.67L59.97,112.36L59.97,111.72"/><path d="M69.03,106.49L69.03,107.13L66.01,108.87"/><path d="M75.08,103.64L78.10,101.89L78.10,101.26"/><path d="M84.14,98.41L87.16,96.67L87.16,96.03"/><path d="M96.22,90.80L96.22,91.44L93.20,93.18"/><path d="M105.28,83.03L105.28,86.21L102.26,87.95"/><path d="M114.34,80.34L114.34,80.97L111.33,82.72"/><path d="M123.40,75.11L123.40,75.74L120.39,77.49"/><path d="M132.47,67.34L132.47,70.51L129.45,72.26"/><path d="M141.53,64.65L141.53,65.28L138.51,67.03"/><path d="M147.57,61.80L150.59,60.05L150.59,59.42"/></g></g><g id="Actor_.12"><g style="stroke:#000000;stroke-width:0.176"><path d="M54.48,129.47L55.03,129.79L55.03,136.13"/><path d="M55.03,129.79L192.33,50.54"/><path d="M78.09,122.18L78.09,119.64"/><path d="M87.16,116.95L87.16,114.41"/><path d="M96.22,111.72L96.22,109.18"/><path d="M105.28,106.49L105.28,103.95"/><path d="M114.34,101.26L114.34,98.72"/><path d="M132.47,90.80L132.47,88.26"/><path d="M141.53,85.57L141.53,83.03"/><path d="M159.65,75.11L159.65,72.57"/><path d="M168.72,69.88L168.72,67.34"/></g><g style="stroke:#000000;stroke-width:0.529"><path d="M174.76,67.03L192.33,56.88L192.33,50.54L191.78,50.22L54.48,129.47L54.48,135.81L55.03,136.13L55.26,136.00L78.09,122.82L78.09,122.18"/><path d="M84.14,119.33L87.16,117.59L87.16,116.95"/><path d="M96.22,111.72L96.22,112.36L93.20,114.10"/><path d="M105.28,106.49L105.28,107.13L102.26,108.87"/><path d="M114.34,101.26L114.34,101.90L111.33,103.64"/><path d="M123.40,93.49L123.40,96.67L120.39,98.41"/><path d="M129.45,93.18L132.47,91.43L132.47,90.80"/><path d="M138.51,87.95L141.53,86.20L141.53,85.57"/><path d="M150.59,77.80L150.59,80.98L147.57,82.72"/><path d="M156.64,77.49L159.65,75.74L159.65,75.11"/><path d="M168.72,69.88L168.72,70.51L165.70,72.26"/></g></g><g id="Actor_.13"><g style="stroke:#000000;stroke-width:0.176"><path d="M27.29,113.78L27.84,114.10L27.84,120.44"/><path d="M165.15,34.85L27.84,114.10"/><path d="M50.91,106.49L50.91,103.95"/><path d="M59.97,101.26L59.97,98.72"/><path d="M69.03,96.03L69.03,93.49"/><path d="M78.09,90.80L78.09,88.26"/><path d="M87.16,85.57L87.16,83.03"/><path d="M105.28,75.11L105.28,72.57"/><path d="M114.34,67.34L114.34,69.88"/><path d="M132.47,56.88L132.47,59.42"/><path d="M141.53,54.19L141.53,51.65"/></g><g style="stroke:#000000;stroke-width:0.529"><path d="M147.57,51.34L165.15,41.19L165.15,34.85L164.60,34.53L27.29,113.78L27.29,120.12L27.84,120.44L28.60,120.00L50.91,107.13L50.91,106.49"/><path d="M59.97,101.26L59.97,101.90L56.95,103.64"/><path d="M69.03,96.03L69.03,96.66L66.01,98.41"/><path d="M78.09,90.80L78.09,91.43L75.08,93.18"/><path d="M87.16,85.57L87.16,86.21L84.14,87.95"/><path d="M96.22,77.80L96.22,80.98L93.20,82.72"/><path d="M105.28,75.11L105.28,75.74L102.26,77.49"/><path d="M114.34,69.88L114.34,70.51L111.33,72.26"/><path d="M120.39,67.03L123.40,65.28L123.40,62.11"/><path d="M132.47,59.42L132.47,60.05L129.45,61.80"/><path d="M141.53,54.19L141.53,54.82L138.51,56.57"/></g></g><g id="Actor_.14"><g style="stroke:#000000;stroke-width:0.176"><path d="M123.41,47.85L122.86,48.16L113.38,42.70"/><path d="M132.47,53.08L131.92,53.39L123.41,48.48L123.40,51.65"/><path d="M132.47,56.88L132.47,53.71L140.98,58.62L141.53,58.31"/><path d="M141.53,62.11L141.53,58.94L150.04,63.85L150.59,63.54"/><path d="M150.59,67.34L150.59,64.17L159.10,69.08L159.65,68.77"/><path d="M159.65,72.57L159.65,69.40L168.17,74.32L168.71,74.00"/><path d="M168.72,77.80L168.72,77.17"/><path d="M168.72,74.63L177.23,79.55L177.78,79.23"/><path d="M186.84,84.46L186.29,84.78L177.78,79.86L177.78,83.03"/><path d="M195.90,89.69L195.34,90.00L186.84,85.09L186.84,88.26"/><path d="M195.90,93.49L195.90,92.86"/><path d="M195.90,90.32L204.42,95.24L204.97,94.92"/><path d="M204.97,98.72L204.97,95.55L213.48,100.47L214.03,100.15"/><path d="M214.04,103.95L214.03,100.78L222.54,105.70L223.09,105.38"/><path d="M223.09,109.18L223.09,106.01L231.60,110.93L232.15,110.61"/><path d="M241.21,115.84L240.66,116.16L232.15,111.24L232.15,114.41"/><path d="M241.21,119.64L241.21,116.47L250.69,121.94L250.69,128.28"/><path d="M250.69,121.94L251.24,121.62"/></g><g style="stroke:#000000;stroke-width:0.529"><path d="M123.41,47.85L113.93,42.38L113.39,42.69L113.38,49.04L117.36,51.34"/><path d="M126.42,56.57L123.41,54.82"/><path d="M123.41,48.48L123.95,48.16L132.47,53.08"/><path d="M135.49,61.80L132.47,60.05"/><path d="M141.53,58.31L133.02,53.39L132.47,53.71"/><path d="M144.55,67.03L141.53,65.28"/><path d="M141.53,58.94L142.08,58.62L150.59,63.54"/><path d="M150.59,70.51L153.61,72.26"/><path d="M150.59,64.17L151.14,63.85L159.65,68.77"/><path d="M159.65,75.74L162.67,77.49"/><path d="M168.71,74.00L160.20,69.08L159.65,69.40"/><path d="M171.73,82.72L168.72,80.97"/><path d="M177.78,79.23L169.27,74.32L168.72,74.63L168.72,77.17"/><path d="M177.78,86.20L180.80,87.95"/><path d="M177.78,79.86L178.33,79.54L186.84,84.46"/><path d="M189.86,93.18L186.84,91.44"/><path d="M195.90,89.69L187.39,84.77L186.84,85.09"/><path d="M198.92,98.41L195.90,96.67"/><path d="M195.90,92.86L195.90,90.32L196.45,90.01L204.97,94.92"/><path d="M207.98,103.64L204.96,101.90"/><path d="M214.03,100.15L205.51,95.24L204.97,95.55"/><path d="M214.03,107.13L217.04,108.87"/><path d="M214.03,100.78L214.58,100.47L223.09,105.38"/><path d="M226.11,114.10L223.09,112.36"/><path d="M232.15,110.61L223.64,105.70L223.09,106.01"/><path d="M232.15,117.59L235.17,119.33"/><path d="M241.21,115.84L232.70,110.93L232.15,111.24"/><path d="M241.21,116.47L241.76,116.16L251.24,121.62L251.24,127.97L250.69,128.28L241.21,122.82"/></g></g><g id="Actor_.15"><g style="stroke:#000000;stroke-width:0.176"><path d="M122.44,37.47L131.92,42.93L132.47,42.62"/><path d="M132.47,46.42L132.47,43.25L140.98,48.16L141.53,47.85"/><path d="M150.59,53.08L150.04,53.39L141.53,48.48L141.53,51.65"/><path d="M150.59,56.88L150.59,53.71L159.10,58.62L159.65,58.31"/><path d="M159.65,62.11L159.65,58.94L168.17,63.85L168.72,63.54"/><path d="M168.72,67.34L168.72,64.17L177.23,69.09L177.78,68.77"/><path d="M177.78,72.57L177.78,71.94"/><path d="M186.84,74.00L186.29,74.31L177.78,69.40"/><path d="M186.85,77.80L186.84,74.63L195.35,79.54L195.90,79.23"/><path d="M204.96,84.46L204.41,84.78L195.90,79.86L195.90,83.03"/><path d="M204.97,88.26L204.97,87.63"/><path d="M214.03,89.69L213.47,90.00L204.97,85.09"/><path d="M214.03,93.49L214.03,90.32L222.54,95.24L223.09,94.92"/><path d="M223.10,98.72L223.09,95.55L231.60,100.47L232.15,100.15"/><path d="M232.15,103.95L232.15,100.78L240.66,105.70L241.21,105.38"/><path d="M241.21,109.18L241.21,106.01L249.73,110.93L250.28,110.61"/><path d="M260.30,116.39L259.75,116.71L250.28,111.24L250.28,114.41"/><path d="M259.75,123.05L259.75,116.71"/></g><g style="stroke:#000000;stroke-width:0.529"><path d="M132.47,42.62L122.99,37.15L122.44,37.47L122.44,43.81L126.42,46.10"/><path d="M135.49,51.34L132.47,49.59"/><path d="M132.47,43.25L133.02,42.93L141.53,47.85"/><path d="M144.55,56.57L141.53,54.82"/><path d="M141.53,48.48L142.08,48.16L150.59,53.08"/><path d="M153.61,61.80L150.59,60.05"/><path d="M159.65,58.31L151.14,53.39L150.59,53.71"/><path d="M162.67,67.03L159.65,65.28"/><path d="M159.65,58.94L160.20,58.62L168.72,63.54"/><path d="M171.73,72.26L168.72,70.51"/><path d="M177.78,68.77L169.26,63.85L168.72,64.17"/><path d="M180.80,77.49L177.78,75.74"/><path d="M186.84,74.00L178.33,69.08L177.78,69.40L177.78,71.94"/><path d="M189.86,82.72L186.84,80.97"/><path d="M195.90,79.23L187.39,74.31L186.84,74.63"/><path d="M195.90,86.20L198.92,87.95"/><path d="M204.96,84.46L196.45,79.54L195.90,79.86"/><path d="M207.98,93.18L204.96,91.44"/><path d="M214.03,89.69L205.51,84.78L204.97,85.09L204.97,87.63"/><path d="M217.04,98.41L214.03,96.67"/><path d="M214.03,90.32L214.58,90.01L223.09,94.92"/><path d="M223.09,101.90L226.11,103.64"/><path d="M223.09,95.55L223.64,95.24L232.15,100.15"/><path d="M235.17,108.87L232.15,107.13"/><path d="M241.21,105.38L232.70,100.47L232.15,100.78"/><path d="M241.21,112.36L244.23,114.10"/><path d="M241.21,106.01L241.76,105.70L250.28,110.61"/><path d="M250.28,111.24L250.82,110.93L260.30,116.39L260.30,122.74L259.75,123.05L250.28,117.59"/></g></g><g id="Actor_.16"><g style="stroke:#000000;stroke-width:0.176"><path d="M136.04,176.54L136.59,176.86L136.59,183.20"/><path d="M136.59,176.86L273.89,97.61"/><path d="M159.65,169.25L159.65,166.72"/><path d="M168.72,164.02L168.72,161.49"/><path d="M177.78,158.79L177.78,156.26"/><path d="M186.84,153.56L186.84,151.03"/><path d="M195.90,148.33L195.90,145.80"/><path d="M214.03,137.87L214.03,135.34"/><path d="M223.09,130.11L223.09,132.64"/><path d="M241.21,119.64L241.21,122.18"/><path d="M250.28,116.95L250.28,114.41"/></g><g style="stroke:#000000;stroke-width:0.529"><path d="M256.32,114.10L273.89,103.96L273.89,97.61L273.34,97.30L136.04,176.54L136.04,182.88L136.59,183.20L159.65,169.89L159.65,169.25"/><path d="M168.72,164.02L168.72,164.66L165.70,166.40"/><path d="M177.78,158.79L177.78,159.43L174.76,161.17"/><path d="M183.82,155.94L186.84,154.20L186.84,153.56"/><path d="M195.90,148.33L195.90,148.97L192.88,150.71"/><path d="M201.95,145.48L204.96,143.74L204.96,140.57"/><path d="M211.01,140.25L214.03,138.51L214.03,137.87"/><path d="M223.09,132.64L223.09,133.28L220.07,135.02"/><path d="M232.15,124.88L232.15,128.05L229.13,129.79"/><path d="M241.21,122.18L241.21,122.82L238.20,124.56"/><path d="M250.28,116.95L250.28,117.59L247.26,119.33"/></g></g><g id="Actor_.17"><g style="stroke:#000000;stroke-width:0.176"><path d="M40.88,84.54L50.35,90.00L50.91,89.69"/><path d="M50.91,93.49L50.91,90.32L59.42,95.24L59.97,94.92"/><path d="M69.03,100.15L68.48,100.47L59.97,95.55L59.97,98.72"/><path d="M69.03,103.95L69.03,100.78L77.55,105.70L78.09,105.38"/><path d="M87.16,110.61L86.61,110.93L78.09,106.01L78.09,109.18"/><path d="M96.22,115.84L95.67,116.16L87.16,111.24L87.16,114.41"/><path d="M96.22,119.65L96.22,119.01"/><path d="M105.28,121.07L104.73,121.39L96.22,116.47"/><path d="M105.28,124.88L105.28,121.70L113.79,126.62L114.34,126.30"/><path d="M114.34,130.10L114.34,126.93L122.85,131.85L123.39,131.54"/><path d="M123.41,135.34L123.41,134.70"/><path d="M123.41,132.16L131.92,137.08L132.47,136.76"/><path d="M132.47,140.57L132.47,137.39L140.98,142.31L141.53,141.99"/><path d="M141.53,145.80L141.53,142.62L150.04,147.54L150.59,147.22"/><path d="M150.59,151.03L150.59,147.86L159.10,152.77L159.65,152.45"/><path d="M159.65,156.26L159.65,153.08L168.17,158.00L168.72,157.68"/><path d="M178.19,170.13L178.19,163.78L168.72,158.31L168.72,161.49"/><path d="M178.19,163.78L178.74,163.47"/></g><g style="stroke:#000000;stroke-width:0.529"><path d="M44.86,93.18L40.88,90.88L40.88,84.54L41.43,84.22L50.91,89.69"/><path d="M50.91,96.67L53.93,98.41"/><path d="M59.97,94.92L51.46,90.01L50.91,90.32"/><path d="M62.99,103.64L59.97,101.90"/><path d="M69.03,100.15L60.52,95.24L59.97,95.55"/><path d="M72.05,108.87L69.03,107.13"/><path d="M69.03,100.78L69.58,100.47L78.09,105.38"/><path d="M78.09,112.36L81.11,114.10"/><path d="M78.09,106.01L78.64,105.70L87.16,110.61"/><path d="M87.16,117.59L90.17,119.33"/><path d="M96.22,115.84L87.70,110.93L87.16,111.24"/><path d="M99.24,124.56L96.22,122.82"/><path d="M96.22,119.01L96.22,116.47L96.77,116.16L105.28,121.07"/><path d="M105.28,128.05L108.30,129.79"/><path d="M114.34,126.30L105.83,121.39L105.28,121.70"/><path d="M114.34,133.28L117.36,135.02"/><path d="M123.40,131.54L114.89,126.62L114.34,126.93"/><path d="M123.41,138.51L126.42,140.25"/><path d="M123.41,134.70L123.41,132.16L123.96,131.85L132.47,136.76"/><path d="M132.47,143.74L135.49,145.48"/><path d="M132.47,137.39L133.02,137.08L141.53,141.99"/><path d="M141.53,148.97L144.55,150.71"/><path d="M150.59,147.22L142.08,142.31L141.53,142.62"/><path d="M150.59,154.20L153.61,155.94"/><path d="M159.65,152.45L151.14,147.54L150.59,147.85"/><path d="M159.65,159.43L162.67,161.17"/><path d="M168.72,157.68L160.20,152.77L159.65,153.08"/><path d="M168.72,158.31L169.26,158.00L178.74,163.47L178.74,169.81L178.19,170.13L168.72,164.66"/></g></g><g id="Actor_.18"><g style="stroke:#000000;stroke-width:0.176"><path d="M49.95,79.31L59.42,84.78L59.97,84.46"/><path d="M69.03,89.69L68.47,90.00L59.97,85.09L59.97,88.26"/><path d="M78.10,94.92L77.55,95.24L69.03,90.32L69.03,93.49"/><path d="M78.09,98.72L78.10,95.55L86.61,100.47L87.16,100.15"/><path d="M87.16,103.95L87.16,100.78L95.67,105.70L96.22,105.38"/><path d="M96.22,109.18L96.22,106.01L104.73,110.93L105.28,110.61"/><path d="M105.28,114.42L105.28,113.78"/><path d="M105.28,111.24L113.79,116.16L114.34,115.84"/><path d="M123.40,121.07L122.86,121.39L114.34,116.47L114.34,119.64"/><path d="M132.47,126.30L131.92,126.62L123.40,121.70L123.40,124.87"/><path d="M132.47,129.47L132.47,130.11"/><path d="M141.52,131.54L140.98,131.85L132.47,126.93"/><path d="M141.53,135.34L141.53,132.16L150.04,137.08L150.59,136.76"/><path d="M150.59,140.57L150.59,137.39L159.10,142.31L159.65,141.99"/><path d="M159.65,145.80L159.65,142.62L168.17,147.54L168.72,147.22"/><path d="M168.72,151.03L168.72,147.85L177.23,152.77L177.78,152.45"/><path d="M177.78,156.26L177.78,153.08L187.25,158.55L187.25,164.90"/><path d="M187.25,158.55L187.80,158.24"/></g><g style="stroke:#000000;stroke-width:0.529"><path d="M53.93,87.95L49.95,85.65L49.95,79.31L50.50,78.99L59.97,84.46"/><path d="M59.97,91.44L62.99,93.18"/><path d="M59.97,85.09L60.52,84.78L69.03,89.69"/><path d="M69.03,96.67L72.05,98.41"/><path d="M69.03,90.32L69.58,90.00L78.10,94.92"/><path d="M78.09,101.90L81.11,103.64"/><path d="M78.10,95.55L78.64,95.24L87.16,100.15"/><path d="M90.17,108.87L87.16,107.13"/><path d="M96.22,105.38L87.71,100.47L87.16,100.78"/><path d="M96.22,112.36L99.24,114.10"/><path d="M105.28,110.61L96.77,105.70L96.22,106.01"/><path d="M105.28,117.59L108.30,119.33"/><path d="M114.34,115.84L105.83,110.93L105.28,111.24L105.28,113.78"/><path d="M114.34,122.82L117.36,124.56"/><path d="M123.40,121.07L114.89,116.16L114.34,116.47"/><path d="M126.42,129.79L123.41,128.05"/><path d="M132.47,126.30L123.95,121.39L123.40,121.70"/><path d="M135.49,135.02L132.47,133.28"/><path d="M132.47,129.47L132.47,126.93L133.02,126.62L141.53,131.54"/><path d="M144.55,140.25L141.53,138.51"/><path d="M141.53,132.16L142.08,131.85L150.59,136.76"/><path d="M153.61,145.48L150.59,143.74"/><path d="M150.59,137.39L151.14,137.08L159.65,141.99"/><path d="M162.67,150.71L159.65,148.97"/><path d="M168.72,147.22L160.20,142.31L159.65,142.62"/><path d="M168.72,154.20L171.73,155.94"/><path d="M168.72,147.85L169.27,147.54L177.78,152.45"/><path d="M177.78,159.43L187.25,164.90L187.80,164.58L187.80,158.24L178.33,152.77L177.78,153.08"/></g></g><g id="Actor_.19"><g style="stroke:#000000;stroke-width:0.176"><path d="M59.01,74.08L68.48,79.54L69.03,79.23"/><path d="M69.03,83.03L69.03,79.86L77.54,84.78L78.09,84.46"/><path d="M87.16,89.69L86.60,90.00L78.09,85.09L78.09,88.26"/><path d="M96.22,94.92L95.67,95.24L87.16,90.32L87.16,93.49"/><path d="M96.22,98.72L96.22,95.55L104.73,100.47L105.28,100.15"/><path d="M105.28,103.95L105.28,100.78L113.79,105.70L114.34,105.38"/><path d="M114.34,108.55L114.34,109.18"/><path d="M123.41,110.61L122.86,110.93L114.34,106.01"/><path d="M132.47,115.84L131.92,116.16L123.41,111.24L123.41,114.41"/><path d="M141.53,121.07L140.98,121.39L132.47,116.47L132.47,119.64"/><path d="M141.53,124.24L141.53,124.88"/><path d="M141.53,121.70L150.04,126.62L150.59,126.30"/><path d="M150.59,130.11L150.59,126.93L159.10,131.85L159.64,131.54"/><path d="M159.65,135.34L159.65,132.16L168.17,137.08L168.72,136.76"/><path d="M168.71,140.56L168.71,137.39L177.23,142.31L177.78,141.99"/><path d="M177.78,145.80L177.78,142.62L186.29,147.54L186.84,147.22"/><path d="M186.84,151.03L186.84,147.85L196.31,153.32L196.31,159.67"/><path d="M196.31,153.32L196.86,153.01"/></g><g style="stroke:#000000;stroke-width:0.529"><path d="M62.99,82.72L59.01,80.42L59.01,74.08L59.56,73.76L69.03,79.23"/><path d="M72.05,87.95L69.03,86.20"/><path d="M78.09,84.46L69.58,79.54L69.03,79.86"/><path d="M81.11,93.18L78.09,91.44"/><path d="M78.09,85.09L78.64,84.77L87.16,89.69"/><path d="M90.17,98.41L87.16,96.67"/><path d="M96.22,94.92L87.71,90.01L87.16,90.32"/><path d="M99.24,103.64L96.22,101.90"/><path d="M105.28,100.15L96.77,95.24L96.22,95.55"/><path d="M105.28,107.13L108.30,108.87"/><path d="M114.34,105.38L105.83,100.47L105.28,100.78"/><path d="M114.34,112.36L117.36,114.10"/><path d="M114.34,108.55L114.34,106.01L114.89,105.70L123.41,110.61"/><path d="M126.42,119.33L123.41,117.59"/><path d="M132.47,115.84L123.95,110.93L123.41,111.24"/><path d="M135.49,124.56L132.47,122.82"/><path d="M141.53,121.07L133.02,116.16L132.47,116.47"/><path d="M144.55,129.79L141.53,128.05"/><path d="M150.59,126.30L142.08,121.39L141.53,121.70L141.53,124.24"/><path d="M150.59,133.28L153.61,135.02"/><path d="M159.65,131.54L151.14,126.62L150.59,126.93"/><path d="M162.67,140.25L159.65,138.51"/><path d="M168.72,136.76L160.20,131.85L159.65,132.16"/><path d="M171.73,145.48L168.72,143.74"/><path d="M177.78,141.99L169.26,137.08L168.72,137.39"/><path d="M180.80,150.71L177.78,148.97"/><path d="M186.84,147.22L178.33,142.31L177.78,142.62"/><path d="M186.84,147.85L187.39,147.54L196.85,153.00L196.86,159.35L196.31,159.67L186.84,154.20"/></g></g><g id="Actor_.20"><g style="stroke:#000000;stroke-width:0.176"><path d="M68.07,68.85L77.55,74.31L78.09,74.00"/><path d="M78.09,77.80L78.09,74.63L86.61,79.55L87.16,79.23"/><path d="M96.22,84.46L95.67,84.78L87.16,79.86L87.16,83.03"/><path d="M96.22,88.26L96.22,85.09L104.73,90.01L105.28,89.69"/><path d="M114.34,94.92L113.79,95.24L105.28,90.32L105.28,93.49"/><path d="M123.40,100.15L122.85,100.47L114.34,95.55L114.34,98.72"/><path d="M123.41,103.95L123.41,103.32"/><path d="M123.41,100.78L131.92,105.70L132.47,105.38"/><path d="M141.53,110.61L140.98,110.93L132.47,106.01L132.47,109.18"/><path d="M141.53,114.41L141.53,111.24L150.04,116.16L150.59,115.84"/><path d="M150.59,119.65L150.59,119.01"/><path d="M159.65,121.07L159.11,121.39L150.59,116.47"/><path d="M159.65,124.88L159.65,121.70L168.17,126.62L168.72,126.30"/><path d="M168.72,130.10L168.72,126.93L177.23,131.85L177.76,131.54"/><path d="M177.78,135.33L177.78,132.16L186.29,137.08L186.84,136.76"/><path d="M186.84,140.57L186.84,137.39L195.35,142.31L195.90,141.99"/><path d="M195.90,145.80L195.90,142.62L205.38,148.09L205.93,147.78"/><path d="M205.38,154.44L205.38,148.09"/></g><g style="stroke:#000000;stroke-width:0.529"><path d="M72.05,77.49L68.07,75.19L68.07,68.85L68.62,68.53L78.09,74.00"/><path d="M78.09,80.97L81.11,82.72"/><path d="M87.16,79.23L78.64,74.31L78.09,74.63"/><path d="M87.16,86.20L90.17,87.95"/><path d="M87.16,79.86L87.70,79.54L96.22,84.46"/><path d="M96.22,91.44L99.24,93.18"/><path d="M96.22,85.09L96.77,84.78L105.28,89.69"/><path d="M108.30,98.41L105.28,96.67"/><path d="M114.34,94.92L105.83,90.01L105.28,90.32"/><path d="M117.36,103.64L114.34,101.90"/><path d="M123.40,100.15L114.89,95.24L114.34,95.55"/><path d="M126.42,108.87L123.41,107.13"/><path d="M132.47,105.38L123.96,100.47L123.41,100.78L123.41,103.32"/><path d="M135.49,114.10L132.47,112.36"/><path d="M141.53,110.61L133.02,105.70L132.47,106.01"/><path d="M141.53,117.59L144.55,119.33"/><path d="M150.59,115.84L142.08,110.93L141.53,111.24"/><path d="M150.59,122.82L153.61,124.56"/><path d="M159.65,121.07L151.14,116.16L150.59,116.47L150.59,119.01"/><path d="M162.67,129.79L159.65,128.05"/><path d="M168.72,126.30L160.20,121.39L159.65,121.70"/><path d="M168.72,133.28L171.73,135.02"/><path d="M168.72,126.93L169.26,126.62L177.78,131.54"/><path d="M180.80,140.25L177.78,138.51"/><path d="M186.84,136.76L178.33,131.85L177.78,132.16"/><path d="M186.84,143.74L189.86,145.48"/><path d="M195.90,141.99L187.39,137.08L186.84,137.39"/><path d="M195.90,148.97L205.38,154.44L205.93,154.12L205.93,147.78L196.45,142.31L195.90,142.62"/></g></g><g id="Actor_.21"><g style="stroke:#000000;stroke-width:0.176"><path d="M77.13,63.62L86.61,69.08L87.16,68.77"/><path d="M87.16,72.57L87.16,69.40L95.67,74.31L96.22,74.00"/><path d="M105.28,79.23L104.73,79.55L96.22,74.63L96.22,77.80"/><path d="M105.28,83.03L105.28,79.86L113.79,84.78L114.34,84.46"/><path d="M114.34,88.26L114.34,85.09L122.85,90.00L123.40,89.69"/><path d="M123.40,93.49L123.40,90.32L131.92,95.24L132.47,94.92"/><path d="M132.47,98.72L132.47,98.09"/><path d="M141.53,100.15L140.98,100.47L132.47,95.55"/><path d="M141.53,103.95L141.53,100.78L150.04,105.70L150.59,105.38"/><path d="M159.65,110.61L159.10,110.93L150.59,106.01L150.59,109.18"/><path d="M159.65,113.78L159.65,114.42"/><path d="M168.72,115.84L168.17,116.16L159.65,111.24"/><path d="M168.72,119.64L168.72,116.47L177.23,121.39L177.78,121.07"/><path d="M177.79,124.87L177.78,121.70L186.29,126.62L186.84,126.30"/><path d="M186.84,130.10L186.84,126.93L195.35,131.85L195.89,131.54"/><path d="M204.96,136.76L204.42,137.08L195.90,132.16L195.90,135.34"/><path d="M204.96,140.57L204.96,137.39L214.44,142.86L214.99,142.54"/><path d="M214.44,149.20L214.44,142.86"/></g><g style="stroke:#000000;stroke-width:0.529"><path d="M87.16,68.77L77.68,63.30L77.13,63.62L77.13,69.96L81.11,72.26"/><path d="M90.17,77.49L87.16,75.74"/><path d="M87.16,69.40L87.71,69.08L96.22,74.00"/><path d="M96.22,80.97L99.24,82.72"/><path d="M96.22,74.63L96.77,74.31L105.28,79.23"/><path d="M108.30,87.95L105.28,86.20"/><path d="M114.34,84.46L105.83,79.55L105.28,79.86"/><path d="M114.34,91.44L117.36,93.18"/><path d="M123.40,89.69L114.89,84.78L114.34,85.09"/><path d="M126.42,98.41L123.41,96.67"/><path d="M123.40,90.32L123.95,90.00L132.47,94.92"/><path d="M132.47,101.90L135.49,103.64"/><path d="M132.47,98.09L132.47,95.55L133.02,95.24L141.53,100.15"/><path d="M141.53,107.13L144.55,108.87"/><path d="M141.53,100.78L142.08,100.47L150.59,105.38"/><path d="M153.61,114.10L150.59,112.36"/><path d="M150.59,106.01L151.14,105.70L159.65,110.61"/><path d="M162.67,119.33L159.65,117.59"/><path d="M159.65,113.78L159.65,111.24L160.20,110.93L168.72,115.84"/><path d="M168.72,122.82L171.73,124.56"/><path d="M168.72,116.47L169.27,116.16L177.78,121.07"/><path d="M180.80,129.79L177.78,128.05"/><path d="M186.84,126.30L178.33,121.39L177.78,121.70"/><path d="M189.86,135.02L186.84,133.28"/><path d="M195.90,131.54L187.39,126.62L186.84,126.93"/><path d="M198.92,140.25L195.90,138.51"/><path d="M195.90,132.16L196.45,131.85L204.96,136.76"/><path d="M204.96,137.39L205.51,137.08L214.99,142.54L214.99,148.89L214.44,149.20L204.96,143.74"/></g></g><g id="Actor_.22"><g style="stroke:#000000;stroke-width:0.176"><path d="M86.20,58.39L95.67,63.85L96.22,63.54"/><path d="M96.22,67.34L96.22,64.17L104.73,69.08L105.28,68.77"/><path d="M114.34,74.00L113.79,74.32L105.28,69.40L105.28,72.57"/><path d="M123.41,79.23L122.86,79.55L114.34,74.63L114.34,77.80"/><path d="M132.47,84.46L131.92,84.78L123.41,79.86L123.41,83.03"/><path d="M132.47,88.26L132.47,85.09L140.97,90.00L141.53,89.69"/><path d="M141.53,93.49L141.53,92.86"/><path d="M141.53,90.32L150.04,95.24L150.59,94.92"/><path d="M159.65,100.15L159.10,100.47L150.59,95.55L150.60,98.72"/><path d="M159.65,103.95L159.65,100.78L168.17,105.70L168.72,105.38"/><path d="M168.72,109.18L168.72,108.55"/><path d="M177.78,110.61L177.23,110.93L168.72,106.01"/><path d="M177.78,114.41L177.78,111.24L186.29,116.16L186.84,115.84"/><path d="M186.85,119.64L186.84,116.47L195.35,121.39L195.90,121.07"/><path d="M195.90,124.87L195.90,121.70L204.42,126.62L204.97,126.30"/><path d="M214.01,131.54L213.48,131.85L204.97,126.93L204.97,130.11"/><path d="M214.03,135.34L214.03,132.16L223.50,137.63L224.05,137.31"/><path d="M223.50,143.97L223.50,137.63"/></g><g style="stroke:#000000;stroke-width:0.529"><path d="M90.17,67.03L86.20,64.73L86.20,58.39L86.74,58.07L96.22,63.54"/><path d="M99.24,72.26L96.22,70.51"/><path d="M105.28,68.77L96.77,63.85L96.22,64.17"/><path d="M105.28,75.74L108.30,77.49"/><path d="M105.28,69.40L105.83,69.08L114.34,74.00"/><path d="M114.34,80.97L117.36,82.72"/><path d="M114.34,74.63L114.89,74.32L123.41,79.23"/><path d="M123.41,86.20L126.42,87.95"/><path d="M132.47,84.46L123.95,79.54L123.41,79.86"/><path d="M135.49,93.18L132.47,91.44"/><path d="M141.53,89.69L133.02,84.77L132.47,85.09"/><path d="M141.53,96.67L144.55,98.41"/><path d="M150.59,94.92L142.08,90.01L141.53,90.32L141.53,92.86"/><path d="M153.61,103.64L150.59,101.90"/><path d="M150.59,95.55L151.14,95.24L159.65,100.15"/><path d="M159.65,107.13L162.67,108.87"/><path d="M168.72,105.38L160.20,100.47L159.65,100.78"/><path d="M171.73,114.10L168.72,112.36"/><path d="M177.78,110.61L169.27,105.70L168.72,106.01L168.72,108.55"/><path d="M180.80,119.33L177.78,117.59"/><path d="M186.84,115.84L178.33,110.93L177.78,111.24"/><path d="M186.84,122.82L189.86,124.56"/><path d="M186.84,116.47L187.39,116.16L195.90,121.07"/><path d="M198.92,129.79L195.90,128.05"/><path d="M195.90,121.70L196.45,121.39L204.97,126.30"/><path d="M207.98,135.02L204.96,133.28"/><path d="M204.97,126.93L205.51,126.62L214.03,131.54"/><path d="M214.03,132.16L214.58,131.85L224.04,137.31L224.05,143.66L223.50,143.97L214.03,138.51"/></g></g><g id="Actor_.23"><g style="stroke:#000000;stroke-width:0.176"><path d="M95.26,53.16L104.73,58.62L105.28,58.31"/><path d="M105.28,62.11L105.28,58.94L113.79,63.85L114.34,63.54"/><path d="M123.41,68.77L122.86,69.09L114.34,64.17L114.34,67.34"/><path d="M123.41,72.57L123.41,69.40L131.92,74.31L132.47,74.00"/><path d="M141.53,79.23L140.98,79.55L132.47,74.63L132.47,77.80"/><path d="M150.59,84.46L150.04,84.78L141.53,79.86L141.53,83.03"/><path d="M150.59,88.26L150.59,87.63"/><path d="M150.59,85.09L159.10,90.00L159.65,89.69"/><path d="M159.66,93.49L159.65,90.32L168.17,95.24L168.72,94.92"/><path d="M177.78,100.15L177.23,100.47L168.72,95.55L168.72,98.72"/><path d="M177.78,103.95L177.78,103.32"/><path d="M186.84,105.38L186.29,105.70L177.78,100.78"/><path d="M186.84,109.18L186.84,106.01L195.35,110.93L195.90,110.61"/><path d="M195.91,114.41L195.90,111.24L204.41,116.16L204.96,115.84"/><path d="M204.96,119.64L204.96,116.47L213.48,121.39L214.03,121.07"/><path d="M214.03,124.88L214.03,121.70L222.54,126.62L223.09,126.30"/><path d="M223.09,130.10L223.09,126.93L232.56,132.40L232.56,138.74"/><path d="M232.56,132.40L233.11,132.08"/></g><g style="stroke:#000000;stroke-width:0.529"><path d="M105.28,58.31L95.81,52.84L95.39,53.08L95.26,53.16L95.26,59.50L99.24,61.80"/><path d="M108.30,67.03L105.28,65.28"/><path d="M105.28,58.94L105.83,58.62L114.34,63.54"/><path d="M114.34,70.51L117.36,72.26"/><path d="M123.41,68.77L114.89,63.85L114.34,64.17"/><path d="M123.41,75.74L126.42,77.49"/><path d="M132.47,74.00L123.95,69.08L123.41,69.40"/><path d="M132.47,80.97L135.49,82.72"/><path d="M141.53,79.23L133.02,74.31L132.47,74.63"/><path d="M144.55,87.95L141.53,86.20"/><path d="M141.53,79.86L142.08,79.54L150.59,84.46"/><path d="M150.59,91.44L153.61,93.18"/><path d="M150.59,87.63L150.59,85.09L151.14,84.78L159.65,89.69"/><path d="M162.67,98.41L159.65,96.67"/><path d="M168.72,94.92L160.20,90.01L159.65,90.32"/><path d="M171.73,103.64L168.72,101.90"/><path d="M177.78,100.15L169.26,95.24L168.72,95.55"/><path d="M180.80,108.87L177.78,107.13"/><path d="M177.78,103.32L177.78,100.78L178.33,100.47L186.84,105.38"/><path d="M189.86,114.10L186.84,112.36"/><path d="M186.84,106.01L187.39,105.70L195.90,110.61"/><path d="M195.90,117.59L198.92,119.33"/><path d="M195.90,111.24L196.45,110.93L204.96,115.84"/><path d="M207.98,124.56L204.96,122.82"/><path d="M204.96,116.47L205.51,116.16L214.03,121.07"/><path d="M217.04,129.79L214.03,128.05"/><path d="M214.03,121.70L214.58,121.39L223.09,126.30"/><path d="M223.09,126.93L223.64,126.62L233.11,132.08L233.11,138.43L232.56,138.74L223.09,133.28"/></g></g><g id="Actor_.24"><g style="stroke:#000000;stroke-width:0.176"><path d="M104.32,47.93L113.79,53.39L114.34,53.08"/><path d="M114.34,56.88L114.34,53.71L122.86,58.62L123.40,58.31"/><path d="M132.47,63.54L131.92,63.85L123.40,58.94L123.40,62.11"/><path d="M132.47,67.34L132.47,64.17L140.98,69.08L141.53,68.77"/><path d="M141.53,72.57L141.53,69.40L150.04,74.31L150.59,74.00"/><path d="M150.59,77.80L150.59,74.63L159.10,79.55L159.65,79.23"/><path d="M159.65,83.03L159.65,82.40"/><path d="M168.72,84.46L168.17,84.78L159.65,79.86"/><path d="M177.78,89.69L177.22,90.00L168.72,85.09L168.72,88.26"/><path d="M177.78,93.49L177.78,90.32L186.29,95.24L186.84,94.92"/><path d="M186.84,98.09L186.84,98.72"/><path d="M195.90,100.15L195.35,100.47L186.84,95.55"/><path d="M195.90,103.95L195.90,100.78L204.42,105.70L204.96,105.38"/><path d="M204.97,109.18L204.96,106.01L213.48,110.93L214.03,110.61"/><path d="M214.03,114.41L214.03,111.24L222.54,116.16L223.09,115.84"/><path d="M223.09,119.64L223.09,116.47L231.60,121.39L232.15,121.07"/><path d="M232.15,124.87L232.15,121.70L241.63,127.17L241.63,133.51"/><path d="M241.63,127.17L242.17,126.85"/></g><g style="stroke:#000000;stroke-width:0.529"><path d="M108.30,56.57L104.32,54.27L104.32,47.93L104.87,47.61L114.34,53.08"/><path d="M117.36,61.80L114.34,60.05"/><path d="M114.34,53.71L114.89,53.39L123.40,58.31"/><path d="M126.42,67.03L123.41,65.28"/><path d="M132.47,63.54L123.95,58.62L123.40,58.94"/><path d="M135.49,72.26L132.47,70.51"/><path d="M132.47,64.17L133.02,63.85L141.53,68.77"/><path d="M144.55,77.49L141.53,75.74"/><path d="M150.59,74.00L142.08,69.08L141.53,69.40"/><path d="M153.61,82.72L150.59,80.97"/><path d="M150.59,74.63L151.14,74.31L159.65,79.23"/><path d="M162.67,87.95L159.65,86.20"/><path d="M168.72,84.46L160.20,79.55L159.65,79.86L159.65,82.40"/><path d="M168.72,91.44L171.73,93.18"/><path d="M177.78,89.69L169.27,84.78L168.72,85.09"/><path d="M177.78,96.67L180.80,98.41"/><path d="M186.84,94.92L178.33,90.01L177.78,90.32"/><path d="M189.86,103.64L186.84,101.90"/><path d="M186.84,98.09L186.84,95.55L187.39,95.24L195.90,100.15"/><path d="M198.92,108.87L195.90,107.13"/><path d="M195.90,100.78L196.45,100.47L204.96,105.38"/><path d="M207.98,114.10L204.96,112.36"/><path d="M204.96,106.01L205.51,105.70L214.03,110.61"/><path d="M217.04,119.33L214.03,117.59"/><path d="M214.03,111.24L214.58,110.93L223.09,115.84"/><path d="M226.11,124.56L223.09,122.82"/><path d="M223.09,116.47L223.64,116.16L232.15,121.07"/><path d="M232.15,121.70L232.70,121.39L242.17,126.85L242.17,133.20L241.63,133.51L232.15,128.05"/></g></g><g/><g id="paperID" visibility="hidden" opacity="0.00" transform="scale(0.000100)"><path style="stroke:#000000;stroke-width:0.500;fill:#e6e6e6;fill-rule:evenodd" d="M-2000.00,-2000.00L2297.00,-2000.00L2297.00,2210.00L-2000.00,2210.00zM0.00,0.00L297.00,0.00L297.00,210.00L0.00,210.00z"/><path style="fill:#000000;fill-opacity:0.118" d="M3.00,210.00L297.00,210.00L297.00,3.00L300.00,3.00L300.00,213.00L3.00,213.00z"/></g><g id="ToolTip" visibility="hidden" opacity="0" transform="translate(0,0)"><rect id="ToolTipShadow" opacity="0.20" fill="black" stroke="none" x="0" y="0" width="30" height="8"/><rect id="ToolTipBG" fill="#ffffe1" stroke="black" x="0" y="0" width="30" height="8"/><text xml:space="preserve" id="ToolTipText" fill="black" x="0" y="0" width="30" height="8">tooltip</text></g></g></svg>
