<?xml version="1.0" encoding="UTF-8" standalone="no"?>
<svg xmlns="http://www.w3.org/2000/svg" xmlns:xlink="http://www.w3.org/1999/xlink" width="297.000mm" height="210.000mm" viewBox="0.000000 0.000000 297.000000 210.000000" stroke-linejoin="round" stroke-linecap="round" fill="none" fill-rule="evenodd"><desc>3DVIA Composer Export</desc><script type="text/ecmascript"><![CDATA[
if(typeof(top) != "undefined")
{
	top.ShowPaper = ShowPaper;
}
function ShowHotSpot(evt,hotspotid)
{
	var svgDocument = evt.target.ownerDocument;
	var strId = "hotspot."+hotspotid;
	var hotspot = svgDocument.getElementById(strId);
	if(hotspot)
		hotspot.setAttribute("opacity",".5");
}
function HideHotSpot(evt,hotspotid)
{
	var svgDocument = evt.target.ownerDocument;
	var strId = "hotspot."+hotspotid;
	var hotspot = svgDocument.getElementById(strId);
	if(hotspot)
		hotspot.setAttribute("opacity","0");

	var toolTip = svgDocument.getElementById('ToolTip');
	if(toolTip)
		toolTip.setAttribute("visibility","hidden");
}
function ShowToolTip(evt,hotspotid,strTooltip)
{
	if(strTooltip=="")
	return;

	// change text
	var svgDocument = evt.target.ownerDocument;
	var tiptext = svgDocument.getElementById('ToolTipText');
	if( !tiptext )
	return;
	tiptext.firstChild.nodeValue = " " + strTooltip + "  " ;

	// show tooltip before, else some refresh issue

	var toolTip = svgDocument.getElementById('ToolTip');
	if(!toolTip)
	return;

	toolTip.setAttribute("visibility","visible");
	toolTip.setAttribute("opacity",".95");

	// move tooltip
	// get viewbox

	var root = svgDocument.documentElement;
	var vbox = (root.getAttribute("viewBox")).split(' ');
	var x0 = parseFloat(vbox[0]);
	var y0 = parseFloat(vbox[1]);
	var vboxW = parseFloat(vbox[2]);
	var vboxH = parseFloat(vbox[3]);

	// get default width of svg

	var strW = root.getAttribute("width");
	var svgW = parseFloat(strW);
	if(strW.indexOf('mm') != -1)
	svgW *= 3.779;

	var strH = root.getAttribute("height");
	var svgH = parseFloat(strH);
	if(strH.indexOf('mm') != -1)
	svgH *= 3.779;  	// 96 dpi  -> 96/25.4 = 3.779

	// update the viewbox / width / height if svg is embedded in html with zoom fit all
	var realx0 = x0;
	var realy0 = y0;
	var realvboxW = vboxW;
	var realvboxH = vboxH;
	var realsvgW = svgW;
	var realsvgH = svgH;

	if ((typeof(top) == "undefined") || (typeof(top.svgctl1) != "undefined")) // embedded in html
	{
		// get window size in pxl

		svgW = window.innerWidth;
		svgH = window.innerHeight;

		// calculate real viewbox

		realsvgW = svgW;
		realsvgH = svgH;
		if((svgW / svgH) > (vboxW / vboxH))
		{
			realvboxW = (vboxH * svgW) / svgH;
			realvboxH = vboxH;
			realx0 = x0 - (realvboxW - vboxW)/2 ;
		}
		else
		{
			realvboxH = (vboxW * svgH) / svgW;
			realvboxW = vboxW;
			realy0 = y0 - (realvboxH - vboxH)/2 ;
		}
	}

	// get user zoom/pan

	var newScale = root.currentScale;
	var translation = root.currentTranslate;

	// transform pxl to user unit

	var xPos = (((evt.clientX+10- translation.x)/newScale) * realvboxW)/realsvgW  + realx0 ;
	var yPos = (((evt.clientY+5- translation.y)/newScale) * realvboxH)/ realsvgH  + realy0 ;
	var scaleForWidth = ( (1 / newScale) * realvboxH) / realsvgH;

	// move tooltip

	toolTip.setAttribute("transform", "translate(" + xPos + "," + yPos + ")" );

	// resize tooltip

	var fontsize = 12;
	tiptext.setAttribute("font-size",fontsize*scaleForWidth);
	tiptext.setAttribute("y", fontsize*scaleForWidth);
	var tipBG = svgDocument.getElementById('ToolTipBG');
	var outline = tiptext.getBBox();
	if(tipBG)
	{
		tipBG.setAttribute("stroke-width", 1*scaleForWidth);
		tipBG.setAttribute("width", Number(outline.width) );
		tipBG.setAttribute("height", Number(outline.height) + fontsize*.5*scaleForWidth );
	}
	var ToolTipShadow = svgDocument.getElementById('ToolTipShadow');
	if(ToolTipShadow)
	{
		ToolTipShadow.setAttribute("width", Number(outline.width) );
		ToolTipShadow.setAttribute("height", Number(outline.height) + fontsize*.5*scaleForWidth );
		ToolTipShadow.setAttribute("x", 3*scaleForWidth);
		ToolTipShadow.setAttribute("y", 3*scaleForWidth);
	}
}
function ShowPaper()
{
  var svgDocument = getDocument();
  var paper = svgDocument.getElementById("paperID");
  if(paper)
  {
    paper.setAttribute("transform","scale(1)");
    paper.setAttribute("opacity","1");
    paper.setAttribute("visibility","visible");
  }
  var svg = svgDocument.getRootElement();
  if(svg)
  {
    svg.setAttribute("width","307.000mm");
    svg.setAttribute("height","220.000mm");
    svg.setAttribute("viewBox","-5.000000 -5.000000 307.000000 220.000000");
  }
}
]]></script><defs/><g><path style="fill:#000000;fill-opacity:0.098;fill-rule:evenodd" d="M131.56,28.45L129.98,29.50L129.44,29.60L129.53,29.05L131.16,28.05L131.53,28.09zM140.19,33.75L138.97,34.58L138.39,34.63L138.48,34.09L140.23,33.15zM121.76,34.05L120.21,35.14L119.63,35.19L119.72,34.65L121.36,33.65L121.72,33.68zM149.20,38.81L147.93,39.61L147.36,39.67L147.44,39.13L148.80,38.41L149.16,38.45zM130.59,39.27L129.17,40.17L128.60,40.23L128.68,39.69L130.71,38.76zM111.83,39.83L110.22,40.81L110.12,40.17L111.95,39.32zM158.16,43.85L156.58,44.90L156.04,45.00L156.13,44.45L157.76,43.45L158.13,43.49zM139.40,44.41L137.66,45.56L137.57,44.93L139.00,44.01L139.37,44.05zM120.88,44.96L118.90,46.13L118.81,45.49L120.92,44.36zM102.12,45.52L100.86,46.30L100.32,46.40L100.41,45.85L102.02,44.87L102.16,44.92zM167.12,48.89L165.57,49.98L164.99,50.03L165.08,49.49L166.72,48.49L167.08,48.52zM148.36,49.45L146.62,50.61L146.52,49.96L147.96,49.05L148.32,49.08zM129.48,50.19L127.86,51.17L127.76,50.52L129.20,49.61L129.56,49.64zM111.07,50.55L109.10,51.73L109.00,51.09L111.11,49.95zM92.31,51.11L91.09,51.94L90.51,51.99L90.60,51.45L92.35,50.51zM175.80,54.21L174.53,55.01L173.96,55.07L174.04,54.53L175.40,53.81L175.76,53.85zM157.19,54.67L155.77,55.57L155.20,55.63L155.28,55.09L157.31,54.16zM138.43,55.23L136.81,56.20L136.81,55.65L138.55,54.72zM119.76,55.87L118.05,56.76L118.05,56.21L119.80,55.28zM101.32,56.17L99.29,57.32L99.29,56.77L100.92,55.77L101.28,55.81zM82.56,56.73L80.82,57.88L80.73,57.25L82.16,56.33L82.53,56.37zM184.76,59.25L183.02,60.40L182.93,59.77L184.36,58.85L184.73,58.89zM166.00,59.81L164.26,60.96L164.17,60.33L165.60,59.41L165.97,59.45zM147.48,60.36L145.50,61.53L145.40,60.88L147.38,59.71L147.52,59.76zM128.72,60.92L127.46,61.70L126.92,61.80L127.01,61.25L128.62,60.27L128.76,60.32zM110.28,61.21L108.70,62.26L108.16,62.36L108.25,61.81L109.88,60.81L110.25,60.85zM91.52,61.77L89.78,62.93L89.68,62.28L91.12,61.37L91.48,61.40zM72.76,62.33L71.02,63.49L70.92,62.84L72.36,61.93L72.72,61.96zM193.72,64.29L192.17,65.38L191.59,65.43L191.68,64.89L193.32,63.89L193.68,63.92zM174.96,64.85L173.22,66.01L173.12,65.36L174.56,64.45L174.92,64.48zM156.43,65.39L154.46,66.57L154.36,65.93L156.47,64.79zM137.67,65.95L136.45,66.78L135.87,66.83L135.96,66.29L137.71,65.35zM118.91,66.51L117.69,67.34L117.11,67.39L117.20,66.85L118.95,65.91zM100.35,66.99L98.93,67.89L98.36,67.95L98.44,67.41L100.47,66.48zM81.59,67.55L79.98,68.53L79.88,67.89L81.71,67.04zM62.83,68.11L61.22,69.09L61.12,68.45L62.95,67.60zM202.55,69.51L201.13,70.41L200.56,70.47L200.64,69.93L202.67,69.00zM183.79,70.07L181.90,71.33L181.90,70.47L183.91,69.56zM165.12,70.71L163.41,71.60L163.41,71.05L165.16,70.12zM146.68,71.01L144.65,72.16L144.65,71.61L146.28,70.61L146.64,70.65zM127.92,71.57L126.18,72.73L126.18,71.87L127.52,71.17L127.88,71.21zM109.16,72.13L107.42,73.28L107.33,72.65L108.76,71.73L109.13,71.77zM90.64,72.67L88.66,73.84L88.57,73.21L90.68,72.08zM71.88,73.24L70.62,74.02L70.08,74.12L70.16,73.57L71.92,72.64zM53.44,73.53L51.86,74.58L51.32,74.68L51.41,74.13L53.04,73.13L53.41,73.17zM211.36,74.65L209.62,75.80L209.53,75.17L210.96,74.25L211.33,74.29zM192.84,75.20L190.86,76.37L190.77,75.73L192.88,74.60zM174.08,75.76L172.82,76.54L172.28,76.64L172.37,76.09L173.98,75.11L174.12,75.16zM155.32,76.32L154.06,77.10L153.52,77.20L153.61,76.65L155.22,75.67L155.36,75.72zM136.88,76.61L135.33,77.70L134.75,77.75L134.85,77.21L136.48,76.21L136.85,76.25zM118.12,77.17L116.38,78.33L116.28,77.68L117.72,76.77L118.08,76.80zM99.60,77.72L97.62,78.89L97.52,78.24L99.50,77.07L99.64,77.12zM80.83,78.27L79.61,79.10L79.03,79.15L79.13,78.61L80.74,77.63L80.88,77.68zM62.07,78.83L60.85,79.66L60.27,79.71L60.36,79.17L62.11,78.23zM43.64,79.13L42.09,80.22L41.51,80.27L41.60,79.73L43.24,78.73L43.60,78.76zM220.32,79.69L218.58,80.85L218.48,80.20L219.92,79.29L220.28,79.32zM201.56,80.25L199.82,81.41L199.72,80.76L201.16,79.85L201.52,79.88zM183.03,80.79L181.06,81.97L180.96,81.33L183.07,80.19zM164.27,81.35L163.05,82.18L162.47,82.23L162.56,81.69L164.31,80.75zM145.51,81.91L144.29,82.74L143.71,82.79L143.80,82.25L145.55,81.31zM126.95,82.39L125.53,83.29L124.96,83.35L125.04,82.81L127.07,81.88zM108.19,82.95L106.58,83.93L106.48,83.29L108.31,82.44zM89.79,83.31L87.81,84.48L87.81,83.93L89.83,82.71zM71.08,83.89L69.81,84.69L69.24,84.75L69.32,84.21L70.68,83.49L71.04,83.53zM52.32,84.45L51.05,85.25L50.48,85.31L50.56,84.77L51.92,84.05L52.28,84.09zM229.15,84.91L227.73,85.81L227.16,85.87L227.24,85.33L229.27,84.40zM210.48,85.55L208.77,86.44L208.77,85.89L210.52,84.96zM191.72,86.11L190.01,87.00L190.01,86.45L191.76,85.52zM173.28,86.41L171.25,87.56L171.25,87.01L172.88,86.01L173.24,86.05zM154.52,86.97L152.78,88.12L152.69,87.49L154.12,86.57L154.49,86.61zM136.00,87.51L134.02,88.68L133.93,88.05L136.04,86.92zM117.24,88.07L115.53,88.96L115.53,88.41L117.28,87.48zM98.48,88.64L97.22,89.42L96.68,89.52L96.77,88.97L98.38,87.99L98.52,88.04zM80.04,88.93L78.46,89.98L77.92,90.08L78.01,89.53L79.64,88.53L80.01,88.57zM61.28,89.49L59.54,90.64L59.45,90.01L60.88,89.09L61.25,89.13zM237.96,90.05L236.22,91.20L236.13,90.57L237.56,89.65L237.93,89.69zM219.44,90.60L217.46,91.77L217.36,91.12L219.34,89.95L219.48,90.00zM200.68,91.16L199.42,91.94L198.88,92.04L198.97,91.49L200.58,90.51L200.72,90.56zM182.24,91.45L180.66,92.50L180.12,92.60L180.21,92.05L181.84,91.05L182.21,91.09zM163.48,92.01L161.74,93.17L161.64,92.52L163.08,91.61L163.44,91.64zM144.72,92.57L142.98,93.73L142.88,93.08L144.32,92.17L144.68,92.20zM126.20,93.12L124.22,94.29L124.12,93.64L126.10,92.47L126.24,92.52zM107.43,93.67L106.21,94.50L105.63,94.55L105.72,94.01L107.47,93.07zM88.67,94.23L87.45,95.06L86.87,95.11L86.96,94.57L88.71,93.63zM70.24,94.53L68.69,95.62L68.11,95.67L68.20,95.13L69.84,94.13L70.20,94.16zM246.92,95.09L245.18,96.25L245.08,95.60L246.52,94.69L246.88,94.72zM228.39,95.63L226.42,96.81L226.32,96.17L228.43,95.03zM209.63,96.19L207.66,97.37L207.56,96.73L209.67,95.59zM190.87,96.75L189.65,97.58L189.07,97.63L189.16,97.09L190.91,96.15zM172.31,97.23L170.89,98.13L170.32,98.19L170.40,97.65L172.43,96.72zM153.55,97.79L151.94,98.77L151.84,98.13L153.67,97.28zM134.79,98.35L133.18,99.33L133.08,98.69L134.91,97.84zM116.44,98.73L114.41,99.88L114.41,99.33L116.04,98.33L116.40,98.37zM97.68,99.29L96.41,100.09L95.84,100.15L95.92,99.61L97.28,98.89L97.64,98.93zM79.07,99.75L77.18,101.01L77.18,100.15L79.19,99.24zM255.75,100.31L253.86,101.57L253.86,100.71L255.87,99.80zM237.08,100.95L235.37,101.84L235.37,101.29L237.12,100.36zM218.64,101.25L216.61,102.40L216.61,101.85L218.24,100.85L218.60,100.89zM199.88,101.81L198.14,102.97L198.14,102.11L199.48,101.41L199.84,101.45zM181.12,102.37L179.38,103.52L179.29,102.89L180.72,101.97L181.09,102.01zM162.60,102.91L160.62,104.08L160.53,103.45L162.64,102.32zM143.84,103.48L142.58,104.26L142.04,104.36L142.12,103.81L143.88,102.88zM265.09,104.06L264.40,104.57L263.83,104.54L264.73,103.94zM125.40,103.77L123.82,104.82L123.28,104.92L123.37,104.37L125.00,103.37L125.37,103.41zM106.64,104.33L104.90,105.48L104.81,104.85L106.24,103.93L106.61,103.97zM263.13,105.18L262.44,105.69L261.87,105.66L262.77,105.06zM87.88,104.89L86.14,106.05L86.05,105.41L87.48,104.49L87.85,104.53zM261.07,106.48L260.46,106.48L260.77,106.18L261.14,106.18zM246.04,106.00L244.78,106.78L244.24,106.88L244.33,106.33L245.94,105.35L246.08,105.40zM227.28,106.56L226.02,107.34L225.48,107.44L225.57,106.89L227.18,105.91L227.32,105.96zM208.84,106.85L207.29,107.94L206.71,107.99L206.81,107.45L208.44,106.45L208.81,106.49zM190.08,107.41L188.34,108.57L188.24,107.92L189.68,107.01L190.04,107.04zM171.32,107.97L169.58,109.13L169.48,108.48L170.92,107.57L171.28,107.60zM152.80,108.52L150.82,109.69L150.72,109.04L152.70,107.87L152.84,107.92zM255.19,109.90L254.59,109.86L255.60,109.33zM134.03,109.07L132.81,109.90L132.23,109.95L132.32,109.41L134.07,108.47zM115.60,109.37L114.05,110.46L113.47,110.51L113.56,109.97L115.20,108.97L115.56,109.00zM253.79,110.68L253.18,110.68L253.49,110.38L253.86,110.38zM96.84,109.93L95.10,111.09L95.00,110.44L96.44,109.53L96.80,109.56zM251.83,111.80L251.22,111.80L251.53,111.50L251.90,111.50zM236.23,111.59L235.01,112.42L234.43,112.47L234.52,111.93L236.27,110.99zM250.43,112.64L249.82,112.64L250.13,112.34L250.50,112.34zM217.51,112.18L216.25,112.97L215.68,113.03L215.76,112.49L217.50,111.55zM198.91,112.63L197.49,113.53L196.92,113.59L197.00,113.05L199.03,112.12zM180.15,113.19L178.54,114.17L178.44,113.53L180.27,112.68zM161.75,113.55L159.77,114.72L159.77,114.17L161.79,112.95zM143.04,114.13L141.77,114.93L141.20,114.99L141.28,114.45L142.64,113.73L143.00,113.77zM124.28,114.69L123.01,115.49L122.44,115.55L122.52,115.01L123.88,114.29L124.24,114.33zM244.55,116.00L243.94,116.00L244.25,115.70L244.62,115.70zM105.67,115.15L103.78,116.40L103.69,115.77L105.79,114.64zM243.25,116.66L242.56,117.17L241.99,117.14L242.89,116.54zM241.29,117.78L240.60,118.29L240.03,118.26L240.93,117.66zM226.48,117.21L224.74,118.36L224.65,117.73L226.08,116.81L226.45,116.85zM207.96,117.75L205.98,118.92L205.89,118.29L208.00,117.16zM189.20,118.31L187.49,119.20L187.49,118.65L189.24,117.72zM170.44,118.88L169.18,119.66L168.64,119.76L168.73,119.21L170.34,118.23L170.48,118.28zM152.00,119.17L150.42,120.22L149.88,120.32L149.97,119.77L151.60,118.77L151.97,118.81zM133.24,119.73L131.50,120.88L131.41,120.25L132.84,119.33L133.21,119.37zM235.97,120.86L235.28,121.37L234.71,121.34L235.61,120.74zM114.48,120.29L112.74,121.45L112.64,120.80L114.08,119.89L114.44,119.92zM234.01,121.98L233.32,122.49L232.75,122.46L233.65,121.86zM231.95,123.28L231.34,123.28L231.65,122.98L232.02,122.98zM216.68,122.81L214.94,123.97L214.84,123.32L216.28,122.41L216.64,122.44zM198.16,123.36L196.18,124.53L196.08,123.88L198.06,122.71L198.20,122.76zM179.39,123.91L178.17,124.74L177.59,124.79L177.68,124.25L179.43,123.31zM160.63,124.47L159.41,125.30L158.83,125.35L158.92,124.81L160.67,123.87zM142.20,124.77L140.65,125.86L140.07,125.91L140.16,125.37L141.80,124.37L142.16,124.40zM123.31,125.51L121.70,126.49L121.60,125.85L123.43,125.00zM224.67,127.48L224.06,127.48L224.37,127.18L224.74,127.18zM222.71,128.60L222.10,128.60L222.41,128.30L222.78,128.30zM206.75,128.59L205.14,129.57L205.04,128.93L206.87,128.08zM221.41,129.26L220.52,129.83L220.43,129.51L221.05,129.13zM188.40,128.97L186.37,130.12L186.37,129.57L188.00,128.57L188.36,128.61zM169.64,129.53L168.37,130.33L167.80,130.39L167.88,129.85L169.24,129.13L169.60,129.17zM151.03,129.99L149.14,131.25L149.14,130.39L151.15,129.48zM132.36,130.63L130.65,131.52L130.65,130.97L132.40,130.04zM216.09,132.34L215.40,132.85L214.83,132.82L215.73,132.22zM214.13,133.46L213.44,133.97L212.87,133.94L213.77,133.34zM212.07,134.76L211.46,134.76L211.77,134.46L212.14,134.46zM197.04,134.28L195.78,135.06L195.24,135.16L195.33,134.61L196.94,133.63L197.08,133.68zM178.60,134.57L177.02,135.62L176.48,135.72L176.57,135.17L178.20,134.17L178.57,134.21zM159.84,135.13L158.10,136.29L158.01,135.65L159.44,134.73L159.81,134.77zM141.32,135.68L139.34,136.85L139.24,136.20L141.22,135.03L141.36,135.08zM206.19,138.18L205.59,138.14L206.60,137.61zM204.79,138.96L204.18,138.96L204.49,138.66L204.86,138.66zM202.83,140.08L202.22,140.08L202.53,139.78L202.90,139.78zM187.56,139.61L186.01,140.70L185.43,140.75L185.52,140.21L187.16,139.21L187.52,139.24zM201.43,140.92L200.82,140.92L201.13,140.62L201.50,140.62zM168.68,140.35L167.06,141.33L166.96,140.68L168.40,139.77L168.76,139.80zM149.91,140.91L148.30,141.89L148.20,141.25L150.03,140.40zM195.55,144.28L194.94,144.28L195.25,143.98L195.62,143.98zM194.25,144.94L193.56,145.45L192.99,145.42L193.89,144.82zM192.29,146.06L191.60,146.57L191.03,146.54L191.93,145.94zM177.63,145.39L175.74,146.64L175.65,146.01L177.75,144.88zM158.96,146.03L157.25,146.92L157.25,146.37L159.00,145.44zM186.97,149.14L186.28,149.65L185.71,149.62L186.61,149.02zM185.01,150.26L184.32,150.77L183.75,150.74L184.65,150.14zM182.95,151.56L182.34,151.56L182.65,151.26L183.02,151.26zM167.92,151.08L165.94,152.25L165.84,151.60L167.82,150.43L167.96,150.48zM177.41,154.73L177.05,154.63L177.46,154.41zM175.67,155.76L175.06,155.76L175.37,155.46L175.74,155.46zM173.71,156.88L173.10,156.88L173.41,156.58L173.78,156.58zM172.31,157.72L171.70,157.72L172.01,157.42L172.38,157.42z"/><g id="Actor_.0"><g style="stroke:#000000;stroke-width:0.176"><path d="M210.58,135.54L210.58,135.20L62.54,49.75"/><path d="M80.56,57.94L78.49,56.74L78.49,56.06L80.56,57.25L80.56,57.94L82.63,56.74L82.63,56.05L80.56,57.25"/><path d="M78.49,56.06L80.56,54.86L82.63,56.05"/><path d="M87.37,61.87L87.37,61.18L89.42,60.00L89.47,60.00L91.52,61.18L89.44,62.38L89.44,63.06L87.37,61.87"/><path d="M87.37,61.18L89.44,62.38"/><path d="M89.44,63.06L91.52,61.87L91.52,61.18"/><path d="M96.25,66.99L96.25,66.31L98.32,67.50L98.32,68.19L96.25,66.99"/><path d="M96.25,66.31L98.32,65.11L100.40,66.31L100.40,66.99L98.32,68.19"/><path d="M98.32,67.50L100.40,66.31"/><path d="M107.21,72.63L105.13,71.43L105.13,72.12L107.21,73.31L109.28,72.12L109.28,71.43L107.21,72.63L107.21,73.31"/><path d="M105.13,71.43L107.21,70.25L109.28,71.43"/><path d="M116.09,77.76L116.09,78.44L114.02,77.24L114.02,76.56L116.09,75.36L118.16,76.56L116.09,77.76L114.02,76.56"/><path d="M116.09,78.44L118.16,77.25L118.16,76.56"/><path d="M123.65,82.12L122.90,81.69L122.90,82.37L124.97,83.57L124.97,82.88L123.65,82.12"/><path d="M124.97,82.88L127.04,81.69L124.97,80.49L122.90,81.69"/><path d="M127.04,81.69L127.04,82.37L124.97,83.57"/><path d="M132.12,87.69L133.85,88.69L133.85,88.01L131.78,86.81L131.78,87.50L132.12,87.69"/><path d="M131.78,86.81L133.85,85.62L135.93,86.81L133.85,88.01"/><path d="M135.93,86.81L135.93,87.50L133.85,88.69"/><path d="M140.66,92.62L140.66,91.94L142.74,93.14L142.74,93.82L140.66,92.62"/><path d="M140.66,91.94L142.74,90.74L144.81,91.94L142.74,93.14"/><path d="M142.74,93.82L144.81,92.62L144.81,91.94"/><path d="M150.11,98.08L149.55,97.75L149.55,97.07L151.62,95.87L153.69,97.07L151.62,98.26L151.62,98.95L150.11,98.08"/><path d="M149.55,97.07L151.62,98.26"/><path d="M151.62,98.95L153.69,97.75L153.69,97.07"/><path d="M160.50,103.39L158.43,102.19L160.50,101.00L162.57,102.19L160.50,103.39L160.50,104.07L158.43,102.88L158.43,102.19"/><path d="M160.50,104.07L162.57,102.88L162.57,102.19"/><path d="M169.38,108.52L167.31,107.32L167.31,108.00L169.38,109.20L169.38,108.52L171.46,107.32L171.46,108.00L169.38,109.20"/><path d="M167.31,107.32L169.38,106.12L171.46,107.32"/><path d="M176.19,113.13L178.27,114.33L180.34,113.13L180.34,112.45L178.27,113.64L176.19,112.45L176.19,113.13"/><path d="M180.34,112.45L178.27,111.25L176.19,112.45"/><path d="M178.27,114.33L178.27,113.64"/><path d="M186.06,118.14L185.08,117.57L185.08,118.26L187.15,119.45L189.22,118.26L189.22,117.57L187.15,118.77L186.06,118.14"/><path d="M189.22,117.57L187.15,116.38L185.08,117.57"/><path d="M187.15,119.45L187.15,118.77"/><path d="M196.03,124.58L193.96,123.38L193.96,122.70L196.03,123.90L196.03,124.58L198.10,123.38L198.10,122.70L196.03,123.90"/><path d="M193.96,122.70L196.03,121.50L198.10,122.70"/><path d="M203.28,128.08L202.84,127.83L202.84,128.51L204.91,129.71L204.91,129.02L203.28,128.08"/><path d="M202.84,127.83L204.91,126.63L206.99,127.83L204.91,129.02"/><path d="M204.91,129.71L206.99,128.51L206.99,127.83"/><path d="M210.58,135.20L216.50,131.78"/></g><g style="stroke:#000000;stroke-width:0.529"><path d="M62.54,49.75L62.54,50.10L210.58,135.54L216.50,132.12L216.50,131.78L68.46,46.34L62.54,49.75"/></g></g><g id="Actor_.1"><g style="stroke:#000000;stroke-width:0.176"><path d="M226.27,126.14L220.35,129.56L72.31,44.12"/><path d="M90.33,51.61L88.26,50.42L90.33,49.22L92.40,50.42L90.33,51.61L90.33,52.30L88.26,51.10L88.26,50.42"/><path d="M90.33,52.30L92.40,51.10L92.40,50.42"/><path d="M97.68,56.54L99.21,57.42L99.21,56.74L97.14,55.54L97.14,56.23L97.68,56.54"/><path d="M97.14,55.54L99.21,54.35L101.29,55.54L99.21,56.74"/><path d="M101.29,55.54L101.29,56.23L99.21,57.42"/><path d="M108.09,61.87L108.10,62.55L106.02,61.35L106.02,60.67L108.10,59.47L110.17,60.67L108.09,61.87L106.02,60.67"/><path d="M110.17,60.67L110.17,61.35L108.10,62.55"/><path d="M116.98,66.99L116.98,67.68L114.90,66.48L114.90,65.80L116.98,64.62L119.05,65.80L116.98,66.99L114.90,65.80"/><path d="M116.98,67.68L119.05,66.48L119.05,65.80"/><path d="M123.79,71.54L123.79,71.61L125.86,72.80L125.86,72.12L123.79,70.92L123.79,71.54"/><path d="M123.79,70.92L125.86,69.73L127.93,70.92L125.86,72.12"/><path d="M125.86,72.80L127.93,71.61L127.93,70.92"/><path d="M132.85,76.15L132.67,76.05L132.67,76.73L134.74,77.93L134.74,77.24L132.85,76.15"/><path d="M132.67,76.05L134.74,74.85L136.81,76.05L134.74,77.24"/><path d="M134.74,77.93L136.81,76.73L136.81,76.05"/><path d="M143.62,83.05L141.55,81.86L141.55,81.17L143.62,82.37L145.70,81.17L145.70,81.86L143.62,83.05L143.62,82.37"/><path d="M141.55,81.17L143.62,79.98L145.70,81.17"/><path d="M151.39,86.85L150.43,86.30L150.44,86.99L152.51,88.18L152.51,87.50L151.39,86.85"/><path d="M150.43,86.30L152.51,85.10L154.58,86.30L152.51,87.50"/><path d="M152.51,88.18L154.58,86.99L154.58,86.30"/><path d="M159.48,91.52L159.32,91.43L159.32,92.11L161.39,93.31L161.39,92.62L159.48,91.52"/><path d="M159.32,91.43L161.39,90.23L163.46,91.43L161.39,92.62"/><path d="M163.46,91.43L163.46,92.11L161.39,93.31"/><path d="M168.20,97.24L168.20,96.55L170.27,97.75L170.27,98.43L168.20,97.24"/><path d="M168.20,96.55L170.27,95.36L172.34,96.55L170.27,97.75"/><path d="M170.27,98.43L172.34,97.24L172.34,96.55"/><path d="M181.23,101.68L179.15,100.48L177.08,101.68L177.08,102.36L179.16,103.56L179.16,102.88L181.23,101.68L181.23,102.37L179.16,103.56"/><path d="M177.08,101.68L179.16,102.88"/><path d="M185.97,107.49L188.04,108.69L188.04,108.00L185.97,106.81L185.97,107.49"/><path d="M188.04,108.00L190.11,106.81L188.04,105.61L185.97,106.81"/><path d="M188.04,108.69L190.11,107.49L190.11,106.81"/><path d="M194.85,111.93L194.85,112.62L196.92,113.81L196.92,113.13L194.85,111.93L196.92,110.74L198.99,111.93L196.92,113.13"/><path d="M196.92,113.81L198.99,112.62L198.99,111.93"/><path d="M205.80,118.94L203.73,117.74L203.73,117.06L205.80,118.26L205.80,118.94L207.87,117.74L207.88,117.06L205.80,118.26"/><path d="M203.73,117.06L205.80,115.86L207.88,117.06"/><path d="M212.61,122.87L212.61,122.19L214.68,123.38L214.68,124.07L212.61,122.87"/><path d="M212.61,122.19L214.68,120.99L216.76,122.19L214.68,123.38"/><path d="M214.68,124.07L216.76,122.87L216.76,122.19"/><path d="M220.35,129.56L220.35,129.90"/></g><g style="stroke:#000000;stroke-width:0.529"><path d="M72.77,43.85L72.31,44.12L72.31,44.46L220.35,129.90L226.27,126.48L226.27,126.14L78.23,40.70L72.77,43.85"/></g></g><g id="Actor_.2"><g style="stroke:#000000;stroke-width:0.176"><path d="M236.04,120.50L230.12,123.92L82.08,38.48"/><path d="M100.10,46.66L98.03,45.46L98.03,44.78L100.10,43.58L102.17,44.78L100.10,45.97L100.10,46.66L102.17,45.46L102.17,44.78"/><path d="M98.03,44.78L100.10,45.97"/><path d="M107.23,50.77L106.91,50.59L106.91,49.90L108.98,51.10L108.98,51.78L107.23,50.77"/><path d="M106.91,49.90L108.98,48.71L111.06,49.90L108.98,51.10"/><path d="M108.98,51.78L111.06,50.59L111.06,49.90"/><path d="M116.72,56.25L115.79,55.71L115.79,55.03L117.88,56.22L117.88,56.90L116.72,56.25"/><path d="M115.79,55.03L117.88,53.84L119.94,55.03L117.88,56.22"/><path d="M119.94,55.03L119.94,55.71L117.88,56.90"/><path d="M124.68,60.16L124.68,60.84L126.75,62.04L126.75,61.35L124.68,60.16L126.75,58.96L128.82,60.16L126.75,61.35"/><path d="M128.82,60.16L128.82,60.84L126.75,62.04"/><path d="M135.63,67.16L133.56,65.97L133.56,65.28L135.63,66.48L135.63,67.16L137.70,65.97L137.70,65.28L135.63,66.48"/><path d="M133.56,65.28L135.63,64.09L137.70,65.28"/><path d="M142.44,71.09L144.51,72.29L144.51,71.61L142.44,70.41L142.44,71.09"/><path d="M142.44,70.41L144.51,69.21L146.59,70.41L144.51,71.61"/><path d="M144.51,72.29L146.59,71.09L146.59,70.41"/><path d="M153.40,77.42L151.32,76.22L151.32,75.54L153.39,76.73L153.40,77.42L155.47,76.22L155.47,75.54L153.39,76.73"/><path d="M151.32,75.54L153.40,74.34L155.47,75.54"/><path d="M160.63,80.91L160.20,80.66L160.21,81.35L162.28,82.54L162.28,81.86L160.63,80.91"/><path d="M160.20,80.66L162.28,79.47L164.35,80.66L162.28,81.86"/><path d="M162.28,82.54L164.35,81.35L164.35,80.66"/><path d="M171.16,87.67L169.09,86.47L169.09,85.79L171.16,86.98L173.23,85.79L173.23,86.47L171.16,87.67L171.16,86.98"/><path d="M169.09,85.79L171.16,84.59L173.23,85.79"/><path d="M180.04,92.11L177.97,90.92L177.97,91.60L180.04,92.79L182.11,91.60L182.11,90.91L180.04,92.11L180.04,92.79"/><path d="M177.97,90.92L180.04,89.72L182.11,90.91"/><path d="M187.20,96.92L186.85,96.73L186.85,96.04L188.93,97.24L188.93,97.92L187.20,96.92"/><path d="M188.93,97.24L191.00,96.04L188.92,94.85L186.85,96.04"/><path d="M188.93,97.92L191.00,96.73L191.00,96.04"/><path d="M197.81,103.05L195.74,101.85L195.74,101.17L197.81,102.36L197.81,103.05L199.88,101.85L199.88,101.17L197.81,102.36"/><path d="M195.74,101.17L197.81,99.97L199.88,101.17"/><path d="M206.69,108.17L204.62,106.98L204.62,106.29L206.69,107.49L208.76,106.29L208.76,106.98L206.69,108.17L206.69,107.49"/><path d="M204.62,106.29L206.69,105.10L208.76,106.29"/><path d="M215.57,113.30L213.50,112.10L213.50,111.42L215.57,112.62L215.57,113.30L217.65,112.11L217.65,111.42L215.57,112.62"/><path d="M213.50,111.42L215.57,110.22L217.65,111.42"/><path d="M224.46,117.74L224.46,118.43L222.38,117.23L222.40,116.54L224.46,115.35L226.53,116.55L224.46,117.74L222.40,116.54"/><path d="M224.46,118.43L226.53,117.23L226.53,116.55"/><path d="M230.12,123.92L230.12,124.26"/></g><g style="stroke:#000000;stroke-width:0.529"><path d="M83.21,39.47L82.08,38.82L82.08,38.48L88.00,35.06L236.04,120.50L236.04,120.84L230.12,124.26L83.21,39.47"/></g></g><g id="Actor_.3"><g style="stroke:#000000;stroke-width:0.176"><path d="M245.81,114.86L239.89,118.28L91.85,32.84"/><path d="M109.87,41.02L107.80,39.82L107.80,39.14L109.87,40.33L109.87,41.02L111.95,39.82L111.94,39.14L109.87,40.33"/><path d="M107.80,39.14L109.87,37.94L111.94,39.14"/><path d="M116.68,44.26L116.68,44.95L118.75,46.14L118.75,45.46L116.68,44.26L118.75,43.07L120.83,44.26L118.75,45.46"/><path d="M118.75,46.14L120.83,44.95L120.83,44.26"/><path d="M125.97,49.62L125.56,49.39L125.56,50.08L127.64,51.27L127.64,50.59L125.97,49.62"/><path d="M125.56,49.39L127.64,48.19L129.71,49.39L127.64,50.59"/><path d="M127.64,51.27L129.71,50.08L129.71,49.39"/><path d="M136.52,56.40L134.45,55.20L134.45,54.52L136.52,55.71L136.52,56.40L138.59,55.20L138.59,54.52L136.52,55.71"/><path d="M134.45,54.52L136.52,53.32L138.59,54.52"/><path d="M143.33,60.33L145.40,61.52L145.40,60.84L143.33,59.64L143.33,60.33"/><path d="M143.33,59.64L145.40,58.45L147.47,59.64L145.40,60.84"/><path d="M145.40,61.52L147.47,60.33L147.47,59.64"/><path d="M152.21,65.45L154.28,66.65L154.28,65.97L152.21,64.77L152.21,65.45"/><path d="M152.21,64.77L154.28,63.57L156.36,64.77L154.28,65.97"/><path d="M154.28,66.65L156.36,65.45L156.36,64.77"/><path d="M163.17,71.09L161.09,69.90L161.09,70.58L163.17,71.78L165.24,70.58L165.24,69.90L163.17,71.09L163.17,71.78"/><path d="M161.09,69.90L163.17,68.70L165.24,69.90"/><path d="M172.05,76.90L169.98,75.71L169.98,75.02L172.05,76.22L172.05,76.90L174.12,75.71L174.12,75.02L172.05,76.22"/><path d="M169.98,75.02L172.05,73.83L174.12,75.02"/><path d="M179.12,80.99L178.86,80.83L178.86,80.15L180.93,81.35L180.93,82.03L179.12,80.99"/><path d="M178.86,80.15L180.93,78.95L183.00,80.15L180.93,81.35"/><path d="M180.93,82.03L183.00,80.83L183.00,80.15"/><path d="M187.74,85.28L187.74,85.96L189.81,87.16L189.81,86.47L191.89,85.28L189.81,84.08L187.74,85.28L189.81,86.47"/><path d="M189.81,87.16L191.89,85.96L191.89,85.28"/><path d="M196.62,90.40L196.62,91.09L198.70,92.28L198.70,91.60L196.62,90.40L198.70,89.21L200.77,90.40L198.70,91.60"/><path d="M198.70,92.28L200.77,91.09L200.77,90.40"/><path d="M205.51,96.21L205.51,95.53L207.58,96.73L207.58,97.41L205.51,96.21"/><path d="M205.51,95.53L207.58,94.33L209.65,95.53L207.58,96.73"/><path d="M207.58,97.41L209.65,96.21L209.65,95.53"/><path d="M214.95,100.98L214.39,100.66L214.39,101.34L216.46,102.54L216.46,101.85L214.95,100.98"/><path d="M214.39,100.66L216.46,99.46L218.53,100.66L216.46,101.85"/><path d="M216.46,102.54L218.53,101.34L218.53,100.66"/><path d="M223.92,106.15L225.35,106.97L225.35,107.66L223.27,106.47L223.27,105.78L223.92,106.15"/><path d="M223.27,105.78L225.34,104.59L227.42,105.78L225.35,106.97"/><path d="M225.35,107.66L227.42,106.47L227.42,105.78"/><path d="M232.15,110.91L234.23,112.10L234.23,112.79L232.15,111.59L232.15,110.91L234.23,109.71L236.30,110.91L234.23,112.10"/><path d="M234.23,112.79L236.30,111.59L236.30,110.91"/><path d="M239.89,118.28L239.89,118.62"/></g><g style="stroke:#000000;stroke-width:0.529"><path d="M92.45,33.53L91.85,33.18L91.85,32.84L97.77,29.42L245.81,114.86L245.81,115.20L239.89,118.62L92.45,33.53"/></g></g><g id="Actor_.4"><g style="stroke:#000000;stroke-width:0.176"><path d="M255.58,109.22L249.66,112.64L101.62,27.20"/><path d="M119.64,34.69L117.57,33.50L119.65,32.31L121.71,33.50L119.64,34.69L119.64,35.38L117.57,34.18L117.57,33.50"/><path d="M119.64,35.38L121.72,34.18L121.71,33.50"/><path d="M128.53,40.51L126.45,39.31L126.45,38.62L128.53,39.82L128.53,40.51L130.60,39.31L130.60,38.63L128.53,39.82"/><path d="M126.45,38.62L128.52,37.43L130.60,38.63"/><path d="M137.41,45.63L135.34,44.44L135.34,43.75L137.41,44.95L137.41,45.63L139.48,44.44L139.48,43.75L137.41,44.95"/><path d="M139.48,43.75L137.41,42.56L135.34,43.75"/><path d="M144.31,49.62L146.29,50.76L146.29,50.07L144.22,48.88L144.22,49.56L144.31,49.62"/><path d="M144.22,48.88L146.29,47.68L148.36,48.88L146.29,50.07"/><path d="M146.29,50.76L148.36,49.56L148.36,48.88"/><path d="M153.49,54.23L153.10,54.00L153.10,54.69L155.17,55.88L155.17,55.20L153.49,54.23"/><path d="M153.10,54.00L155.17,52.81L157.25,54.00L155.17,55.20"/><path d="M155.17,55.88L157.25,54.69L157.25,54.00"/><path d="M164.05,61.01L161.98,59.82L161.98,59.13L164.05,60.33L166.13,59.13L166.13,59.81L164.05,61.01L164.05,60.33"/><path d="M161.98,59.13L164.06,57.94L166.13,59.13"/><path d="M170.87,64.94L170.86,64.26L172.94,65.45L172.94,66.14L170.87,64.94"/><path d="M172.94,65.45L175.01,64.26L172.94,63.06L170.86,64.26"/><path d="M172.94,66.14L175.01,64.94L175.01,64.26"/><path d="M179.75,69.38L179.75,70.07L181.82,71.26L181.82,70.58L179.75,69.38L181.82,68.19L183.89,69.38L181.82,70.58"/><path d="M183.89,69.38L183.89,70.07L181.82,71.26"/><path d="M190.70,75.71L188.63,74.51L188.63,75.19L190.70,76.39L192.77,75.19L192.77,74.51L190.70,75.71L190.70,76.39"/><path d="M188.63,74.51L190.70,73.31L192.77,74.51"/><path d="M199.58,80.83L199.58,81.52L197.51,80.32L197.51,79.64L199.58,78.44L201.66,79.64L199.58,80.83L197.51,79.64"/><path d="M199.58,81.52L201.66,80.32L201.66,79.64"/><path d="M208.47,85.96L206.39,84.76L206.39,85.45L208.47,86.64L210.54,85.45L210.54,84.76L208.47,85.96L208.47,86.64"/><path d="M206.39,84.76L208.47,83.57L210.54,84.76"/><path d="M216.11,91.05L215.28,90.57L215.28,89.89L217.35,91.09L217.35,91.77L216.11,91.05"/><path d="M215.28,89.89L217.35,88.69L219.42,89.89L217.35,91.09"/><path d="M217.35,91.77L219.42,90.57L219.42,89.89"/><path d="M224.16,95.02L226.23,96.21L226.23,96.90L224.16,95.70L224.16,95.02L226.23,93.82L228.30,95.02L226.23,96.21"/><path d="M226.23,96.90L228.30,95.70L228.30,95.02"/><path d="M235.11,101.34L235.11,102.02L233.04,100.83L233.04,100.14L235.11,98.95L237.19,100.14L235.11,101.34L233.04,100.14"/><path d="M235.11,102.02L237.19,100.83L237.19,100.14"/><path d="M244.00,106.47L244.00,107.15L241.92,105.95L241.92,105.27L244.00,104.07L246.07,105.27L244.00,106.47L241.92,105.27"/><path d="M244.00,107.15L246.07,105.95L246.07,105.27"/><path d="M249.66,112.64L249.66,112.98"/></g><g style="stroke:#000000;stroke-width:0.529"><path d="M101.70,27.15L101.62,27.20L101.62,27.54L249.66,112.98L255.58,109.56L255.58,109.22L107.54,23.78L101.70,27.15"/></g></g><g id="Actor_.5"><g style="stroke:#000000;stroke-width:0.176"><path d="M265.35,103.58L259.43,107.00L111.39,21.56"/><path d="M129.41,29.74L127.34,28.54L127.34,27.86L129.41,29.06L129.41,29.74L131.49,28.54L131.48,27.86L129.41,29.06"/><path d="M127.34,27.86L129.41,26.66L131.48,27.86"/><path d="M136.22,32.99L136.22,33.67L138.30,34.87L138.30,34.18L136.22,32.99L138.29,31.79L140.37,32.99L138.30,34.18"/><path d="M140.37,32.99L140.37,33.67L138.30,34.87"/><path d="M145.11,38.11L145.11,38.80L147.18,39.99L147.18,39.31L145.11,38.11L147.17,36.92L149.25,38.11L147.18,39.31"/><path d="M149.25,38.11L149.25,38.80L147.18,39.99"/><path d="M156.06,45.12L153.99,43.92L153.99,43.24L156.06,44.43L156.06,45.12L158.13,43.92L158.13,43.24L156.06,44.43"/><path d="M153.99,43.24L156.06,42.04L158.13,43.24"/><path d="M164.94,50.25L162.87,49.05L162.87,48.37L164.94,49.56L164.94,50.25L167.02,49.05L167.02,48.37L164.94,49.56"/><path d="M162.87,48.37L164.94,47.17L167.02,48.37"/><path d="M172.19,54.43L171.75,54.18L171.75,53.49L173.83,54.69L173.83,55.37L172.19,54.43"/><path d="M171.75,53.49L173.83,52.30L175.90,53.49L173.83,54.69"/><path d="M173.83,55.37L175.90,54.18L175.90,53.49"/><path d="M180.64,59.30L180.63,58.62L182.71,59.81L182.71,60.50L180.64,59.30"/><path d="M182.71,59.81L184.78,58.62L182.71,57.42L180.63,58.62"/><path d="M182.71,60.50L184.78,59.30L184.78,58.62"/><path d="M189.53,64.42L191.59,65.62L191.59,64.94L189.53,63.74L189.53,64.42"/><path d="M189.53,63.74L191.59,62.55L193.66,63.75L191.59,64.94"/><path d="M193.66,63.75L193.66,64.43L191.59,65.62"/><path d="M198.40,69.56L198.40,68.87L200.47,70.07L200.47,70.75L198.40,69.56"/><path d="M198.40,68.87L200.47,67.68L202.54,68.87L200.47,70.07"/><path d="M200.47,70.75L202.54,69.56L202.54,68.87"/><path d="M207.83,75.00L209.35,75.88L209.35,75.19L207.28,74.00L207.28,74.68L207.83,75.00"/><path d="M207.28,74.00L209.35,72.80L211.43,74.00L209.35,75.19"/><path d="M211.43,74.00L211.43,74.68L209.35,75.88"/><path d="M217.26,79.76L216.16,79.12L216.16,79.81L218.24,81.00L218.24,80.32L217.26,79.76"/><path d="M216.16,79.12L218.24,77.93L220.31,79.12L218.24,80.32"/><path d="M218.24,81.00L220.31,79.81L220.31,79.12"/><path d="M227.12,86.13L225.05,84.93L225.05,84.25L227.12,85.45L229.19,84.25L229.19,84.94L227.12,86.13L227.12,85.45"/><path d="M225.05,84.25L227.12,83.05L229.19,84.25"/><path d="M233.93,90.06L233.93,89.38L236.00,90.57L236.00,91.26L233.93,90.06"/><path d="M233.93,89.38L236.00,88.18L238.07,89.38L236.00,90.57"/><path d="M236.00,91.26L238.08,90.06L238.07,89.38"/><path d="M244.89,96.38L242.81,95.19L242.81,94.50L244.89,95.70L244.89,96.38L246.96,95.19L246.96,94.50L244.89,95.70"/><path d="M246.96,94.50L244.88,93.31L242.81,94.50"/><path d="M251.93,100.45L251.70,100.31L251.70,99.63L253.77,100.83L253.77,101.51L251.93,100.45"/><path d="M251.70,99.63L253.77,98.43L255.84,99.63L253.77,100.83"/><path d="M253.77,101.51L255.84,100.31L255.84,99.63"/><path d="M259.43,107.00L259.43,107.34"/></g><g style="stroke:#000000;stroke-width:0.529"><path d="M112.10,22.31L111.39,21.90L111.39,21.56L117.31,18.14L265.35,103.58L265.35,103.92L259.43,107.34L112.10,22.31"/></g></g><g id="Actor_.6"><g style="stroke:#000000;stroke-width:0.176"><path d="M200.81,141.18L200.81,140.83L52.77,55.39"/><path d="M69.34,62.74L68.72,62.38L68.72,61.69L70.79,62.89L70.79,63.57L69.34,62.74"/><path d="M68.72,61.69L70.79,60.50L72.86,61.69L70.79,62.89"/><path d="M70.79,63.57L72.86,62.38L72.86,61.69"/><path d="M79.67,68.02L77.60,66.82L79.67,65.62L81.74,66.82L79.67,68.02L79.67,68.70L77.60,67.50L77.60,66.82"/><path d="M79.67,68.70L81.74,67.51L81.74,66.82"/><path d="M86.48,71.95L86.48,72.63L88.55,73.83L88.55,73.14L86.48,71.95L88.55,70.75L90.63,71.95L88.55,73.14"/><path d="M88.55,73.83L90.63,72.63L90.63,71.95"/><path d="M95.92,78.08L95.36,77.76L95.36,77.07L97.44,78.27L97.44,78.95L95.92,78.08"/><path d="M95.36,77.07L97.44,75.89L99.51,77.07L97.44,78.27"/><path d="M97.44,78.95L99.51,77.76L99.51,77.07"/><path d="M104.58,83.08L104.25,82.88L104.25,82.20L106.32,83.40L106.32,84.08L104.58,83.08"/><path d="M104.25,82.20L106.32,81.00L108.39,82.20L106.32,83.40"/><path d="M106.32,84.08L108.39,82.88L108.39,82.20"/><path d="M113.13,88.01L113.13,87.33L115.20,88.52L115.20,89.21L113.13,88.01"/><path d="M113.13,87.33L115.20,86.13L117.27,87.33L115.20,88.52"/><path d="M115.20,89.21L117.27,88.01L117.27,87.33"/><path d="M122.01,93.14L122.01,92.45L124.08,91.26L126.16,92.45L124.08,93.65L124.08,94.33L122.01,93.14"/><path d="M122.01,92.45L124.08,93.65"/><path d="M124.08,94.33L126.16,93.14L126.16,92.45"/><path d="M130.89,98.26L130.89,97.58L132.97,96.38L135.04,97.58L132.97,98.78L132.97,99.46L130.89,98.26"/><path d="M130.89,97.58L132.97,98.78"/><path d="M132.97,99.46L135.04,98.26L135.04,97.58"/><path d="M139.83,102.74L139.78,102.71L139.78,103.39L141.85,104.59L141.85,103.90L139.83,102.74"/><path d="M139.78,102.71L141.85,101.51L143.92,102.71L141.85,103.90"/><path d="M143.92,102.71L143.92,103.39L141.85,104.59"/><path d="M148.66,108.52L150.73,109.71L150.73,109.03L148.66,107.83L148.66,108.52"/><path d="M148.66,107.83L150.73,106.64L152.80,107.83L150.73,109.03"/><path d="M150.73,109.71L152.80,108.52L152.80,107.83"/><path d="M157.54,113.64L157.54,112.96L159.61,114.16L159.61,114.84L157.54,113.64"/><path d="M157.54,112.96L159.61,111.76L161.69,112.96L159.61,114.16"/><path d="M159.61,114.84L161.69,113.64L161.69,112.96"/><path d="M166.42,118.77L168.50,119.97L168.50,119.28L166.42,118.09L166.42,118.77"/><path d="M168.50,119.28L170.57,118.09L168.50,116.89L166.42,118.09"/><path d="M168.50,119.97L170.57,118.77L170.57,118.09"/><path d="M175.66,124.10L175.30,123.90L175.31,123.21L177.38,124.41L177.38,125.09L175.66,124.10"/><path d="M175.31,123.21L177.38,122.02L179.45,123.21L177.38,124.41"/><path d="M177.38,125.09L179.45,123.90L179.45,123.21"/><path d="M186.26,130.22L184.19,129.02L184.19,128.34L186.26,129.53L186.26,130.22L188.33,129.02L188.33,128.34L186.26,129.53"/><path d="M184.19,128.34L186.26,127.14L188.33,128.34"/><path d="M194.15,134.09L193.07,133.47L193.07,134.15L195.14,135.34L195.14,134.66L194.15,134.09"/><path d="M193.07,133.47L195.14,132.27L197.22,133.46L195.14,134.66"/><path d="M195.14,135.34L197.22,134.15L197.22,133.46"/><path d="M200.81,140.83L206.73,137.42"/></g><g style="stroke:#000000;stroke-width:0.529"><path d="M52.78,55.38L52.77,55.74L200.81,141.18L206.73,137.76L206.73,137.42L58.69,51.98L52.78,55.38"/></g></g><g id="Actor_.7"><g style="stroke:#000000;stroke-width:0.176"><path d="M196.96,143.06L191.04,146.47L42.99,61.03"/><path d="M61.02,69.21L58.95,68.02L58.95,67.33L61.02,68.53L61.02,69.21L63.09,68.02L63.09,67.33L61.02,68.53"/><path d="M63.09,67.33L61.02,66.14L58.95,67.33"/><path d="M67.83,73.14L67.83,72.46L69.90,73.66L69.90,74.34L67.83,73.14"/><path d="M67.83,72.46L69.90,71.26L71.97,72.46L69.90,73.66"/><path d="M69.90,74.34L71.97,73.14L71.97,72.46"/><path d="M77.04,78.46L78.78,79.47L78.78,78.78L76.71,77.59L76.71,78.27L77.04,78.46"/><path d="M76.71,77.59L78.78,76.39L80.86,77.59L78.78,78.78"/><path d="M78.78,79.47L80.86,78.27L80.86,77.59"/><path d="M86.22,83.08L85.59,82.71L85.59,83.40L87.67,84.59L87.66,83.91L86.22,83.08"/><path d="M85.59,82.71L87.67,81.52L89.74,82.71L87.66,83.91"/><path d="M89.74,82.71L89.74,83.40L87.67,84.59"/><path d="M94.47,87.84L96.55,89.04L96.55,89.72L94.47,88.52L94.47,87.84L96.55,86.64L98.62,87.84L96.55,89.04"/><path d="M96.55,89.72L98.62,88.52L98.62,87.84"/><path d="M105.43,94.16L103.36,92.97L103.36,93.65L105.43,94.85L107.50,93.65L107.50,92.97L105.43,94.16L105.43,94.85"/><path d="M103.36,92.97L105.43,91.77L107.50,92.97"/><path d="M114.31,99.97L112.24,98.78L112.24,98.09L114.31,99.29L116.38,98.09L116.38,98.78L114.31,99.97L114.31,99.29"/><path d="M112.24,98.09L114.31,96.90L116.38,98.09"/><path d="M121.12,103.90L121.12,103.22L123.20,104.42L123.20,105.10L121.12,103.90"/><path d="M121.12,103.22L123.19,102.02L125.27,103.22L123.20,104.42"/><path d="M123.20,105.10L125.27,103.90L125.27,103.22"/><path d="M130.59,109.37L130.01,109.03L130.01,108.35L132.08,109.54L132.08,110.23L130.59,109.37"/><path d="M132.08,109.54L134.15,108.35L132.08,107.15L130.01,108.35"/><path d="M132.08,110.23L134.15,109.03L134.15,108.35"/><path d="M139.83,114.02L138.89,113.47L138.89,114.16L140.96,115.35L140.96,114.67L139.83,114.02"/><path d="M138.89,113.47L140.96,112.28L143.03,113.47L140.96,114.67"/><path d="M140.96,115.35L143.03,114.15L143.03,113.47"/><path d="M149.84,120.48L147.77,119.28L147.77,118.60L149.84,119.79L149.84,120.48L151.92,119.28L151.92,118.60L149.84,119.79"/><path d="M151.92,118.60L149.84,117.40L147.77,118.60"/><path d="M156.65,123.72L156.65,124.41L158.72,125.60L158.72,124.92L156.65,123.72L158.73,122.53L160.80,123.72L158.72,124.92"/><path d="M158.72,125.60L160.80,124.41L160.80,123.72"/><path d="M165.53,129.53L167.61,130.73L167.61,130.05L165.53,128.85L165.53,129.53"/><path d="M165.53,128.85L167.61,127.65L169.68,128.87L167.61,130.05"/><path d="M167.61,130.73L169.68,129.53L169.68,128.87"/><path d="M176.49,135.86L174.42,134.66L174.42,133.98L176.49,135.17L178.56,133.98L178.56,134.66L176.49,135.86L176.49,135.17"/><path d="M174.42,133.98L176.49,132.78L178.56,133.98"/><path d="M185.37,140.98L183.30,139.79L183.30,139.10L185.37,137.91L187.44,139.10L187.44,139.79L185.37,140.98L185.37,140.30L183.30,139.10"/><path d="M185.37,140.30L187.44,139.10"/><path d="M191.04,146.82L191.04,146.47"/></g><g style="stroke:#000000;stroke-width:0.529"><path d="M42.99,61.15L42.99,61.37L191.04,146.82L196.96,143.40L196.96,143.06L48.92,57.62L42.99,61.03L42.99,61.15"/></g></g><g id="Actor_.8"><g style="stroke:#000000;stroke-width:0.176"><path d="M181.26,152.46L181.26,152.11L33.22,66.67"/><path d="M51.25,74.17L51.25,74.85L49.17,73.66L49.17,72.97L51.25,71.78L53.32,72.97L51.25,74.17L49.17,72.97"/><path d="M53.32,72.97L53.32,73.66L51.25,74.85"/><path d="M60.13,79.30L58.06,78.10L60.13,76.90L62.20,78.10L60.13,79.30L60.13,79.98L58.06,78.78L58.06,78.10"/><path d="M60.13,79.98L62.20,78.78L62.20,78.10"/><path d="M69.01,85.11L66.94,83.91L66.94,83.23L69.01,84.42L71.08,83.23L71.09,83.91L69.01,85.11L69.01,84.42"/><path d="M66.94,83.23L69.01,82.03L71.08,83.23"/><path d="M75.82,89.04L75.82,88.35L77.89,89.55L77.90,90.23L75.82,89.04"/><path d="M75.82,88.35L77.89,87.17L79.97,88.35L77.89,89.55"/><path d="M77.90,90.23L79.97,89.04L79.97,88.35"/><path d="M84.70,93.48L86.78,94.67L86.78,95.36L84.70,94.16L84.70,93.48L86.78,92.28L88.85,93.48L86.78,94.67"/><path d="M86.78,95.36L88.85,94.16L88.85,93.48"/><path d="M95.66,99.80L93.59,98.61L93.59,99.29L95.66,100.48L97.73,99.29L97.73,98.60L95.66,99.80L95.66,100.48"/><path d="M93.59,98.61L95.66,97.41L97.73,98.60"/><path d="M102.85,103.95L102.47,103.73L102.47,104.42L104.54,105.61L104.54,104.93L102.85,103.95"/><path d="M102.47,103.73L104.54,102.54L106.61,103.73L104.54,104.93"/><path d="M104.54,105.61L106.61,104.41L106.61,103.73"/><path d="M112.10,109.97L111.35,109.54L111.35,108.86L113.42,107.66L115.50,108.86L113.43,110.05L113.43,110.74L112.10,109.97"/><path d="M111.35,108.86L113.43,110.05"/><path d="M113.43,110.74L115.50,109.54L115.50,108.86"/><path d="M120.23,114.67L122.31,115.86L122.31,115.18L120.23,113.98L120.23,114.67"/><path d="M122.31,115.18L124.38,113.98L122.31,112.79L120.23,113.98"/><path d="M122.31,115.86L124.38,114.67L124.38,113.98"/><path d="M129.12,119.11L129.12,119.79L131.19,120.99L131.19,120.31L133.26,119.11L131.19,117.92L129.12,119.11L131.19,120.31"/><path d="M131.19,120.99L133.26,119.79L133.26,119.11"/><path d="M140.07,125.43L138.00,124.24L138.00,124.92L140.07,126.12L140.07,125.43L142.14,124.24L140.07,123.04L138.00,124.24"/><path d="M140.07,126.12L142.14,124.92L142.14,124.24"/><path d="M151.03,129.36L148.95,128.17L146.88,129.36L146.88,130.05L148.95,131.24L148.95,130.56L151.03,129.36L151.03,130.05L148.95,131.24"/><path d="M146.88,129.36L148.95,130.56"/><path d="M155.76,135.17L155.76,134.49L157.84,135.69L157.84,136.37L155.76,135.17"/><path d="M155.76,134.49L157.84,133.29L159.91,134.51L157.84,135.69"/><path d="M157.84,136.37L159.91,135.17L159.91,134.51"/><path d="M166.72,141.50L164.65,140.30L164.65,139.62L166.72,140.81L168.79,139.62L168.79,140.30L166.72,141.50L166.72,140.81"/><path d="M164.65,139.62L166.72,138.42L168.79,139.62"/><path d="M173.53,145.43L173.53,144.74L175.60,145.94L175.60,146.62L173.53,145.43"/><path d="M173.53,144.74L175.60,143.55L177.67,144.74L175.60,145.94"/><path d="M175.60,146.62L177.67,145.43L177.67,144.74"/><path d="M181.26,152.11L187.19,148.70"/></g><g style="stroke:#000000;stroke-width:0.529"><path d="M33.22,66.92L33.22,67.01L181.26,152.46L187.19,149.04L187.19,148.70L39.15,63.25L33.22,66.67L33.22,66.92"/></g></g><g id="Actor_.9"><g style="stroke:#000000;stroke-width:0.176"><path d="M171.49,158.08L171.49,157.75L23.45,72.31"/><path d="M39.96,79.62L41.48,80.49L41.48,79.81L39.40,78.61L39.40,79.30L39.96,79.62"/><path d="M39.40,78.61L41.48,77.42L43.55,78.61L41.48,79.81"/><path d="M43.55,78.61L43.55,79.30L41.48,80.49"/><path d="M50.36,84.93L48.29,83.74L48.29,84.42L50.36,85.62L52.43,84.42L52.43,83.74L50.36,84.93L50.36,85.62"/><path d="M52.43,83.74L50.36,82.54L48.29,83.74"/><path d="M59.24,90.74L57.17,89.55L57.17,88.86L59.24,87.67L61.31,88.86L59.24,90.06L59.24,90.74L61.31,89.55L61.31,88.86"/><path d="M57.17,88.86L59.24,90.06"/><path d="M66.05,94.62L66.05,94.67L68.12,95.87L68.12,95.19L66.05,93.99L66.05,94.62"/><path d="M66.05,93.99L68.12,92.81L70.20,93.99L68.12,95.19"/><path d="M70.20,93.99L70.20,94.68L68.12,95.87"/><path d="M77.01,100.31L77.01,101.00L74.93,99.80L74.93,99.12L77.01,97.92L79.08,99.12L77.01,100.31L74.93,99.12"/><path d="M77.01,101.00L79.08,99.80L79.08,99.12"/><path d="M83.82,104.93L85.89,106.12L85.89,105.44L83.82,104.24L83.82,104.93"/><path d="M85.89,105.44L87.96,104.24L85.89,103.05L83.82,104.24"/><path d="M87.96,104.24L87.96,104.93L85.89,106.12"/><path d="M93.61,109.89L92.70,109.37L92.70,110.05L94.77,111.25L94.77,110.57L93.61,109.89"/><path d="M92.70,109.37L94.76,108.18L96.84,109.37L94.77,110.57"/><path d="M96.84,109.37L96.84,110.05L94.77,111.25"/><path d="M101.70,114.56L101.58,114.50L101.58,115.18L103.65,116.38L103.65,115.69L101.70,114.56"/><path d="M101.58,114.50L103.65,113.30L105.73,114.50L103.65,115.69"/><path d="M103.65,116.38L105.73,115.18L105.73,114.50"/><path d="M110.46,120.31L112.54,121.50L112.54,120.82L110.46,119.62L110.46,120.31"/><path d="M110.46,119.62L112.54,118.43L114.61,119.62L112.54,120.82"/><path d="M112.54,121.50L114.61,120.31L114.61,119.62"/><path d="M121.42,126.63L119.35,125.43L119.35,124.75L121.42,125.95L123.49,124.75L123.49,125.43L121.42,126.63L121.42,125.95"/><path d="M123.49,124.75L121.42,123.57L119.35,124.75"/><path d="M128.28,130.59L128.23,130.56L128.23,129.88L130.30,131.07L130.30,131.76L128.28,130.59"/><path d="M128.23,129.88L130.30,128.68L132.37,129.88L130.30,131.07"/><path d="M130.30,131.76L132.37,130.56L132.37,129.88"/><path d="M137.52,135.24L137.11,135.00L137.11,135.69L139.18,136.88L139.18,136.20L137.52,135.24"/><path d="M137.11,135.00L139.18,133.81L141.25,135.00L139.18,136.20"/><path d="M141.25,135.00L141.26,135.69L139.18,136.88"/><path d="M145.99,140.81L145.99,140.13L148.07,141.32L148.07,142.01L145.99,140.81"/><path d="M145.99,140.13L148.07,138.93L150.14,140.14L148.07,141.32"/><path d="M148.07,142.01L150.14,140.81L150.14,140.14"/><path d="M155.91,146.54L154.88,145.94L154.88,145.26L156.95,146.45L156.95,147.14L155.91,146.54"/><path d="M156.95,146.45L159.02,145.26L156.95,144.06L154.88,145.26"/><path d="M156.95,147.14L159.02,145.94L159.02,145.26"/><path d="M165.83,152.26L163.76,151.07L163.76,150.38L165.83,151.58L165.83,152.26L167.90,151.07L167.90,150.38L165.83,151.58"/><path d="M163.76,150.38L165.83,149.19L167.90,150.38"/><path d="M171.49,157.75L177.42,154.33"/></g><g style="stroke:#000000;stroke-width:0.529"><path d="M24.27,73.12L23.45,72.65L23.45,72.31L29.38,68.89L177.42,154.33L177.42,154.68L171.49,158.09L24.27,73.12"/></g></g><g/><g id="paperID" visibility="hidden" opacity="0.00" transform="scale(0.000100)"><path style="stroke:#000000;stroke-width:0.500;fill:#e6e6e6;fill-rule:evenodd" d="M-2000.00,-2000.00L2297.00,-2000.00L2297.00,2210.00L-2000.00,2210.00zM0.00,0.00L297.00,0.00L297.00,210.00L0.00,210.00z"/><path style="fill:#000000;fill-opacity:0.118" d="M3.00,210.00L297.00,210.00L297.00,3.00L300.00,3.00L300.00,213.00L3.00,213.00z"/></g><g id="ToolTip" visibility="hidden" opacity="0" transform="translate(0,0)"><rect id="ToolTipShadow" opacity="0.20" fill="black" stroke="none" x="0" y="0" width="30" height="8"/><rect id="ToolTipBG" fill="#ffffe1" stroke="black" x="0" y="0" width="30" height="8"/><text xml:space="preserve" id="ToolTipText" fill="black" x="0" y="0" width="30" height="8">tooltip</text></g></g></svg>
