<?xml version="1.0" encoding="UTF-8" standalone="no"?>
<svg xmlns="http://www.w3.org/2000/svg" xmlns:xlink="http://www.w3.org/1999/xlink" width="297.000mm" height="210.000mm" viewBox="0.000000 0.000000 297.000000 210.000000" stroke-linejoin="round" stroke-linecap="round" fill="none" fill-rule="evenodd"><desc>3DVIA Composer Export</desc><script type="text/ecmascript"><![CDATA[
if(typeof(top) != "undefined")
{
	top.ShowPaper = ShowPaper;
}
function ShowHotSpot(evt,hotspotid)
{
	var svgDocument = evt.target.ownerDocument;
	var strId = "hotspot."+hotspotid;
	var hotspot = svgDocument.getElementById(strId);
	if(hotspot)
		hotspot.setAttribute("opacity",".5");
}
function HideHotSpot(evt,hotspotid)
{
	var svgDocument = evt.target.ownerDocument;
	var strId = "hotspot."+hotspotid;
	var hotspot = svgDocument.getElementById(strId);
	if(hotspot)
		hotspot.setAttribute("opacity","0");

	var toolTip = svgDocument.getElementById('ToolTip');
	if(toolTip)
		toolTip.setAttribute("visibility","hidden");
}
function ShowToolTip(evt,hotspotid,strTooltip)
{
	if(strTooltip=="")
	return;

	// change text
	var svgDocument = evt.target.ownerDocument;
	var tiptext = svgDocument.getElementById('ToolTipText');
	if( !tiptext )
	return;
	tiptext.firstChild.nodeValue = " " + strTooltip + "  " ;

	// show tooltip before, else some refresh issue

	var toolTip = svgDocument.getElementById('ToolTip');
	if(!toolTip)
	return;

	toolTip.setAttribute("visibility","visible");
	toolTip.setAttribute("opacity",".95");

	// move tooltip
	// get viewbox

	var root = svgDocument.documentElement;
	var vbox = (root.getAttribute("viewBox")).split(' ');
	var x0 = parseFloat(vbox[0]);
	var y0 = parseFloat(vbox[1]);
	var vboxW = parseFloat(vbox[2]);
	var vboxH = parseFloat(vbox[3]);

	// get default width of svg

	var strW = root.getAttribute("width");
	var svgW = parseFloat(strW);
	if(strW.indexOf('mm') != -1)
	svgW *= 3.779;

	var strH = root.getAttribute("height");
	var svgH = parseFloat(strH);
	if(strH.indexOf('mm') != -1)
	svgH *= 3.779;  	// 96 dpi  -> 96/25.4 = 3.779

	// update the viewbox / width / height if svg is embedded in html with zoom fit all
	var realx0 = x0;
	var realy0 = y0;
	var realvboxW = vboxW;
	var realvboxH = vboxH;
	var realsvgW = svgW;
	var realsvgH = svgH;

	if ((typeof(top) == "undefined") || (typeof(top.svgctl1) != "undefined")) // embedded in html
	{
		// get window size in pxl

		svgW = window.innerWidth;
		svgH = window.innerHeight;

		// calculate real viewbox

		realsvgW = svgW;
		realsvgH = svgH;
		if((svgW / svgH) > (vboxW / vboxH))
		{
			realvboxW = (vboxH * svgW) / svgH;
			realvboxH = vboxH;
			realx0 = x0 - (realvboxW - vboxW)/2 ;
		}
		else
		{
			realvboxH = (vboxW * svgH) / svgW;
			realvboxW = vboxW;
			realy0 = y0 - (realvboxH - vboxH)/2 ;
		}
	}

	// get user zoom/pan

	var newScale = root.currentScale;
	var translation = root.currentTranslate;

	// transform pxl to user unit

	var xPos = (((evt.clientX+10- translation.x)/newScale) * realvboxW)/realsvgW  + realx0 ;
	var yPos = (((evt.clientY+5- translation.y)/newScale) * realvboxH)/ realsvgH  + realy0 ;
	var scaleForWidth = ( (1 / newScale) * realvboxH) / realsvgH;

	// move tooltip

	toolTip.setAttribute("transform", "translate(" + xPos + "," + yPos + ")" );

	// resize tooltip

	var fontsize = 12;
	tiptext.setAttribute("font-size",fontsize*scaleForWidth);
	tiptext.setAttribute("y", fontsize*scaleForWidth);
	var tipBG = svgDocument.getElementById('ToolTipBG');
	var outline = tiptext.getBBox();
	if(tipBG)
	{
		tipBG.setAttribute("stroke-width", 1*scaleForWidth);
		tipBG.setAttribute("width", Number(outline.width) );
		tipBG.setAttribute("height", Number(outline.height) + fontsize*.5*scaleForWidth );
	}
	var ToolTipShadow = svgDocument.getElementById('ToolTipShadow');
	if(ToolTipShadow)
	{
		ToolTipShadow.setAttribute("width", Number(outline.width) );
		ToolTipShadow.setAttribute("height", Number(outline.height) + fontsize*.5*scaleForWidth );
		ToolTipShadow.setAttribute("x", 3*scaleForWidth);
		ToolTipShadow.setAttribute("y", 3*scaleForWidth);
	}
}
function ShowPaper()
{
  var svgDocument = getDocument();
  var paper = svgDocument.getElementById("paperID");
  if(paper)
  {
    paper.setAttribute("transform","scale(1)");
    paper.setAttribute("opacity","1");
    paper.setAttribute("visibility","visible");
  }
  var svg = svgDocument.getRootElement();
  if(svg)
  {
    svg.setAttribute("width","307.000mm");
    svg.setAttribute("height","220.000mm");
    svg.setAttribute("viewBox","-5.000000 -5.000000 307.000000 220.000000");
  }
}
]]></script><defs/><g><path style="fill:#000000;fill-opacity:0.098;fill-rule:evenodd" d="M138.31,11.45L137.89,11.89L136.98,11.85L137.89,11.25zM143.92,13.97L142.69,14.76L142.68,14.21L143.89,13.86zM131.88,14.25L130.65,15.04L130.64,14.49L131.85,14.14zM149.80,16.49L148.57,17.28L148.56,16.73L149.77,16.38zM137.48,16.77L137.12,17.31L136.42,17.17L137.43,16.64zM125.44,17.05L124.21,17.84L124.20,17.29L125.41,16.94zM155.40,19.30L154.43,19.78L154.35,19.47L154.96,19.08zM143.31,19.48L142.61,20.02L142.03,20.06L142.03,19.74L143.31,19.16zM130.98,19.79L130.29,20.30L129.71,20.34L129.70,20.02L130.30,19.65zM119.00,19.85L117.76,20.63L117.68,20.31L118.96,19.73zM160.83,22.26L160.23,22.22L161.24,21.69zM149.23,22.09L148.81,22.53L147.90,22.49L148.81,21.89zM136.91,22.37L136.49,22.81L135.58,22.77L136.49,22.17zM124.60,22.66L123.85,23.10L123.27,23.06L124.17,22.45zM112.21,23.09L110.94,23.41L110.95,23.11L112.22,22.79zM166.69,25.06L166.10,25.09L166.11,24.78L167.35,24.43zM155.07,24.80L154.37,25.34L153.79,25.38L153.79,25.06L155.07,24.48zM142.75,25.08L142.05,25.62L141.47,25.66L141.47,25.34L142.75,24.76zM129.45,25.90L128.86,25.93L128.87,25.62L130.11,25.27zM117.83,25.64L117.13,26.18L116.55,26.22L116.55,25.90L117.83,25.32zM105.40,26.11L103.94,26.49L103.95,26.18L105.51,25.60zM173.60,27.13L172.36,27.91L172.28,27.59L173.56,27.01zM160.95,27.60L160.25,28.14L159.67,28.18L159.67,27.86L160.95,27.28zM148.68,27.69L147.44,28.47L147.36,28.15L148.64,27.57zM136.03,28.16L135.33,28.70L134.75,28.74L134.75,28.42L136.03,27.84zM123.43,28.44L122.73,28.98L122.15,29.02L122.15,28.70L123.43,28.12zM111.16,28.53L109.93,29.32L109.92,28.77L111.13,28.42zM98.56,28.81L97.32,29.59L97.24,29.27L98.52,28.69zM179.76,29.93L178.52,30.71L178.44,30.39L179.72,29.81zM167.16,30.21L165.92,30.99L165.84,30.67L167.12,30.09zM154.51,30.68L153.81,31.22L153.23,31.26L153.23,30.94L154.51,30.36zM141.91,30.96L141.21,31.50L140.63,31.54L140.63,31.22L141.91,30.64zM129.31,31.24L128.61,31.78L128.03,31.82L128.03,31.50L129.31,30.92zM116.60,31.71L115.51,32.10L115.44,31.79L116.71,31.20zM104.00,31.99L102.91,32.38L102.84,32.07L104.11,31.48zM91.56,31.89L90.33,32.68L90.32,32.13L91.53,31.78zM185.87,32.92L185.17,33.46L184.59,33.50L184.59,33.18L185.87,32.60zM173.27,33.20L172.57,33.74L171.99,33.78L171.99,33.46L173.27,32.88zM160.56,33.67L159.47,34.06L159.40,33.75L160.67,33.16zM148.12,33.57L146.88,34.35L146.80,34.03L148.08,33.45zM135.18,34.07L134.49,34.58L133.91,34.62L133.90,34.30L134.50,33.93zM122.59,34.32L121.89,34.86L121.31,34.90L121.31,34.58L122.59,34.00zM110.04,34.41L109.01,35.13L108.42,35.17L108.43,34.86L110.00,34.29zM97.11,34.88L96.41,35.42L95.83,35.46L95.83,35.14L97.11,34.56zM83.52,35.69L82.95,35.74L82.95,35.42L83.52,35.06L84.47,35.07zM192.31,35.72L191.61,36.26L191.03,36.30L191.03,35.98L192.31,35.40zM179.47,36.09L178.25,36.88L178.25,36.34L179.04,35.89zM166.13,36.82L165.54,36.85L165.55,36.54L166.79,36.19zM153.99,36.65L153.57,37.09L152.66,37.05L153.57,36.45zM141.35,36.84L140.65,37.38L140.07,37.42L140.07,37.10L141.35,36.52zM128.45,37.14L127.76,37.65L127.19,37.62L128.09,37.02zM115.63,37.49L115.21,37.93L114.30,37.89L115.21,37.29zM102.75,37.77L101.53,38.56L101.53,38.02L102.32,37.57zM90.10,37.99L88.65,38.84L88.65,38.30L89.43,37.86zM77.22,38.27L75.77,39.12L75.77,38.58L76.55,38.14zM198.79,38.61L197.57,39.40L197.57,38.86L198.36,38.41zM185.92,38.89L184.68,39.67L184.60,39.35L185.88,38.77zM173.04,39.17L171.80,39.95L171.72,39.63L173.00,39.05zM160.11,39.64L159.41,40.18L158.83,40.22L158.83,39.90L160.11,39.32zM147.23,39.92L146.53,40.46L145.95,40.50L145.95,40.18L147.23,39.60zM134.35,40.20L133.65,40.74L133.07,40.78L133.07,40.46L134.35,39.88zM121.47,40.48L120.77,41.02L120.19,41.06L120.19,40.74L121.47,40.16zM108.48,40.95L107.39,41.34L107.32,41.03L108.59,40.44zM95.76,40.85L94.73,41.57L94.14,41.61L94.15,41.30L95.72,40.73zM82.88,41.13L81.85,41.85L81.27,41.90L81.27,41.58L82.85,41.01zM205.17,41.62L204.48,42.13L203.91,42.10L204.81,41.50zM192.29,41.90L191.60,42.41L191.03,42.38L191.93,41.78zM179.41,42.18L178.72,42.69L178.15,42.66L179.05,42.06zM166.53,42.46L165.84,42.97L165.27,42.94L166.17,42.34zM153.43,42.81L152.21,43.60L152.21,43.06L153.00,42.61zM140.55,43.09L139.33,43.88L139.33,43.34L140.12,42.89zM127.61,43.31L126.16,44.15L126.08,43.83L127.58,43.19zM114.51,43.65L113.29,44.44L113.29,43.90L114.08,43.45zM101.64,43.94L100.13,44.71L100.04,44.39L101.20,43.73zM88.47,44.21L87.45,44.93L86.87,44.98L86.87,44.66L88.04,44.01zM211.91,44.68L211.21,45.22L210.63,45.26L210.63,44.94L211.91,44.36zM199.08,44.77L197.84,45.55L197.76,45.23L199.04,44.65zM185.87,45.24L185.17,45.78L184.59,45.82L184.59,45.50L185.87,44.92zM173.04,45.33L171.80,46.11L171.72,45.79L173.00,45.21zM159.83,45.80L159.13,46.34L158.55,46.38L158.55,46.06L159.83,45.48zM146.65,46.10L145.96,46.61L145.39,46.58L146.29,45.98zM133.55,46.45L132.33,47.24L132.33,46.70L133.12,46.25zM120.63,46.64L119.17,47.52L119.17,46.98L120.63,46.32zM107.46,46.95L106.01,47.80L106.01,47.26L106.79,46.82zM94.29,47.22L92.85,48.08L92.84,47.53L94.26,47.11zM218.67,47.57L217.90,48.27L217.35,48.35L217.35,48.02L218.64,47.45zM205.47,48.04L204.57,48.64L204.57,48.10L205.47,47.72zM192.64,48.13L191.40,48.91L191.32,48.59L192.60,48.01zM179.47,48.41L178.70,49.11L178.15,49.19L178.15,48.86L179.44,48.29zM166.27,48.88L165.57,49.42L164.99,49.46L164.99,49.14L166.27,48.56zM153.11,49.16L151.65,50.04L151.65,49.50L153.11,48.84zM139.71,49.53L138.49,50.32L138.49,49.78L139.28,49.33zM126.55,49.81L125.33,50.60L125.33,50.06L126.12,49.61zM113.39,50.09L112.98,50.53L111.80,50.51L112.96,49.89zM100.24,50.38L98.73,51.16L98.72,50.61L100.18,50.23zM225.68,50.65L224.44,51.43L224.36,51.11L225.64,50.53zM212.52,50.93L211.28,51.71L211.20,51.39L212.48,50.81zM199.01,51.42L198.12,51.99L198.03,51.67L198.65,51.29zM185.85,51.70L185.16,52.21L184.59,52.18L185.49,51.58zM172.71,51.96L172.01,52.50L171.43,52.54L171.43,52.22L172.71,51.64zM159.31,52.33L158.09,53.12L158.09,52.58L158.88,52.13zM146.15,52.61L144.93,53.40L144.93,52.86L145.72,52.41zM132.71,52.89L131.49,53.68L131.49,53.14L132.28,52.69zM119.55,53.17L118.53,53.89L117.95,53.94L117.95,53.62L119.12,52.97zM106.11,53.45L105.09,54.17L104.51,54.22L104.51,53.90L105.68,53.25zM219.16,54.22L218.01,55.08L218.01,54.54L219.14,54.10zM206.03,54.48L205.32,55.01L204.75,54.97L206.02,54.15zM192.63,54.85L191.41,55.64L191.41,55.10L192.20,54.65zM179.20,55.13L177.96,55.91L177.88,55.59L179.16,55.01zM166.03,55.41L165.01,56.13L164.43,56.18L164.43,55.86L165.60,55.21zM152.59,55.69L151.57,56.41L150.99,56.46L150.99,56.14L152.16,55.49zM139.16,55.97L138.12,56.68L137.55,56.65L139.12,55.85zM125.67,56.44L124.99,56.96L124.10,56.93L125.67,56.12zM112.23,56.72L110.77,57.60L110.77,57.06L112.23,56.40zM212.75,57.84L212.05,58.38L211.47,58.42L211.47,58.10L212.75,57.52zM199.31,58.12L198.60,58.65L198.04,58.62L199.19,57.76zM185.87,58.40L185.16,58.93L184.59,58.89L185.86,58.07zM172.41,58.70L171.72,59.21L171.15,59.18L172.05,58.58zM158.97,58.98L158.28,59.49L157.71,59.46L158.61,58.86zM145.55,59.24L144.08,60.11L144.00,59.79L145.43,58.88zM131.87,59.61L130.65,60.40L130.65,59.86L131.44,59.41zM118.43,59.89L117.41,60.61L116.83,60.66L116.83,60.34L118.00,59.69zM206.35,61.29L205.13,62.08L205.13,61.54L205.92,61.09zM192.91,61.57L191.88,62.28L191.32,62.26L192.48,61.37zM179.15,62.04L178.45,62.58L177.87,62.62L177.87,62.30L179.15,61.72zM165.41,62.34L164.72,62.85L164.15,62.82L165.05,62.22zM151.99,62.60L150.53,63.48L150.53,62.94L151.99,62.28zM138.25,62.91L136.80,63.75L136.72,63.43L138.22,62.79zM124.59,63.25L123.57,63.97L122.99,64.02L122.99,63.70L124.16,63.05zM199.64,64.93L198.40,65.71L198.32,65.39L199.60,64.81zM185.87,65.40L185.17,65.94L184.59,65.98L184.59,65.66L185.87,65.08zM172.15,65.68L171.44,66.21L170.88,66.18L172.03,65.32zM158.41,65.98L157.72,66.49L157.15,66.46L158.05,65.86zM144.75,66.33L143.53,67.12L143.53,66.58L144.32,66.13zM131.03,66.61L130.01,67.33L129.43,67.38L129.43,67.06L130.60,66.41zM71.86,74.58L76.93,141.34L67.30,146.85L66.82,146.84L60.10,70.94L60.11,67.83zM192.87,68.76L192.17,69.30L191.59,69.34L191.59,69.02L192.87,68.44zM179.15,69.04L177.69,69.92L177.69,69.38L179.15,68.72zM165.19,69.41L163.97,70.20L163.97,69.66L164.76,69.21zM151.41,69.63L150.42,70.38L149.87,70.47L149.87,70.14L151.38,69.51zM137.47,69.97L136.45,70.69L135.87,70.74L135.87,70.42L137.04,69.77zM185.91,72.49L184.68,73.27L184.60,72.96L185.49,72.30zM172.19,72.77L171.17,73.49L170.59,73.54L170.59,73.22L171.76,72.57zM158.19,73.05L157.16,73.76L156.60,73.74L157.76,72.85zM144.15,73.52L142.69,74.40L142.69,73.86L144.15,73.20zM178.84,76.34L177.69,77.20L177.69,76.66L178.82,76.22zM164.91,76.69L163.69,77.48L163.69,76.94L164.48,76.49zM150.91,76.97L149.89,77.69L149.31,77.74L149.31,77.42L150.48,76.77zM171.87,80.24L170.40,81.11L170.32,80.79L171.75,79.88zM157.63,80.61L156.61,81.33L156.03,81.38L156.03,81.06L157.20,80.41zM164.63,84.25L163.61,84.97L163.03,85.02L163.03,84.70L164.20,84.05zM252.28,54.29L243.22,141.30L235.10,146.93L235.30,143.46L242.68,67.84L242.32,67.81L163.15,114.43L161.74,194.22L161.49,198.17L151.67,204.89L151.66,154.74L151.95,111.63L251.83,54.08z"/><g id="Actor_.0"><g style="stroke:#000000;stroke-width:0.176"><path d="M92.64,22.35L196.10,73.30L196.09,73.57"/><path d="M103.96,26.17L102.66,25.54L102.68,26.03L103.99,26.67L105.44,26.04L105.42,25.54L103.96,26.17L103.99,26.67"/><path d="M102.66,25.54L104.12,24.90L105.42,25.54"/><path d="M108.41,28.85L109.62,29.44L109.60,28.94L108.28,28.29L108.29,28.79L108.41,28.85"/><path d="M108.28,28.29L109.73,27.64L111.05,28.29L109.60,28.94"/><path d="M111.05,28.29L111.07,28.79L109.62,29.44"/><path d="M114.12,31.15L113.98,31.08L113.99,31.59L115.33,32.24L115.32,31.74L114.12,31.15"/><path d="M113.98,31.08L115.43,30.43L116.77,31.08L115.32,31.74"/><path d="M116.77,31.08L116.79,31.59L115.33,32.24"/><path d="M120.17,34.62L119.78,34.42L119.76,33.92L121.13,34.59L121.14,35.09L120.17,34.62"/><path d="M119.76,33.92L121.22,33.25L122.58,33.92L121.13,34.59"/><path d="M121.14,35.09L122.59,34.43L122.58,33.92"/><path d="M125.96,37.46L125.65,37.31L125.64,36.80L127.02,37.48L127.03,37.99L125.96,37.46"/><path d="M125.64,36.80L127.10,36.12L128.48,36.80L127.02,37.48"/><path d="M127.03,37.99L128.49,37.31L128.48,36.80"/><path d="M131.74,39.79L131.61,39.73L131.62,40.24L133.02,40.93L133.01,40.41L131.74,39.79"/><path d="M131.61,39.73L133.07,39.04L134.47,39.73L133.01,40.41"/><path d="M133.02,40.93L134.48,40.24L134.47,39.73"/><path d="M138.68,43.19L137.68,42.69L137.68,43.21L139.10,43.91L139.10,43.40L138.68,43.19"/><path d="M137.68,42.69L139.13,42.00L140.56,42.70L139.10,43.40"/><path d="M140.56,42.70L140.56,43.21L139.10,43.91"/><path d="M143.83,46.23L143.83,45.72L145.28,46.43L145.28,46.94L143.83,46.23"/><path d="M143.83,45.72L145.29,45.01L146.74,45.72L145.28,46.43"/><path d="M145.28,46.94L146.74,46.23L146.74,45.72"/><path d="M150.09,49.30L150.09,48.78L151.55,48.06L153.02,48.78L151.56,49.51L151.56,50.02L150.09,49.30"/><path d="M150.09,48.78L151.56,49.51"/><path d="M151.56,50.02L153.02,49.30L153.02,48.78"/><path d="M157.17,52.25L156.45,51.90L156.44,52.42L157.94,53.15L157.94,52.63L157.17,52.25"/><path d="M156.45,51.90L157.90,51.17L159.40,51.90L157.94,52.63"/><path d="M157.94,53.15L159.40,52.42L159.40,51.90"/><path d="M162.90,55.59L162.91,55.07L164.43,55.81L164.42,56.34L162.90,55.59"/><path d="M164.43,55.81L165.89,55.07L164.36,54.32L162.91,55.07"/><path d="M164.42,56.34L165.88,55.59L165.89,55.07"/><path d="M169.53,58.85L171.01,59.57L171.02,59.04L169.48,58.29L169.46,58.81L169.53,58.85"/><path d="M171.02,59.04L172.48,58.29L170.93,57.53L169.48,58.29"/><path d="M171.01,59.57L172.47,58.81L172.48,58.29"/><path d="M177.73,62.33L177.71,62.86L176.14,62.09L176.15,61.56L177.61,60.79L179.18,61.56L177.73,62.33L176.15,61.56"/><path d="M177.71,62.86L179.16,62.09L179.18,61.56"/><path d="M183.75,65.28L182.94,64.89L182.92,65.42L184.52,66.20L185.97,65.42L185.99,64.89L184.54,65.67L183.75,65.28"/><path d="M182.94,64.89L184.39,64.10L185.99,64.89"/><path d="M184.52,66.20L184.54,65.67"/><path d="M191.44,69.60L189.82,68.80L189.84,68.27L191.47,69.07L191.44,69.60L192.90,68.80L192.92,68.27L191.47,69.07"/><path d="M189.84,68.27L191.30,67.48L192.92,68.27"/><path d="M196.10,73.30L200.25,70.99"/></g><g style="stroke:#000000;stroke-width:0.529"><path d="M93.32,22.06L92.64,22.35L92.65,22.59L196.09,73.57L200.23,71.26L200.25,70.99L96.79,20.57L93.32,22.06"/></g></g><g id="Actor_.1"><g style="stroke:#000000;stroke-width:0.176"><path d="M151.75,121.03L151.80,111.68L49.97,53.77"/><path d="M151.80,111.68L252.35,53.82"/></g><g style="stroke:#000000;stroke-width:0.529"><path d="M77.27,41.69L49.97,53.77L50.81,62.42L151.75,121.03L251.44,62.47L252.35,53.82L150.73,9.16L142.93,12.61"/><path d="M81.97,39.61L84.58,38.45"/><path d="M89.21,36.40L91.77,35.27"/><path d="M96.32,33.25L98.83,32.14"/><path d="M103.32,30.15L105.78,29.06"/><path d="M110.20,27.11L112.61,26.04"/><path d="M116.96,24.11L119.33,23.06"/><path d="M125.94,20.14L123.61,21.17"/><path d="M130.16,18.27L132.44,17.26"/><path d="M136.60,15.42L138.84,14.43"/></g></g><g id="Actor_.2"><g style="stroke:#000000;stroke-width:0.176"><path d="M140.35,114.40L151.75,121.03L151.33,205.18"/><path d="M151.75,121.03L163.02,114.40"/></g><g style="stroke:#000000;stroke-width:0.529"><path d="M163.02,114.40L161.60,198.03L151.33,205.18L140.94,198.04L140.35,114.40"/></g></g><g id="Actor_.3"><g style="stroke:#000000;stroke-width:0.176"><path d="M234.94,147.04L242.64,67.64L251.44,62.47"/></g><g style="stroke:#000000;stroke-width:0.529"><path d="M230.34,74.87L224.68,141.34L234.94,147.04L243.13,141.34L251.44,62.47"/></g></g><g id="Actor_.4"><g style="stroke:#000000;stroke-width:0.176"><path d="M50.81,62.42L59.73,67.60L66.77,147.05"/></g><g style="stroke:#000000;stroke-width:0.529"><path d="M50.81,62.42L58.47,141.35L66.77,147.05L76.95,141.34L71.83,74.62"/></g></g><g id="Actor_.5"><g style="stroke:#000000;stroke-width:0.176"><path d="M202.90,69.77L202.91,69.50L99.46,19.43"/><path d="M110.79,23.69L109.49,23.06L109.47,22.56L110.78,23.19L110.79,23.69L112.22,23.06L112.21,22.56L110.78,23.19"/><path d="M109.47,22.56L110.90,21.94L112.21,22.56"/><path d="M115.56,25.50L115.09,25.27L116.52,24.63L117.85,25.27L116.41,25.91L115.56,25.50"/><path d="M116.41,25.91L116.43,26.40L115.11,25.77L115.09,25.27"/><path d="M117.85,25.27L117.86,25.77L116.43,26.40"/><path d="M121.34,28.28L120.79,28.02L120.81,28.52L122.15,29.16L122.14,28.66L121.34,28.28"/><path d="M120.79,28.02L122.23,27.37L123.57,28.02L122.14,28.66"/><path d="M123.57,28.02L123.58,28.52L122.15,29.16"/><path d="M127.96,31.97L126.59,31.31L126.58,30.80L127.95,31.46L129.38,30.81L129.39,31.31L127.96,31.97L127.95,31.46"/><path d="M126.58,30.80L128.02,30.15L129.38,30.81"/><path d="M133.85,34.30L133.86,34.81L132.47,34.14L132.46,33.64L133.90,32.97L135.28,33.64L133.85,34.30L132.46,33.64"/><path d="M133.86,34.81L135.29,34.14L135.28,33.64"/><path d="M138.45,37.02L139.84,37.70L139.84,37.19L138.43,36.51L138.45,37.02"/><path d="M139.84,37.19L141.27,36.51L139.87,35.84L138.43,36.51"/><path d="M139.84,37.70L141.28,37.02L141.27,36.51"/><path d="M145.93,40.12L144.50,39.43L145.93,38.75L147.36,39.43L145.93,40.12L145.93,40.63L144.50,39.94L144.50,39.43"/><path d="M145.93,40.63L147.36,39.95L147.36,39.43"/><path d="M151.26,42.69L150.66,42.40L150.66,42.91L152.11,43.61L152.11,43.10L151.26,42.69"/><path d="M150.66,42.40L152.09,41.71L153.54,42.40L152.11,43.10"/><path d="M152.11,43.61L153.54,42.92L153.54,42.40"/><path d="M156.91,45.42L156.91,45.93L158.38,46.64L159.81,45.93L159.82,45.42L158.35,44.71L156.91,45.42L158.39,46.13L158.38,46.64"/><path d="M158.39,46.13L159.82,45.42"/><path d="M163.27,48.48L163.26,49.00L164.76,49.72L164.77,49.20L163.27,48.48L164.70,47.76L166.20,48.48L164.77,49.20"/><path d="M164.76,49.72L166.19,49.00L166.20,48.48"/><path d="M171.24,52.84L169.72,52.11L169.73,51.59L171.25,52.32L172.68,51.59L172.67,52.11L171.24,52.84L171.25,52.32"/><path d="M169.73,51.59L171.16,50.86L172.68,51.59"/><path d="M176.51,55.38L177.83,56.02L177.84,55.50L176.29,54.75L176.28,55.27L176.51,55.38"/><path d="M177.84,55.50L179.27,54.75L177.72,54.01L176.29,54.75"/><path d="M177.83,56.02L179.25,55.28L179.27,54.75"/><path d="M185.97,57.97L185.95,58.49L184.52,59.25L182.95,58.49L182.97,57.97L184.40,57.21L185.97,57.97L184.54,58.72L182.97,57.97"/><path d="M184.52,59.25L184.54,58.72"/><path d="M190.68,61.68L189.75,61.23L191.18,60.47L192.77,61.23L191.35,62.00L190.68,61.68"/><path d="M192.77,61.23L192.75,61.76L191.32,62.53L189.72,61.76L189.75,61.23"/><path d="M191.32,62.53L191.35,62.00"/><path d="M196.77,64.62L198.27,65.34L198.24,65.87L196.62,65.08L196.64,64.55L196.77,64.62"/><path d="M196.64,64.55L198.07,63.77L199.69,64.55L198.27,65.34"/><path d="M198.24,65.87L199.67,65.09L199.69,64.55"/><path d="M202.91,69.50L206.98,67.23"/></g><g style="stroke:#000000;stroke-width:0.529"><path d="M99.47,19.68L99.46,19.43L103.54,17.68L206.98,67.23L206.97,67.50L202.90,69.77L99.47,19.68"/></g></g><g id="Actor_.6"><g style="stroke:#000000;stroke-width:0.176"><path d="M106.17,16.56L209.61,65.77L209.59,66.04"/><path d="M116.72,19.90L116.17,19.64L116.19,20.13L117.49,20.75L117.47,20.25L116.72,19.90"/><path d="M116.17,19.64L117.58,19.02L118.88,19.64L117.47,20.25"/><path d="M118.88,19.64L118.90,20.13L117.49,20.75"/><path d="M123.12,22.92L121.79,22.30L121.80,22.79L123.13,23.42L123.12,22.92L124.52,22.30L124.54,22.79L123.13,23.42"/><path d="M124.52,22.30L123.20,21.67L121.79,22.30"/><path d="M128.85,26.13L127.51,25.50L127.50,25.00L128.84,25.64L128.85,26.13L130.26,25.50L130.25,25.00L128.91,24.37L127.50,25.00"/><path d="M128.84,25.64L130.25,25.00"/><path d="M134.05,28.60L133.30,28.24L133.29,27.74L134.70,27.10L136.06,27.74L134.66,28.39L134.66,28.89L134.05,28.60"/><path d="M133.29,27.74L134.66,28.39"/><path d="M134.66,28.89L136.07,28.24L136.06,27.74"/><path d="M140.56,31.18L140.56,31.69L139.18,31.03L139.17,30.53L140.58,29.88L141.97,30.53L140.56,31.18L139.17,30.53"/><path d="M140.56,31.69L141.97,31.03L141.97,30.53"/><path d="M145.37,33.46L145.14,33.36L145.15,33.86L146.55,34.53L146.55,34.02L145.37,33.46"/><path d="M145.14,33.36L146.55,32.69L147.96,33.36L146.55,34.02"/><path d="M147.96,33.36L147.96,33.86L146.55,34.53"/><path d="M154.04,36.23L152.62,35.55L151.21,36.23L151.21,36.74L152.63,37.41L152.64,36.90L154.04,36.23L154.04,36.74L152.63,37.41"/><path d="M151.21,36.23L152.64,36.90"/><path d="M157.55,39.23L157.37,39.14L157.36,39.65L158.81,40.34L158.82,39.83L157.55,39.23"/><path d="M157.37,39.14L158.77,38.46L160.23,39.15L158.82,39.83"/><path d="M158.81,40.34L160.22,39.66L160.23,39.15"/><path d="M163.77,42.69L163.61,42.62L163.62,42.11L165.09,42.80L165.09,43.32L163.77,42.69"/><path d="M163.62,42.11L165.03,41.41L166.50,42.11L165.09,42.80"/><path d="M165.09,43.32L166.49,42.62L166.50,42.11"/><path d="M171.04,45.62L169.98,45.12L171.38,44.41L172.88,45.12L171.47,45.82L171.04,45.62"/><path d="M169.98,45.12L169.96,45.63L171.46,46.34L172.87,45.63L172.88,45.12"/><path d="M171.46,46.34L171.47,45.82"/><path d="M177.94,49.41L176.42,48.69L176.43,48.17L177.95,48.89L179.36,48.17L179.34,48.69L177.94,49.41L177.95,48.89"/><path d="M176.43,48.17L177.84,47.46L179.36,48.17"/><path d="M183.75,51.64L182.99,51.28L182.97,51.80L184.52,52.53L184.54,52.01L183.75,51.64"/><path d="M182.99,51.28L184.40,50.55L185.94,51.28L184.54,52.01"/><path d="M184.52,52.53L185.92,51.80L185.94,51.28"/><path d="M192.63,54.44L192.61,54.96L191.21,55.70L189.63,54.96L189.66,54.44L191.06,53.70L192.63,54.44L191.23,55.18L189.66,54.44"/><path d="M191.21,55.70L191.23,55.18"/><path d="M196.41,58.17L196.43,57.64L198.03,58.40L198.00,58.93L196.41,58.17"/><path d="M196.43,57.64L197.83,56.89L199.43,57.65L199.40,58.17L198.00,58.93"/><path d="M198.03,58.40L199.43,57.65"/><path d="M203.29,61.43L204.91,62.20L204.94,61.68L203.32,60.91L203.29,61.43"/><path d="M203.32,60.91L204.72,60.14L206.34,60.91L204.94,61.68"/><path d="M204.91,62.20L206.31,61.43L206.34,60.91"/><path d="M209.61,65.77L213.60,63.54"/></g><g style="stroke:#000000;stroke-width:0.529"><path d="M106.17,16.56L106.18,16.80L209.59,66.04L213.58,63.81L213.60,63.54L110.18,14.84L106.17,16.56"/></g></g><g id="Actor_.7"><g style="stroke:#000000;stroke-width:0.176"><path d="M220.09,59.92L216.17,62.11L112.77,13.74"/><path d="M124.07,17.36L124.08,17.86L122.77,17.25L122.76,16.76L124.07,17.36L125.45,16.76L124.15,16.15L122.76,16.76"/><path d="M124.08,17.86L125.46,17.25L125.45,16.76"/><path d="M128.90,19.62L129.71,19.99L129.72,20.49L128.39,19.87L128.38,19.38L128.90,19.62"/><path d="M128.38,19.38L129.77,18.76L131.09,19.38L129.71,19.99"/><path d="M129.72,20.49L131.10,19.87L131.09,19.38"/><path d="M134.10,22.53L135.44,23.16L135.44,22.66L134.09,22.03L134.10,22.53"/><path d="M134.09,22.03L135.48,21.41L136.82,22.04L135.44,22.66"/><path d="M135.44,23.16L136.83,22.53L136.82,22.04"/><path d="M139.89,24.73L141.25,25.37L141.26,25.87L139.89,25.23L139.89,24.73L141.27,24.10L142.64,24.73L141.25,25.37"/><path d="M141.26,25.87L142.64,25.23L142.64,24.73"/><path d="M146.24,27.69L145.77,27.47L145.77,27.97L147.15,28.62L147.15,28.12L146.24,27.69"/><path d="M147.15,28.12L148.54,27.47L147.15,26.83L145.77,27.47"/><path d="M148.54,27.47L148.54,27.97L147.15,28.62"/><path d="M151.80,30.79L151.74,30.75L151.74,30.25L153.13,29.60L154.53,30.25L153.15,30.91L153.14,31.41L151.80,30.79"/><path d="M151.74,30.25L153.15,30.91"/><path d="M153.14,31.41L154.53,30.76L154.53,30.25"/><path d="M157.80,33.08L157.80,33.58L159.23,34.25L159.23,33.74L157.80,33.08L159.19,32.41L160.62,33.08L159.23,33.74"/><path d="M159.23,34.25L160.61,33.58L160.62,33.08"/><path d="M163.96,35.94L165.41,36.62L165.40,37.13L163.95,36.45L163.96,35.94L165.34,35.27L166.79,35.94L165.41,36.62"/><path d="M165.40,37.13L166.79,36.45L166.79,35.94"/><path d="M170.20,39.36L171.67,40.05L171.69,39.54L170.21,38.85L170.20,39.36"/><path d="M170.21,38.85L171.60,38.17L173.07,38.86L171.69,39.54"/><path d="M171.67,40.05L173.06,39.37L173.07,38.86"/><path d="M176.56,41.81L176.55,42.32L178.04,43.02L178.06,42.51L179.44,41.81L177.95,41.12L176.56,41.81L178.06,42.51"/><path d="M178.04,43.02L179.43,42.32L179.44,41.81"/><path d="M183.41,45.00L183.01,44.82L183.00,45.33L184.52,46.04L184.54,45.52L183.41,45.00"/><path d="M183.01,44.82L184.40,44.11L185.92,44.82L184.54,45.52"/><path d="M184.52,46.04L185.90,45.33L185.92,44.82"/><path d="M189.71,48.46L191.09,49.11L191.11,48.59L192.49,47.87L190.95,47.15L189.57,47.87L189.55,48.39L189.71,48.46"/><path d="M189.57,47.87L191.11,48.59"/><path d="M191.09,49.11L192.47,48.39L192.49,47.87"/><path d="M196.23,50.97L196.20,51.49L197.77,52.22L199.15,51.49L199.18,50.97L197.80,51.70L196.23,50.97L197.61,50.25L199.18,50.97"/><path d="M197.77,52.22L197.80,51.70"/><path d="M203.23,54.23L203.00,54.12L202.97,54.64L204.57,55.38L204.59,54.86L203.23,54.23"/><path d="M203.00,54.12L204.37,53.38L205.97,54.12L204.59,54.86"/><path d="M205.97,54.12L205.94,54.65L204.57,55.38"/><path d="M209.84,57.85L209.88,57.33L211.50,58.08L211.46,58.61L209.84,57.85"/><path d="M209.88,57.33L211.25,56.57L212.87,57.33L211.50,58.08"/><path d="M211.46,58.61L212.84,57.85L212.87,57.33"/><path d="M216.15,62.37L216.17,62.11"/></g><g style="stroke:#000000;stroke-width:0.529"><path d="M112.78,13.98L112.77,13.74L116.72,12.05L220.09,59.92L220.07,60.19L216.15,62.37L112.78,13.98"/></g></g><g id="Actor_.8"><g style="stroke:#000000;stroke-width:0.176"><path d="M119.27,10.96L222.62,58.51L222.60,58.78"/><path d="M130.56,15.01L129.25,14.41L129.24,13.92L130.55,14.52L130.56,15.01L131.92,14.41L131.91,13.93L130.55,14.52"/><path d="M129.24,13.92L130.61,13.33L131.91,13.93"/><path d="M136.20,17.11L134.87,16.50L134.88,16.99L136.20,17.60L137.56,16.99L137.56,16.50L136.20,17.11L136.20,17.60"/><path d="M134.87,16.50L136.23,15.90L137.56,16.50"/><path d="M140.99,19.30L140.58,19.12L140.58,19.61L141.93,20.23L141.92,19.73L140.99,19.30"/><path d="M141.92,19.73L143.29,19.12L141.94,18.50L140.58,19.12"/><path d="M141.93,20.23L143.29,19.61L143.29,19.12"/><path d="M147.74,22.89L146.38,22.27L146.38,21.77L147.74,22.40L147.74,22.89L149.10,22.27L149.10,21.77L147.74,22.40"/><path d="M146.38,21.77L147.74,21.15L149.10,21.77"/><path d="M152.54,24.60L152.26,24.47L152.25,24.96L153.64,25.60L153.64,25.10L152.54,24.60"/><path d="M152.26,24.47L153.62,23.83L155.00,24.47L153.64,25.10"/><path d="M153.64,25.60L155.00,24.96L155.00,24.47"/><path d="M159.63,28.34L158.22,27.69L158.23,27.20L159.63,27.84L161.00,27.20L160.99,27.69L159.63,28.34L159.63,27.84"/><path d="M158.23,27.20L159.59,26.56L161.00,27.20"/><path d="M167.08,29.98L165.65,29.33L164.29,29.98L165.72,30.63L167.08,29.98L167.07,30.48L165.71,31.13L165.72,30.63"/><path d="M165.71,31.13L164.28,30.48L164.29,29.98"/><path d="M171.89,33.46L170.44,32.80L170.43,33.30L171.88,33.96L173.24,33.30L173.25,32.80L171.89,33.46L171.88,33.96"/><path d="M170.44,32.80L171.80,32.13L173.25,32.80"/><path d="M176.68,36.17L178.15,36.84L178.16,36.33L176.69,35.66L176.68,36.17"/><path d="M176.69,35.66L178.05,34.99L179.52,35.66L178.16,36.33"/><path d="M178.15,36.84L179.51,36.17L179.52,35.66"/><path d="M183.04,38.57L183.02,39.07L184.51,39.76L184.53,39.25L185.89,38.57L184.40,37.88L183.04,38.57L184.53,39.25"/><path d="M184.51,39.76L185.87,39.08L185.89,38.57"/><path d="M192.36,41.52L190.84,40.83L189.48,41.52L189.46,42.03L190.98,42.73L191.00,42.21L192.36,41.52L192.34,42.03L190.98,42.73"/><path d="M189.48,41.52L191.00,42.21"/><path d="M197.58,45.22L197.55,45.74L196.01,45.03L196.03,44.52L197.58,45.22L198.93,44.52L197.39,43.81L196.03,44.52"/><path d="M197.55,45.74L198.91,45.03L198.93,44.52"/><path d="M203.39,47.89L202.69,47.56L202.66,48.08L204.22,48.80L204.25,48.28L203.39,47.89"/><path d="M204.25,48.28L205.61,47.57L204.04,46.85L202.69,47.56"/><path d="M204.22,48.80L205.58,48.08L205.61,47.57"/><path d="M210.33,51.06L209.44,50.66L210.80,49.93L212.39,50.66L211.04,51.39L210.33,51.06"/><path d="M211.04,51.39L211.01,51.91L209.41,51.18L209.44,50.66"/><path d="M212.39,50.66L212.36,51.18L211.01,51.91"/><path d="M217.90,55.07L216.28,54.33L216.32,53.81L217.93,54.55L219.28,53.81L219.25,54.33L217.90,55.07L217.93,54.55"/><path d="M216.32,53.81L217.67,53.07L219.28,53.81"/><path d="M222.62,58.51L226.47,56.37"/></g><g style="stroke:#000000;stroke-width:0.529"><path d="M120.01,11.54L222.60,58.78L226.45,56.63L226.47,56.37L123.16,9.29L119.27,10.96L119.28,11.20L120.01,11.54"/></g></g><g id="Actor_.9"><g style="stroke:#000000;stroke-width:0.176"><path d="M125.66,8.22L228.95,54.98L232.73,52.87"/><path d="M135.63,11.62L136.94,12.21L136.93,11.73L135.62,11.14L135.63,11.62"/><path d="M135.62,11.14L136.96,10.55L138.27,11.14L136.93,11.73"/><path d="M136.94,12.21L138.28,11.62L138.27,11.14"/><path d="M142.58,14.76L141.25,14.16L141.25,13.67L142.58,14.27L143.92,13.67L143.92,14.16L142.58,14.76L142.58,14.27"/><path d="M141.25,13.67L142.59,13.08L143.92,13.67"/><path d="M147.92,16.68L146.96,16.25L146.96,16.74L148.31,17.34L148.31,16.85L147.92,16.68"/><path d="M146.96,16.25L148.30,15.64L149.65,16.25L148.31,16.85"/><path d="M148.31,17.34L149.65,16.74L149.65,16.25"/><path d="M153.70,19.28L152.76,18.86L152.75,19.35L154.12,19.97L154.12,19.47L153.70,19.28"/><path d="M152.76,18.86L154.10,18.25L155.46,18.86L154.12,19.47"/><path d="M154.12,19.97L155.46,19.35L155.46,18.86"/><path d="M160.02,22.13L158.64,21.51L158.63,22.00L160.02,22.63L160.02,22.13L161.36,21.51L161.36,22.00L160.02,22.63"/><path d="M158.64,21.51L159.98,20.89L161.36,21.51"/><path d="M164.68,24.23L164.61,24.20L164.60,24.70L166.00,25.33L166.01,24.83L164.68,24.23"/><path d="M164.61,24.20L165.95,23.57L167.35,24.20L166.01,24.83"/><path d="M166.00,25.33L167.34,24.70L167.35,24.20"/><path d="M172.09,27.57L170.67,26.93L170.65,27.43L172.08,28.07L172.09,27.57L173.43,26.93L173.42,27.43L172.08,28.07"/><path d="M170.67,26.93L172.00,26.29L173.43,26.93"/><path d="M178.25,30.86L176.80,30.20L176.82,29.70L178.27,30.35L179.60,29.70L179.59,30.20L178.25,30.86L178.27,30.35"/><path d="M176.82,29.70L178.15,29.05L179.60,29.70"/><path d="M184.51,33.68L183.04,33.02L183.06,32.52L184.53,33.18L184.51,33.68L185.85,33.02L185.87,32.52L184.53,33.18"/><path d="M183.06,32.52L184.40,31.86L185.87,32.52"/><path d="M190.90,36.05L190.87,36.55L189.38,35.88L189.40,35.37L190.74,34.70L192.23,35.37L190.90,36.05L189.40,35.37"/><path d="M190.87,36.55L192.21,35.88L192.23,35.37"/><path d="M195.84,38.28L195.82,38.79L197.34,39.47L197.36,38.96L195.84,38.28L197.18,37.60L198.70,38.28L197.36,38.96"/><path d="M197.34,39.47L198.67,38.79L198.70,38.28"/><path d="M203.08,41.54L203.93,41.92L203.90,42.43L202.36,41.74L202.38,41.22L203.08,41.54"/><path d="M203.93,41.92L205.26,41.23L203.72,40.53L202.38,41.22"/><path d="M203.90,42.43L205.23,41.74L205.26,41.23"/><path d="M209.00,44.73L210.56,45.44L211.89,44.73L211.93,44.22L210.59,44.92L209.03,44.22L209.00,44.73"/><path d="M211.93,44.22L210.36,43.52L209.03,44.22"/><path d="M210.56,45.44L210.59,44.92"/><path d="M215.74,47.78L215.78,47.26L217.37,47.98L217.33,48.50L215.74,47.78"/><path d="M215.78,47.26L217.11,46.55L218.70,47.26L217.37,47.98"/><path d="M217.33,48.50L218.66,47.78L218.70,47.26"/><path d="M222.60,50.87L224.22,51.60L224.26,51.08L222.64,50.35L222.60,50.87"/><path d="M222.64,50.35L223.97,49.63L225.58,50.35L224.26,51.08"/><path d="M225.58,50.35L225.54,50.87L224.22,51.60"/><path d="M228.93,55.24L228.95,54.98"/></g><g style="stroke:#000000;stroke-width:0.529"><path d="M125.96,8.09L125.66,8.22L125.67,8.46L228.93,55.24L232.71,53.13L232.73,52.87L129.49,6.58L125.96,8.09"/></g></g><g id="Actor_.10"><g style="stroke:#000000;stroke-width:0.176"><path d="M189.15,77.45L189.16,77.18L85.71,25.31"/><path d="M97.04,29.21L97.07,29.71L95.76,29.06L95.74,28.56L97.04,29.21L98.52,28.56L97.22,27.92L95.74,28.56"/><path d="M97.07,29.71L98.54,29.06L98.52,28.56"/><path d="M102.67,32.02L101.35,31.36L101.37,31.86L102.69,32.52L102.67,32.02L104.15,31.36L104.17,31.86L102.69,32.52"/><path d="M101.35,31.36L102.83,30.70L104.15,31.36"/><path d="M108.40,35.38L107.06,34.71L107.04,34.20L108.38,34.87L109.86,34.20L109.88,34.71L108.40,35.38L108.38,34.87"/><path d="M107.04,34.20L108.52,33.53L109.86,34.20"/><path d="M113.25,37.80L112.84,37.59L112.82,37.09L114.31,36.41L115.67,37.09L114.19,37.76L114.20,38.27L113.25,37.80"/><path d="M112.82,37.09L114.19,37.76"/><path d="M114.20,38.27L115.68,37.59L115.67,37.09"/><path d="M121.56,40.02L120.19,39.33L118.70,40.02L118.71,40.53L120.10,41.22L120.08,40.71L121.56,40.02L121.58,40.53L120.10,41.22"/><path d="M118.70,40.02L120.08,40.71"/><path d="M126.07,43.69L124.66,42.99L124.68,43.51L126.08,44.21L127.56,43.51L127.55,42.99L126.07,43.69L126.08,44.21"/><path d="M124.66,42.99L126.15,42.29L127.55,42.99"/><path d="M131.00,46.15L130.72,46.02L130.73,46.53L132.16,47.25L132.15,46.73L131.00,46.15"/><path d="M130.72,46.02L132.21,45.31L133.64,46.02L132.15,46.73"/><path d="M133.64,46.02L133.64,46.53L132.16,47.25"/><path d="M136.90,49.62L136.89,49.61L136.88,49.09L138.33,49.81L138.34,50.33L136.90,49.62"/><path d="M136.88,49.09L138.37,48.37L139.82,49.09L138.33,49.81"/><path d="M138.34,50.33L139.82,49.61L139.82,49.09"/><path d="M143.30,52.81L143.14,52.73L143.14,52.21L144.61,52.95L144.62,53.47L143.30,52.81"/><path d="M143.14,52.21L144.62,51.48L146.10,52.21L144.61,52.95"/><path d="M144.62,53.47L146.10,52.73L146.10,52.21"/><path d="M149.50,55.38L149.50,55.91L150.99,56.65L151.00,56.13L149.50,55.38L150.98,54.64L152.48,55.38L151.00,56.13"/><path d="M150.99,56.65L152.48,55.91L152.48,55.38"/><path d="M155.96,59.13L157.48,59.89L157.49,59.37L155.96,58.61L155.96,59.13"/><path d="M155.96,58.61L157.45,57.85L158.97,58.61L157.49,59.37"/><path d="M157.48,59.89L158.96,59.13L158.97,58.61"/><path d="M162.95,62.62L162.52,62.41L162.53,61.89L164.08,62.66L164.07,63.19L162.95,62.62"/><path d="M164.08,62.66L165.56,61.89L164.02,61.12L162.53,61.89"/><path d="M164.07,63.19L165.56,62.42L165.56,61.89"/><path d="M169.21,65.22L170.79,66.00L170.78,66.54L169.20,65.75L169.21,65.22L170.70,64.44L172.27,65.22L170.79,66.00"/><path d="M170.78,66.54L172.26,65.75L172.27,65.22"/><path d="M176.00,68.61L177.61,69.41L179.09,68.61L177.49,67.81L176.00,68.61L175.99,69.14L177.59,69.94L177.61,69.41"/><path d="M177.59,69.94L179.07,69.14L179.09,68.61"/><path d="M183.75,72.47L182.91,72.05L182.89,72.59L184.52,73.40L184.54,72.87L183.75,72.47"/><path d="M182.91,72.05L184.39,71.25L186.02,72.05L184.54,72.87"/><path d="M184.52,73.40L186.00,72.59L186.02,72.05"/><path d="M189.16,77.18L193.38,74.82"/></g><g style="stroke:#000000;stroke-width:0.529"><path d="M85.72,25.56L85.71,25.31L89.92,23.51L193.38,74.82L193.37,75.09L189.15,77.45L85.72,25.56"/></g></g><g id="Actor_.11"><g style="stroke:#000000;stroke-width:0.176"><path d="M186.39,78.72L182.08,81.12L78.66,28.33"/><path d="M90.00,32.31L88.70,31.64L88.73,32.14L90.03,32.80L91.53,32.14L91.50,31.64L90.00,32.31L90.03,32.80"/><path d="M88.70,31.64L90.20,30.98L91.50,31.64"/><path d="M94.56,34.62L94.30,34.48L95.80,33.82L97.12,34.48L95.62,35.15L94.56,34.62"/><path d="M94.30,34.48L94.32,34.99L95.64,35.66L95.62,35.15"/><path d="M97.12,34.48L97.15,34.99L95.64,35.66"/><path d="M100.40,38.08L101.35,38.56L102.86,37.88L102.83,37.37L101.33,38.05L99.99,37.37L100.01,37.88L100.40,38.08"/><path d="M99.99,37.37L101.49,36.70L102.83,37.37"/><path d="M101.35,38.56L101.33,38.05"/><path d="M106.32,40.59L105.77,40.31L105.79,40.82L107.15,41.51L107.13,41.00L106.32,40.59"/><path d="M105.77,40.31L107.27,39.62L108.63,40.31L107.13,41.00"/><path d="M107.15,41.51L108.65,40.82L108.63,40.31"/><path d="M112.10,44.03L111.65,43.80L111.63,43.29L113.02,43.99L113.03,44.51L112.10,44.03"/><path d="M111.63,43.29L113.14,42.59L114.53,43.29L113.02,43.99"/><path d="M113.03,44.51L114.54,43.80L114.53,43.29"/><path d="M117.61,46.83L119.02,47.55L119.00,47.03L117.60,46.32L117.61,46.83"/><path d="M117.60,46.32L119.11,45.61L120.51,46.32L119.00,47.03"/><path d="M119.02,47.55L120.52,46.83L120.51,46.32"/><path d="M124.09,49.62L123.65,49.39L125.16,48.67L126.59,49.40L125.08,50.12L124.09,49.62"/><path d="M123.65,49.39L123.67,49.91L125.09,50.64L125.08,50.12"/><path d="M126.59,49.40L126.60,49.91L125.09,50.64"/><path d="M131.26,53.26L129.82,52.52L129.82,53.04L131.27,53.78L131.26,53.26L132.77,52.52L131.32,51.79L129.82,52.52"/><path d="M131.27,53.78L132.78,53.04L132.77,52.52"/><path d="M136.37,55.85L136.07,55.70L136.07,56.22L137.55,56.97L137.54,56.45L136.37,55.85"/><path d="M136.07,55.70L137.58,54.95L139.05,55.70L137.54,56.45"/><path d="M137.55,56.97L139.06,56.22L139.05,55.70"/><path d="M143.93,60.22L142.43,59.46L142.43,58.93L143.94,58.17L145.43,58.93L143.92,59.69L143.93,60.22L145.44,59.46L145.43,58.93"/><path d="M142.43,58.93L143.92,59.69"/><path d="M149.08,62.31L148.89,62.21L148.89,62.74L150.41,63.52L150.41,62.99L149.08,62.31"/><path d="M148.89,62.21L150.40,61.44L151.92,62.21L150.41,62.99"/><path d="M151.92,62.21L151.92,62.74L150.41,63.52"/><path d="M155.89,65.77L155.46,65.55L155.46,66.08L157.01,66.87L157.01,66.34L155.89,65.77"/><path d="M155.46,65.55L156.97,64.77L158.52,65.55L157.01,66.34"/><path d="M157.01,66.87L158.52,66.08L158.52,65.55"/><path d="M162.70,69.23L163.72,69.75L163.71,70.28L162.14,69.48L162.14,68.95L162.70,69.23"/><path d="M162.14,68.95L163.65,68.15L165.23,68.95L163.72,69.75"/><path d="M163.71,70.28L165.22,69.48L165.23,68.95"/><path d="M169.88,72.88L168.94,72.40L170.45,71.59L172.05,72.40L170.54,73.21L169.88,72.88"/><path d="M168.94,72.40L168.93,72.94L170.53,73.75L170.54,73.21"/><path d="M172.05,72.40L172.04,72.94L170.53,73.75"/><path d="M176.81,76.95L175.84,76.45L175.85,75.91L177.48,76.74L177.47,77.28L176.81,76.95"/><path d="M175.85,75.91L177.36,75.09L178.99,75.91L177.48,76.74"/><path d="M177.47,77.28L178.97,76.45L178.99,75.91"/><path d="M182.08,81.12L182.07,81.40"/></g><g style="stroke:#000000;stroke-width:0.529"><path d="M79.20,28.85L182.07,81.40L186.38,78.99L186.39,78.72L82.94,26.50L78.66,28.33L78.68,28.58L79.20,28.85"/></g></g><g id="Actor_.12"><g style="stroke:#000000;stroke-width:0.176"><path d="M71.49,31.40L174.87,85.15L179.26,82.70"/><path d="M82.05,35.52L81.57,35.27L81.54,34.77L83.07,34.10L84.36,34.77L82.83,35.44L82.87,35.94L82.05,35.52"/><path d="M81.54,34.77L82.83,35.44"/><path d="M82.87,35.94L84.39,35.27L84.36,34.77"/><path d="M88.48,38.85L87.16,38.17L87.13,37.66L88.45,38.34L89.98,37.66L90.01,38.17L88.48,38.85L88.45,38.34"/><path d="M87.13,37.66L88.66,36.98L89.98,37.66"/><path d="M93.61,41.01L92.81,40.60L92.84,41.11L94.18,41.80L94.15,41.29L93.61,41.01"/><path d="M92.81,40.60L94.34,39.91L95.68,40.60L94.15,41.29"/><path d="M94.18,41.80L95.71,41.11L95.68,40.60"/><path d="M99.39,44.00L98.58,43.59L98.61,44.10L99.97,44.80L99.94,44.29L99.39,44.00"/><path d="M98.58,43.59L100.12,42.89L101.48,43.59L99.94,44.29"/><path d="M101.48,43.59L101.50,44.10L99.97,44.80"/><path d="M105.16,47.50L104.47,47.14L104.45,46.62L105.83,47.33L105.85,47.85L105.16,47.50"/><path d="M104.45,46.62L105.98,45.91L107.36,46.62L105.83,47.33"/><path d="M105.85,47.85L107.38,47.14L107.36,46.62"/><path d="M110.94,49.98L110.41,49.70L110.42,50.22L111.83,50.95L111.81,50.43L110.94,49.98"/><path d="M111.81,50.43L113.34,49.70L111.94,48.98L110.41,49.70"/><path d="M111.83,50.95L113.36,50.22L113.34,49.70"/><path d="M116.47,53.36L117.90,54.09L117.88,53.57L116.46,52.83L116.47,53.36"/><path d="M116.46,52.83L118.00,52.10L119.42,52.83L117.88,53.57"/><path d="M117.90,54.09L119.44,53.36L119.42,52.83"/><path d="M123.62,56.54L122.61,56.02L122.63,56.54L124.07,57.29L124.06,56.77L123.62,56.54"/><path d="M122.61,56.02L124.15,55.27L125.60,56.02L124.06,56.77"/><path d="M124.07,57.29L125.61,56.54L125.60,56.02"/><path d="M129.30,60.00L128.87,59.78L128.87,59.25L130.40,58.49L131.88,59.25L130.34,60.01L130.35,60.54L129.30,60.00"/><path d="M128.87,59.25L130.34,60.01"/><path d="M130.35,60.54L131.89,59.78L131.88,59.25"/><path d="M136.73,63.85L135.23,63.07L135.22,62.54L136.76,61.77L138.26,62.54L136.72,63.32L136.73,63.85L138.26,63.07L138.26,62.54"/><path d="M135.22,62.54L136.72,63.32"/><path d="M143.21,66.67L141.69,65.89L143.22,65.10L144.75,65.89L143.21,66.67L143.21,67.21L141.69,66.42L141.69,65.89"/><path d="M143.21,67.21L144.75,66.42L144.75,65.89"/><path d="M148.26,69.29L148.26,69.82L149.81,70.62L149.81,70.09L148.26,69.29L149.80,68.49L151.35,69.29L149.81,70.09"/><path d="M149.81,70.62L151.35,69.82L151.35,69.29"/><path d="M154.94,73.28L156.51,74.10L156.52,73.56L154.94,72.74L154.94,73.28"/><path d="M154.94,72.74L156.48,71.93L158.06,72.74L156.52,73.56"/><path d="M156.51,74.10L158.05,73.28L158.06,72.74"/><path d="M164.88,76.26L164.87,76.80L163.34,77.63L161.73,76.80L161.74,76.26L163.28,75.44L164.88,76.26L163.35,77.09L161.74,76.26"/><path d="M163.34,77.63L163.35,77.09"/><path d="M168.72,79.87L168.66,79.84L168.65,80.38L170.28,81.23L170.29,80.68L168.72,79.87"/><path d="M168.66,79.84L170.20,79.00L171.83,79.84L170.29,80.68"/><path d="M170.28,81.23L171.81,80.38L171.83,79.84"/><path d="M174.86,85.42L174.87,85.15"/></g><g style="stroke:#000000;stroke-width:0.529"><path d="M71.65,31.33L71.49,31.40L71.51,31.65L174.86,85.42L179.25,82.97L179.26,82.70L75.85,29.53L71.65,31.33"/></g></g><g id="Actor_.13"><g style="stroke:#000000;stroke-width:0.176"><path d="M167.51,89.52L167.52,89.25L64.20,34.51"/><path d="M74.29,38.46L74.25,37.95L75.55,38.63L75.58,39.14L74.29,38.46"/><path d="M75.55,38.63L77.10,37.95L75.81,37.27L74.25,37.95"/><path d="M75.58,39.14L77.14,38.46L77.10,37.95"/><path d="M81.19,42.10L79.87,41.40L79.84,40.89L81.15,41.59L82.71,40.89L82.74,41.40L81.19,42.10L81.15,41.59"/><path d="M82.71,40.89L81.39,40.20L79.84,40.89"/><path d="M86.88,45.10L85.54,44.40L85.52,43.89L86.85,44.59L86.88,45.10L88.44,44.40L88.41,43.88L86.85,44.59"/><path d="M85.52,43.89L87.07,43.18L88.41,43.88"/><path d="M91.28,46.92L92.84,46.21L94.19,46.92L92.63,47.64L91.28,46.92L91.30,47.44L92.66,48.15L92.63,47.64"/><path d="M94.19,46.92L94.22,47.44L92.66,48.15"/><path d="M98.51,50.74L98.54,51.26L97.16,50.53L97.13,50.01L98.69,49.28L100.08,50.01L98.51,50.74L97.13,50.01"/><path d="M98.54,51.26L100.10,50.53L100.08,50.01"/><path d="M104.49,53.89L103.08,53.15L103.11,53.67L104.51,54.41L106.07,53.67L106.05,53.15L104.49,53.89L104.51,54.41"/><path d="M103.08,53.15L104.65,52.41L106.05,53.15"/><path d="M109.52,56.54L109.13,56.33L110.70,55.59L112.12,56.34L110.56,57.09L109.52,56.54"/><path d="M109.13,56.33L109.15,56.86L110.58,57.61L110.56,57.09"/><path d="M110.58,57.61L112.14,56.86L112.12,56.34"/><path d="M115.30,60.10L116.75,60.87L116.73,60.34L115.28,59.58L115.30,60.10"/><path d="M115.28,59.58L116.85,58.81L118.30,59.58L116.73,60.34"/><path d="M116.75,60.87L118.31,60.10L118.30,59.58"/><path d="M123.00,63.65L123.02,64.18L121.55,63.40L121.53,62.87L123.10,62.10L124.57,62.87L123.00,63.65L121.53,62.87"/><path d="M123.02,64.18L124.58,63.40L124.57,62.87"/><path d="M129.38,67.01L129.39,67.54L127.90,66.75L127.89,66.22L129.45,65.43L130.95,66.22L129.38,67.01L127.89,66.22"/><path d="M129.39,67.54L130.96,66.75L130.95,66.22"/><path d="M137.44,69.63L135.92,68.83L134.35,69.63L134.35,70.16L135.88,70.97L135.87,70.43L137.44,69.63L137.45,70.16L135.88,70.97"/><path d="M134.35,69.63L135.87,70.43"/><path d="M142.47,74.45L140.92,73.63L140.92,73.09L142.47,73.91L144.04,73.09L144.04,73.63L142.47,74.45L142.47,73.91"/><path d="M140.92,73.09L142.49,72.28L144.04,73.09"/><path d="M147.92,77.32L147.60,77.15L147.60,76.61L149.18,77.45L149.18,77.99L147.92,77.32"/><path d="M147.60,76.61L149.17,75.79L150.75,76.61L149.18,77.45"/><path d="M149.18,77.99L150.75,77.16L150.75,76.61"/><path d="M154.45,80.77L156.01,81.58L156.01,81.04L154.40,80.20L154.40,80.74L154.45,80.77"/><path d="M154.40,80.20L155.97,79.36L157.58,80.20L156.01,81.04"/><path d="M157.58,80.20L157.57,80.74L156.01,81.58"/><path d="M161.32,84.39L161.32,83.85L162.96,84.71L162.95,85.25L161.32,84.39"/><path d="M161.32,83.85L162.89,82.99L164.52,83.85L162.96,84.71"/><path d="M162.95,85.25L164.51,84.39L164.52,83.85"/><path d="M167.52,89.25L171.99,86.75"/></g><g style="stroke:#000000;stroke-width:0.529"><path d="M64.22,34.77L64.20,34.51L68.63,32.62L171.99,86.75L171.98,87.03L167.51,89.52L64.22,34.77"/></g></g><g/><g id="paperID" visibility="hidden" opacity="0.00" transform="scale(0.000100)"><path style="stroke:#000000;stroke-width:0.500;fill:#e6e6e6;fill-rule:evenodd" d="M-2000.00,-2000.00L2297.00,-2000.00L2297.00,2210.00L-2000.00,2210.00zM0.00,0.00L297.00,0.00L297.00,210.00L0.00,210.00z"/><path style="fill:#000000;fill-opacity:0.118" d="M3.00,210.00L297.00,210.00L297.00,3.00L300.00,3.00L300.00,213.00L3.00,213.00z"/></g><g id="ToolTip" visibility="hidden" opacity="0" transform="translate(0,0)"><rect id="ToolTipShadow" opacity="0.20" fill="black" stroke="none" x="0" y="0" width="30" height="8"/><rect id="ToolTipBG" fill="#ffffe1" stroke="black" x="0" y="0" width="30" height="8"/><text xml:space="preserve" id="ToolTipText" fill="black" x="0" y="0" width="30" height="8">tooltip</text></g></g></svg>
