<?xml version="1.0" encoding="UTF-8" standalone="no"?>
<svg xmlns="http://www.w3.org/2000/svg" xmlns:xlink="http://www.w3.org/1999/xlink" width="297.000mm" height="210.000mm" viewBox="0.000000 0.000000 297.000000 210.000000" stroke-linejoin="round" stroke-linecap="round" fill="none" fill-rule="evenodd"><desc>3DVIA Composer Export</desc><script type="text/ecmascript"><![CDATA[
if(typeof(top) != "undefined")
{
	top.ShowPaper = ShowPaper;
}
function ShowHotSpot(evt,hotspotid)
{
	var svgDocument = evt.target.ownerDocument;
	var strId = "hotspot."+hotspotid;
	var hotspot = svgDocument.getElementById(strId);
	if(hotspot)
		hotspot.setAttribute("opacity",".5");
}
function HideHotSpot(evt,hotspotid)
{
	var svgDocument = evt.target.ownerDocument;
	var strId = "hotspot."+hotspotid;
	var hotspot = svgDocument.getElementById(strId);
	if(hotspot)
		hotspot.setAttribute("opacity","0");

	var toolTip = svgDocument.getElementById('ToolTip');
	if(toolTip)
		toolTip.setAttribute("visibility","hidden");
}
function ShowToolTip(evt,hotspotid,strTooltip)
{
	if(strTooltip=="")
	return;

	// change text
	var svgDocument = evt.target.ownerDocument;
	var tiptext = svgDocument.getElementById('ToolTipText');
	if( !tiptext )
	return;
	tiptext.firstChild.nodeValue = " " + strTooltip + "  " ;

	// show tooltip before, else some refresh issue

	var toolTip = svgDocument.getElementById('ToolTip');
	if(!toolTip)
	return;

	toolTip.setAttribute("visibility","visible");
	toolTip.setAttribute("opacity",".95");

	// move tooltip
	// get viewbox

	var root = svgDocument.documentElement;
	var vbox = (root.getAttribute("viewBox")).split(' ');
	var x0 = parseFloat(vbox[0]);
	var y0 = parseFloat(vbox[1]);
	var vboxW = parseFloat(vbox[2]);
	var vboxH = parseFloat(vbox[3]);

	// get default width of svg

	var strW = root.getAttribute("width");
	var svgW = parseFloat(strW);
	if(strW.indexOf('mm') != -1)
	svgW *= 3.779;

	var strH = root.getAttribute("height");
	var svgH = parseFloat(strH);
	if(strH.indexOf('mm') != -1)
	svgH *= 3.779;  	// 96 dpi  -> 96/25.4 = 3.779

	// update the viewbox / width / height if svg is embedded in html with zoom fit all
	var realx0 = x0;
	var realy0 = y0;
	var realvboxW = vboxW;
	var realvboxH = vboxH;
	var realsvgW = svgW;
	var realsvgH = svgH;

	if ((typeof(top) == "undefined") || (typeof(top.svgctl1) != "undefined")) // embedded in html
	{
		// get window size in pxl

		svgW = window.innerWidth;
		svgH = window.innerHeight;

		// calculate real viewbox

		realsvgW = svgW;
		realsvgH = svgH;
		if((svgW / svgH) > (vboxW / vboxH))
		{
			realvboxW = (vboxH * svgW) / svgH;
			realvboxH = vboxH;
			realx0 = x0 - (realvboxW - vboxW)/2 ;
		}
		else
		{
			realvboxH = (vboxW * svgH) / svgW;
			realvboxW = vboxW;
			realy0 = y0 - (realvboxH - vboxH)/2 ;
		}
	}

	// get user zoom/pan

	var newScale = root.currentScale;
	var translation = root.currentTranslate;

	// transform pxl to user unit

	var xPos = (((evt.clientX+10- translation.x)/newScale) * realvboxW)/realsvgW  + realx0 ;
	var yPos = (((evt.clientY+5- translation.y)/newScale) * realvboxH)/ realsvgH  + realy0 ;
	var scaleForWidth = ( (1 / newScale) * realvboxH) / realsvgH;

	// move tooltip

	toolTip.setAttribute("transform", "translate(" + xPos + "," + yPos + ")" );

	// resize tooltip

	var fontsize = 12;
	tiptext.setAttribute("font-size",fontsize*scaleForWidth);
	tiptext.setAttribute("y", fontsize*scaleForWidth);
	var tipBG = svgDocument.getElementById('ToolTipBG');
	var outline = tiptext.getBBox();
	if(tipBG)
	{
		tipBG.setAttribute("stroke-width", 1*scaleForWidth);
		tipBG.setAttribute("width", Number(outline.width) );
		tipBG.setAttribute("height", Number(outline.height) + fontsize*.5*scaleForWidth );
	}
	var ToolTipShadow = svgDocument.getElementById('ToolTipShadow');
	if(ToolTipShadow)
	{
		ToolTipShadow.setAttribute("width", Number(outline.width) );
		ToolTipShadow.setAttribute("height", Number(outline.height) + fontsize*.5*scaleForWidth );
		ToolTipShadow.setAttribute("x", 3*scaleForWidth);
		ToolTipShadow.setAttribute("y", 3*scaleForWidth);
	}
}
function ShowPaper()
{
  var svgDocument = getDocument();
  var paper = svgDocument.getElementById("paperID");
  if(paper)
  {
    paper.setAttribute("transform","scale(1)");
    paper.setAttribute("opacity","1");
    paper.setAttribute("visibility","visible");
  }
  var svg = svgDocument.getRootElement();
  if(svg)
  {
    svg.setAttribute("width","307.000mm");
    svg.setAttribute("height","220.000mm");
    svg.setAttribute("viewBox","-5.000000 -5.000000 307.000000 220.000000");
  }
}
]]></script><defs/><g><path style="fill:#000000;fill-opacity:0.098;fill-rule:evenodd" d="M153.34,16.33L153.25,18.01L132.35,28.21L132.04,25.25L131.72,25.25L131.53,28.49L124.51,32.10L123.58,32.41L123.36,29.45L123.04,29.45L122.85,32.69L115.83,36.30L114.90,36.61L114.70,33.67L114.45,36.89L107.15,40.50L106.22,40.81L106.04,37.88L105.77,37.94L105.46,41.34L98.47,44.70L97.54,45.01L97.36,42.08L97.09,42.14L96.78,45.54L88.67,49.49L88.36,46.53L88.04,46.53L87.85,49.77L80.46,53.59L79.62,53.69L79.44,50.76L79.17,50.82L78.86,54.22L70.47,58.45L70.20,55.24L69.93,55.30L69.65,58.73L62.35,62.34L61.42,62.65L60.96,59.72L60.69,59.78L60.66,63.19L51.99,67.41L51.72,64.20L51.45,64.26L51.17,67.69L42.75,71.89L42.50,68.70L41.84,68.95L41.81,72.33L18.67,83.62L17.73,83.93L17.55,82.41L17.46,77.38L148.21,14.07L148.59,14.07zM162.05,20.50L162.02,22.03L141.03,32.41L140.72,29.45L140.40,29.45L140.21,32.69L132.35,36.61L132.04,33.65L131.72,33.65L131.53,36.89L124.51,40.50L123.58,40.81L123.40,37.88L123.13,37.94L122.82,41.34L117.23,44.15L114.89,45.01L114.72,42.08L114.45,42.14L114.14,45.54L106.31,49.49L106.00,46.53L105.68,46.53L105.49,49.77L98.10,53.59L97.26,53.69L97.08,50.76L96.81,50.82L96.50,54.22L89.23,57.86L88.30,58.17L88.08,55.21L87.76,55.21L87.54,58.70L79.90,62.55L79.06,62.65L78.88,59.72L78.61,59.78L78.30,63.18L70.66,67.03L69.82,67.13L69.64,64.20L69.37,64.26L69.34,67.57L60.66,71.88L60.40,68.68L60.13,68.74L59.85,72.17L52.27,76.06L51.34,76.37L51.16,73.99L50.87,73.45L50.59,73.51L50.58,76.90L26.96,88.61L26.43,88.67L26.20,88.04L26.23,81.95L156.61,18.27L157.55,18.27zM170.15,24.20L170.72,24.20L170.73,25.97L149.71,36.61L149.40,33.65L149.08,33.65L148.89,36.89L141.87,40.50L140.94,40.81L140.66,37.88L140.18,41.34L133.47,44.70L132.54,45.01L132.32,42.05L132.00,42.05L131.78,45.54L124.51,49.18L123.58,49.49L123.36,46.53L123.04,46.53L122.82,50.02L115.83,53.38L114.90,53.69L114.72,50.76L114.45,50.82L114.14,54.22L106.87,57.86L105.94,58.17L105.76,55.24L105.49,55.30L105.18,58.70L97.91,62.34L96.98,62.65L96.76,59.69L96.44,59.69L96.22,63.18L88.95,66.82L88.03,67.12L87.80,66.78L87.56,64.20L87.29,64.26L87.26,67.66L78.87,71.89L78.57,68.95L77.97,68.92L78.05,72.17L70.09,76.28L69.35,76.28L69.04,73.41L68.72,73.41L68.78,76.81L60.11,81.13L59.84,77.92L59.57,77.98L59.29,81.41L36.03,93.14L35.10,93.45L34.90,91.38L34.82,86.90L160.62,24.82L165.98,22.22zM179.66,28.74L179.29,30.33L159.23,40.50L158.30,40.81L158.10,37.87L157.55,41.35L150.83,44.70L149.90,45.01L149.72,42.08L149.45,42.14L149.14,45.54L141.31,49.49L141.00,46.53L140.68,46.53L140.49,49.77L133.47,53.38L132.54,53.69L132.36,50.76L132.09,50.82L131.78,54.22L125.26,57.50L125.08,59.32L124.81,59.59L124.54,58.05L123.67,58.46L123.38,55.23L123.10,58.70L116.58,61.98L116.40,63.80L116.13,64.07L115.83,62.50L114.89,62.65L114.68,59.69L114.36,59.69L114.14,63.18L107.99,66.27L107.68,68.27L107.36,68.28L107.18,66.74L105.94,67.13L105.47,64.21L105.19,64.27L105.18,67.66L99.22,70.66L99.04,72.48L98.77,72.75L98.47,71.19L98.12,71.16L96.79,71.89L96.52,68.68L96.25,68.74L95.97,72.17L90.63,74.95L90.32,76.95L90.00,76.96L89.82,75.42L88.39,76.06L87.46,76.37L87.24,73.41L86.92,73.41L86.70,76.90L81.67,79.43L81.40,81.44L81.13,81.71L80.85,79.90L78.31,81.13L78.04,77.92L77.77,77.98L77.49,81.41L72.62,84.10L72.44,85.92L72.17,86.19L71.87,84.63L71.52,84.60L69.25,85.81L68.78,85.80L68.52,82.68L68.25,82.74L67.94,86.42L63.47,88.67L63.16,90.67L62.84,90.68L62.66,89.14L54.14,93.34L53.94,95.13L53.66,93.86L53.02,93.86L44.99,97.91L44.70,101.01L44.16,98.41L43.89,98.44L43.78,91.66L179.69,23.90zM188.37,34.37L168.19,44.70L167.26,45.01L167.08,42.08L166.81,42.14L166.50,45.54L158.95,49.49L158.64,46.53L158.32,46.53L158.13,49.77L151.11,53.38L150.18,53.69L150.00,50.76L149.73,50.82L149.42,54.22L142.43,57.86L141.50,58.17L141.28,55.21L140.96,55.21L140.74,58.70L133.66,62.26L133.44,64.35L133.12,64.36L132.88,62.84L132.56,62.60L132.36,59.72L132.09,59.78L131.78,63.18L125.35,66.55L125.08,68.56L124.81,68.83L124.54,67.03L123.86,67.13L123.64,64.17L123.32,64.17L123.10,67.66L116.58,70.94L116.36,73.03L116.04,73.04L115.83,71.47L115.48,71.44L114.71,71.90L114.40,68.93L114.08,68.93L113.89,72.17L107.90,75.42L107.68,77.51L107.36,77.52L107.15,75.95L106.80,75.92L106.20,76.29L105.66,76.37L105.44,73.41L105.12,73.41L104.90,76.90L98.94,79.90L98.72,81.99L98.40,82.00L98.19,80.43L97.84,80.40L96.51,81.13L96.24,77.92L95.97,77.98L95.57,81.57L90.06,84.48L90.05,86.46L89.71,86.48L89.51,84.91L89.16,84.88L87.27,85.89L87.00,82.68L86.73,82.74L86.45,86.17L81.11,88.95L80.82,91.21L80.28,89.43L77.75,90.65L77.48,87.44L77.21,87.50L76.90,91.18L72.06,93.62L71.84,95.71L71.52,95.72L71.31,94.15L70.96,94.12L62.91,98.19L62.60,100.47L62.28,100.47L62.09,98.66L53.67,102.95L53.40,105.52L53.13,105.79L52.82,103.42L52.44,96.71L187.69,28.38L188.62,28.07zM197.58,36.02L197.21,38.73L176.31,49.49L175.94,46.56L175.37,49.93L168.75,53.38L167.82,53.69L167.64,50.76L167.37,50.82L167.06,54.22L160.07,57.86L159.14,58.17L158.96,55.24L158.69,55.30L158.38,58.70L151.39,62.34L150.46,62.65L150.24,59.69L149.92,59.69L149.70,63.18L142.34,67.02L142.12,69.11L141.80,69.11L141.59,67.57L141.56,64.17L141.24,64.17L141.02,67.66L133.94,71.22L133.76,73.32L133.49,73.59L133.20,71.81L132.93,71.84L132.64,68.68L132.37,68.74L132.09,72.17L125.26,75.70L125.08,77.80L124.81,78.07L124.50,76.23L123.95,76.33L123.64,73.41L123.32,73.41L123.02,76.82L116.58,80.18L116.40,82.28L116.13,82.55L115.83,80.71L115.48,80.68L114.71,81.14L114.44,77.92L114.17,77.98L113.77,81.57L107.71,84.75L107.40,87.03L107.08,87.03L106.89,85.22L105.47,85.89L105.20,82.68L104.93,82.74L104.65,86.17L98.66,89.41L98.73,91.50L98.41,91.51L98.21,89.70L96.23,90.65L95.96,87.44L95.69,87.50L95.41,90.93L89.79,93.99L89.51,96.24L88.97,94.47L86.99,95.41L86.70,94.46L86.40,92.45L86.08,92.45L86.15,95.72L80.74,98.66L80.56,100.76L80.29,101.03L79.98,99.19L79.64,99.16L71.50,103.42L71.32,105.52L71.05,105.79L70.74,103.95L70.40,103.92L62.35,107.99L62.08,110.28L61.81,110.55L61.70,101.46L197.49,32.27L197.61,32.30zM206.57,42.77L186.39,53.38L185.46,53.69L185.28,50.76L185.01,50.82L184.70,54.22L177.71,57.86L176.78,58.17L176.58,55.23L176.02,58.70L168.65,62.57L168.08,62.63L168.16,59.69L167.84,59.69L167.53,63.09L159.51,67.41L159.49,64.18L159.17,64.17L158.95,66.83L158.68,67.68L151.02,71.78L150.80,73.59L150.48,73.59L150.56,68.68L150.29,68.74L150.01,72.17L142.71,76.07L142.44,77.80L142.17,78.07L141.87,76.53L141.56,73.41L141.24,73.41L141.02,76.90L134.03,80.55L133.72,82.55L133.40,82.56L133.20,81.05L132.93,81.08L132.64,77.92L132.37,77.98L131.97,81.57L125.35,85.03L125.04,87.03L124.72,87.04L124.54,85.51L123.86,85.61L123.68,82.68L123.41,82.74L123.13,86.17L116.67,89.51L116.36,91.51L116.04,91.52L115.83,90.23L115.48,90.20L114.71,90.66L114.44,87.44L114.17,87.50L113.89,90.93L107.71,94.27L107.44,96.00L107.17,96.27L106.89,94.74L105.47,95.41L105.20,92.20L104.93,92.26L104.65,95.69L98.66,98.94L98.48,100.76L98.21,101.03L97.91,99.47L95.86,100.17L95.64,97.21L95.32,97.21L95.10,100.70L89.42,103.70L89.24,105.52L88.97,105.79L88.67,104.23L88.31,104.20L80.26,108.54L79.96,110.28L79.64,110.28L79.46,109.02L70.83,113.37L70.66,106.50L206.57,36.50zM215.78,45.82L215.53,47.25L194.97,58.09L194.41,58.16L194.48,55.21L194.16,55.21L193.85,58.61L187.14,62.26L186.02,62.65L185.84,59.72L185.57,59.78L185.26,63.18L178.27,66.82L177.34,67.13L177.14,64.19L176.62,67.70L168.75,71.89L168.48,68.69L168.17,69.01L167.93,72.17L159.85,76.45L159.76,73.41L159.44,73.41L159.41,76.36L159.85,76.45L159.80,77.80L159.53,78.08L159.22,77.07L158.88,77.04L151.29,81.01L151.08,82.55L150.75,82.54L150.84,77.92L150.57,77.98L150.17,81.57L142.99,85.31L142.72,86.76L142.45,87.03L142.14,86.06L141.88,82.68L141.61,82.74L141.33,86.17L134.21,89.97L134.00,91.52L133.69,91.51L133.43,90.56L133.12,90.32L132.88,87.41L132.56,87.41L132.37,90.93L125.25,94.73L125.04,96.28L124.73,96.27L124.49,95.28L123.95,95.37L123.68,92.20L123.41,92.26L123.13,95.69L116.39,99.31L116.12,100.76L115.85,101.04L115.57,99.76L115.15,100.03L114.62,100.18L114.45,97.80L114.11,97.22L113.79,97.21L113.86,100.70L107.43,104.07L107.16,105.52L106.89,105.80L106.61,104.53L105.19,105.21L104.92,102.00L104.65,102.06L104.26,105.66L98.46,108.82L98.20,110.28L97.93,110.56L97.65,109.29L89.23,113.59L88.96,115.04L88.69,115.32L88.42,114.06L80.27,118.37L79.98,114.34L79.90,111.54L215.44,40.92L215.78,40.95zM225.02,50.58L224.74,51.70L204.03,62.65L203.72,59.69L203.40,59.69L203.09,63.09L196.19,66.82L195.26,67.13L194.98,64.20L194.50,67.66L186.67,71.89L186.68,68.68L186.41,68.74L186.10,72.14L179.01,75.97L177.90,76.37L178.00,73.16L177.73,73.22L177.45,76.37L177.13,76.89L169.31,81.13L169.04,77.92L168.77,77.98L168.76,82.29L168.49,82.55L168.17,81.86L167.84,81.80L160.35,85.86L160.04,87.03L159.74,87.01L159.51,86.36L151.58,90.54L151.38,91.48L151.12,87.44L150.85,87.50L150.57,90.93L142.99,95.10L142.68,96.27L142.36,96.27L142.16,92.20L141.89,92.26L141.61,95.69L134.22,99.78L134.03,100.76L133.78,101.03L133.12,100.12L132.88,97.21L132.56,97.21L132.34,100.70L125.27,104.55L125.07,105.52L124.82,105.79L124.48,105.10L123.96,105.17L123.68,102.00L123.41,102.06L123.13,105.49L116.31,109.31L116.11,110.28L115.86,110.55L115.53,109.86L115.20,109.80L114.43,110.26L114.16,107.04L113.89,107.10L113.61,110.53L107.35,114.07L107.15,115.04L106.90,115.31L106.57,114.62L106.24,114.56L98.19,118.91L97.88,120.07L97.58,120.05L97.35,119.40L89.94,123.30L89.42,123.42L89.42,116.58L224.93,45.15L225.05,45.18zM234.26,55.90L214.30,66.74L213.18,67.13L213.00,64.21L212.69,64.53L212.42,67.66L205.71,71.30L204.78,71.61L204.60,68.68L204.33,68.74L204.02,72.14L196.19,76.37L195.88,73.41L195.56,73.41L195.34,76.90L187.51,81.13L187.24,77.92L186.97,77.98L186.69,81.41L179.67,85.30L178.74,85.61L178.56,82.68L178.29,82.74L178.00,86.16L177.46,87.00L177.14,86.66L170.71,90.06L169.78,90.37L169.60,87.44L169.33,87.50L168.92,91.70L168.36,91.38L160.72,95.48L160.64,92.20L160.37,92.26L160.35,95.31L160.72,95.48L160.52,96.19L160.07,95.91L152.48,99.84L151.90,100.73L151.60,100.75L151.36,97.21L151.04,97.21L150.85,100.73L143.19,104.83L142.73,105.79L142.44,102.00L142.17,102.06L141.89,105.49L134.48,109.56L133.90,110.44L133.20,110.21L132.92,107.04L132.65,107.10L132.25,110.69L125.52,114.32L124.82,115.28L124.51,114.94L123.95,115.28L123.64,112.05L123.32,112.05L123.13,115.57L116.55,119.07L116.09,120.04L115.17,119.90L107.32,124.12L106.62,125.08L106.19,124.69L99.87,128.14L98.94,128.45L98.63,121.87L234.20,49.60L234.54,49.63zM243.70,60.30L223.63,71.30L222.70,71.61L222.52,68.68L222.25,68.74L221.97,72.17L214.58,76.30L214.00,76.35L214.08,73.41L213.76,73.41L213.57,76.65L206.55,80.54L205.62,80.85L205.44,77.92L205.17,77.98L204.89,81.41L197.87,85.30L196.94,85.61L196.76,82.68L196.49,82.74L196.21,86.17L188.07,90.65L188.04,87.41L187.72,87.41L187.52,90.64L187.12,91.08L179.39,95.41L179.12,92.20L178.85,92.26L178.46,95.86L170.43,100.17L170.12,97.21L169.80,97.21L169.62,100.74L160.99,105.27L160.92,102.00L160.65,102.06L160.64,105.12L160.99,105.27L159.41,106.21L152.37,110.13L151.86,110.17L151.92,107.01L151.60,107.01L151.38,110.50L143.30,115.03L142.62,115.30L142.44,112.08L142.17,112.14L141.77,115.73L133.46,120.32L133.16,117.09L132.84,117.09L132.65,120.61L121.46,126.78L108.55,133.77L108.25,127.05L243.98,53.83L244.11,53.88zM253.30,64.86L232.31,76.37L232.04,73.45L231.73,73.77L231.46,76.90L224.75,80.54L223.82,80.85L223.64,77.92L223.37,77.98L223.09,81.41L216.07,85.30L215.14,85.61L214.96,82.68L214.69,82.74L214.41,86.17L207.39,90.06L206.46,90.37L206.28,87.44L206.01,87.50L205.73,90.93L198.71,94.82L197.78,95.13L197.60,92.20L197.33,92.26L197.05,95.69L189.34,100.06L188.82,100.18L188.60,97.21L188.28,97.21L188.06,100.70L179.95,105.21L179.68,102.00L179.41,102.06L179.13,105.49L171.83,109.66L170.90,109.97L170.68,107.01L170.36,107.01L170.14,110.50L162.59,114.70L161.66,115.01L161.44,112.05L161.12,112.05L160.93,115.57L153.35,119.74L152.42,120.05L152.20,117.09L151.88,117.09L151.69,120.61L143.83,125.06L142.90,125.37L142.72,122.16L142.45,122.22L142.14,125.90L118.50,138.98L117.98,139.10L117.98,132.26L253.61,58.34zM263.20,63.25L262.85,69.37L241.82,81.12L241.84,77.92L241.57,77.98L241.26,81.38L234.27,85.30L233.34,85.61L233.42,82.66L233.08,82.65L232.62,86.18L225.46,90.26L224.94,90.38L224.76,87.44L224.49,87.50L224.18,90.90L217.38,94.74L216.26,95.13L216.08,92.20L215.81,92.26L215.53,95.69L207.98,99.91L207.30,100.18L207.40,96.96L207.13,97.02L206.54,100.70L199.74,104.54L198.62,104.93L198.44,102.00L198.17,102.06L197.89,105.49L190.59,109.66L189.66,109.97L189.44,107.01L189.12,107.01L188.90,110.50L180.51,115.29L180.41,111.78L179.93,112.73L179.69,115.57L172.58,119.66L171.46,120.05L171.24,117.09L170.92,117.09L170.73,120.61L162.87,125.06L161.94,125.37L162.04,122.16L161.77,122.21L161.18,125.90L152.79,130.69L152.48,127.45L152.16,127.45L151.97,130.97L128.30,144.30L127.78,144.42L127.78,137.58L262.76,63.04zM272.65,73.85L252.09,85.53L251.53,85.60L251.60,82.65L251.28,82.65L251.08,85.60L250.80,86.16L244.26,89.98L243.14,90.37L243.21,87.42L242.88,87.41L242.41,90.93L234.53,95.40L234.56,92.20L234.29,92.26L233.98,95.66L226.15,100.17L225.88,96.96L225.61,97.02L225.33,100.45L217.19,105.21L217.16,101.97L216.84,101.97L216.37,105.49L208.94,109.86L208.42,109.98L208.20,107.01L207.88,107.01L207.66,110.50L199.98,114.90L199.46,115.02L199.24,112.05L198.92,112.05L198.70,115.54L190.31,120.33L190.28,117.09L189.96,117.09L189.50,120.62L181.35,125.37L181.08,122.16L180.81,122.22L180.53,125.65L172.95,130.10L172.02,130.41L171.80,127.45L171.48,127.45L171.29,130.69L170.97,131.21L163.62,135.34L162.50,135.73L162.28,132.77L161.96,132.77L161.77,136.29L138.51,149.42L137.58,149.73L137.58,142.90L272.55,67.52L272.90,67.55zM35.48,105.52L35.21,105.79L35.12,102.53L35.44,102.53zM43.52,107.29L43.84,107.29L43.86,110.53L43.59,109.01zM224.18,109.10L223.90,110.24L223.93,107.10L224.20,107.04zM70.83,113.37L70.72,115.31L70.40,115.31L70.47,113.20zM52.20,112.05L52.52,112.05L52.55,115.28L52.25,114.64zM233.68,115.03L233.36,115.03L233.45,111.86L233.72,111.80zM215.52,115.04L215.25,115.31L215.22,113.02L215.50,112.07zM79.49,117.00L79.68,120.07L79.36,120.07L79.42,116.83zM61.48,120.08L61.16,120.07L61.17,116.81L61.50,116.82zM243.24,119.80L242.97,120.08L242.95,118.62L243.25,116.62L243.54,116.58zM225.04,119.80L224.75,120.06L224.92,116.80L225.32,116.56zM207.11,119.19L206.81,120.03L206.76,116.81L207.08,116.81zM234.80,124.83L234.48,124.83L234.57,121.66L234.84,121.60zM216.60,124.83L216.28,124.83L216.37,121.66L216.64,121.60zM198.44,124.56L198.17,124.83L198.17,121.66L198.44,121.60zM88.68,124.84L88.41,125.11L88.41,121.66L88.68,121.60zM70.16,125.11L69.84,125.11L69.84,121.85L70.16,121.85zM254.23,122.33L253.88,128.48L253.61,128.75L253.59,127.02L253.89,122.22zM226.51,126.80L226.12,129.87L225.79,129.86L226.08,126.61zM207.96,129.60L207.69,129.87L207.69,126.70L207.96,126.64zM189.44,129.87L189.12,129.87L189.18,127.58L189.46,126.63zM97.64,129.88L97.37,130.15L97.37,126.70L97.64,126.64zM79.16,129.88L78.89,130.15L78.89,126.70L79.16,126.64zM106.33,131.73L106.60,131.68L106.86,134.90L106.52,134.91L106.31,133.65zM245.48,133.52L245.21,133.79L245.18,130.94L245.40,127.17L245.72,127.17zM217.83,131.84L217.42,134.90L217.11,134.81L217.40,131.65zM199.28,134.33L198.97,134.88L198.92,131.65L199.24,131.65zM180.80,134.64L180.53,134.91L180.44,131.65L180.76,131.65zM88.12,134.92L87.85,135.19L87.85,131.74L88.12,131.68zM237.07,137.67L236.77,138.51L236.77,132.88L237.07,132.24zM208.76,139.95L208.44,139.95L208.50,137.66L208.78,136.71zM190.28,139.95L189.96,139.95L190.05,136.78L190.32,136.72zM171.80,139.95L171.48,139.95L171.48,136.69L171.80,136.69zM115.84,139.96L115.57,140.23L115.57,136.78L115.84,136.72zM97.36,139.96L97.09,140.23L97.09,136.78L97.36,136.72zM228.40,143.60L228.13,143.87L228.11,138.50L228.41,137.06L228.69,137.02zM200.12,144.72L199.85,144.99L199.85,141.82L200.12,141.76zM181.36,145.00L181.09,145.27L181.09,141.82L181.36,141.76zM162.60,145.00L162.33,145.27L162.24,142.01L162.56,142.01zM125.36,145.00L125.09,145.27L125.09,141.82L125.36,141.76zM106.56,145.27L106.24,145.27L106.24,142.01L106.56,142.01zM219.70,147.74L219.43,148.92L219.15,149.18L219.45,142.38L219.72,142.32zM191.16,150.04L190.89,150.31L190.80,147.05L191.12,147.05zM172.36,150.31L172.04,150.31L172.04,147.05L172.36,147.05zM153.71,147.24L153.35,150.32L153.09,150.60L153.07,149.42L153.28,147.05zM134.60,150.32L134.33,150.59L134.33,147.14L134.60,147.08zM115.84,150.32L115.57,150.59L115.57,147.14L115.84,147.08zM210.76,153.96L210.49,154.23L210.46,149.70L210.77,147.42L211.04,147.36zM181.88,155.63L181.56,155.63L181.61,152.73L181.92,152.41zM163.16,155.36L162.89,155.63L162.80,152.37L163.12,152.37zM144.08,155.63L143.76,155.63L143.85,152.46L144.12,152.40zM125.32,155.63L125.00,155.63L125.00,152.37L125.32,152.37zM201.80,159.28L201.53,159.55L201.50,155.30L201.81,152.74L202.08,152.68zM172.96,160.68L172.69,160.95L172.69,157.50L172.96,157.44zM153.92,160.68L153.65,160.95L153.65,157.50L153.92,157.44zM134.84,160.95L134.52,160.95L134.52,157.69L134.84,157.69zM192.84,164.60L192.57,164.87L192.48,158.25L192.80,158.25zM163.71,165.39L163.17,166.55L163.15,165.38L163.45,162.82L163.72,162.76zM144.40,166.28L144.13,166.55L144.13,163.10L144.40,163.04zM183.56,170.19L183.24,170.19L183.30,165.66L183.61,163.38L183.88,163.32zM154.20,171.60L153.93,171.87L153.93,168.42L154.20,168.36zM174.36,175.52L174.09,175.79L174.06,169.86L174.28,168.89L174.61,168.89zM165.08,181.11L164.76,181.11L164.76,174.49L165.08,174.49zM159.85,76.45L159.41,76.36L159.44,73.41L159.76,73.41zM160.04,85.63L159.72,85.63L159.81,82.74L160.08,82.68zM160.37,92.26L160.64,92.20L160.72,95.48L160.35,95.31zM160.65,102.06L160.92,102.00L160.99,105.27L160.64,105.12z"/><g id="Actor_.0"><g style="stroke:#000000;stroke-width:0.176;stroke-opacity:0.50"><path d="M118.64,0.00L170.24,24.20L170.24,24.27"/><path d="M170.24,24.20L219.01,0.00"/></g><g style="stroke:#000000;stroke-width:0.529;stroke-opacity:0.50"><path d="M118.48,0.00L170.24,24.27L219.16,0.00"/></g></g><g id="Actor_.1"><g style="stroke:#000000;stroke-width:0.176"><path d="M26.01,97.68L34.87,102.60L35.00,105.86L35.50,105.61L35.52,106.15L35.00,105.86"/><path d="M35.50,105.61L35.39,102.89L35.47,102.85"/><path d="M35.39,102.89L43.44,107.36L43.56,110.63L44.06,110.37"/><path d="M34.87,102.60L35.45,102.31"/><path d="M43.56,110.63L44.08,110.92L43.97,107.65L44.04,107.61"/><path d="M43.44,107.36L44.02,107.07"/><path d="M43.97,107.65L52.11,112.16L52.21,115.45L52.74,115.74L52.63,112.46L60.86,117.02L60.95,120.31L61.47,120.04"/><path d="M52.21,115.45L52.72,115.18"/><path d="M52.11,112.16L52.68,111.87"/><path d="M52.63,112.46L52.70,112.42"/><path d="M60.95,120.31L61.48,120.61L61.39,117.32L69.70,121.93L69.78,125.23L70.32,125.53L70.24,122.23L78.64,126.89L79.21,126.58"/><path d="M60.86,117.02L61.43,116.72"/><path d="M61.45,117.29L61.39,117.32"/><path d="M69.78,125.23L70.31,124.95"/><path d="M69.70,121.93L70.28,121.63"/><path d="M70.29,122.20L70.24,122.23"/><path d="M79.23,127.17L79.19,127.19L79.25,130.50L78.71,130.20L79.24,129.92"/><path d="M78.71,130.20L78.64,126.89"/><path d="M79.19,127.19L87.68,131.90L87.73,135.22L88.27,134.93"/><path d="M87.73,135.22L88.28,135.53L88.23,132.21L96.81,136.97L96.85,140.30L97.39,140.00"/><path d="M87.68,131.90L88.25,131.59"/><path d="M88.26,132.19L88.23,132.21"/><path d="M96.85,140.30L97.40,140.61L97.36,137.28L106.03,142.09L106.06,145.43L106.63,145.75L106.62,145.13L106.06,145.43"/><path d="M96.81,136.97L97.38,136.66"/><path d="M97.36,137.28L97.39,137.26"/><path d="M106.62,145.13L106.60,142.40L115.37,147.27L115.38,150.62L115.94,150.31L115.95,150.94L115.38,150.62"/><path d="M106.03,142.09L106.61,141.77"/><path d="M115.94,150.31L115.93,147.58L124.80,152.50L124.80,155.86L125.37,155.54L125.37,156.18L124.80,155.86"/><path d="M115.37,147.27L115.94,146.95"/><path d="M125.37,152.82L134.33,157.79L134.31,161.17L134.89,160.84L134.89,161.49L134.31,161.17"/><path d="M124.80,152.50L125.37,152.18"/><path d="M134.33,157.79L134.90,157.47"/><path d="M134.91,158.11L143.97,163.14L144.54,162.81"/><path d="M144.53,166.21L144.53,166.85L143.94,166.53L144.51,166.20"/><path d="M143.94,166.53L143.97,163.14"/><path d="M144.56,163.47L153.72,168.55L153.67,171.94L154.24,171.61"/><path d="M153.67,171.94L154.26,172.27L154.27,171.64"/><path d="M153.72,168.55L154.29,168.22"/><path d="M154.31,168.88L164.62,174.60L164.50,181.41"/><path d="M164.62,174.60L165.19,174.26"/></g><g style="stroke:#000000;stroke-width:0.529"><path d="M134.89,160.84L134.91,158.11L135.48,157.79L144.54,162.81L144.51,166.20L144.53,166.21L144.56,163.47L145.13,163.14L154.29,168.22L154.24,171.61L154.27,171.63L154.31,168.88L154.88,168.55L165.19,174.26L165.07,181.07L164.50,181.41L26.28,104.17L26.01,97.68L26.58,97.39L35.45,102.31L35.47,102.85L35.96,102.60L44.02,107.07L44.04,107.61L44.54,107.36L52.68,111.87L52.70,112.42L53.21,112.16L61.43,116.72L61.45,117.29L61.96,117.02L70.28,121.63L70.29,122.20L70.81,121.93L79.21,126.58L79.23,127.17L79.76,126.89L88.25,131.59L88.26,132.19L88.80,131.90L97.38,136.66L97.39,137.26L97.93,136.97L106.61,141.77L106.61,142.39L107.17,142.09L115.94,146.95L115.94,147.58L116.51,147.26L125.37,152.18L125.37,155.54"/><path d="M125.37,153.46L125.37,152.82L125.94,152.50L134.90,157.47L134.89,159.23"/></g></g><g id="Actor_.2"><g style="stroke:#000000;stroke-width:0.176"><path d="M16.72,77.14L17.24,77.42L17.55,84.14"/><path d="M17.24,77.42L153.47,11.57"/><path d="M42.50,71.99L42.39,68.66L41.88,68.90"/><path d="M51.89,67.41L51.79,64.10L51.28,64.34"/><path d="M60.58,59.83L61.09,59.58L61.18,62.88"/><path d="M69.78,55.36L70.29,55.11L70.37,58.41"/><path d="M79.46,53.98L79.40,50.70L78.89,50.95"/><path d="M88.46,49.59L88.41,46.32L87.89,46.57"/><path d="M97.36,45.26L97.32,42.00L96.81,42.25"/><path d="M105.61,37.98L106.14,37.72L106.17,40.96"/><path d="M114.89,36.72L114.87,33.48L114.35,33.74"/><path d="M123.51,32.51L123.51,29.29L122.99,29.54L122.99,32.26"/><path d="M132.05,28.35L132.06,25.14L131.55,25.39L131.54,28.11"/></g><g style="stroke:#000000;stroke-width:0.529"><path d="M17.03,83.86L16.72,77.14L152.95,11.33L153.47,11.57L153.40,17.95L132.05,28.35L131.54,28.11L131.54,28.60L123.51,32.51L122.99,32.26L122.99,32.77L114.89,36.72L114.37,36.46L114.35,35.77L114.36,36.97L106.17,40.96L105.65,40.71L105.63,40.38L105.64,41.22L97.36,45.26L96.85,45.00L96.81,42.25L96.78,42.26L96.82,45.52L88.46,49.59L87.94,49.33L87.89,46.57L87.86,46.59L87.91,49.86L79.46,53.98L78.94,53.71L78.89,50.95L78.85,50.96L78.91,54.24L70.37,58.41L69.85,58.14L69.78,55.36L69.74,55.38L69.82,58.68L61.18,62.88L60.66,62.61L60.58,59.83L60.53,59.85L60.62,63.16L51.89,67.41L51.37,67.14L51.28,64.34L51.22,64.37L51.32,67.69L42.50,71.99L41.98,71.71L41.88,68.90L41.81,68.94L41.93,72.26L17.55,84.14L17.03,83.86"/><path d="M105.63,40.38L105.61,37.98"/><path d="M114.35,35.77L114.35,33.74"/></g></g><g id="Actor_.3"><g style="stroke:#000000;stroke-width:0.176"><path d="M26.19,88.89L25.90,82.14L25.37,81.86"/><path d="M25.90,82.14L162.13,15.61"/><path d="M50.53,73.51L51.04,73.26L51.15,76.60"/><path d="M60.54,71.98L60.44,68.65L59.93,68.90"/><path d="M69.83,67.40L69.75,64.09L69.23,64.34"/><path d="M79.02,62.88L78.95,59.58L78.44,59.83"/><path d="M88.11,58.40L88.06,55.11L87.54,55.36"/><path d="M96.55,50.95L97.07,50.69L97.11,53.97"/><path d="M105.44,46.58L105.98,46.32L106.01,49.59"/><path d="M114.81,45.25L114.80,42.00L114.27,42.26"/><path d="M123.00,37.97L123.53,37.72L123.53,40.96"/><path d="M132.16,36.72L132.17,33.48L131.65,33.74L131.64,36.46"/><path d="M140.18,32.27L140.20,29.54L140.71,29.29L140.69,32.51"/></g><g style="stroke:#000000;stroke-width:0.529"><path d="M26.27,88.85L26.19,88.89L25.66,88.60L25.37,81.86L161.60,15.36L162.13,15.61L162.03,22.01L140.69,32.51L140.18,32.27L140.18,32.77L132.16,36.72L131.64,36.46L131.64,36.97L123.53,40.96L123.00,40.70L123.00,40.38L123.00,41.22L114.81,45.25L114.28,45.00L114.28,45.52L106.01,49.59L105.48,49.33L105.46,48.46L105.47,49.85L97.11,53.97L96.58,53.71L96.55,50.95L96.52,50.96L96.56,54.24L88.11,58.40L87.58,58.13L87.54,55.37L87.51,55.38L87.56,58.67L79.02,62.88L78.49,62.61L78.44,59.83L78.40,59.85L78.46,63.15L69.83,67.40L69.30,67.13L69.23,64.34L69.19,64.36L69.27,67.68L60.54,71.98L60.01,71.70L59.93,68.90L59.88,68.93L59.97,72.26L51.15,76.60L50.62,76.32L50.53,73.51L50.47,73.54L50.57,76.88L26.27,88.85"/><path d="M105.46,48.46L105.44,46.58"/><path d="M114.28,45.00L114.27,42.26"/><path d="M123.00,40.38L123.00,37.97"/></g></g><g id="Actor_.4"><g style="stroke:#000000;stroke-width:0.176"><path d="M34.12,86.63L34.65,86.92L34.91,93.68"/><path d="M34.65,86.92L170.87,19.68"/><path d="M59.88,81.26L59.79,77.91L59.27,78.17"/><path d="M68.67,73.51L69.19,73.25L69.27,76.59"/><path d="M78.56,71.97L78.50,68.64L77.98,68.90"/><path d="M87.18,64.34L87.70,64.08L87.75,67.40"/><path d="M96.28,59.83L96.81,59.57L96.85,62.87"/><path d="M105.84,58.40L105.82,55.10L105.29,55.37"/><path d="M114.74,53.97L114.73,50.69L114.19,50.95"/><path d="M123.02,49.32L123.01,46.58L123.55,46.32L123.55,49.59"/><path d="M132.26,45.25L132.27,41.99L131.75,42.26L131.74,44.99"/><path d="M140.89,40.96L140.91,37.71L140.39,37.97L140.37,40.71"/><path d="M149.42,36.72L149.45,33.48L148.94,33.74L148.91,36.47"/></g><g style="stroke:#000000;stroke-width:0.529"><path d="M34.51,93.46L34.38,93.39L34.12,86.63L170.34,19.43L170.87,19.68L170.75,26.10L149.42,36.72L148.91,36.47L148.90,36.97L140.89,40.96L140.37,40.71L140.37,41.22L132.26,45.25L131.74,45.00L131.74,45.51L123.55,49.59L123.02,49.32L123.02,49.85L114.74,53.97L114.21,53.70L114.20,53.08L114.21,54.23L105.84,58.40L105.31,58.13L105.29,55.37L105.27,55.38L105.30,58.67L96.85,62.87L96.31,62.60L96.28,59.83L96.26,59.84L96.30,63.14L87.75,67.40L87.22,67.12L87.18,64.34L87.15,64.36L87.20,67.67L78.56,71.97L78.03,71.69L77.98,68.90L77.94,68.92L78.00,72.25L69.27,76.59L68.74,76.31L68.67,73.51L68.63,73.53L68.71,76.87L59.88,81.26L59.35,80.98L59.27,78.17L59.21,78.20L59.31,81.55L34.91,93.68L34.51,93.46"/><path d="M114.20,53.08L114.19,50.95"/></g></g><g id="Actor_.5"><g style="stroke:#000000;stroke-width:0.176"><path d="M43.73,98.53L43.50,91.74L42.96,91.45"/><path d="M43.50,91.74L179.70,23.80"/><path d="M68.71,85.98L68.63,82.62L68.10,82.88"/><path d="M78.10,81.25L78.03,77.90L77.50,78.17"/><path d="M87.39,76.58L87.34,73.24L86.81,73.51"/><path d="M96.58,71.96L96.54,68.63L96.01,68.90"/><path d="M105.67,67.39L105.65,64.07L105.11,64.34"/><path d="M114.67,62.86L114.65,59.56L114.12,59.83"/><path d="M123.03,58.12L123.03,55.38L123.56,55.10L123.57,58.39"/><path d="M132.37,53.96L132.38,50.68L131.85,50.95L131.84,53.70"/><path d="M141.08,49.58L141.11,46.32L140.58,46.58L140.56,49.33"/><path d="M149.70,45.25L149.74,41.99L149.22,42.25L149.19,45.00"/><path d="M158.23,40.96L158.28,37.71L157.76,37.97L157.72,40.72"/></g><g style="stroke:#000000;stroke-width:0.529"><path d="M43.20,98.24L43.74,98.53L68.13,86.26L68.05,82.90L68.10,82.88L68.17,85.69L68.71,85.98L77.53,81.54L77.46,78.19L77.50,78.17L77.56,80.97L78.10,81.25L86.83,76.86L86.78,73.52L86.81,73.51L86.85,76.30L87.39,76.58L96.03,72.24L95.99,68.91L96.01,68.90L96.04,71.68L96.58,71.96L105.12,67.66L105.13,66.92L105.13,67.11L105.67,67.39L114.12,63.14L114.13,62.31L114.13,62.59L114.67,62.86L123.03,58.66L123.03,58.12L123.57,58.39L131.84,54.23L131.84,53.70L132.37,53.96L140.56,49.85L140.56,49.33L141.08,49.58L149.18,45.51L149.19,45.00L149.70,45.25L157.71,41.22L157.72,40.72L158.23,40.96L179.55,30.24L179.70,23.80L179.16,23.55L42.96,91.45L43.20,98.24"/><path d="M105.13,66.92L105.10,64.35"/><path d="M114.13,62.31L114.11,59.84"/></g></g><g id="Actor_.6"><g style="stroke:#000000;stroke-width:0.176"><path d="M52.65,103.43L52.44,96.62L51.89,96.32"/><path d="M52.44,96.62L188.61,27.95"/><path d="M77.63,90.74L77.56,87.37L77.02,87.64"/><path d="M87.02,85.96L86.96,82.61L86.43,82.88"/><path d="M96.31,81.24L96.27,77.89L95.73,78.17"/><path d="M105.50,76.57L105.47,73.24L104.93,73.51"/><path d="M114.59,71.95L114.58,68.63L114.03,68.90"/><path d="M123.58,67.38L123.58,64.07L123.04,64.34"/><path d="M131.95,62.59L131.95,59.83L132.49,59.56L132.48,62.86"/><path d="M141.28,58.39L141.30,55.10L140.77,55.36L140.75,58.12"/><path d="M149.47,53.70L149.50,50.95L150.03,50.68L149.99,53.96"/><path d="M158.61,49.58L158.65,46.31L158.13,46.58L158.10,49.33"/><path d="M166.63,45.00L166.68,42.25L167.19,41.99L167.13,45.25"/></g><g style="stroke:#000000;stroke-width:0.529"><path d="M52.11,103.13L51.89,96.32L188.07,27.70L188.61,27.95L188.44,34.42L167.13,45.25L166.63,45.00L166.62,45.51L158.61,49.58L158.10,49.33L158.09,49.84L149.99,53.96L149.47,53.70L149.46,54.23L141.28,58.39L140.75,58.12L140.75,58.65L132.48,62.86L131.95,62.59L131.94,63.13L123.58,67.38L123.04,67.10L123.04,66.92L123.04,67.66L114.59,71.95L114.05,71.67L114.05,71.54L114.04,72.23L105.50,76.57L104.96,76.29L104.96,76.15L104.95,76.85L96.31,81.24L95.77,80.96L95.73,78.17L95.71,78.18L95.75,81.53L87.02,85.96L86.48,85.68L86.43,82.88L86.40,82.89L86.45,86.25L77.63,90.74L77.08,90.45L77.02,87.64L76.98,87.66L77.05,91.03L52.65,103.43L52.11,103.13"/><path d="M104.96,76.15L104.92,73.52"/><path d="M114.05,71.54L114.03,68.90"/><path d="M123.04,66.92L123.04,64.34"/></g></g><g id="Actor_.7"><g style="stroke:#000000;stroke-width:0.176"><path d="M60.92,101.25L61.48,101.55L61.66,108.38"/><path d="M61.48,101.55L197.62,32.15"/><path d="M86.04,92.45L86.58,92.17L86.64,95.55"/><path d="M96.03,90.72L95.99,87.36L95.45,87.63"/><path d="M104.75,82.87L105.30,82.59L105.33,85.95"/><path d="M113.95,78.16L114.50,77.88L114.51,81.23"/><path d="M123.05,76.28L123.05,73.51L123.60,73.23L123.60,76.56"/><path d="M132.05,71.67L132.06,68.90L132.60,68.62L132.59,71.94"/><path d="M141.49,67.37L141.51,64.06L140.97,64.34L140.95,67.11"/><path d="M150.29,62.85L150.32,59.55L149.79,59.82L149.76,62.59"/><path d="M158.47,58.12L158.51,55.36L159.04,55.09L158.99,58.38"/><path d="M167.60,53.95L167.66,50.68L167.14,50.94L167.09,53.71"/><path d="M176.13,49.58L176.20,46.31L175.68,46.57L175.62,49.33"/></g><g style="stroke:#000000;stroke-width:0.529"><path d="M61.01,104.40L60.92,101.25L197.07,31.90L197.62,32.15L197.42,38.64L176.13,49.58L175.62,49.33L175.61,49.84L167.60,53.95L167.09,53.71L167.09,54.22L158.99,58.38L158.47,58.12L158.47,58.65L150.29,62.85L149.76,62.59L149.75,63.12L141.49,67.37L140.95,67.11L140.95,67.65L132.59,71.94L132.05,71.67L132.05,72.22L123.60,76.56L123.05,76.28L123.05,76.84L114.51,81.23L113.97,80.95L113.96,80.77L113.96,81.51L105.33,85.95L104.78,85.66L104.75,82.87L104.74,82.88L104.76,86.24L96.03,90.72L95.48,90.43L95.45,87.63L95.42,87.65L95.47,91.02L86.64,95.55L86.09,95.26L86.04,92.45L86.01,92.46L86.07,95.84L61.66,108.38L61.11,108.08L61.01,104.40"/><path d="M113.96,80.77L113.94,78.17"/></g></g><g id="Actor_.8"><g style="stroke:#000000;stroke-width:0.176"><path d="M70.05,106.23L70.61,106.53L70.77,113.39"/><path d="M70.61,106.53L206.71,36.39"/><path d="M95.75,100.41L95.71,97.02L95.16,97.31"/><path d="M105.14,95.54L105.12,92.16L104.56,92.44"/><path d="M114.43,90.71L114.42,87.34L113.87,87.63"/><path d="M123.07,85.65L123.07,82.87L123.62,82.58L123.62,85.94"/><path d="M132.16,80.94L132.17,78.16L132.72,77.87L132.71,81.22"/><path d="M141.70,76.55L141.72,73.22L141.18,73.50L141.16,76.28"/><path d="M150.59,71.93L150.62,68.61L150.09,68.89L150.06,71.67"/><path d="M158.86,67.11L158.90,64.33L159.43,64.05L159.38,67.36"/><path d="M167.57,62.59L167.62,59.82L168.14,59.55L168.08,62.84"/><path d="M176.69,58.37L176.76,55.09L176.25,55.35L176.18,58.13"/><path d="M185.21,53.95L185.29,50.67L184.78,50.94L184.71,53.71"/></g><g style="stroke:#000000;stroke-width:0.529"><path d="M70.22,113.09L70.05,106.23L206.16,36.13L206.71,36.39L206.49,42.90L185.21,53.95L184.71,53.71L184.70,54.22L176.69,58.37L176.18,58.13L176.17,58.64L168.08,62.84L167.57,62.59L167.56,63.12L159.38,67.36L158.86,67.11L158.85,67.64L150.59,71.93L150.06,71.67L150.05,72.21L141.70,76.55L141.16,76.28L141.15,76.83L132.71,81.22L132.16,80.94L132.16,81.50L123.62,85.94L123.07,85.65L123.07,86.23L114.43,90.71L113.88,90.42L113.88,90.00L113.87,91.00L105.14,95.54L104.59,95.24L104.56,92.44L104.55,92.45L104.58,95.83L95.75,100.41L95.20,100.12L95.16,97.31L95.14,97.32L95.18,100.71L70.77,113.39L70.22,113.09"/><path d="M113.88,90.00L113.86,87.63"/></g></g><g id="Actor_.9"><g style="stroke:#000000;stroke-width:0.176"><path d="M79.29,111.26L79.85,111.57L79.98,118.45"/><path d="M79.85,111.57L215.90,40.67"/><path d="M104.38,102.22L104.93,101.93L104.96,105.33"/><path d="M113.78,97.30L114.34,97.01L114.35,100.40"/><path d="M123.08,95.23L123.08,92.43L123.64,92.14L123.64,95.52"/><path d="M132.27,90.41L132.28,87.62L132.84,87.33L132.83,90.70"/><path d="M141.37,85.65L141.39,82.86L141.93,82.57L141.91,85.93"/><path d="M150.90,81.21L150.93,77.86L150.39,78.15L150.36,80.94"/><path d="M159.78,76.54L159.83,73.21L159.30,73.49L159.25,76.28"/><path d="M168.05,71.67L168.10,68.88L168.63,68.60L168.57,71.92"/><path d="M177.27,67.36L177.34,64.05L176.82,64.32L176.76,67.10"/><path d="M185.87,62.84L185.96,59.54L185.44,59.81L185.37,62.59"/><path d="M194.38,58.37L194.48,55.08L193.97,55.35L193.89,58.13"/></g><g style="stroke:#000000;stroke-width:0.529"><path d="M79.41,117.69L79.29,111.26L215.34,40.41L215.90,40.67L215.65,47.20L194.38,58.37L193.89,58.13L193.87,58.64L185.87,62.84L185.37,62.59L185.35,63.11L177.27,67.36L176.76,67.10L176.74,67.63L168.57,71.92L168.05,71.67L168.04,72.20L159.78,76.54L159.25,76.28L159.25,76.82L150.90,81.21L150.36,80.94L150.35,81.49L141.91,85.93L141.37,85.65L141.36,86.21L132.83,90.70L132.27,90.41L132.27,90.99L123.64,95.52L123.08,95.23L123.08,95.81L114.35,100.40L113.79,100.10L113.79,99.23L113.79,100.70L104.96,105.33L104.40,105.03L104.38,102.22L104.36,102.23L104.39,105.63L79.98,118.45L79.43,118.15L79.41,117.69"/><path d="M113.79,99.23L113.78,97.30"/></g></g><g id="Actor_.10"><g style="stroke:#000000;stroke-width:0.176"><path d="M88.62,116.35L89.19,116.66L89.29,123.57"/><path d="M89.19,116.66L225.18,45.00"/><path d="M113.69,107.19L114.25,106.89L114.27,110.30"/><path d="M123.09,105.02L123.09,102.21L123.66,101.91L123.66,105.31"/><path d="M132.95,100.38L132.96,96.99L132.40,97.29L132.39,100.09"/><path d="M141.58,95.22L141.60,92.42L142.15,92.13L142.13,95.51"/><path d="M150.67,90.41L150.70,87.61L151.25,87.32L151.21,90.68"/><path d="M159.66,85.64L159.70,82.85L160.24,82.56L160.19,85.91"/><path d="M169.07,81.20L169.14,77.85L168.60,78.14L168.55,80.93"/><path d="M177.86,76.53L177.93,73.20L177.40,73.48L177.34,76.27"/><path d="M186.04,71.66L186.11,68.87L186.64,68.59L186.55,71.91"/><path d="M195.15,67.35L195.25,64.04L194.73,64.31L194.65,67.10"/><path d="M203.65,62.83L203.76,59.54L203.25,59.81L203.16,62.59"/></g><g style="stroke:#000000;stroke-width:0.529"><path d="M88.64,117.79L88.62,116.35L224.61,44.74L225.18,45.00L224.90,51.55L203.65,62.83L203.16,62.59L203.14,63.10L195.15,67.35L194.65,67.10L194.63,67.62L186.55,71.91L186.04,71.66L186.03,72.19L177.86,76.53L177.34,76.27L177.33,76.81L169.07,81.20L168.55,80.93L168.54,81.48L160.19,85.91L159.66,85.64L159.65,86.20L151.21,90.68L150.67,90.41L150.66,90.98L142.13,95.51L141.59,95.23L141.57,95.80L132.95,100.38L132.39,100.09L132.39,100.68L123.66,105.31L123.09,105.02L123.09,105.62L114.27,110.30L113.70,110.00L113.70,109.62L113.70,110.61L89.29,123.57L88.73,123.25L88.64,117.79"/><path d="M113.70,109.62L113.69,107.19"/></g></g><g id="Actor_.11"><g style="stroke:#000000;stroke-width:0.176"><path d="M98.71,128.74L98.63,121.82L98.05,121.50"/><path d="M98.63,121.82L234.55,49.37"/><path d="M123.11,115.02L123.11,112.21L123.68,111.90L123.68,115.33"/><path d="M133.07,110.28L133.08,106.87L132.51,107.17L132.50,109.99"/><path d="M142.35,105.30L142.38,101.90L141.82,102.20L141.80,105.01"/><path d="M151.53,100.37L151.57,96.98L151.01,97.27L150.98,100.09"/><path d="M160.61,95.49L160.66,92.11L160.11,92.41L160.07,95.22"/><path d="M169.58,90.67L169.65,87.30L169.11,87.60L169.05,90.40"/><path d="M177.94,85.64L178.00,82.83L178.54,82.55L178.46,85.90"/><path d="M187.24,81.19L187.33,77.84L186.80,78.13L186.73,80.93"/><path d="M195.42,76.27L195.50,73.47L196.03,73.19L195.93,76.52"/><path d="M204.52,71.91L204.63,68.59L204.11,68.86L204.02,71.66"/><path d="M212.53,67.10L212.63,64.31L213.14,64.03L213.02,67.34"/></g><g style="stroke:#000000;stroke-width:0.529"><path d="M98.13,128.42L98.05,121.50L233.98,49.11L234.55,49.37L234.25,55.94L213.02,67.34L212.53,67.10L212.51,67.62L204.52,71.91L204.02,71.66L204.00,72.18L195.93,76.52L195.42,76.27L195.40,76.80L187.24,81.19L186.73,80.93L186.71,81.47L178.46,85.90L177.94,85.64L177.93,86.19L169.58,90.67L169.05,90.40L169.04,90.96L160.61,95.49L160.07,95.22L160.06,95.79L151.53,100.37L150.98,100.09L150.98,100.66L142.35,105.30L141.80,105.01L141.79,105.60L133.07,110.28L132.50,109.99L132.50,110.59L123.68,115.33L123.11,115.02L123.11,115.63L98.71,128.74L98.13,128.42"/></g></g><g id="Actor_.12"><g style="stroke:#000000;stroke-width:0.176"><path d="M108.22,133.97L108.17,127.02L107.59,126.71"/><path d="M108.17,127.02L244.02,53.79"/><path d="M133.19,120.40L133.21,116.97L132.63,117.28L132.62,120.10"/><path d="M142.58,115.31L142.60,111.88L142.04,112.19L142.02,115.01"/><path d="M151.86,110.26L151.90,106.85L151.34,107.16L151.31,109.98"/><path d="M161.03,105.28L161.09,101.88L160.53,102.18L160.49,105.00"/><path d="M170.10,100.35L170.17,96.96L169.62,97.26L169.57,100.08"/><path d="M179.08,95.48L179.16,92.10L178.61,92.39L178.55,95.21"/><path d="M187.43,90.40L187.51,87.58L188.04,87.29L187.95,90.66"/><path d="M196.72,85.89L196.83,82.54L196.30,82.82L196.21,85.64"/><path d="M204.90,80.93L204.99,78.12L205.52,77.83L205.41,81.18"/><path d="M213.99,76.51L214.12,73.19L213.60,73.46L213.49,76.27"/><path d="M221.99,71.66L222.11,68.86L222.62,68.58L222.48,71.90"/></g><g style="stroke:#000000;stroke-width:0.529"><path d="M108.00,133.85L107.64,133.65L107.59,126.71L243.45,53.52L244.02,53.79L243.69,60.38L222.48,71.90L221.99,71.66L221.97,72.18L213.99,76.51L213.49,76.27L213.47,76.79L205.41,81.18L204.91,80.93L204.88,81.46L196.72,85.89L196.21,85.64L196.20,86.18L187.95,90.66L187.43,90.40L187.41,90.95L179.08,95.48L178.55,95.21L178.53,95.77L170.10,100.35L169.57,100.08L169.56,100.65L161.03,105.28L160.49,105.00L160.48,105.58L151.86,110.26L151.31,109.98L151.30,110.57L142.58,115.31L142.02,115.01L142.01,115.61L133.19,120.40L132.62,120.10L132.62,120.72L108.22,133.97L108.00,133.85"/></g></g><g id="Actor_.13"><g style="stroke:#000000;stroke-width:0.176"><path d="M117.24,131.97L117.83,132.29L117.85,139.26"/><path d="M117.83,132.29L253.59,58.25"/><path d="M142.24,125.24L142.27,122.41L142.84,122.09L142.81,125.54"/><path d="M151.63,120.09L151.67,117.26L152.23,116.95L152.19,120.38"/><path d="M160.92,115.00L160.96,112.17L161.52,111.86L161.47,115.29"/><path d="M170.10,109.97L170.15,107.14L170.71,106.84L170.64,110.25"/><path d="M179.17,104.99L179.24,102.16L179.79,101.86L179.71,105.26"/><path d="M188.67,100.34L188.77,96.95L188.22,97.25L188.15,100.07"/><path d="M197.54,95.46L197.64,92.09L197.11,92.38L197.02,95.20"/><path d="M205.80,90.39L205.90,87.57L206.42,87.28L206.31,90.65"/><path d="M214.98,85.88L215.11,82.53L214.59,82.81L214.48,85.63"/><path d="M223.06,80.92L223.18,78.11L223.70,77.82L223.56,81.16"/><path d="M232.04,76.50L232.19,73.17L231.68,73.45L231.55,76.27"/></g><g style="stroke:#000000;stroke-width:0.529"><path d="M117.26,138.94L117.24,131.97L253.01,57.98L253.59,58.25L253.23,64.86L232.04,76.50L231.55,76.27L231.53,76.78L223.56,81.16L223.06,80.92L223.04,81.45L214.98,85.88L214.48,85.63L214.46,86.17L206.31,90.65L205.80,90.39L205.78,90.94L197.54,95.46L197.02,95.20L197.00,95.76L188.67,100.34L188.15,100.07L188.13,100.63L179.71,105.26L179.17,105.00L179.16,105.56L170.64,110.25L170.10,109.97L170.09,110.55L161.47,115.29L160.92,115.00L160.91,115.59L152.19,120.38L151.63,120.09L151.63,120.69L142.81,125.54L142.24,125.24L142.24,125.85L117.85,139.26L117.26,138.94"/></g></g><g id="Actor_.14"><g style="stroke:#000000;stroke-width:0.176"><path d="M127.58,144.61L127.59,137.61L127.00,137.29"/><path d="M127.59,137.61L263.26,62.75"/><path d="M152.54,130.73L152.58,127.27L152.01,127.59L151.97,130.43"/><path d="M161.91,125.52L161.97,122.07L161.40,122.38L161.36,125.22"/><path d="M171.18,120.36L171.25,116.93L170.69,117.24L170.64,120.08"/><path d="M180.35,115.27L180.43,111.84L179.88,112.15L179.81,114.99"/><path d="M189.41,110.23L189.51,106.82L188.96,107.12L188.88,109.96"/><path d="M198.37,105.25L198.48,101.85L197.94,102.15L197.85,104.98"/><path d="M206.72,100.06L206.82,97.23L207.35,96.93L207.23,100.32"/><path d="M215.99,95.45L216.12,92.07L215.60,92.37L215.48,95.20"/><path d="M224.16,90.39L224.28,87.56L224.80,87.27L224.66,90.63"/><path d="M233.23,85.87L233.38,82.51L232.87,82.80L232.73,85.63"/><path d="M241.70,81.15L241.87,77.81L241.36,78.10L241.22,80.92"/></g><g style="stroke:#000000;stroke-width:0.529"><path d="M126.99,144.28L127.58,144.61L151.96,131.05L151.97,130.43L152.54,130.73L161.35,125.83L161.36,125.22L161.91,125.52L170.63,120.67L170.64,120.08L171.18,120.36L179.80,115.57L179.81,114.99L180.35,115.27L188.86,110.53L188.88,109.96L189.41,110.23L197.83,105.55L197.85,104.98L198.37,105.25L206.70,100.62L206.72,100.06L207.23,100.32L215.46,95.74L215.48,95.20L215.99,95.45L224.13,90.92L224.16,90.39L224.66,90.63L232.71,86.15L232.74,85.63L233.23,85.87L241.19,81.44L241.22,80.92L241.70,81.15L262.87,69.39L263.26,62.75L262.67,62.48L127.00,137.29L126.99,144.28"/></g></g><g id="Actor_.15"><g style="stroke:#000000;stroke-width:0.176"><path d="M136.86,142.67L137.46,143.00L137.42,150.01"/><path d="M137.46,143.00L273.03,67.31"/><path d="M161.81,135.68L161.85,132.83L162.43,132.51L162.37,135.98"/><path d="M171.19,130.42L171.25,127.57L171.81,127.25L171.74,130.71"/><path d="M180.46,125.21L180.53,122.36L181.09,122.05L181.01,125.50"/><path d="M189.63,120.07L189.71,117.22L190.26,116.91L190.17,120.34"/><path d="M198.69,114.98L198.78,112.13L199.33,111.83L199.22,115.25"/><path d="M208.17,110.21L208.30,106.80L207.76,107.10L207.65,109.95"/><path d="M217.03,105.23L217.16,101.83L216.63,102.13L216.51,104.97"/><path d="M225.78,100.31L225.93,96.92L225.40,97.22L225.28,100.06"/><path d="M234.44,95.43L234.60,92.06L234.07,92.35L233.94,95.19"/><path d="M242.51,90.38L242.65,87.54L243.17,87.26L243.00,90.62"/><path d="M251.46,85.85L251.65,82.50L251.14,82.79L250.98,85.62"/></g><g style="stroke:#000000;stroke-width:0.529"><path d="M136.83,149.69L136.86,142.67L272.43,67.03L273.03,67.31L272.60,73.96L251.46,85.85L250.98,85.62L250.95,86.14L243.00,90.62L242.51,90.38L242.48,90.91L234.44,95.43L233.94,95.19L233.91,95.73L225.78,100.31L225.28,100.06L225.25,100.60L217.03,105.23L216.52,104.97L216.49,105.53L208.17,110.21L207.65,109.95L207.63,110.52L199.22,115.25L198.69,114.98L198.67,115.56L190.17,120.34L189.63,120.07L189.61,120.65L181.01,125.50L180.46,125.21L180.45,125.81L171.74,130.71L171.19,130.42L171.18,131.03L162.37,135.98L161.81,135.68L161.80,136.30L137.42,150.01L136.83,149.69"/></g></g><g id="Actor_.16"><g style="stroke:#000000;stroke-width:0.176"><path d="M43.16,97.27L35.81,93.24"/><path d="M52.08,102.16L44.79,98.16L44.88,100.88L44.38,101.13L44.28,98.26"/><path d="M44.38,101.13L44.90,101.41L44.88,100.88"/><path d="M44.79,98.16L44.85,98.13"/><path d="M53.45,105.59L52.95,105.85L52.87,103.32"/><path d="M52.95,105.85L53.47,106.13L53.37,103.06"/><path d="M53.55,102.97L61.09,107.11"/><path d="M62.11,110.35L61.60,110.61L62.12,110.90L62.05,108.18"/><path d="M61.60,110.61L61.53,108.31"/><path d="M70.19,112.11L62.56,107.92"/><path d="M70.28,113.12L70.34,115.43L70.87,115.72L70.81,113.37"/><path d="M70.34,115.43L70.86,115.16"/><path d="M79.17,120.29L79.70,120.01L79.71,120.59L79.17,120.29L79.10,117.00L71.67,112.92"/><path d="M79.10,117.00L79.40,116.85"/><path d="M79.70,120.01L79.66,118.27"/><path d="M80.88,117.98L88.04,121.91L88.61,121.61"/><path d="M88.04,121.91L88.10,125.21L88.63,124.92"/><path d="M88.10,125.21L88.64,125.51L88.59,122.21L88.62,122.19"/><path d="M88.59,122.21L88.71,122.27"/><path d="M97.64,126.56L97.08,126.87L90.19,123.09"/><path d="M97.65,127.16L97.63,127.17L97.67,130.48L97.12,130.18L97.08,126.87"/><path d="M97.12,130.18L97.66,129.89"/><path d="M97.63,127.17L98.12,127.44"/><path d="M99.61,128.25L106.21,131.88L106.23,135.20L106.79,135.51L106.76,132.18L107.64,132.66"/><path d="M106.23,135.20L106.78,134.90"/><path d="M106.21,131.88L106.77,131.57"/><path d="M115.45,140.28L116.01,139.97L116.01,140.59L115.45,140.28L115.43,136.94L109.13,133.48"/><path d="M116.01,139.97L116.00,137.25L117.26,137.94"/><path d="M115.43,136.94L116.00,136.63"/><path d="M118.75,138.76L124.76,142.06L124.76,145.41L125.33,145.72L125.33,145.09L124.76,145.41"/><path d="M125.33,142.38L126.99,143.29"/><path d="M124.76,142.06L125.33,141.75"/><path d="M134.18,150.59L134.75,150.91L134.75,150.28L134.18,150.59L134.19,147.24L128.48,144.11"/><path d="M134.19,147.24L134.76,146.92"/><path d="M136.83,148.69L134.77,147.55"/><path d="M144.26,155.51L143.69,155.84L143.72,152.47L138.33,149.51"/><path d="M143.69,155.84L144.27,156.15L144.28,155.53"/><path d="M143.72,152.47L144.29,152.15"/><path d="M144.30,152.79L153.36,157.76L153.93,157.44"/><path d="M153.36,157.76L153.32,161.14L153.88,160.81"/><path d="M153.32,161.14L153.90,161.46L153.91,160.83"/><path d="M153.95,158.08L163.10,163.11L163.04,166.49L163.64,166.82L163.65,166.20"/><path d="M163.04,166.49L163.61,166.17"/><path d="M163.10,163.11L163.67,162.78"/><path d="M163.69,163.43L174.00,169.09L174.57,168.76"/><path d="M173.85,175.88L174.00,169.09"/></g><g style="stroke:#000000;stroke-width:0.529"><path d="M138.89,149.19L144.29,152.15L144.26,155.51L144.28,155.53L144.30,152.79L144.87,152.47L153.93,157.44L153.88,160.81L153.91,160.83L153.95,158.08L154.51,157.76L163.67,162.78L163.61,166.17L163.65,166.19L163.69,163.43L164.26,163.11L174.57,168.76L174.42,175.54L173.85,175.88L35.65,99.48L35.42,93.43"/><path d="M43.14,96.66L36.38,92.95"/><path d="M52.06,101.56L45.35,97.88L44.85,98.13L44.85,97.97"/><path d="M54.13,102.69L61.07,106.50"/><path d="M70.18,111.50L63.13,107.63"/><path d="M79.39,116.55L72.24,112.63"/><path d="M88.71,122.14L88.62,122.19L88.61,121.61L81.45,117.68"/><path d="M98.12,126.91L97.65,127.16L97.64,126.56L90.76,122.79"/><path d="M107.63,132.04L107.33,131.88L106.78,132.18L106.77,131.57L100.17,127.95"/><path d="M117.26,137.32L116.57,136.94L116.00,137.25L116.00,136.63L109.69,133.17"/><path d="M119.32,138.45L125.33,141.75L125.33,145.09"/><path d="M125.33,143.08L125.33,142.38L125.90,142.06L126.99,142.66"/><path d="M134.75,150.28L134.76,146.92L129.05,143.79"/><path d="M134.75,147.69L134.77,147.55L135.33,147.24L136.83,148.06"/></g></g><g id="Actor_.17"><g style="stroke:#000000;stroke-width:0.176"><path d="M46.80,89.53L45.11,88.61"/><path d="M53.63,95.45L53.58,93.58"/><path d="M55.74,94.39L54.08,93.49L54.13,95.19"/><path d="M54.08,93.49L54.14,93.46"/><path d="M62.16,98.60L62.21,100.59"/><path d="M62.72,100.33L62.67,98.34"/><path d="M64.77,99.29L62.85,98.25"/><path d="M70.88,105.80L70.83,103.67"/><path d="M71.39,105.54L71.35,103.41"/><path d="M73.90,104.25L71.86,103.14"/><path d="M80.09,110.85L79.62,110.59L79.59,108.81"/><path d="M80.15,110.81L80.11,108.54"/><path d="M79.62,110.59L80.14,110.32"/><path d="M83.13,109.26L80.97,108.09"/><path d="M88.96,113.73L88.99,115.70L88.46,115.41L88.43,114.01"/><path d="M88.46,115.41L88.98,115.13"/><path d="M90.18,113.09L92.46,114.33"/><path d="M97.38,120.27L97.92,120.00L97.93,120.57L97.38,120.27L97.37,119.28"/><path d="M97.92,120.00L97.91,118.99"/><path d="M99.49,118.15L101.90,119.45"/><path d="M106.40,125.19L106.95,124.90L106.95,125.49L106.40,125.19L106.40,124.62"/><path d="M106.95,124.90L106.94,124.31"/><path d="M111.44,124.64L108.91,123.26"/><path d="M115.94,130.38L116.07,130.46L116.07,129.86L115.52,130.16L115.94,130.38"/><path d="M115.52,130.16L115.52,130.01"/><path d="M116.07,129.86L116.07,129.71"/><path d="M118.42,128.43L121.08,129.87"/><path d="M125.29,135.17L125.29,135.48L125.00,135.33"/><path d="M130.84,135.17L128.04,133.65"/><path d="M137.77,138.94L140.70,140.53"/><path d="M147.61,144.28L153.01,147.21L152.97,150.57L153.55,150.88L153.55,150.27"/><path d="M152.97,150.57L153.53,150.25"/><path d="M153.01,147.21L153.57,146.90"/><path d="M153.59,147.53L162.64,152.44L163.20,152.12"/><path d="M163.14,155.49L162.59,155.81L162.64,152.44"/><path d="M162.59,155.81L163.17,156.13L163.18,155.51"/><path d="M163.23,152.76L172.38,157.73L172.31,161.11L172.87,160.78"/><path d="M172.31,161.11L172.90,161.43L172.91,160.82"/><path d="M172.38,157.73L172.94,157.41"/><path d="M183.83,163.32L183.27,163.65L172.97,158.05"/><path d="M183.10,170.41L183.27,163.65"/></g><g style="stroke:#000000;stroke-width:0.529"><path d="M44.71,88.81L44.77,90.55"/><path d="M47.36,89.25L45.67,88.33"/><path d="M47.87,96.45L51.97,98.70"/><path d="M54.14,93.30L54.14,93.46L54.64,93.21L56.30,94.10"/><path d="M60.99,103.63L56.78,101.33"/><path d="M65.33,99.01L63.41,97.96"/><path d="M65.80,106.26L70.11,108.62"/><path d="M74.46,103.96L72.42,102.85"/><path d="M74.91,111.24L79.33,113.66"/><path d="M81.53,107.80L83.69,108.97"/><path d="M88.65,118.76L84.12,116.28"/><path d="M90.74,112.80L93.02,114.04"/><path d="M93.43,121.37L98.08,123.91"/><path d="M102.46,119.16L100.05,117.85"/><path d="M107.61,129.13L102.84,126.52"/><path d="M109.47,122.96L112.00,124.33"/><path d="M112.36,131.72L117.25,134.40"/><path d="M121.64,129.57L118.98,128.12"/><path d="M126.99,139.73L121.98,136.99"/><path d="M131.40,134.86L128.60,133.35"/><path d="M131.71,142.31L136.85,145.12"/><path d="M138.33,138.63L141.26,140.22"/><path d="M141.56,147.69L183.10,170.41L183.65,170.08L183.83,163.32L173.53,157.73L172.97,158.05L172.91,160.81L172.87,160.78L172.94,157.41L163.79,152.44L163.23,152.76L163.18,155.51L163.14,155.49L163.20,152.12L154.15,147.21L153.59,147.53L153.55,150.26L153.53,150.25L153.57,146.90L148.17,143.97"/></g></g><g id="Actor_.18"><g style="stroke:#000000;stroke-width:0.176"><path d="M55.99,84.95L54.30,84.04"/><path d="M62.82,90.82L62.77,88.96"/><path d="M63.32,90.56L63.28,88.86L63.33,88.84"/><path d="M63.28,88.86L64.93,89.75"/><path d="M71.40,95.91L71.35,93.92"/><path d="M71.86,93.67L71.91,95.65"/><path d="M73.97,94.61L72.05,93.57"/><path d="M80.07,101.07L80.02,98.95"/><path d="M80.58,100.81L80.54,98.68"/><path d="M81.06,98.42L83.10,99.51"/><path d="M89.27,106.06L88.81,105.81L88.78,104.04"/><path d="M88.81,105.81L89.33,105.54"/><path d="M89.31,103.76L89.34,106.03"/><path d="M90.17,103.31L92.33,104.47"/><path d="M98.16,108.90L98.18,110.87L97.64,110.58L97.62,109.18"/><path d="M97.64,110.58L98.17,110.30"/><path d="M101.66,109.49L99.38,108.26"/><path d="M106.57,115.38L107.12,115.68L107.11,115.10L106.57,115.38L106.56,114.40"/><path d="M107.11,115.10L107.10,114.11"/><path d="M108.69,113.26L111.09,114.56"/><path d="M115.59,120.25L116.13,119.96L116.14,120.55L115.59,120.25L115.58,119.67"/><path d="M116.13,119.96L116.13,119.38"/><path d="M118.10,118.32L120.63,119.68"/><path d="M124.70,125.17L125.26,124.87L125.26,125.47L124.70,125.17L124.70,125.02"/><path d="M127.62,123.43L130.28,124.86"/><path d="M134.18,130.28L134.47,130.44L134.47,130.12"/><path d="M140.03,130.10L137.24,128.60"/><path d="M146.96,133.83L149.89,135.40"/><path d="M156.80,139.11L162.19,142.01L162.14,145.35L162.72,145.67L162.73,145.06"/><path d="M162.14,145.35L162.69,145.04"/><path d="M162.19,142.01L162.74,141.70"/><path d="M162.77,142.32L171.82,147.19L172.37,146.87"/><path d="M172.30,150.22L171.75,150.54L171.82,147.19"/><path d="M171.75,150.54L172.34,150.85L172.35,150.25"/><path d="M172.41,147.50L181.55,152.42L181.47,155.78L182.02,155.46"/><path d="M181.47,155.78L182.06,156.10L182.07,155.49"/><path d="M181.55,152.42L182.10,152.09"/><path d="M182.14,152.73L192.44,158.27L192.24,165.00"/><path d="M192.44,158.27L192.99,157.94"/></g><g style="stroke:#000000;stroke-width:0.529"><path d="M53.90,84.24L53.95,85.97"/><path d="M54.85,83.76L56.55,84.67"/><path d="M57.04,91.84L58.84,92.82"/><path d="M65.49,89.47L63.83,88.58L63.33,88.84L63.32,88.68"/><path d="M67.87,97.71L65.95,96.67"/><path d="M74.52,94.32L72.60,93.29"/><path d="M74.97,101.55L77.01,102.65"/><path d="M83.65,99.23L81.61,98.13"/><path d="M84.08,106.48L86.24,107.64"/><path d="M92.88,104.18L90.73,103.02"/><path d="M95.57,112.69L93.29,111.46"/><path d="M102.21,109.19L99.94,107.97"/><path d="M105.00,117.80L102.60,116.50"/><path d="M109.24,112.97L111.65,114.26"/><path d="M114.54,122.96L112.01,121.59"/><path d="M121.19,119.38L118.66,118.02"/><path d="M124.19,128.18L121.53,126.74"/><path d="M125.26,124.87L125.25,124.72"/><path d="M130.83,124.56L128.17,123.13"/><path d="M131.15,131.95L133.94,133.46"/><path d="M140.58,129.80L137.79,128.30"/><path d="M143.81,138.80L140.88,137.21"/><path d="M150.44,135.09L147.52,133.52"/><path d="M157.35,138.80L162.74,141.70L162.69,145.04L162.73,145.06L162.77,142.32L163.32,142.01L172.37,146.87L172.30,150.22L172.35,150.25L172.41,147.50L172.96,147.18L182.10,152.09L182.02,155.46L182.07,155.49L182.14,152.73L182.70,152.41L192.99,157.94L192.79,164.68L192.24,165.00L150.72,142.54"/></g></g><g id="Actor_.19"><g style="stroke:#000000;stroke-width:0.176"><path d="M65.09,80.41L63.40,79.51"/><path d="M71.91,86.24L71.87,84.38"/><path d="M72.42,85.98L72.38,84.29L74.03,85.17"/><path d="M72.38,84.29L72.42,84.26"/><path d="M80.49,91.28L80.45,89.30"/><path d="M81.00,91.02L80.96,89.04"/><path d="M81.15,88.95L83.07,89.97"/><path d="M89.12,94.28L89.15,96.39"/><path d="M89.67,96.13L89.64,94.01"/><path d="M92.20,94.83L90.16,93.74"/><path d="M98.36,101.33L97.90,101.08L98.42,100.81"/><path d="M97.90,101.08L97.87,99.31"/><path d="M98.43,101.30L98.40,99.04"/><path d="M99.27,98.59L101.43,99.73"/><path d="M106.72,104.41L106.73,105.80L107.26,105.52L107.27,106.08L106.73,105.80"/><path d="M107.26,105.52L107.25,104.13"/><path d="M108.48,103.48L110.76,104.69"/><path d="M116.21,110.84L115.65,110.56L116.19,110.27L116.21,110.84"/><path d="M115.65,110.56L115.65,109.57"/><path d="M116.19,110.27L116.19,109.28"/><path d="M120.19,109.71L117.79,108.43"/><path d="M124.67,115.37L125.22,115.66L125.22,115.08L124.67,115.37L124.67,114.79"/><path d="M127.20,113.44L129.73,114.78"/><path d="M133.78,120.08L133.78,120.23L134.34,120.53L134.34,119.94L133.78,120.23"/><path d="M136.71,118.49L139.37,119.91"/><path d="M143.55,125.13L143.55,125.45L143.26,125.29"/><path d="M146.33,123.61L149.12,125.09"/><path d="M158.98,130.33L156.05,128.78"/><path d="M165.88,134.00L171.27,136.87L171.20,140.20L171.78,140.51L171.79,139.92"/><path d="M171.20,140.20L171.75,139.89"/><path d="M171.82,136.56L171.27,136.87"/><path d="M181.44,141.67L180.89,141.99L171.85,137.18"/><path d="M181.36,145.02L180.81,145.33L181.40,145.64L181.41,145.05"/><path d="M180.81,145.33L180.89,141.99"/><path d="M181.48,142.30L190.62,147.16L190.52,150.51L191.11,150.83L191.13,150.23"/><path d="M190.52,150.51L191.07,150.19"/><path d="M190.62,147.16L191.17,146.84"/><path d="M191.21,147.47L201.50,152.94L202.05,152.62"/><path d="M201.27,159.66L201.50,152.94"/></g><g style="stroke:#000000;stroke-width:0.529"><path d="M63.00,79.71L63.04,81.44"/><path d="M63.95,79.24L65.64,80.14"/><path d="M66.11,87.28L67.91,88.25"/><path d="M74.58,84.89L72.93,84.01L72.42,84.26L72.42,84.11"/><path d="M76.95,93.09L75.03,92.06"/><path d="M81.69,88.67L83.61,89.69"/><path d="M86.08,97.98L84.04,96.88"/><path d="M90.71,93.46L92.75,94.54"/><path d="M93.15,101.76L95.31,102.92"/><path d="M99.82,98.30L101.98,99.45"/><path d="M104.64,107.92L102.36,106.70"/><path d="M111.31,104.41L109.03,103.19"/><path d="M114.08,112.97L111.67,111.68"/><path d="M120.74,109.42L118.34,108.14"/><path d="M123.61,118.08L121.08,116.72"/><path d="M125.22,114.50L125.22,115.08"/><path d="M127.75,113.14L130.28,114.49"/><path d="M130.60,121.81L133.26,123.24"/><path d="M134.34,119.78L134.34,119.94"/><path d="M137.26,118.20L139.92,119.61"/><path d="M143.01,128.46L140.22,126.97"/><path d="M149.67,124.79L146.88,123.31"/><path d="M152.87,133.74L149.94,132.17"/><path d="M156.60,128.47L159.52,130.03"/><path d="M159.78,137.44L201.27,159.66L201.82,159.34L202.05,152.62L191.76,147.16L191.21,147.47L191.13,150.23L191.07,150.19L191.17,146.84L182.03,141.99L181.48,142.30L181.41,145.04L181.36,145.02L181.44,141.67L172.40,136.87L171.85,137.18L171.79,139.92L171.75,139.89L171.82,136.56L166.43,133.70"/></g></g><g id="Actor_.20"><g style="stroke:#000000;stroke-width:0.176"><path d="M72.40,75.03L74.10,75.92"/><path d="M80.87,79.86L80.91,81.70"/><path d="M81.42,79.74L81.38,79.76L81.41,81.45"/><path d="M81.38,79.76L83.04,80.63"/><path d="M89.45,84.73L89.48,86.70"/><path d="M90.00,86.44L89.97,84.47"/><path d="M90.15,84.37L92.07,85.38"/><path d="M98.12,89.65L98.14,91.76"/><path d="M98.67,91.49L98.64,89.38"/><path d="M99.16,89.12L101.20,90.19"/><path d="M107.35,96.65L106.89,96.40L106.87,94.64"/><path d="M106.89,96.40L107.41,96.13L107.42,96.61"/><path d="M107.41,96.13L107.40,94.36"/><path d="M108.27,93.91L110.43,95.05"/><path d="M115.71,99.69L115.72,101.07L116.25,100.79L116.27,101.35L115.72,101.07"/><path d="M116.25,100.79L116.25,99.40"/><path d="M119.76,99.95L117.48,98.76"/><path d="M124.64,105.78L125.19,106.07L125.18,105.49L124.64,105.78L124.64,104.79"/><path d="M129.19,104.92L126.79,103.65"/><path d="M133.66,110.54L134.21,110.26L134.20,110.83L133.66,110.54L133.66,109.97"/><path d="M136.20,108.60L138.72,109.93"/><path d="M142.77,115.20L142.76,115.35L143.32,115.65L143.32,115.07"/><path d="M142.76,115.35L143.31,115.06"/><path d="M145.71,113.61L148.36,115.01"/><path d="M152.53,120.20L152.53,120.51L152.24,120.36"/><path d="M155.32,118.67L158.11,120.13"/><path d="M165.04,123.78L167.96,125.32"/><path d="M174.86,128.95L180.25,131.79L180.17,135.11L180.71,134.80"/><path d="M180.17,135.11L180.75,135.41L180.76,134.83"/><path d="M180.25,131.79L180.79,131.48"/><path d="M180.83,132.09L189.87,136.85L189.77,140.18L190.36,140.49L190.37,139.91"/><path d="M189.77,140.18L190.31,139.87"/><path d="M189.87,136.85L190.41,136.54"/><path d="M190.45,137.16L199.59,141.96L199.48,145.30L200.07,145.61L200.09,145.03"/><path d="M199.48,145.30L200.02,144.99"/><path d="M200.18,142.27L210.46,147.69L210.21,154.38"/><path d="M199.59,141.96L200.13,141.65"/><path d="M210.46,147.69L211.00,147.37"/></g><g style="stroke:#000000;stroke-width:0.529"><path d="M72.00,75.23L72.04,76.95"/><path d="M74.64,75.65L72.94,74.76"/><path d="M76.89,83.72L75.09,82.77"/><path d="M83.58,80.36L81.92,79.48L81.42,79.74L81.41,79.59"/><path d="M84.01,87.49L85.93,88.51"/><path d="M90.69,84.10L92.61,85.11"/><path d="M95.06,93.35L93.02,92.27"/><path d="M99.71,88.84L101.74,89.91"/><path d="M102.13,97.10L104.29,98.24"/><path d="M108.82,93.63L110.97,94.76"/><path d="M111.34,101.98L113.62,103.19"/><path d="M120.30,99.67L118.02,98.47"/><path d="M120.65,106.91L123.05,108.19"/><path d="M125.18,104.50L125.18,105.49"/><path d="M129.73,104.63L127.33,103.36"/><path d="M130.06,111.90L132.59,113.24"/><path d="M134.21,109.67L134.21,110.26"/><path d="M139.27,109.64L136.74,108.31"/><path d="M142.23,118.35L139.57,116.94"/><path d="M143.32,114.90L143.32,115.07L143.31,115.06L143.31,114.91"/><path d="M148.90,114.71L146.25,113.31"/><path d="M149.18,122.04L151.98,123.52"/><path d="M155.86,118.37L158.65,119.84"/><path d="M161.83,128.74L158.91,127.19"/><path d="M168.50,125.02L165.58,123.48"/><path d="M175.40,128.65L180.79,131.48L180.71,134.80L180.76,134.83L180.83,132.09L181.37,131.79L190.41,136.54L190.31,139.87L190.37,139.90L190.45,137.16L190.99,136.85L200.13,141.65L200.02,144.99L200.09,145.03L200.18,142.27L200.72,141.96L211.00,147.37L210.74,154.06L210.21,154.38L168.74,132.40"/></g></g><g id="Actor_.21"><g style="stroke:#000000;stroke-width:0.176"><path d="M81.31,70.60L83.01,71.48"/><path d="M89.81,77.22L89.78,75.38"/><path d="M90.32,76.96L90.29,75.28L91.95,76.14"/><path d="M90.29,75.28L90.32,75.26"/><path d="M98.38,82.17L98.36,80.20"/><path d="M98.87,79.94L98.90,81.91"/><path d="M99.06,79.84L100.98,80.84"/><path d="M107.04,87.18L107.02,85.08"/><path d="M107.56,86.91L107.55,84.81"/><path d="M108.07,84.54L110.11,85.60"/><path d="M115.77,90.01L115.78,91.77L116.24,92.02"/><path d="M115.78,91.77L116.31,91.50L116.31,91.98"/><path d="M116.31,91.50L116.31,89.74"/><path d="M117.18,89.28L119.34,90.41"/><path d="M124.61,96.39L125.15,96.67L125.15,96.11L124.61,96.39L124.61,95.01"/><path d="M126.39,94.08L128.67,95.26"/><path d="M133.53,101.06L134.08,100.77L134.08,101.34L133.53,101.06L133.53,100.07"/><path d="M135.69,98.92L138.09,100.18"/><path d="M142.55,105.19L142.54,105.76L143.09,106.05L143.10,105.49"/><path d="M142.54,105.76L143.08,105.48"/><path d="M147.62,105.14L145.10,103.82"/><path d="M152.21,110.25L152.20,110.81L151.65,110.52L151.65,110.16"/><path d="M151.65,110.52L152.18,110.23"/><path d="M154.60,108.77L157.26,110.16"/><path d="M161.42,115.26L161.41,115.63L160.91,115.37"/><path d="M161.20,115.14L160.91,115.30"/><path d="M164.21,113.78L167.00,115.23"/><path d="M170.72,120.12L170.71,120.49L170.63,120.45"/><path d="M173.94,118.85L176.85,120.36"/><path d="M189.57,129.76L189.04,130.07L189.13,126.76L183.75,123.95"/><path d="M189.04,130.07L189.61,130.37L189.63,129.80"/><path d="M189.71,127.06L198.74,131.76L198.63,135.08L199.22,135.39L199.24,134.82"/><path d="M189.13,126.76L189.66,126.46"/><path d="M198.63,135.08L199.17,134.78"/><path d="M198.74,131.76L199.28,131.46"/><path d="M199.33,132.07L208.45,136.82L208.33,140.15L208.92,140.46L208.94,139.88"/><path d="M208.33,140.15L208.86,139.84"/><path d="M209.05,137.13L219.32,142.48L219.85,142.17"/><path d="M208.45,136.82L208.99,136.51"/><path d="M219.04,149.15L219.32,142.48"/></g><g style="stroke:#000000;stroke-width:0.529"><path d="M80.90,70.80L80.94,72.51"/><path d="M83.54,71.22L81.85,70.33"/><path d="M85.78,79.25L83.97,78.30"/><path d="M90.32,75.11L90.32,75.26L90.83,75.01L92.48,75.87"/><path d="M94.81,83.99L92.89,82.98"/><path d="M101.52,80.57L99.60,79.57"/><path d="M101.90,87.71L103.94,88.78"/><path d="M108.61,84.26L110.65,85.32"/><path d="M111.01,92.49L113.17,93.62"/><path d="M117.72,89.00L119.87,90.13"/><path d="M120.22,97.32L122.50,98.51"/><path d="M125.15,96.11L125.15,94.73"/><path d="M126.92,93.80L129.20,94.98"/><path d="M129.53,102.20L131.93,103.46"/><path d="M134.08,100.77L134.08,99.78"/><path d="M136.23,98.64L138.63,99.89"/><path d="M141.46,108.46L138.93,107.13"/><path d="M143.08,104.90L143.08,105.48L143.10,105.49L143.10,104.89"/><path d="M145.63,103.54L148.16,104.85"/><path d="M148.44,112.12L151.10,113.51"/><path d="M152.21,110.07L152.21,110.25L152.18,110.23L152.19,110.09"/><path d="M157.79,109.87L155.14,108.48"/><path d="M158.05,117.16L160.84,118.63"/><path d="M167.54,114.94L164.75,113.48"/><path d="M167.77,122.26L170.70,123.79"/><path d="M174.46,118.54L177.38,120.06"/><path d="M177.60,127.41L219.04,149.15L219.56,148.85L219.85,142.17L209.58,136.82L209.05,137.13L208.94,139.88L208.86,139.84L208.99,136.51L199.86,131.76L199.33,132.07L199.24,134.81L199.17,134.78L199.28,131.46L190.24,126.76L189.71,127.06L189.63,129.79L189.57,129.76L189.66,126.46L184.28,123.65"/></g></g><g id="Actor_.22"><g style="stroke:#000000;stroke-width:0.176"><path d="M90.13,66.21L91.82,67.09"/><path d="M95.99,69.24L96.01,69.25"/><path d="M98.59,70.95L98.61,72.78"/><path d="M100.76,71.70L99.11,70.84L99.13,72.52"/><path d="M99.11,70.84L99.13,70.83"/><path d="M104.94,73.85L104.92,73.84"/><path d="M107.17,75.72L107.19,77.68"/><path d="M107.70,77.42L107.69,75.46"/><path d="M109.80,76.35L107.87,75.36"/><path d="M115.84,82.65L115.84,80.55"/><path d="M116.36,80.28L116.37,82.38"/><path d="M116.89,80.01L118.92,81.06"/><path d="M125.11,87.40L125.11,86.92L124.58,87.19L125.05,87.43"/><path d="M124.58,87.19L124.58,85.44"/><path d="M125.99,84.71L128.15,85.82"/><path d="M133.41,91.76L133.95,91.49L133.95,92.04L133.41,91.76L133.41,90.39"/><path d="M135.20,89.45L137.48,90.63"/><path d="M142.33,95.40L142.33,96.38L142.87,96.66L142.88,96.10"/><path d="M142.33,96.38L142.86,96.09"/><path d="M144.50,94.25L146.90,95.48"/><path d="M151.89,100.77L151.89,101.32L151.34,101.04L151.87,100.75"/><path d="M151.34,101.04L151.35,100.27"/><path d="M156.43,100.40L153.90,99.09"/><path d="M160.44,105.60L160.44,105.75L160.97,105.46"/><path d="M160.44,105.75L160.99,106.03L161.00,105.48"/><path d="M163.40,103.99L166.06,105.36"/><path d="M169.91,110.65L170.20,110.80L170.21,110.24"/><path d="M170.17,110.22L170.09,110.26"/><path d="M175.79,110.38L173.01,108.95"/><path d="M182.72,113.95L185.64,115.46"/><path d="M192.53,119.01L197.91,121.79L197.81,125.08L198.33,124.78"/><path d="M197.81,125.08L198.38,125.38L198.40,124.83"/><path d="M197.91,121.79L198.44,121.49"/><path d="M198.49,122.08L207.52,126.74L208.05,126.43"/><path d="M208.00,129.79L207.98,130.35L207.40,130.05L207.92,129.74"/><path d="M207.40,130.05L207.52,126.74"/><path d="M208.10,127.04L217.22,131.74L217.09,135.06L217.61,134.75"/><path d="M217.09,135.06L217.68,135.37L217.70,134.80"/><path d="M217.22,131.74L217.75,131.44"/><path d="M217.81,132.05L228.08,137.34L227.78,143.99"/><path d="M228.08,137.34L228.61,137.03"/></g><g style="stroke:#000000;stroke-width:0.529"><path d="M89.72,66.42L89.75,68.12"/><path d="M90.66,65.95L92.35,66.82"/><path d="M92.76,73.88L94.57,74.82"/><path d="M99.13,70.68L99.13,70.83L99.64,70.58L101.29,71.43"/><path d="M101.68,78.51L103.60,79.51"/><path d="M108.41,75.09L110.33,76.08"/><path d="M110.70,83.19L112.73,84.25"/><path d="M119.46,80.79L117.42,79.74"/><path d="M119.81,87.92L121.96,89.04"/><path d="M125.12,85.16L125.11,86.92"/><path d="M126.53,84.43L128.68,85.54"/><path d="M129.01,92.70L131.29,93.88"/><path d="M133.96,90.10L133.95,91.49"/><path d="M138.01,90.35L135.73,89.17"/><path d="M138.31,97.53L140.72,98.78"/><path d="M142.88,95.10L142.88,96.10L142.86,96.09L142.86,95.12"/><path d="M145.03,93.97L147.43,95.20"/><path d="M150.24,103.73L147.72,102.42"/><path d="M151.90,100.17L151.89,100.77L151.87,100.75L151.87,100.18"/><path d="M156.96,100.11L154.43,98.81"/><path d="M159.88,108.73L157.22,107.35"/><path d="M161.01,105.27L161.00,105.48L160.97,105.46L160.97,105.25"/><path d="M163.93,103.71L166.59,105.07"/><path d="M166.83,112.34L169.62,113.79"/><path d="M170.21,110.03L170.21,110.24L170.17,110.22L170.17,110.00"/><path d="M173.54,108.65L176.32,110.09"/><path d="M179.47,118.90L176.54,117.38"/><path d="M183.25,113.66L186.17,115.16"/><path d="M193.06,118.71L198.44,121.49L198.33,124.78L198.40,124.82L198.49,122.08L199.02,121.78L208.05,126.43L207.92,129.74L208.00,129.78L208.10,127.04L208.63,126.74L217.75,131.44L217.61,134.75L217.70,134.80L217.81,132.05L218.34,131.74L228.61,137.03L228.30,143.68L227.78,143.99L186.36,122.48"/></g></g><g id="Actor_.23"><g style="stroke:#000000;stroke-width:0.176"><path d="M98.86,61.87L100.55,62.74"/><path d="M105.10,65.06L105.12,65.07"/><path d="M107.32,66.56L107.33,68.39"/><path d="M107.85,68.13L107.85,66.45L109.49,67.30"/><path d="M115.90,73.24L115.89,71.29"/><path d="M116.41,71.02L116.42,72.98"/><path d="M116.60,70.93L118.52,71.91"/><path d="M124.56,76.07L124.56,78.16"/><path d="M127.65,76.57L125.61,75.53"/><path d="M133.30,80.91L133.29,82.66L133.76,82.90"/><path d="M133.29,82.66L133.83,82.39L133.82,82.86"/><path d="M134.72,80.18L136.87,81.28"/><path d="M142.66,86.92L142.67,87.45L142.12,87.18L142.64,86.91"/><path d="M142.12,87.18L142.13,85.81"/><path d="M146.19,86.03L143.92,84.87"/><path d="M151.58,91.48L151.58,92.03L151.03,91.75L151.56,91.47"/><path d="M151.03,91.75L151.04,90.60"/><path d="M155.61,90.84L153.21,89.62"/><path d="M160.05,95.79L160.04,96.36L160.56,96.08"/><path d="M160.04,96.36L160.59,96.64L160.60,96.10"/><path d="M165.14,95.70L162.61,94.42"/><path d="M169.14,100.88L169.14,101.02L169.69,101.31L169.70,100.76"/><path d="M169.14,101.02L169.66,100.74"/><path d="M174.76,100.62L172.11,99.26"/><path d="M178.90,105.71L178.89,106.02L178.60,105.87"/><path d="M181.71,104.16L184.49,105.59"/><path d="M194.33,110.61L191.41,109.12"/><path d="M207.08,119.90L207.06,120.45L206.48,120.15L206.60,116.87L201.22,114.12"/><path d="M206.48,120.15L207.00,119.86"/><path d="M206.60,116.87L207.12,116.57"/><path d="M207.18,117.16L216.20,121.77L216.06,125.06L216.59,124.76"/><path d="M216.06,125.06L216.65,125.36L216.67,124.82"/><path d="M216.20,121.77L216.72,121.47"/><path d="M226.27,129.72L225.75,130.02L225.89,126.72L216.78,122.06"/><path d="M225.75,130.02L226.34,130.33L226.36,129.77"/><path d="M226.48,127.02L236.74,132.25L236.41,138.88"/><path d="M225.89,126.72L226.42,126.41"/><path d="M236.74,132.25L237.26,131.95"/></g><g style="stroke:#000000;stroke-width:0.529"><path d="M98.44,62.08L98.46,63.78"/><path d="M99.38,61.61L101.08,62.47"/><path d="M101.47,69.50L103.27,70.43"/><path d="M105.10,64.53L105.11,64.53"/><path d="M107.84,66.30L107.85,66.45L108.36,66.19L110.01,67.03"/><path d="M110.38,74.09L112.31,75.08"/><path d="M117.13,70.66L119.05,71.64"/><path d="M119.40,78.72L121.43,79.77"/><path d="M125.08,75.80L125.08,77.89"/><path d="M126.14,75.26L128.17,76.30"/><path d="M130.66,84.51L128.50,83.40"/><path d="M133.83,80.63L133.83,82.39"/><path d="M135.24,79.90L137.40,81.00"/><path d="M137.71,88.13L139.98,89.30"/><path d="M142.67,85.53L142.66,86.91L142.64,86.91L142.65,85.54"/><path d="M146.72,85.76L144.44,84.60"/><path d="M149.41,94.15L147.01,92.92"/><path d="M151.57,90.49L151.56,91.47L151.58,91.48L151.59,90.48"/><path d="M156.14,90.56L153.74,89.34"/><path d="M158.93,99.05L156.41,97.75"/><path d="M160.57,95.48L160.56,96.08L160.60,96.10L160.60,95.49"/><path d="M163.14,94.13L165.66,95.42"/><path d="M168.56,104.00L165.91,102.63"/><path d="M169.71,100.15L169.70,100.76L169.66,100.74L169.67,100.13"/><path d="M175.29,100.33L172.63,98.98"/><path d="M175.51,107.57L178.30,109.00"/><path d="M182.23,103.88L185.02,105.30"/><path d="M185.22,112.56L188.14,114.06"/><path d="M194.86,110.31L191.94,108.82"/><path d="M195.03,117.60L236.41,138.88L236.93,138.57L237.26,131.95L227.01,126.71L226.48,127.02L226.36,129.77L226.27,129.72L226.42,126.41L217.30,121.76L216.78,122.06L216.67,124.81L216.59,124.76L216.72,121.47L207.70,116.87L207.18,117.16L207.08,119.89L207.00,119.86L207.12,116.57L201.74,113.83"/></g></g><g id="Actor_.24"><g style="stroke:#000000;stroke-width:0.176"><path d="M109.19,58.43L107.49,57.57"/><path d="M115.96,64.04L115.95,62.22"/><path d="M116.48,63.78L116.47,62.11L118.12,62.95"/><path d="M124.53,66.90L124.53,68.85"/><path d="M125.23,66.54L127.15,67.51"/><path d="M133.18,71.64L133.18,73.72"/><path d="M134.24,71.09L136.28,72.12"/><path d="M142.37,78.41L141.91,78.18L142.43,77.91"/><path d="M141.91,78.18L141.92,76.43"/><path d="M142.45,77.91L142.44,78.37"/><path d="M145.50,76.78L143.35,75.69"/><path d="M151.28,82.39L151.27,82.92L150.73,82.65L150.75,81.13"/><path d="M150.73,82.65L151.25,82.38"/><path d="M152.54,80.34L154.82,81.49"/><path d="M159.67,85.65L159.64,87.17L160.19,87.45L160.20,86.91"/><path d="M159.64,87.17L160.16,86.89"/><path d="M161.84,85.04L164.24,86.25"/><path d="M168.66,91.17L168.65,91.74L169.16,91.46"/><path d="M168.65,91.74L169.19,92.01L169.20,91.48"/><path d="M171.23,89.79L173.76,91.06"/><path d="M177.74,96.20L177.74,96.35L178.26,96.07"/><path d="M177.74,96.35L178.29,96.63L178.31,96.09"/><path d="M183.38,95.92L180.73,94.59"/><path d="M187.20,101.15L187.49,101.29L187.50,100.98"/><path d="M193.10,100.84L190.32,99.43"/><path d="M200.01,104.33L202.93,105.81"/><path d="M209.82,109.29L215.19,112.00L215.06,115.28L215.58,114.98"/><path d="M215.06,115.28L215.64,115.57L215.66,115.03"/><path d="M215.71,111.71L215.19,112.00"/><path d="M215.77,112.29L224.78,116.85L225.30,116.55"/><path d="M224.78,116.85L224.64,120.13L225.22,120.43L225.24,119.90"/><path d="M224.64,120.13L225.15,119.84"/><path d="M225.36,117.14L234.47,121.75L234.31,125.04L234.90,125.34L234.93,124.79"/><path d="M234.31,125.04L234.83,124.74"/><path d="M234.47,121.75L234.99,121.45"/><path d="M235.06,122.04L245.31,127.22L244.96,133.83"/><path d="M245.31,127.22L245.82,126.92"/></g><g style="stroke:#000000;stroke-width:0.529"><path d="M107.08,57.78L107.09,59.47"/><path d="M109.71,58.17L108.01,57.32"/><path d="M110.08,65.17L111.89,66.09"/><path d="M118.64,62.69L116.99,61.85L116.47,62.11L116.47,61.96"/><path d="M119.00,69.71L120.92,70.69"/><path d="M125.05,68.58L125.05,66.64"/><path d="M125.75,66.28L127.67,67.25"/><path d="M128.01,74.30L130.04,75.33"/><path d="M133.70,73.45L133.71,71.37"/><path d="M136.80,71.85L134.76,70.83"/><path d="M139.27,80.03L137.11,78.93"/><path d="M142.46,76.15L142.45,77.91L142.43,77.91L142.44,76.16"/><path d="M143.87,75.42L146.02,76.51"/><path d="M146.31,83.61L148.59,84.77"/><path d="M151.29,81.00L151.28,82.39L151.25,82.38L151.27,81.01"/><path d="M153.06,80.07L155.34,81.22"/><path d="M155.61,88.35L158.01,89.57"/><path d="M160.21,85.90L160.20,86.91L160.16,86.89L160.18,85.91"/><path d="M164.76,85.98L162.36,84.76"/><path d="M165.00,93.13L167.53,94.42"/><path d="M169.22,90.49L169.20,91.48L169.16,91.46L169.18,90.47"/><path d="M171.75,89.51L174.27,90.78"/><path d="M177.16,99.31L174.50,97.96"/><path d="M178.31,95.89L178.31,96.09L178.26,96.07L178.26,95.92"/><path d="M181.24,94.30L183.90,95.64"/><path d="M184.10,102.85L186.88,104.27"/><path d="M193.62,100.55L190.84,99.15"/><path d="M196.72,109.27L193.80,107.79"/><path d="M200.53,104.04L203.45,105.52"/><path d="M203.61,112.78L244.96,133.83L245.47,133.52L245.82,126.92L235.58,121.74L235.06,122.04L234.93,124.79L234.84,124.75L234.83,124.62L234.99,121.45L225.88,116.85L225.36,117.14L225.24,119.88L225.15,119.84L225.30,116.55L216.28,112.00L215.77,112.29L215.66,115.03L215.58,114.98L215.71,111.71L210.33,109.00"/></g></g><g id="Actor_.25"><g style="stroke:#000000;stroke-width:0.176"><path d="M116.04,53.32L117.74,54.17"/><path d="M124.50,57.92L124.50,59.73"/><path d="M125.02,57.81L126.67,58.64"/><path d="M133.06,64.50L133.07,62.56"/><path d="M135.70,63.16L133.78,62.20"/><path d="M141.72,67.25L141.71,69.33"/><path d="M142.79,66.70L144.82,67.72"/><path d="M150.90,73.97L150.44,73.74L150.46,71.87"/><path d="M150.44,73.74L150.95,73.47"/><path d="M150.98,73.48L150.97,73.93"/><path d="M151.89,71.26L154.04,72.34"/><path d="M159.29,76.29L159.26,78.17L159.77,77.90"/><path d="M159.26,78.17L159.80,78.43L159.80,77.91"/><path d="M161.08,75.86L163.35,77.00"/><path d="M168.18,81.67L168.16,82.64L168.68,82.37"/><path d="M168.16,82.64L168.71,82.91L168.72,82.39"/><path d="M172.77,81.71L170.37,80.51"/><path d="M177.18,86.59L177.16,87.16L177.71,87.43L177.72,86.91"/><path d="M177.16,87.16L177.68,86.88"/><path d="M182.28,86.47L179.76,85.21"/><path d="M186.26,91.58L186.25,91.72L186.81,92.00L186.82,91.47"/><path d="M186.25,91.72L186.76,91.44"/><path d="M191.90,91.28L189.25,89.95"/><path d="M196.00,96.31L195.99,96.62L195.71,96.47"/><path d="M198.83,94.75L201.62,96.14"/><path d="M211.44,101.06L208.52,99.60"/><path d="M224.06,110.16L223.55,110.45L223.69,107.19L218.32,104.50"/><path d="M223.55,110.45L224.12,110.74L224.15,110.22"/><path d="M224.26,107.48L233.27,111.99L233.12,115.26L233.70,115.55L233.72,115.02"/><path d="M224.20,106.90L223.69,107.19"/><path d="M233.12,115.26L233.63,114.97"/><path d="M233.27,111.99L233.78,111.69"/><path d="M233.85,112.28L242.95,116.83L242.78,120.11L243.29,119.82"/><path d="M242.78,120.11L243.37,120.41L243.40,119.87"/><path d="M243.54,117.12L253.78,122.25L253.41,128.83"/><path d="M242.95,116.83L243.46,116.53"/><path d="M253.78,122.25L254.29,121.95"/></g><g style="stroke:#000000;stroke-width:0.529"><path d="M115.63,53.53L115.64,55.22"/><path d="M118.25,53.91L116.56,53.06"/><path d="M120.41,61.80L118.61,60.88"/><path d="M127.19,58.38L125.53,57.55L125.02,57.81L125.02,59.47"/><path d="M125.02,58.85L125.02,57.66"/><path d="M127.52,65.38L129.44,66.35"/><path d="M133.59,62.31L133.59,64.23"/><path d="M134.29,61.94L136.21,62.90"/><path d="M136.53,69.92L138.57,70.95"/><path d="M142.25,66.98L142.24,69.05"/><path d="M142.22,69.06L142.24,66.99"/><path d="M143.30,66.44L145.34,67.46"/><path d="M145.63,74.51L147.79,75.59"/><path d="M151.00,71.72L150.98,73.48L150.95,73.47L150.97,71.73"/><path d="M154.55,72.07L152.40,70.99"/><path d="M154.83,79.14L157.10,80.29"/><path d="M159.79,76.54L159.77,77.90L159.80,77.91L159.82,76.52"/><path d="M161.59,75.59L163.87,76.73"/><path d="M164.12,83.83L166.52,85.04"/><path d="M168.74,81.03L168.72,82.39L168.68,82.37L168.70,81.01"/><path d="M173.28,81.43L170.88,80.24"/><path d="M173.51,88.56L176.04,89.83"/><path d="M177.69,86.32L177.68,86.88L177.72,86.91L177.74,86.29"/><path d="M180.27,84.93L182.80,86.19"/><path d="M185.66,94.68L183.00,93.34"/><path d="M186.82,91.27L186.82,91.47L186.76,91.44L186.77,91.30"/><path d="M192.41,91.00L189.76,89.68"/><path d="M192.60,98.18L195.38,99.58"/><path d="M199.35,94.47L202.13,95.86"/><path d="M202.29,103.07L205.21,104.54"/><path d="M209.04,99.32L211.95,100.77"/><path d="M218.83,104.21L224.20,106.90L224.06,110.16L224.15,110.21L224.26,107.48L224.78,107.19L233.78,111.69L233.63,114.97L233.72,115.02L233.85,112.28L234.37,111.98L243.46,116.53L243.29,119.82L243.40,119.87L243.54,117.12L244.05,116.83L254.29,121.95L253.92,128.53L253.41,128.83L212.09,108.01"/></g></g><g/><g id="paperID" visibility="hidden" opacity="0.00" transform="scale(0.000100)"><path style="stroke:#000000;stroke-width:0.500;fill:#e6e6e6;fill-rule:evenodd" d="M-2000.00,-2000.00L2297.00,-2000.00L2297.00,2210.00L-2000.00,2210.00zM0.00,0.00L297.00,0.00L297.00,210.00L0.00,210.00z"/><path style="fill:#000000;fill-opacity:0.118" d="M3.00,210.00L297.00,210.00L297.00,3.00L300.00,3.00L300.00,213.00L3.00,213.00z"/></g><g id="ToolTip" visibility="hidden" opacity="0" transform="translate(0,0)"><rect id="ToolTipShadow" opacity="0.20" fill="black" stroke="none" x="0" y="0" width="30" height="8"/><rect id="ToolTipBG" fill="#ffffe1" stroke="black" x="0" y="0" width="30" height="8"/><text xml:space="preserve" id="ToolTipText" fill="black" x="0" y="0" width="30" height="8">tooltip</text></g></g></svg>
