<?xml version="1.0" encoding="UTF-8" standalone="no"?>
<svg xmlns="http://www.w3.org/2000/svg" xmlns:xlink="http://www.w3.org/1999/xlink" width="297.000mm" height="210.000mm" viewBox="0.000000 0.000000 297.000000 210.000000" stroke-linejoin="round" stroke-linecap="round" fill="none" fill-rule="evenodd"><desc>3DVIA Composer Export</desc><script type="text/ecmascript"><![CDATA[
if(typeof(top) != "undefined")
{
	top.ShowPaper = ShowPaper;
}
function ShowHotSpot(evt,hotspotid)
{
	var svgDocument = evt.target.ownerDocument;
	var strId = "hotspot."+hotspotid;
	var hotspot = svgDocument.getElementById(strId);
	if(hotspot)
		hotspot.setAttribute("opacity",".5");
}
function HideHotSpot(evt,hotspotid)
{
	var svgDocument = evt.target.ownerDocument;
	var strId = "hotspot."+hotspotid;
	var hotspot = svgDocument.getElementById(strId);
	if(hotspot)
		hotspot.setAttribute("opacity","0");

	var toolTip = svgDocument.getElementById('ToolTip');
	if(toolTip)
		toolTip.setAttribute("visibility","hidden");
}
function ShowToolTip(evt,hotspotid,strTooltip)
{
	if(strTooltip=="")
	return;

	// change text
	var svgDocument = evt.target.ownerDocument;
	var tiptext = svgDocument.getElementById('ToolTipText');
	if( !tiptext )
	return;
	tiptext.firstChild.nodeValue = " " + strTooltip + "  " ;

	// show tooltip before, else some refresh issue

	var toolTip = svgDocument.getElementById('ToolTip');
	if(!toolTip)
	return;

	toolTip.setAttribute("visibility","visible");
	toolTip.setAttribute("opacity",".95");

	// move tooltip
	// get viewbox

	var root = svgDocument.documentElement;
	var vbox = (root.getAttribute("viewBox")).split(' ');
	var x0 = parseFloat(vbox[0]);
	var y0 = parseFloat(vbox[1]);
	var vboxW = parseFloat(vbox[2]);
	var vboxH = parseFloat(vbox[3]);

	// get default width of svg

	var strW = root.getAttribute("width");
	var svgW = parseFloat(strW);
	if(strW.indexOf('mm') != -1)
	svgW *= 3.779;

	var strH = root.getAttribute("height");
	var svgH = parseFloat(strH);
	if(strH.indexOf('mm') != -1)
	svgH *= 3.779;  	// 96 dpi  -> 96/25.4 = 3.779

	// update the viewbox / width / height if svg is embedded in html with zoom fit all
	var realx0 = x0;
	var realy0 = y0;
	var realvboxW = vboxW;
	var realvboxH = vboxH;
	var realsvgW = svgW;
	var realsvgH = svgH;

	if ((typeof(top) == "undefined") || (typeof(top.svgctl1) != "undefined")) // embedded in html
	{
		// get window size in pxl

		svgW = window.innerWidth;
		svgH = window.innerHeight;

		// calculate real viewbox

		realsvgW = svgW;
		realsvgH = svgH;
		if((svgW / svgH) > (vboxW / vboxH))
		{
			realvboxW = (vboxH * svgW) / svgH;
			realvboxH = vboxH;
			realx0 = x0 - (realvboxW - vboxW)/2 ;
		}
		else
		{
			realvboxH = (vboxW * svgH) / svgW;
			realvboxW = vboxW;
			realy0 = y0 - (realvboxH - vboxH)/2 ;
		}
	}

	// get user zoom/pan

	var newScale = root.currentScale;
	var translation = root.currentTranslate;

	// transform pxl to user unit

	var xPos = (((evt.clientX+10- translation.x)/newScale) * realvboxW)/realsvgW  + realx0 ;
	var yPos = (((evt.clientY+5- translation.y)/newScale) * realvboxH)/ realsvgH  + realy0 ;
	var scaleForWidth = ( (1 / newScale) * realvboxH) / realsvgH;

	// move tooltip

	toolTip.setAttribute("transform", "translate(" + xPos + "," + yPos + ")" );

	// resize tooltip

	var fontsize = 12;
	tiptext.setAttribute("font-size",fontsize*scaleForWidth);
	tiptext.setAttribute("y", fontsize*scaleForWidth);
	var tipBG = svgDocument.getElementById('ToolTipBG');
	var outline = tiptext.getBBox();
	if(tipBG)
	{
		tipBG.setAttribute("stroke-width", 1*scaleForWidth);
		tipBG.setAttribute("width", Number(outline.width) );
		tipBG.setAttribute("height", Number(outline.height) + fontsize*.5*scaleForWidth );
	}
	var ToolTipShadow = svgDocument.getElementById('ToolTipShadow');
	if(ToolTipShadow)
	{
		ToolTipShadow.setAttribute("width", Number(outline.width) );
		ToolTipShadow.setAttribute("height", Number(outline.height) + fontsize*.5*scaleForWidth );
		ToolTipShadow.setAttribute("x", 3*scaleForWidth);
		ToolTipShadow.setAttribute("y", 3*scaleForWidth);
	}
}
function ShowPaper()
{
  var svgDocument = getDocument();
  var paper = svgDocument.getElementById("paperID");
  if(paper)
  {
    paper.setAttribute("transform","scale(1)");
    paper.setAttribute("opacity","1");
    paper.setAttribute("visibility","visible");
  }
  var svg = svgDocument.getRootElement();
  if(svg)
  {
    svg.setAttribute("width","307.000mm");
    svg.setAttribute("height","220.000mm");
    svg.setAttribute("viewBox","-5.000000 -5.000000 307.000000 220.000000");
  }
}
]]></script><defs/><g><path style="fill:#000000;fill-opacity:0.098;fill-rule:evenodd" d="M124.86,13.22L124.55,13.68L124.55,13.15L124.82,13.09zM122.66,15.92L122.34,16.38L122.34,15.85L122.61,15.78zM110.64,30.64L110.32,31.10L110.32,30.57L110.59,30.50zM108.43,33.34L108.12,33.80L108.12,33.27L108.38,33.20zM96.41,48.06L96.09,48.52L96.09,47.99L96.36,47.92zM94.20,50.76L93.89,51.22L93.89,50.68L94.15,50.62zM82.18,65.48L81.87,65.94L81.87,65.40L82.13,65.34zM79.97,68.18L79.66,68.64L79.66,68.10L79.92,68.04zM70.16,80.20L69.84,80.66L69.84,80.12L70.11,80.06zM67.95,82.90L67.64,83.36L67.64,82.82L67.90,82.76zM65.74,85.59L65.43,86.05L65.43,85.52L65.70,85.46zM161.86,156.60L162.47,156.61L164.31,154.25L233.15,69.99L232.49,75.72L232.00,78.18L228.22,82.74L222.94,121.86L216.32,129.99L215.80,130.14L206.24,124.22L206.24,122.82L208.20,108.36L208.21,107.28L169.34,154.87L166.72,158.14L161.35,197.16L154.87,205.18L154.00,205.17L144.65,199.28L150.06,159.13L150.08,158.05L75.48,111.44L71.32,141.24L70.97,141.62L64.66,149.33L64.23,149.25L54.54,143.17L60.02,102.96L60.01,101.90L57.32,100.18L57.32,98.54L58.20,92.09L58.31,92.05z"/><g id="Actor_.0"><g style="stroke:#000000;stroke-width:0.176;stroke-opacity:0.25"><path d="M161.70,154.70L161.73,154.46L60.68,91.52"/><path d="M129.65,7.08L129.59,7.58L60.76,91.83"/><path d="M129.59,7.58L230.57,70.48"/><path d="M161.73,154.46L230.71,70.02"/></g><g style="stroke:#000000;stroke-width:0.529;stroke-opacity:0.25"><path d="M60.64,91.76L60.68,91.52L129.65,7.08L230.71,70.02L230.66,70.37"/></g></g><g id="Actor_.1"><g style="stroke:#000000;stroke-width:0.176;stroke-opacity:0.50"><path d="M78.66,102.61L105.08,119.06L105.08,119.08L106.23,119.78L144.30,143.48L144.30,143.51"/><path d="M78.66,102.63L146.96,19.01"/><path d="M144.30,143.48L212.59,59.88"/><path d="M146.95,19.03L212.58,59.90"/></g><g style="stroke:#000000;stroke-width:0.529;stroke-opacity:0.50"><path d="M144.30,143.51L78.66,102.63L78.66,102.61L146.96,19.01L212.59,59.88"/></g></g><g id="Actor_.2"><g style="stroke:#000000;stroke-width:0.176"><path d="M58.14,91.96L162.19,156.77"/><path d="M161.59,154.63L60.98,91.97"/></g><g style="stroke:#000000;stroke-width:0.529"><path d="M57.12,100.10L57.04,100.06L58.14,91.96L60.49,91.67L60.98,91.97L61.45,91.91L161.51,154.23L161.59,154.63L161.75,154.73L162.19,156.77L161.09,164.86L57.12,100.10"/></g></g><g id="Actor_.3"><g style="stroke:#000000;stroke-width:0.176"><path d="M129.16,5.02L129.60,7.06L129.55,7.44L129.74,8.30"/><path d="M129.60,7.06L230.86,70.13L233.22,69.83"/><path d="M129.55,7.44L230.64,70.39"/><path d="M212.58,59.90L146.95,19.03"/><path d="M229.80,70.63L230.52,70.54"/></g><g style="stroke:#000000;stroke-width:0.529"><path d="M129.16,5.02L233.22,69.83L232.12,77.92"/></g></g><g id="Actor_.4"><g style="stroke:#000000;stroke-width:0.176"><path d="M58.14,91.96L60.49,91.67L129.60,7.06"/><path d="M61.45,91.91L60.98,91.97"/><path d="M60.66,91.77L129.55,7.44"/></g><g style="stroke:#000000;stroke-width:0.529"><path d="M57.04,100.06L58.14,91.96L129.16,5.02L129.60,7.06L129.55,7.44L129.74,8.30"/></g></g><g id="Actor_.5"><g style="stroke:#000000;stroke-width:0.176"><path d="M161.09,164.86L162.19,156.77L161.75,154.73L230.52,70.53"/><path d="M162.19,156.77L233.22,69.83"/><path d="M161.51,154.23L161.59,154.63"/></g><g style="stroke:#000000;stroke-width:0.529"><path d="M161.51,154.23L229.80,70.63L230.52,70.53L230.86,70.13L233.22,69.83L232.12,77.92L161.09,164.86"/></g></g><g id="Actor_.6"><g style="stroke:#000000;stroke-width:0.176"><path d="M144.30,143.48L161.51,154.20L161.51,154.23"/><path d="M229.80,70.60L161.51,154.20"/></g><g style="stroke:#000000;stroke-width:0.529"><path d="M145.07,143.99L144.30,143.51L144.30,143.48L212.59,59.88L229.80,70.60L229.80,70.63L161.51,154.23L145.07,143.99"/></g></g><g id="Actor_.7"><g style="stroke:#000000;stroke-width:0.176"><path d="M61.45,91.89L78.66,102.61L78.66,102.63"/><path d="M78.66,102.61L146.96,19.01"/></g><g style="stroke:#000000;stroke-width:0.529"><path d="M61.45,91.89L129.75,8.29L146.96,19.01L146.95,19.03L78.66,102.63L61.45,91.91L61.45,91.89"/></g></g><g id="Actor_.8"><g style="stroke:#000000;stroke-width:0.176"><path d="M83.20,98.11L83.37,96.86L78.66,102.63L78.26,102.38"/><path d="M83.65,96.53L87.88,91.34L87.71,92.59"/><path d="M92.22,87.07L92.39,85.83L88.15,91.01"/><path d="M92.66,85.49L96.90,80.31L96.73,81.55"/><path d="M97.17,79.97L101.40,74.79L101.23,76.04"/><path d="M101.68,74.46L105.91,69.27L105.74,70.52"/><path d="M106.18,68.94L110.42,63.76L110.25,65.00"/><path d="M114.76,59.48L114.92,58.24L110.69,63.42"/><path d="M115.20,57.90L119.43,52.72L119.26,53.97"/><path d="M123.77,48.45L123.94,47.20L119.70,52.39"/><path d="M124.21,46.87L128.45,41.69L128.28,42.93"/><path d="M128.72,41.35L132.95,36.17L132.78,37.41"/><path d="M137.29,31.90L137.46,30.65L133.23,35.83"/><path d="M141.80,26.38L141.97,25.13L137.73,30.32"/><path d="M146.95,19.03L142.24,24.80"/></g><g style="stroke:#000000;stroke-width:0.529"><path d="M83.04,99.35L79.78,103.33"/><path d="M84.77,97.23L87.54,93.83"/><path d="M92.05,88.32L89.28,91.71"/><path d="M96.56,82.80L93.78,86.19"/><path d="M101.06,77.28L98.29,80.67"/><path d="M102.80,75.16L105.57,71.76"/><path d="M107.31,69.64L110.08,66.25"/><path d="M111.81,64.12L114.59,60.73"/><path d="M119.09,55.21L116.32,58.60"/><path d="M120.83,53.09L123.60,49.69"/><path d="M128.11,44.18L125.34,47.57"/><path d="M132.62,38.66L129.84,42.05"/><path d="M137.12,33.14L134.35,36.53"/><path d="M141.63,27.62L138.86,31.02"/><path d="M146.95,19.03L146.62,21.52L143.36,25.50"/></g></g><g id="Actor_.9"><g style="stroke:#000000;stroke-width:0.176"><path d="M141.97,25.13L207.59,66.00"/><path d="M224.81,76.73L225.09,76.40"/></g><g style="stroke:#000000;stroke-width:0.529"><path d="M141.80,26.38L141.63,27.62L146.71,30.79"/><path d="M207.87,65.67L142.24,24.80"/><path d="M148.40,30.49L148.23,31.74L153.31,34.90"/><path d="M155.01,34.60L154.84,35.85L159.92,39.01"/><path d="M166.52,43.12L161.44,39.96L161.61,38.72"/><path d="M173.12,47.24L168.04,44.07L168.21,42.83"/><path d="M179.73,51.35L174.65,48.19L174.82,46.94"/><path d="M186.33,55.46L181.25,52.30L181.42,51.05"/><path d="M188.02,55.17L187.85,56.41L192.93,59.58"/><path d="M194.63,59.28L194.46,60.53L199.54,63.69"/><path d="M206.13,67.79L201.06,64.64L201.23,63.39"/></g></g><g id="Actor_.10"><g style="stroke:#000000;stroke-width:0.176"><path d="M198.58,77.04L132.95,36.17"/><path d="M215.80,87.77L216.07,87.43"/></g><g style="stroke:#000000;stroke-width:0.529"><path d="M137.69,41.82L132.62,38.66L132.78,37.41"/><path d="M198.85,76.71L133.23,35.83"/><path d="M139.39,41.53L139.22,42.77L144.30,45.93"/><path d="M150.90,50.05L145.82,46.88L145.99,45.64"/><path d="M157.51,54.16L152.43,51.00L152.60,49.75"/><path d="M164.11,58.27L159.03,55.11L159.20,53.86"/><path d="M165.80,57.98L165.63,59.22L170.71,62.39"/><path d="M177.32,66.50L172.24,63.33L172.41,62.09"/><path d="M183.92,70.61L178.84,67.45L179.01,66.20"/><path d="M190.52,74.72L185.44,71.56L185.61,70.32"/><path d="M192.22,74.43L192.05,75.67L197.12,78.83"/></g></g><g id="Actor_.11"><g style="stroke:#000000;stroke-width:0.176"><path d="M123.94,47.20L189.56,88.08"/><path d="M206.78,98.80L207.06,98.47"/></g><g style="stroke:#000000;stroke-width:0.529"><path d="M128.68,52.86L123.60,49.69L123.77,48.45"/><path d="M189.84,87.74L124.21,46.87"/><path d="M135.28,56.97L130.20,53.81L130.37,52.56"/><path d="M141.89,61.08L136.81,57.92L136.98,56.67"/><path d="M148.49,65.20L143.41,62.03L143.58,60.79"/><path d="M155.09,69.31L150.01,66.14L150.18,64.90"/><path d="M161.70,73.42L156.62,70.26L156.79,69.01"/><path d="M168.30,77.53L163.22,74.37L163.39,73.13"/><path d="M169.99,77.24L169.83,78.48L174.91,81.65"/><path d="M181.51,85.76L176.43,82.60L176.60,81.35"/><path d="M183.20,85.46L183.03,86.71L188.10,89.86"/></g></g><g id="Actor_.12"><g style="stroke:#000000;stroke-width:0.176"><path d="M203.08,71.52L137.46,30.65"/><path d="M220.31,82.25L220.58,81.91"/></g><g style="stroke:#000000;stroke-width:0.529"><path d="M137.29,31.90L137.12,33.14L142.20,36.30"/><path d="M137.73,30.32L203.36,71.19"/><path d="M148.81,40.42L143.73,37.25L143.89,36.01"/><path d="M155.41,44.53L150.33,41.37L150.50,40.12"/><path d="M162.01,48.64L156.93,45.48L157.10,44.23"/><path d="M168.62,52.75L163.54,49.59L163.71,48.35"/><path d="M175.22,56.87L170.14,53.70L170.31,52.46"/><path d="M181.82,60.98L176.74,57.82L176.91,56.57"/><path d="M183.52,60.68L183.35,61.93L188.43,65.09"/><path d="M195.03,69.21L189.95,66.04L190.12,64.80"/><path d="M196.72,68.91L196.56,70.16L201.62,73.31"/></g></g><g id="Actor_.13"><g style="stroke:#000000;stroke-width:0.176"><path d="M128.45,41.69L194.07,82.56"/><path d="M211.29,93.28L211.56,92.95"/></g><g style="stroke:#000000;stroke-width:0.529"><path d="M133.19,47.34L128.11,44.18L128.28,42.93"/><path d="M128.72,41.35L194.34,82.22"/><path d="M139.79,51.45L134.71,48.29L134.88,47.04"/><path d="M146.39,55.56L141.32,52.40L141.48,51.16"/><path d="M153.00,59.68L147.92,56.51L148.09,55.27"/><path d="M159.60,63.79L154.52,60.63L154.69,59.38"/><path d="M166.21,67.90L161.13,64.74L161.30,63.50"/><path d="M172.81,72.02L167.73,68.85L167.90,67.61"/><path d="M174.50,71.72L174.33,72.96L179.41,76.13"/><path d="M181.11,75.83L180.94,77.08L186.02,80.24"/><path d="M187.71,79.95L187.54,81.19L192.61,84.35"/></g></g><g id="Actor_.14"><g style="stroke:#000000;stroke-width:0.176"><path d="M185.06,93.59L119.43,52.72"/><path d="M202.28,104.32L202.55,103.98"/></g><g style="stroke:#000000;stroke-width:0.529"><path d="M124.17,58.37L119.09,55.21L119.26,53.97"/><path d="M185.33,93.26L119.70,52.39"/><path d="M130.78,62.49L125.70,59.32L125.87,58.08"/><path d="M137.38,66.60L132.30,63.44L132.47,62.19"/><path d="M143.98,70.71L138.90,67.55L139.07,66.30"/><path d="M150.59,74.83L145.51,71.66L145.68,70.42"/><path d="M157.19,78.94L152.11,75.78L152.28,74.53"/><path d="M163.79,83.05L158.72,79.89L158.88,78.64"/><path d="M165.49,82.76L165.32,84.00L170.40,87.16"/><path d="M172.09,86.87L171.92,88.11L177.00,91.28"/><path d="M183.59,95.38L178.53,92.23L178.69,90.98"/></g></g><g id="Actor_.15"><g style="stroke:#000000;stroke-width:0.176"><path d="M114.92,58.24L180.55,99.11"/><path d="M197.77,109.84L198.04,109.50"/></g><g style="stroke:#000000;stroke-width:0.529"><path d="M119.67,63.89L114.59,60.73L114.76,59.48"/><path d="M180.82,98.78L115.20,57.90"/><path d="M126.27,68.00L121.19,64.84L121.36,63.60"/><path d="M132.87,72.12L127.79,68.95L127.96,67.71"/><path d="M139.48,76.23L134.40,73.07L134.57,71.82"/><path d="M146.08,80.34L141.00,77.18L141.17,75.93"/><path d="M152.68,84.46L147.60,81.29L147.77,80.05"/><path d="M154.38,84.16L154.21,85.41L159.29,88.57"/><path d="M160.98,88.27L160.81,89.52L165.89,92.68"/><path d="M172.49,96.79L167.42,93.63L167.58,92.39"/><path d="M174.19,96.50L174.02,97.74L179.09,100.90"/></g></g><g id="Actor_.16"><g style="stroke:#000000;stroke-width:0.176"><path d="M176.04,104.63L110.42,63.76"/><path d="M193.26,115.35L193.53,115.02"/></g><g style="stroke:#000000;stroke-width:0.529"><path d="M115.16,69.41L110.08,66.25L110.25,65.00"/><path d="M176.31,104.29L110.69,63.42"/><path d="M121.76,73.52L116.68,70.36L116.85,69.11"/><path d="M128.37,77.64L123.29,74.47L123.46,73.23"/><path d="M134.97,81.75L129.89,78.58L130.06,77.34"/><path d="M141.57,85.86L136.49,82.70L136.66,81.45"/><path d="M143.27,85.57L143.10,86.81L148.18,89.97"/><path d="M154.78,94.09L149.70,90.92L149.87,89.68"/><path d="M156.47,93.79L156.30,95.04L161.38,98.20"/><path d="M167.99,102.31L162.91,99.15L163.08,97.90"/><path d="M174.58,106.42L169.51,103.26L169.68,102.02"/></g></g><g id="Actor_.17"><g style="stroke:#000000;stroke-width:0.176"><path d="M171.53,110.15L105.91,69.27"/><path d="M188.75,120.87L189.03,120.54"/></g><g style="stroke:#000000;stroke-width:0.529"><path d="M105.74,70.52L105.57,71.76L110.65,74.93"/><path d="M171.81,109.81L106.18,68.94"/><path d="M112.34,74.63L112.17,75.88L117.25,79.04"/><path d="M118.95,78.75L118.78,79.99L123.86,83.15"/><path d="M130.46,87.27L125.38,84.10L125.55,82.86"/><path d="M137.07,91.38L131.99,88.21L132.15,86.97"/><path d="M143.67,95.49L138.59,92.33L138.76,91.08"/><path d="M150.27,99.60L145.19,96.44L145.36,95.20"/><path d="M156.88,103.72L151.80,100.55L151.97,99.31"/><path d="M163.48,107.83L158.40,104.67L158.57,103.42"/><path d="M165.17,107.53L165.00,108.78L170.07,111.94"/></g></g><g id="Actor_.18"><g style="stroke:#000000;stroke-width:0.176"><path d="M167.03,115.66L101.40,74.79"/><path d="M184.25,126.39L184.52,126.05"/></g><g style="stroke:#000000;stroke-width:0.529"><path d="M106.14,80.44L101.06,77.28L101.23,76.04"/><path d="M101.67,74.45L167.30,115.33"/><path d="M107.84,80.15L107.67,81.39L112.75,84.56"/><path d="M119.35,88.67L114.27,85.51L114.44,84.26"/><path d="M121.04,88.37L120.88,89.62L125.95,92.78"/><path d="M132.56,96.90L127.48,93.73L127.65,92.49"/><path d="M139.16,101.01L134.08,97.85L134.25,96.60"/><path d="M145.77,105.12L140.69,101.96L140.85,100.71"/><path d="M147.46,104.83L147.29,106.07L152.37,109.23"/><path d="M158.97,113.35L153.89,110.18L154.06,108.94"/><path d="M160.67,113.05L160.50,114.30L165.56,117.45"/></g></g><g id="Actor_.19"><g style="stroke:#000000;stroke-width:0.176"><path d="M96.89,80.31L162.52,121.18"/><path d="M179.74,131.91L180.01,131.57"/></g><g style="stroke:#000000;stroke-width:0.529"><path d="M101.64,85.96L96.56,82.80L96.73,81.55"/><path d="M162.79,120.85L97.17,79.97"/><path d="M103.33,85.67L103.16,86.91L108.24,90.08"/><path d="M114.84,94.19L109.76,91.02L109.93,89.78"/><path d="M121.45,98.30L116.37,95.14L116.54,93.89"/><path d="M128.05,102.41L122.97,99.25L123.14,98.00"/><path d="M134.65,106.53L129.58,103.36L129.74,102.12"/><path d="M141.26,110.64L136.18,107.48L136.35,106.23"/><path d="M147.86,114.75L142.79,111.59L142.95,110.34"/><path d="M154.47,118.86L149.39,115.70L149.56,114.46"/><path d="M156.16,118.57L155.99,119.81L161.06,122.97"/></g></g><g id="Actor_.20"><g style="stroke:#000000;stroke-width:0.176"><path d="M158.01,126.70L92.38,85.82"/><path d="M175.23,137.42L175.51,137.09"/></g><g style="stroke:#000000;stroke-width:0.529"><path d="M92.22,87.07L92.05,88.32L97.13,91.48"/><path d="M158.29,126.36L92.65,85.49"/><path d="M98.82,91.18L98.65,92.43L103.73,95.59"/><path d="M110.34,99.71L105.26,96.54L105.43,95.30"/><path d="M116.94,103.82L111.86,100.65L112.03,99.41"/><path d="M123.54,107.93L118.46,104.77L118.63,103.52"/><path d="M130.15,112.04L125.07,108.88L125.24,107.64"/><path d="M136.75,116.16L131.67,112.99L131.84,111.75"/><path d="M143.35,120.27L138.27,117.11L138.44,115.86"/><path d="M149.96,124.38L144.88,121.22L145.05,119.97"/><path d="M156.55,128.49L151.48,125.33L151.65,124.09"/></g></g><g id="Actor_.21"><g style="stroke:#000000;stroke-width:0.176"><path d="M153.50,132.22L87.87,91.34"/><path d="M170.73,142.94L171.00,142.61"/></g><g style="stroke:#000000;stroke-width:0.529"><path d="M92.62,97.00L87.54,93.83L87.71,92.59"/><path d="M153.78,131.88L88.14,91.00"/><path d="M94.31,96.70L94.15,97.95L99.23,101.11"/><path d="M100.92,100.82L100.75,102.06L105.83,105.22"/><path d="M107.52,104.93L107.35,106.17L112.43,109.34"/><path d="M119.04,113.45L113.96,110.29L114.13,109.04"/><path d="M125.64,117.56L120.56,114.40L120.73,113.15"/><path d="M132.24,121.67L127.16,118.51L127.33,117.27"/><path d="M138.85,125.79L133.77,122.62L133.94,121.38"/><path d="M140.54,125.49L140.37,126.74L145.45,129.90"/><path d="M147.14,129.60L146.98,130.85L152.04,134.01"/></g></g><g id="Actor_.22"><g style="stroke:#000000;stroke-width:0.176"><path d="M149.00,137.73L83.37,96.86"/><path d="M166.22,148.46L166.49,148.12"/></g><g style="stroke:#000000;stroke-width:0.529"><path d="M88.11,102.52L83.04,99.35L83.20,98.11"/><path d="M83.65,96.53L149.27,137.40"/><path d="M89.81,102.22L89.64,103.46L94.72,106.63"/><path d="M101.32,110.74L96.24,107.58L96.41,106.33"/><path d="M107.93,114.85L102.85,111.69L103.02,110.45"/><path d="M114.53,118.97L109.45,115.80L109.62,114.56"/><path d="M121.13,123.08L116.05,119.92L116.22,118.67"/><path d="M127.74,127.19L122.66,124.03L122.83,122.78"/><path d="M134.34,131.30L129.26,128.14L129.43,126.90"/><path d="M136.03,131.01L135.86,132.25L140.94,135.42"/><path d="M142.64,135.12L142.47,136.37L147.54,139.52"/></g></g><g id="Actor_.23"><g style="stroke:#000000;stroke-width:0.176"><path d="M89.79,100.86L89.98,100.97L85.26,106.74L84.86,106.49"/><path d="M89.98,100.97L89.81,102.22"/><path d="M94.31,96.70L94.48,95.46L90.25,100.64L89.85,100.39"/><path d="M98.80,89.82L98.99,89.94L94.76,95.12L94.36,94.87"/><path d="M94.48,95.46L94.29,95.34"/><path d="M98.82,91.18L98.99,89.94"/><path d="M98.86,89.36L99.26,89.61L103.50,84.42L103.31,84.30"/><path d="M103.33,85.67L103.50,84.42"/><path d="M103.37,83.84L103.77,84.09L108.01,78.90L107.82,78.79"/><path d="M108.01,78.90L107.84,80.15"/><path d="M107.88,78.32L108.28,78.57L112.51,73.39L112.34,74.63"/><path d="M116.85,69.11L117.02,67.87L112.79,73.05L112.39,72.80"/><path d="M112.51,73.39L112.32,73.27"/><path d="M121.34,62.23L121.53,62.35L117.29,67.53L116.89,67.29"/><path d="M117.02,67.87L116.83,67.75"/><path d="M121.53,62.35L121.36,63.60"/><path d="M121.40,61.77L121.80,62.02L126.03,56.83L125.84,56.72"/><path d="M125.87,58.08L126.03,56.83"/><path d="M125.91,56.25L126.31,56.50L130.54,51.32L130.35,51.20"/><path d="M130.54,51.32L130.37,52.56"/><path d="M130.42,50.73L130.82,50.98L135.05,45.80L134.86,45.68"/><path d="M134.88,47.04L135.05,45.80"/><path d="M134.92,45.22L135.32,45.46L139.56,40.28L139.37,40.16"/><path d="M139.39,41.53L139.56,40.28"/><path d="M143.87,34.64L144.06,34.76L139.83,39.95L139.43,39.70"/><path d="M143.90,36.01L144.06,34.76"/><path d="M143.94,34.18L144.34,34.43L148.57,29.25L148.38,29.13"/><path d="M148.57,29.25L148.40,30.49"/><path d="M153.56,23.14L148.84,28.91L148.44,28.66"/></g><g style="stroke:#000000;stroke-width:0.529"><path d="M89.79,100.86L89.58,100.73L84.86,106.49"/><path d="M86.39,107.44L89.64,103.46"/><path d="M89.85,100.39L94.08,95.21L94.29,95.34"/><path d="M94.15,97.95L91.37,101.34"/><path d="M94.36,94.87L98.59,89.69L98.80,89.82"/><path d="M95.88,95.82L98.65,92.43"/><path d="M98.86,89.36L103.10,84.17L103.31,84.30"/><path d="M103.16,86.91L100.39,90.31"/><path d="M103.37,83.84L107.61,78.66L107.82,78.79"/><path d="M104.90,84.79L107.67,81.39"/><path d="M112.32,73.27L112.11,73.14L107.88,78.32"/><path d="M112.18,75.88L109.40,79.27"/><path d="M112.39,72.80L116.62,67.62L116.83,67.75"/><path d="M116.68,70.36L113.91,73.75"/><path d="M116.89,67.29L121.13,62.10L121.34,62.23"/><path d="M118.42,68.23L121.19,64.84"/><path d="M121.40,61.77L125.63,56.59L125.84,56.72"/><path d="M125.70,59.32L122.92,62.72"/><path d="M130.35,51.20L130.14,51.07L125.91,56.25"/><path d="M130.20,53.81L127.43,57.20"/><path d="M130.42,50.73L134.65,45.55L134.86,45.68"/><path d="M134.71,48.29L131.94,51.68"/><path d="M139.37,40.16L139.16,40.03L134.92,45.22"/><path d="M139.22,42.77L136.45,46.16"/><path d="M139.43,39.70L143.66,34.51L143.87,34.64"/><path d="M143.73,37.25L140.95,40.65"/><path d="M143.94,34.18L148.17,29.00L148.38,29.13"/><path d="M148.23,31.74L145.46,35.13"/><path d="M148.44,28.66L153.16,22.89L153.56,23.14L153.22,25.63L149.97,29.61"/></g></g><g id="Actor_.24"><g style="stroke:#000000;stroke-width:0.176"><path d="M96.41,106.33L96.58,105.09L91.87,110.86L91.47,110.61"/><path d="M96.58,105.09L96.39,104.97"/><path d="M100.90,99.45L101.09,99.57L96.85,104.75L96.45,104.50"/><path d="M100.92,100.82L101.09,99.57"/><path d="M105.43,95.30L105.60,94.05L101.36,99.24L100.96,98.99"/><path d="M105.47,93.47L105.87,93.72L110.10,88.53L109.91,88.42"/><path d="M105.60,94.05L105.40,93.93"/><path d="M109.93,89.78L110.10,88.53"/><path d="M109.98,87.95L110.38,88.20L114.61,83.02L114.42,82.90"/><path d="M114.44,84.26L114.61,83.02"/><path d="M114.48,82.43L114.88,82.68L119.12,77.50L118.93,77.38"/><path d="M118.95,78.75L119.12,77.50"/><path d="M118.99,76.92L119.39,77.17L123.62,71.98L123.46,73.23"/><path d="M123.62,71.98L123.43,71.86"/><path d="M123.50,71.40L123.90,71.65L128.13,66.46L127.94,66.35"/><path d="M127.96,67.71L128.13,66.46"/><path d="M132.45,60.83L132.64,60.95L128.40,66.13L128.00,65.88"/><path d="M132.47,62.19L132.64,60.95"/><path d="M136.98,56.67L137.15,55.43L132.91,60.61L132.51,60.36"/><path d="M136.96,55.31L137.15,55.43"/><path d="M137.02,54.85L137.42,55.09L141.65,49.92L141.46,49.79"/><path d="M141.48,51.16L141.65,49.92"/><path d="M141.53,49.33L141.93,49.58L146.16,44.39L145.97,44.28"/><path d="M146.16,44.39L145.99,45.64"/><path d="M146.03,43.81L146.43,44.06L150.67,38.88L150.48,38.76"/><path d="M150.50,40.12L150.67,38.88"/><path d="M154.98,33.24L155.17,33.36L150.94,38.54L150.54,38.29"/><path d="M155.01,34.60L155.17,33.36"/><path d="M155.05,32.78L155.45,33.02L160.16,27.26"/></g><g style="stroke:#000000;stroke-width:0.529"><path d="M96.39,104.97L96.18,104.84L91.47,110.61"/><path d="M92.99,111.56L96.24,107.58"/><path d="M96.45,104.50L100.69,99.32L100.90,99.45"/><path d="M100.75,102.06L97.98,105.45"/><path d="M100.96,98.99L105.20,93.80L105.40,93.93"/><path d="M105.26,96.54L102.48,99.94"/><path d="M105.47,93.47L109.70,88.29L109.91,88.42"/><path d="M109.76,91.02L106.99,94.42"/><path d="M109.98,87.95L114.21,82.77L114.42,82.90"/><path d="M114.27,85.51L111.50,88.90"/><path d="M114.48,82.43L118.72,77.25L118.93,77.38"/><path d="M118.78,79.99L116.01,83.38"/><path d="M123.43,71.86L123.22,71.73L118.99,76.92"/><path d="M123.29,74.47L120.51,77.87"/><path d="M123.50,71.40L127.73,66.22L127.94,66.35"/><path d="M125.02,72.35L127.79,68.95"/><path d="M128.00,65.88L132.24,60.70L132.45,60.83"/><path d="M132.30,63.44L129.53,66.83"/><path d="M132.51,60.36L136.75,55.18L136.96,55.31"/><path d="M134.04,61.31L136.81,57.92"/><path d="M137.02,54.85L141.25,49.66L141.46,49.79"/><path d="M141.32,52.40L138.54,55.79"/><path d="M141.53,49.33L145.76,44.15L145.97,44.28"/><path d="M145.82,46.88L143.05,50.28"/><path d="M146.03,43.81L150.27,38.63L150.48,38.76"/><path d="M147.56,44.76L150.33,41.37"/><path d="M150.54,38.29L154.77,33.11L154.98,33.24"/><path d="M154.84,35.85L152.06,39.24"/><path d="M155.05,32.78L159.76,27.01L160.16,27.26L159.82,29.75L156.57,33.72"/></g></g><g id="Actor_.25"><g style="stroke:#000000;stroke-width:0.176"><path d="M102.99,109.08L103.18,109.20L98.47,114.97L98.07,114.72"/><path d="M103.02,110.45L103.18,109.20"/><path d="M107.52,104.93L107.69,103.68L103.46,108.87L103.06,108.62"/><path d="M112.03,99.41L112.20,98.17L107.96,103.35L107.56,103.10"/><path d="M107.69,103.68L107.50,103.56"/><path d="M112.20,98.17L112.01,98.05"/><path d="M112.07,97.58L112.47,97.83L116.71,92.65L116.52,92.53"/><path d="M116.54,93.89L116.71,92.65"/><path d="M116.58,92.06L116.98,92.31L121.21,87.13L121.02,87.01"/><path d="M121.04,88.38L121.21,87.13"/><path d="M121.09,86.55L121.49,86.80L125.72,81.61L125.53,81.50"/><path d="M125.55,82.86L125.72,81.61"/><path d="M125.60,81.03L125.99,81.28L130.22,76.10L130.04,75.98"/><path d="M130.06,77.34L130.22,76.10"/><path d="M130.10,75.51L130.50,75.76L134.73,70.58L134.54,70.46"/><path d="M134.73,70.58L134.57,71.82"/><path d="M139.07,66.30L139.24,65.06L135.01,70.24L134.61,69.99"/><path d="M139.24,65.06L139.05,64.94"/><path d="M143.56,59.42L143.75,59.54L139.52,64.73L139.12,64.48"/><path d="M143.58,60.79L143.75,59.54"/><path d="M148.07,53.91L148.26,54.02L144.02,59.21L143.62,58.96"/><path d="M148.09,55.27L148.26,54.02"/><path d="M148.13,53.44L148.53,53.69L152.76,48.51L152.57,48.39"/><path d="M152.59,49.75L152.76,48.51"/><path d="M157.10,44.23L157.27,42.99L153.04,48.17L152.64,47.92"/><path d="M161.59,37.35L161.78,37.47L157.54,42.65L157.14,42.41"/><path d="M157.27,42.99L157.08,42.87"/><path d="M161.61,38.72L161.78,37.47"/><path d="M161.65,36.89L162.05,37.14L166.76,31.37"/></g><g style="stroke:#000000;stroke-width:0.529"><path d="M98.07,114.72L102.78,108.95L102.99,109.08"/><path d="M102.85,111.69L99.60,115.67"/><path d="M103.06,108.62L107.29,103.43L107.50,103.56"/><path d="M104.58,109.57L107.35,106.17"/><path d="M107.56,103.10L111.80,97.92L112.01,98.05"/><path d="M111.86,100.65L109.09,104.05"/><path d="M112.07,97.58L116.31,92.40L116.52,92.53"/><path d="M116.37,95.14L113.60,98.53"/><path d="M116.58,92.06L120.81,86.88L121.02,87.01"/><path d="M118.10,93.01L120.88,89.62"/><path d="M121.09,86.55L125.32,81.36L125.53,81.50"/><path d="M122.61,87.50L125.38,84.10"/><path d="M125.59,81.03L129.83,75.85L130.04,75.98"/><path d="M129.89,78.58L127.12,81.98"/><path d="M130.10,75.51L134.33,70.33L134.54,70.46"/><path d="M134.40,73.07L131.62,76.46"/><path d="M134.61,69.99L138.84,64.81L139.05,64.94"/><path d="M138.90,67.55L136.13,70.94"/><path d="M139.12,64.48L143.35,59.29L143.56,59.42"/><path d="M143.41,62.03L140.64,65.43"/><path d="M143.62,58.96L147.86,53.78L148.07,53.91"/><path d="M147.92,56.51L145.15,59.91"/><path d="M148.13,53.44L152.36,48.26L152.57,48.39"/><path d="M149.65,54.39L152.43,51.00"/><path d="M152.64,47.92L156.87,42.74L157.08,42.87"/><path d="M154.16,48.87L156.93,45.48"/><path d="M157.14,42.41L161.38,37.22L161.59,37.35"/><path d="M161.44,39.96L158.67,43.35"/><path d="M163.18,37.84L166.43,33.86L166.76,31.37L166.36,31.12L161.65,36.89"/></g></g><g id="Actor_.26"><g style="stroke:#000000;stroke-width:0.176"><path d="M109.60,113.19L109.79,113.31L105.08,119.08L104.68,118.83"/><path d="M109.79,113.31L109.62,114.56"/><path d="M109.66,112.73L110.06,112.98L114.29,107.80L114.10,107.68"/><path d="M114.29,107.80L114.13,109.04"/><path d="M118.61,102.16L118.80,102.28L114.57,107.46L114.17,107.21"/><path d="M118.63,103.52L118.80,102.28"/><path d="M123.14,98.01L123.31,96.76L119.08,101.94L118.68,101.69"/><path d="M127.63,91.12L127.82,91.24L123.58,96.43L123.18,96.18"/><path d="M123.31,96.76L123.12,96.64"/><path d="M127.65,92.49L127.82,91.24"/><path d="M127.69,90.66L128.09,90.91L132.32,85.73L132.13,85.61"/><path d="M132.15,86.97L132.32,85.73"/><path d="M132.20,85.14L132.60,85.39L136.83,80.21L136.66,81.45"/><path d="M136.83,80.21L136.64,80.09"/><path d="M141.15,74.57L141.34,74.69L137.10,79.87L136.70,79.62"/><path d="M141.17,75.93L141.34,74.69"/><path d="M145.66,69.05L145.85,69.17L141.61,74.36L141.21,74.11"/><path d="M145.85,69.17L145.68,70.42"/><path d="M150.16,63.54L150.35,63.65L146.12,68.84L145.72,68.59"/><path d="M150.35,63.65L150.18,64.90"/><path d="M154.67,58.02L154.86,58.14L150.63,63.32L150.23,63.07"/><path d="M154.69,59.38L154.86,58.14"/><path d="M154.73,57.55L155.13,57.80L159.37,52.62L159.18,52.50"/><path d="M159.20,53.86L159.37,52.62"/><path d="M163.68,46.98L163.88,47.10L159.64,52.29L159.24,52.04"/><path d="M163.71,48.35L163.88,47.10"/><path d="M163.75,46.52L164.15,46.77L168.38,41.58L168.19,41.47"/><path d="M168.21,42.83L168.38,41.58"/><path d="M168.25,41.00L168.66,41.25L173.37,35.48"/></g><g style="stroke:#000000;stroke-width:0.529"><path d="M104.68,118.83L109.39,113.06L109.60,113.19"/><path d="M106.20,119.78L109.45,115.80"/><path d="M109.66,112.73L113.89,107.55L114.10,107.68"/><path d="M111.18,113.68L113.96,110.29"/><path d="M114.17,107.21L118.40,102.03L118.61,102.16"/><path d="M115.69,108.16L118.46,104.77"/><path d="M118.68,101.69L122.91,96.51L123.12,96.64"/><path d="M122.97,99.25L120.20,102.64"/><path d="M123.18,96.18L127.42,90.99L127.63,91.12"/><path d="M127.48,93.73L124.71,97.13"/><path d="M132.13,85.61L131.92,85.48L127.69,90.66"/><path d="M129.21,91.61L131.99,88.21"/><path d="M132.20,85.14L136.43,79.96L136.64,80.09"/><path d="M133.72,86.09L136.49,82.70"/><path d="M136.70,79.62L140.94,74.44L141.15,74.57"/><path d="M141.00,77.18L138.23,80.57"/><path d="M141.21,74.11L145.44,68.92L145.66,69.05"/><path d="M145.51,71.66L142.74,75.06"/><path d="M150.16,63.54L149.95,63.41L145.72,68.59"/><path d="M150.02,66.14L147.24,69.54"/><path d="M150.23,63.07L154.46,57.89L154.67,58.02"/><path d="M154.52,60.63L151.75,64.02"/><path d="M159.18,52.50L158.97,52.37L154.73,57.55"/><path d="M156.26,58.50L159.03,55.11"/><path d="M159.24,52.04L163.47,46.85L163.68,46.98"/><path d="M163.54,49.59L160.76,52.99"/><path d="M163.75,46.52L167.98,41.33L168.19,41.47"/><path d="M168.04,44.07L165.27,47.47"/><path d="M169.78,41.95L173.03,37.97L173.37,35.48L172.97,35.23L168.25,41.00"/></g></g><g id="Actor_.27"><g style="stroke:#000000;stroke-width:0.176"><path d="M111.28,122.95L111.68,123.19L116.39,117.43L116.20,117.31"/><path d="M116.39,117.43L116.22,118.67"/><path d="M120.71,111.79L120.90,111.91L116.66,117.09L116.26,116.84"/><path d="M120.73,113.15L120.90,111.91"/><path d="M125.24,107.63L125.41,106.39L121.17,111.57L120.77,111.33"/><path d="M125.41,106.39L125.22,106.27"/><path d="M125.28,105.81L125.68,106.06L129.91,100.87L129.72,100.75"/><path d="M129.74,102.12L129.91,100.87"/><path d="M129.79,100.29L130.19,100.54L134.42,95.36L134.23,95.24"/><path d="M134.25,96.60L134.42,95.36"/><path d="M134.29,94.77L134.69,95.02L138.93,89.84L138.74,89.72"/><path d="M138.76,91.08L138.93,89.84"/><path d="M143.27,85.56L143.43,84.32L139.20,89.50L138.80,89.25"/><path d="M143.31,83.74L143.71,83.99L147.94,78.80L147.75,78.68"/><path d="M143.43,84.32L143.24,84.20"/><path d="M147.77,80.05L147.94,78.80"/><path d="M152.26,73.17L152.45,73.29L148.21,78.47L147.81,78.22"/><path d="M152.45,73.29L152.28,74.53"/><path d="M152.32,72.70L152.72,72.95L156.96,67.77L156.77,67.65"/><path d="M156.79,69.01L156.96,67.77"/><path d="M156.83,67.18L157.23,67.43L161.46,62.25L161.27,62.13"/><path d="M161.29,63.49L161.46,62.25"/><path d="M161.34,61.67L161.74,61.92L165.97,56.73L165.78,56.61"/><path d="M165.80,57.98L165.97,56.73"/><path d="M170.29,51.10L170.48,51.21L166.24,56.40L165.84,56.15"/><path d="M170.31,52.46L170.48,51.21"/><path d="M174.82,46.94L174.99,45.70L170.75,50.88L170.35,50.63"/><path d="M174.99,45.70L174.80,45.58"/><path d="M174.86,45.11L175.26,45.36L179.97,39.59"/></g><g style="stroke:#000000;stroke-width:0.529"><path d="M116.20,117.31L115.99,117.18L111.28,122.95"/><path d="M112.80,123.89L116.05,119.92"/><path d="M116.26,116.84L120.50,111.66L120.71,111.79"/><path d="M120.56,114.40L117.79,117.79"/><path d="M120.77,111.33L125.01,106.14L125.22,106.27"/><path d="M122.30,112.27L125.07,108.88"/><path d="M125.28,105.81L129.51,100.62L129.72,100.75"/><path d="M126.80,106.76L129.58,103.36"/><path d="M129.79,100.29L134.02,95.11L134.23,95.24"/><path d="M134.08,97.85L131.31,101.24"/><path d="M134.29,94.77L138.53,89.59L138.74,89.72"/><path d="M135.82,95.72L138.59,92.33"/><path d="M138.80,89.25L143.03,84.07L143.24,84.20"/><path d="M143.10,86.81L140.32,90.20"/><path d="M143.31,83.74L147.54,78.55L147.75,78.68"/><path d="M147.60,81.29L144.83,84.69"/><path d="M147.81,78.22L152.04,73.04L152.26,73.17"/><path d="M152.11,75.77L149.34,79.17"/><path d="M152.32,72.70L156.56,67.52L156.77,67.65"/><path d="M156.62,70.26L153.85,73.65"/><path d="M156.83,67.18L161.07,62.00L161.27,62.13"/><path d="M161.13,64.74L158.35,68.13"/><path d="M165.78,56.61L165.57,56.48L161.34,61.67"/><path d="M165.63,59.22L162.86,62.62"/><path d="M165.84,56.15L170.08,50.96L170.29,51.10"/><path d="M170.14,53.70L167.37,57.10"/><path d="M170.35,50.63L174.59,45.45L174.80,45.58"/><path d="M174.65,48.19L171.88,51.58"/><path d="M176.38,46.06L179.63,42.08L179.97,39.59L179.57,39.34L174.86,45.11"/></g></g><g id="Actor_.28"><g style="stroke:#000000;stroke-width:0.176"><path d="M122.80,121.42L122.99,121.54L118.28,127.31L117.88,127.06"/><path d="M122.83,122.78L122.99,121.54"/><path d="M122.87,120.96L123.27,121.20L127.50,116.02L127.31,115.90"/><path d="M127.33,117.27L127.50,116.02"/><path d="M131.82,110.38L132.01,110.50L127.77,115.69L127.37,115.44"/><path d="M131.84,111.75L132.01,110.50"/><path d="M131.88,109.92L132.28,110.17L136.51,105.00L136.35,106.23"/><path d="M136.51,105.00L136.52,104.99L136.33,104.87"/><path d="M136.39,104.40L136.79,104.65L141.02,99.47L140.83,99.35"/><path d="M141.02,99.47L140.85,100.71"/><path d="M140.90,98.89L141.30,99.13L145.53,93.95L145.36,95.20"/><path d="M145.40,93.37L145.80,93.62L150.04,88.43L149.87,89.68"/><path d="M145.53,93.95L145.34,93.83"/><path d="M149.91,87.85L150.31,88.10L154.55,82.92L154.36,82.80"/><path d="M150.04,88.43L149.85,88.31"/><path d="M154.55,82.92L154.38,84.16"/><path d="M158.86,77.28L159.05,77.40L154.82,82.58L154.42,82.33"/><path d="M158.88,78.64L159.05,77.40"/><path d="M163.37,71.76L163.56,71.88L159.33,77.06L158.93,76.81"/><path d="M163.39,73.12L163.56,71.88"/><path d="M163.43,71.30L163.83,71.55L168.07,66.36L167.88,66.24"/><path d="M167.90,67.61L168.07,66.36"/><path d="M167.94,65.78L168.34,66.03L172.57,60.85L172.38,60.73"/><path d="M172.41,62.09L172.57,60.85"/><path d="M172.45,60.26L172.85,60.51L177.08,55.33L176.91,56.57"/><path d="M176.89,55.21L177.08,55.33"/><path d="M181.40,49.69L181.59,49.81L177.36,54.99L176.96,54.74"/><path d="M181.59,49.81L181.42,51.05"/><path d="M181.46,49.23L181.86,49.48L186.57,43.71"/></g><g style="stroke:#000000;stroke-width:0.529"><path d="M117.88,127.06L122.59,121.29L122.80,121.42"/><path d="M119.41,128.01L122.66,124.03"/><path d="M122.87,120.96L127.10,115.77L127.31,115.90"/><path d="M127.16,118.51L124.39,121.90"/><path d="M127.37,115.44L131.61,110.25L131.82,110.38"/><path d="M131.67,112.99L128.90,116.39"/><path d="M131.88,109.92L136.12,104.74L136.33,104.87"/><path d="M136.18,107.48L133.41,110.87"/><path d="M136.39,104.40L140.62,99.22L140.83,99.35"/><path d="M140.69,101.96L137.91,105.35"/><path d="M140.90,98.89L145.13,93.70L145.34,93.83"/><path d="M145.19,96.44L142.42,99.83"/><path d="M145.40,93.37L149.64,88.19L149.85,88.31"/><path d="M149.70,90.92L146.93,94.32"/><path d="M149.91,87.85L154.15,82.67L154.36,82.80"/><path d="M154.21,85.40L151.44,88.80"/><path d="M154.42,82.33L158.65,77.15L158.86,77.28"/><path d="M155.94,83.28L158.71,79.89"/><path d="M158.93,76.81L163.16,71.63L163.37,71.76"/><path d="M163.22,74.37L160.45,77.76"/><path d="M163.43,71.30L167.67,66.11L167.88,66.24"/><path d="M167.73,68.85L164.96,72.25"/><path d="M167.94,65.78L172.17,60.60L172.38,60.73"/><path d="M172.24,63.33L169.46,66.73"/><path d="M172.45,60.26L176.68,55.08L176.89,55.21"/><path d="M176.74,57.82L173.97,61.21"/><path d="M176.96,54.74L181.19,49.56L181.40,49.69"/><path d="M178.48,55.69L181.25,52.30"/><path d="M182.99,50.18L186.24,46.20L186.57,43.71L186.20,43.47L186.17,43.46L181.46,49.23"/></g></g><g id="Actor_.29"><g style="stroke:#000000;stroke-width:0.176"><path d="M129.43,126.90L129.60,125.65L124.89,131.42L124.49,131.17"/><path d="M129.60,125.65L129.41,125.53"/><path d="M133.91,120.02L134.11,120.13L129.87,125.32L129.47,125.07"/><path d="M133.94,121.38L134.11,120.13"/><path d="M138.42,114.50L138.61,114.62L134.38,119.80L133.98,119.55"/><path d="M138.44,115.86L138.61,114.62"/><path d="M138.49,114.03L138.89,114.28L143.12,109.10L142.95,110.34"/><path d="M142.99,108.52L143.39,108.76L147.63,103.58L147.44,103.46"/><path d="M143.12,109.10L142.93,108.98"/><path d="M147.46,104.83L147.63,103.58"/><path d="M151.94,97.95L152.13,98.06L147.90,103.25L147.50,103.00"/><path d="M151.97,99.31L152.13,98.06"/><path d="M152.01,97.48L152.41,97.73L156.64,92.55L156.47,93.79"/><path d="M156.64,92.55L156.45,92.43"/><path d="M160.96,86.91L161.15,87.03L156.92,92.21L156.51,91.96"/><path d="M160.98,88.27L161.15,87.03"/><path d="M161.02,86.44L161.42,86.69L165.66,81.51L165.47,81.39"/><path d="M165.49,82.76L165.66,81.51"/><path d="M165.53,80.93L165.93,81.18L170.16,75.99L169.97,75.87"/><path d="M170.16,75.99L170.00,77.24"/><path d="M174.48,70.36L174.67,70.48L170.44,75.66L170.04,75.41"/><path d="M174.50,71.72L174.67,70.48"/><path d="M178.99,64.84L179.18,64.96L174.94,70.14L174.54,69.89"/><path d="M179.01,66.20L179.18,64.96"/><path d="M179.05,64.37L179.45,64.62L183.69,59.44L183.50,59.32"/><path d="M183.52,60.68L183.69,59.44"/><path d="M188.00,53.80L188.19,53.92L183.96,59.11L183.56,58.86"/><path d="M188.02,55.17L188.19,53.92"/><path d="M188.07,53.34L188.47,53.59L193.18,47.82"/></g><g style="stroke:#000000;stroke-width:0.529"><path d="M124.49,131.17L129.20,125.40L129.41,125.53"/><path d="M126.01,132.12L129.26,128.14"/><path d="M129.47,125.07L133.71,119.89L133.91,120.02"/><path d="M131.00,126.02L133.77,122.62"/><path d="M133.98,119.55L138.22,114.37L138.42,114.50"/><path d="M138.27,117.11L135.50,120.50"/><path d="M138.49,114.03L142.72,108.85L142.93,108.98"/><path d="M140.01,114.98L142.79,111.58"/><path d="M142.99,108.52L147.23,103.33L147.44,103.46"/><path d="M147.29,106.07L144.52,109.46"/><path d="M151.94,97.95L151.73,97.81L147.50,103.00"/><path d="M149.02,103.95L151.80,100.55"/><path d="M156.45,92.43L156.24,92.30L152.01,97.48"/><path d="M156.30,95.04L153.53,98.43"/><path d="M156.51,91.96L160.75,86.78L160.96,86.91"/><path d="M160.81,89.52L158.04,92.91"/><path d="M161.02,86.44L165.26,81.26L165.47,81.39"/><path d="M165.32,84.00L162.55,87.39"/><path d="M169.97,75.87L169.76,75.74L165.53,80.93"/><path d="M169.83,78.48L167.05,81.88"/><path d="M170.04,75.41L174.27,70.23L174.48,70.36"/><path d="M171.56,76.36L174.33,72.97"/><path d="M174.54,69.89L178.78,64.71L178.99,64.84"/><path d="M178.84,67.45L176.07,70.84"/><path d="M183.50,59.32L183.29,59.19L179.05,64.37"/><path d="M183.35,61.93L180.58,65.32"/><path d="M183.56,58.86L187.79,53.67L188.00,53.80"/><path d="M187.85,56.41L185.08,59.81"/><path d="M188.07,53.34L192.78,47.57L193.18,47.82L192.84,50.31L189.59,54.29"/></g></g><g id="Actor_.30"><g style="stroke:#000000;stroke-width:0.176"><path d="M136.01,129.65L136.20,129.76L131.49,135.53L131.09,135.28"/><path d="M136.03,131.01L136.20,129.76"/><path d="M140.52,124.13L140.71,124.25L136.47,129.43L136.07,129.18"/><path d="M140.71,124.25L140.54,125.49"/><path d="M140.58,123.66L140.98,123.91L145.22,118.73L145.05,119.97"/><path d="M145.03,118.61L145.22,118.73"/><path d="M145.09,118.15L145.49,118.39L149.72,113.21L149.55,114.46"/><path d="M149.53,113.09L149.72,113.21"/><path d="M154.04,107.58L154.23,107.69L150.00,112.88L149.60,112.63"/><path d="M154.06,108.94L154.23,107.69"/><path d="M158.55,102.06L158.74,102.18L154.50,107.36L154.10,107.11"/><path d="M158.57,103.42L158.74,102.18"/><path d="M158.61,101.59L159.01,101.84L163.25,96.66L163.08,97.90"/><path d="M163.12,96.07L163.52,96.32L167.75,91.14L167.56,91.02"/><path d="M163.25,96.66L163.06,96.54"/><path d="M167.58,92.39L167.75,91.14"/><path d="M172.07,85.51L172.26,85.62L168.03,90.81L167.63,90.56"/><path d="M172.09,86.87L172.26,85.62"/><path d="M172.13,85.04L172.53,85.29L176.77,80.11L176.58,79.99"/><path d="M176.77,80.11L176.60,81.35"/><path d="M181.08,74.47L181.27,74.59L177.04,79.77L176.64,79.52"/><path d="M181.11,75.83L181.27,74.59"/><path d="M181.15,74.00L181.55,74.25L185.78,69.07L185.59,68.95"/><path d="M185.61,70.32L185.78,69.07"/><path d="M190.10,63.43L190.29,63.55L186.05,68.74L185.65,68.49"/><path d="M190.12,64.80L190.29,63.55"/><path d="M194.61,57.92L194.80,58.04L190.56,63.22L190.16,62.97"/><path d="M194.63,59.28L194.80,58.04"/><path d="M199.78,51.93L195.07,57.70L194.67,57.45"/></g><g style="stroke:#000000;stroke-width:0.529"><path d="M136.01,129.65L135.80,129.51L131.09,135.28"/><path d="M132.61,136.23L135.86,132.25"/><path d="M136.07,129.18L140.31,124.00L140.52,124.13"/><path d="M137.60,130.13L140.37,126.74"/><path d="M140.58,123.66L144.82,118.48L145.03,118.61"/><path d="M142.11,124.61L144.88,121.22"/><path d="M145.09,118.15L149.32,112.96L149.53,113.09"/><path d="M146.61,119.09L149.39,115.70"/><path d="M149.60,112.63L153.83,107.44L154.04,107.58"/><path d="M151.12,113.58L153.89,110.18"/><path d="M154.10,107.11L158.34,101.93L158.55,102.06"/><path d="M158.40,104.67L155.63,108.06"/><path d="M163.06,96.54L162.85,96.41L158.61,101.59"/><path d="M162.91,99.15L160.14,102.54"/><path d="M163.12,96.08L167.35,90.89L167.56,91.02"/><path d="M167.41,93.63L164.64,97.02"/><path d="M167.63,90.56L171.86,85.37L172.07,85.51"/><path d="M171.92,88.11L169.15,91.51"/><path d="M176.58,79.99L176.37,79.86L172.13,85.04"/><path d="M176.43,82.60L173.66,85.99"/><path d="M176.64,79.52L180.87,74.34L181.08,74.47"/><path d="M178.16,80.47L180.94,77.08"/><path d="M181.15,74.00L185.38,68.82L185.59,68.95"/><path d="M182.67,74.95L185.44,71.56"/><path d="M185.65,68.49L189.89,63.30L190.10,63.43"/><path d="M189.95,66.04L187.18,69.44"/><path d="M190.16,62.97L194.40,57.79L194.61,57.92"/><path d="M191.69,63.92L194.46,60.52"/><path d="M194.67,57.45L199.38,51.68L199.78,51.93L199.44,54.42L196.19,58.40"/></g></g><g id="Actor_.31"><g style="stroke:#000000;stroke-width:0.176"><path d="M142.64,135.12L142.81,133.88L138.09,139.65L137.69,139.40"/><path d="M142.62,133.76L142.81,133.88"/><path d="M142.68,133.29L143.08,133.54L147.31,128.36L147.14,129.60"/><path d="M151.63,122.72L151.82,122.84L147.59,128.03L147.19,127.78"/><path d="M147.31,128.36L147.12,128.24"/><path d="M151.65,124.09L151.82,122.84"/><path d="M156.14,117.21L156.33,117.32L152.09,122.51L151.69,122.26"/><path d="M156.16,118.57L156.33,117.32"/><path d="M160.67,113.05L160.83,111.81L156.60,116.99L156.20,116.74"/><path d="M160.71,111.22L161.11,111.47L165.34,106.29L165.15,106.17"/><path d="M160.83,111.81L160.64,111.69"/><path d="M165.17,107.53L165.34,106.29"/><path d="M169.68,102.02L169.85,100.77L165.62,105.95L165.22,105.70"/><path d="M174.19,96.50L174.36,95.25L170.12,100.44L169.72,100.19"/><path d="M169.85,100.77L169.66,100.65"/><path d="M178.67,89.62L178.86,89.74L174.63,94.92L174.23,94.67"/><path d="M174.36,95.25L174.17,95.14"/><path d="M178.86,89.74L178.69,90.98"/><path d="M183.18,84.10L183.37,84.22L179.14,89.40L178.74,89.15"/><path d="M183.20,85.46L183.37,84.22"/><path d="M187.71,79.95L187.88,78.70L183.64,83.88L183.24,83.63"/><path d="M187.75,78.12L188.15,78.37L192.39,73.18L192.19,73.07"/><path d="M187.88,78.70L187.69,78.58"/><path d="M192.22,74.43L192.39,73.18"/><path d="M196.70,67.55L196.89,67.67L192.66,72.85L192.26,72.60"/><path d="M196.72,68.91L196.89,67.67"/><path d="M196.77,67.08L197.17,67.34L201.40,62.15L201.21,62.03"/><path d="M201.40,62.15L201.23,63.39"/><path d="M201.27,61.56L201.67,61.81L206.39,56.05"/></g><g style="stroke:#000000;stroke-width:0.529"><path d="M137.69,139.40L142.41,133.63L142.62,133.76"/><path d="M139.22,140.35L142.47,136.37"/><path d="M142.68,133.29L146.91,128.11L147.12,128.24"/><path d="M144.20,134.24L146.97,130.85"/><path d="M147.19,127.78L151.42,122.59L151.63,122.72"/><path d="M148.71,128.73L151.48,125.33"/><path d="M151.69,122.26L155.93,117.07L156.14,117.21"/><path d="M153.22,123.21L155.99,119.81"/><path d="M156.20,116.74L160.43,111.56L160.64,111.69"/><path d="M160.50,114.30L157.72,117.69"/><path d="M160.71,111.22L164.94,106.04L165.15,106.17"/><path d="M162.23,112.17L165.00,108.78"/><path d="M165.21,105.71L169.45,100.52L169.66,100.65"/><path d="M169.51,103.26L166.74,106.65"/><path d="M169.72,100.19L173.96,95.00L174.17,95.14"/><path d="M171.25,101.14L174.02,97.74"/><path d="M174.23,94.67L178.46,89.49L178.67,89.62"/><path d="M175.75,95.62L178.53,92.23"/><path d="M183.18,84.10L182.97,83.97L178.74,89.15"/><path d="M183.03,86.71L180.26,90.10"/><path d="M183.24,83.64L187.48,78.45L187.69,78.58"/><path d="M187.54,81.19L184.77,84.58"/><path d="M187.75,78.12L191.98,72.93L192.19,73.07"/><path d="M189.28,79.07L192.05,75.67"/><path d="M192.26,72.60L196.49,67.42L196.70,67.55"/><path d="M193.78,73.55L196.55,70.16"/><path d="M196.77,67.08L201.00,61.90L201.21,62.03"/><path d="M198.29,68.03L201.06,64.64"/><path d="M201.27,61.56L205.99,55.80L206.39,56.05L206.05,58.53L202.80,62.51"/></g></g><g id="Actor_.32"><g style="stroke:#000000;stroke-width:0.176"><path d="M111.99,120.03L111.96,120.28L110.55,119.40L110.59,119.16L111.54,117.99L112.95,118.86L111.99,120.03L110.59,119.16"/><path d="M112.95,118.86L112.91,119.11L111.96,120.28"/><path d="M114.69,114.14L114.65,114.39L116.05,115.26L116.09,115.01L114.69,114.14L115.64,112.97L117.04,113.84L116.09,115.01"/><path d="M117.04,113.84L117.01,114.09L116.05,115.26"/><path d="M120.18,110.00L120.15,110.24L118.75,109.37L118.78,109.12L119.74,107.95L121.14,108.83L120.18,110.00L118.78,109.12"/><path d="M120.15,110.24L121.11,109.07L121.14,108.83"/><path d="M124.26,105.17L124.28,104.98L122.88,104.11L122.86,104.30"/><path d="M122.88,104.11L123.84,102.94L125.24,103.81L124.28,104.98"/><path d="M124.28,105.19L125.20,104.06L125.24,103.81"/><path d="M128.68,99.60L129.34,98.79L127.94,97.92L127.28,98.73"/><path d="M128.79,99.67L129.30,99.04L129.34,98.79"/><path d="M133.18,94.08L133.43,93.78L132.03,92.90L131.78,93.21"/><path d="M133.43,93.78L133.40,94.03L133.30,94.15"/><path d="M143.37,79.03L144.77,79.90L144.74,80.15L143.34,79.28L143.37,79.03L143.57,78.78"/><path d="M144.77,79.90L144.97,79.65"/><path d="M144.74,80.15L145.08,79.72"/><path d="M148.87,74.88L147.47,74.01L147.43,74.26L148.83,75.13L148.87,74.88L149.48,74.13"/><path d="M147.47,74.01L148.08,73.26"/><path d="M148.83,75.13L149.59,74.20"/><path d="M151.93,69.22L151.56,69.00L152.52,67.82L153.92,68.70L152.96,69.87L151.93,69.22"/><path d="M151.56,69.00L151.53,69.24L152.93,70.12L152.96,69.87"/><path d="M152.93,70.12L153.89,68.95L153.92,68.70"/><path d="M157.03,65.10L155.63,64.23L155.66,63.98L156.62,62.81L158.02,63.68L157.06,64.85L157.03,65.10L157.98,63.93L158.02,63.68"/><path d="M155.66,63.98L157.06,64.85"/><path d="M159.72,59.21L159.76,58.96L161.16,59.84L161.13,60.08L159.72,59.21"/><path d="M159.76,58.96L160.71,57.79L162.12,58.67L161.16,59.84"/><path d="M161.13,60.08L162.08,58.91L162.12,58.67"/><path d="M166.21,53.65L164.81,52.78L163.86,53.95L163.82,54.20L165.22,55.07L165.26,54.82L166.21,53.65L166.18,53.90L165.22,55.07"/><path d="M163.86,53.95L165.26,54.82"/><path d="M167.95,48.93L168.91,47.76L170.31,48.63L169.35,49.80L167.95,48.93L167.93,49.12"/><path d="M169.33,49.99L169.35,49.80"/><path d="M170.31,48.63L170.28,48.88L169.36,50.01"/></g><g style="stroke:#000000;stroke-width:0.529"><path d="M110.83,116.66L107.58,120.64"/><path d="M115.34,111.15L112.57,114.54"/><path d="M119.85,105.63L117.07,109.02"/><path d="M124.35,100.11L121.58,103.50"/><path d="M128.86,94.59L126.09,97.99"/><path d="M130.60,92.47L133.37,89.08"/><path d="M137.87,83.56L135.10,86.95"/><path d="M142.38,78.04L139.61,81.43"/><path d="M146.89,72.52L144.12,75.92"/><path d="M151.40,67.00L148.62,70.40"/><path d="M155.90,61.49L153.13,64.88"/><path d="M160.41,55.97L157.64,59.36"/><path d="M164.92,50.45L162.15,53.85"/><path d="M169.43,44.93L166.65,48.33"/><path d="M177.74,41.58L174.05,39.28L171.16,42.81"/></g></g><g id="Actor_.33"><g style="stroke:#000000;stroke-width:0.529"><path d="M146.10,22.15L147.49,23.01"/><path d="M154.09,27.12L152.71,26.26"/><path d="M160.69,31.23L159.31,30.37"/><path d="M167.30,35.35L165.91,34.48"/><path d="M173.90,39.46L172.52,38.60"/><path d="M180.50,43.57L179.12,42.71"/><path d="M187.11,47.68L185.73,46.82"/><path d="M193.71,51.80L192.33,50.94"/><path d="M200.31,55.91L198.93,55.05"/><path d="M205.54,59.16L206.92,60.02"/></g></g><g id="Actor_.34"><g style="stroke:#000000;stroke-width:0.176"><path d="M64.50,149.43L70.09,108.19"/></g><g style="stroke:#000000;stroke-width:0.529"><path d="M75.35,111.46L71.33,141.07L64.50,149.43L54.49,143.20L60.09,101.96"/></g></g><g id="Actor_.35"><g style="stroke:#000000;stroke-width:0.176"><path d="M154.55,205.51L160.14,164.27"/></g><g style="stroke:#000000;stroke-width:0.529"><path d="M166.69,158.02L161.38,197.15L154.55,205.51L144.54,199.28L150.14,158.04"/></g></g><g id="Actor_.36"><g style="stroke:#000000;stroke-width:0.176"><path d="M216.01,130.27L221.32,91.14"/></g><g style="stroke:#000000;stroke-width:0.529"><path d="M228.15,82.78L222.84,121.91L216.01,130.27L206.00,124.04L208.31,107.07"/></g></g><g id="Actor_.37"><g style="stroke:#000000;stroke-width:0.176"><path d="M117.66,123.56L117.19,123.27L117.16,123.52L118.56,124.39L118.59,124.14L117.66,123.56"/><path d="M117.19,123.27L118.15,122.10L119.55,122.97L118.59,124.14"/><path d="M118.56,124.39L119.51,123.22L119.55,122.97"/><path d="M122.00,118.70L121.29,118.25L121.26,118.50L122.66,119.37L122.69,119.12L122.00,118.70"/><path d="M121.29,118.25L122.25,117.08L123.65,117.95L122.69,119.12"/><path d="M122.66,119.37L123.61,118.20L123.65,117.95"/><path d="M125.65,113.40L125.39,113.24L125.35,113.49L126.75,114.36L126.79,114.11L125.65,113.40"/><path d="M125.39,113.24L126.34,112.07L127.74,112.94L126.79,114.11"/><path d="M126.75,114.36L127.71,113.19L127.74,112.94"/><path d="M130.86,109.28L130.89,109.09L129.48,108.22L129.46,108.41"/><path d="M129.48,108.22L130.44,107.05L131.84,107.92L130.89,109.09"/><path d="M130.89,109.30L131.81,108.17L131.84,107.92"/><path d="M133.88,102.84L134.54,102.03L135.93,102.91L135.28,103.71"/><path d="M135.39,103.78L135.91,103.15L135.93,102.91"/><path d="M138.39,97.32L138.64,97.02L140.04,97.89L139.79,98.19"/><path d="M140.04,97.89L140.00,98.14L139.90,98.26"/><path d="M150.78,83.65L149.97,83.14L149.94,83.39L151.34,84.26L151.37,84.01L150.78,83.65"/><path d="M150.17,82.89L149.97,83.14"/><path d="M151.37,84.01L151.57,83.77"/><path d="M151.69,83.84L151.34,84.26"/><path d="M155.47,79.00L155.44,79.25L154.04,78.37L154.07,78.12L155.47,79.00L156.08,78.25"/><path d="M154.07,78.12L154.68,77.38"/><path d="M155.44,79.25L156.19,78.32"/><path d="M160.52,72.81L159.12,71.94L158.17,73.11L158.13,73.36L159.53,74.23L159.57,73.98L160.52,72.81L160.49,73.06L159.53,74.23"/><path d="M158.17,73.11L159.57,73.98"/><path d="M163.35,68.77L162.27,68.09L162.23,68.34L163.63,69.21L163.67,68.96L163.35,68.77"/><path d="M162.27,68.09L163.22,66.92L164.62,67.79L163.67,68.96"/><path d="M163.63,69.21L164.59,68.04L164.62,67.79"/><path d="M167.73,64.20L166.33,63.33L166.36,63.08L167.32,61.91L168.72,62.78L167.76,63.95L167.73,64.20L168.69,63.03L168.72,62.78"/><path d="M166.36,63.08L167.76,63.95"/><path d="M171.35,58.61L170.46,58.06L170.43,58.31L171.83,59.18L171.86,58.93L171.35,58.61"/><path d="M170.46,58.06L171.42,56.89L172.82,57.76L171.86,58.93"/><path d="M171.83,59.18L172.78,58.01L172.82,57.76"/><path d="M175.96,54.12L176.88,52.99L176.91,52.75L175.96,53.92L174.56,53.04L174.53,53.23"/><path d="M174.56,53.04L175.51,51.87L176.91,52.75"/><path d="M175.93,54.11L175.96,53.92"/></g><g style="stroke:#000000;stroke-width:0.529"><path d="M117.43,120.78L114.18,124.76"/><path d="M121.94,115.26L119.17,118.65"/><path d="M126.45,109.74L123.68,113.13"/><path d="M128.18,107.62L130.96,104.22"/><path d="M132.69,102.10L135.46,98.71"/><path d="M139.97,93.19L137.20,96.58"/><path d="M144.48,87.67L141.71,91.06"/><path d="M146.21,85.55L148.99,82.15"/><path d="M153.49,76.64L150.72,80.03"/><path d="M158.00,71.12L155.23,74.51"/><path d="M162.51,65.60L159.74,68.99"/><path d="M167.01,60.08L164.24,63.48"/><path d="M171.52,54.56L168.75,57.96"/><path d="M176.03,49.05L173.26,52.44"/><path d="M184.35,45.69L180.65,43.39L177.76,46.92"/></g></g><g id="Actor_.38"><g style="stroke:#000000;stroke-width:0.176"><path d="M124.51,127.83L123.80,127.38L123.76,127.63L125.16,128.50L125.20,128.25L124.51,127.83"/><path d="M123.80,127.38L124.75,126.21L126.15,127.08L125.20,128.25"/><path d="M125.16,128.50L126.12,127.33L126.15,127.08"/><path d="M129.26,123.49L130.22,122.32L130.25,122.07L128.85,121.19L127.89,122.37L127.86,122.61L129.26,123.49L129.29,123.24L127.89,122.37"/><path d="M130.25,122.07L129.29,123.24"/><path d="M132.51,117.94L131.96,117.60L131.99,117.35L133.39,118.22L133.36,118.47L132.51,117.94"/><path d="M131.99,117.35L132.95,116.18L134.35,117.05L133.39,118.22"/><path d="M133.36,118.47L134.31,117.30L134.35,117.05"/><path d="M137.46,113.40L137.49,113.21L136.09,112.33L136.06,112.52"/><path d="M136.09,112.33L137.04,111.16L138.44,112.04L137.49,113.21"/><path d="M137.49,113.41L138.41,112.28L138.44,112.04"/><path d="M140.48,106.95L141.14,106.15L142.54,107.02L141.88,107.82"/><path d="M142.00,107.89L142.51,107.27L142.54,107.02"/><path d="M146.39,102.31L146.64,102.00L145.24,101.13L144.99,101.43"/><path d="M146.64,102.00L146.61,102.25L146.50,102.38"/><path d="M157.58,87.88L156.58,87.25L156.54,87.50L157.94,88.37L157.98,88.12L157.58,87.88"/><path d="M156.58,87.25L156.78,87.01"/><path d="M157.98,88.12L158.18,87.88"/><path d="M157.94,88.37L158.29,87.95"/><path d="M161.28,81.49L160.67,82.24L160.64,82.49L162.04,83.36L162.80,82.43"/><path d="M160.67,82.24L162.07,83.11L162.04,83.36"/><path d="M162.69,82.36L162.07,83.11"/><path d="M165.63,77.76L164.77,77.22L165.73,76.05L167.13,76.92L166.17,78.09L165.63,77.76"/><path d="M164.77,77.22L164.74,77.47L166.14,78.34L166.17,78.09"/><path d="M166.14,78.34L167.09,77.17L167.13,76.92"/><path d="M170.27,73.08L168.87,72.20L168.83,72.45L170.24,73.33L170.27,73.08L171.23,71.91L171.19,72.16L170.24,73.33"/><path d="M168.87,72.20L169.82,71.03L171.23,71.91"/><path d="M172.93,67.44L172.97,67.19L174.37,68.06L174.33,68.31L172.93,67.44"/><path d="M172.97,67.19L173.92,66.02L175.32,66.89L174.37,68.06"/><path d="M174.33,68.31L175.29,67.14L175.32,66.89"/><path d="M177.06,62.44L177.03,62.42L177.06,62.17L178.46,63.05L178.43,63.29L177.06,62.44"/><path d="M177.06,62.17L178.02,61.00L179.42,61.87L178.46,63.05"/><path d="M178.43,63.29L179.39,62.12L179.42,61.87"/><path d="M182.56,58.24L183.48,57.11L183.52,56.86L182.12,55.99L181.16,57.16L181.14,57.35"/><path d="M181.16,57.16L182.56,58.03L182.54,58.22"/><path d="M182.56,58.03L183.52,56.86"/></g><g style="stroke:#000000;stroke-width:0.529"><path d="M124.04,124.89L120.79,128.87"/><path d="M128.55,119.37L125.77,122.76"/><path d="M133.05,113.85L130.28,117.25"/><path d="M134.79,111.73L137.56,108.34"/><path d="M142.07,102.82L139.30,106.21"/><path d="M146.57,97.30L143.80,100.69"/><path d="M151.08,91.78L148.31,95.18"/><path d="M152.82,89.66L155.59,86.27"/><path d="M160.10,80.75L157.32,84.14"/><path d="M164.60,75.23L161.83,78.62"/><path d="M169.11,69.71L166.34,73.11"/><path d="M173.62,64.20L170.85,67.59"/><path d="M178.13,58.68L175.35,62.07"/><path d="M182.63,53.16L179.86,56.55"/><path d="M184.37,51.04L187.25,47.50L190.95,49.81"/></g></g><g id="Actor_.39"><g style="stroke:#000000;stroke-width:0.176"><path d="M131.37,132.10L130.40,131.49L130.37,131.74L131.77,132.61L131.80,132.37L131.37,132.10"/><path d="M130.40,131.49L131.35,130.32L132.76,131.20L131.80,132.37"/><path d="M131.77,132.61L132.72,131.44L132.76,131.20"/><path d="M134.50,126.48L134.46,126.73L135.86,127.60L135.90,127.35L134.50,126.48L135.45,125.31L136.85,126.18L135.90,127.35"/><path d="M135.86,127.60L136.82,126.43L136.85,126.18"/><path d="M139.96,122.58L138.56,121.71L138.59,121.46L140.00,122.33L140.95,121.16L140.92,121.41L139.96,122.58L140.00,122.33"/><path d="M138.59,121.46L139.55,120.29L140.95,121.16"/><path d="M142.67,116.64L142.69,116.45L143.65,115.28L145.05,116.15L144.09,117.32L144.07,117.51"/><path d="M142.69,116.45L144.09,117.32"/><path d="M145.05,116.15L145.01,116.40L144.09,117.53"/><path d="M147.09,111.06L147.75,110.26L149.15,111.13L148.49,111.94"/><path d="M148.60,112.01L149.11,111.38L149.15,111.13"/><path d="M153.00,106.42L153.24,106.12L151.84,105.24L151.59,105.55"/><path d="M153.24,106.12L153.21,106.36L153.11,106.49"/><path d="M163.18,91.37L163.15,91.61L164.55,92.49L164.58,92.24L163.18,91.37L163.38,91.12"/><path d="M164.55,92.49L164.89,92.06"/><path d="M164.58,92.24L164.78,91.99"/><path d="M168.68,87.22L167.28,86.35L167.24,86.60L168.64,87.47L168.68,87.22L169.29,86.47"/><path d="M167.28,86.35L167.89,85.60"/><path d="M168.64,87.47L169.40,86.54"/><path d="M171.35,81.58L171.35,81.59L171.37,81.33L172.33,80.16L173.73,81.04L172.77,82.21L172.74,82.46L171.35,81.59"/><path d="M171.37,81.33L172.77,82.21"/><path d="M172.74,82.46L173.70,81.28L173.73,81.04"/><path d="M175.71,76.47L175.47,76.32L175.44,76.57L176.84,77.44L176.87,77.19L175.71,76.47"/><path d="M175.47,76.32L176.43,75.15L177.83,76.02L176.87,77.19"/><path d="M176.84,77.44L177.80,76.27L177.83,76.02"/><path d="M180.97,72.17L180.94,72.42L179.54,71.55L179.57,71.30L180.53,70.13L181.93,71.00L180.97,72.17L179.57,71.30"/><path d="M180.94,72.42L181.89,71.25L181.93,71.00"/><path d="M183.67,66.29L183.63,66.53L185.03,67.41L185.07,67.16L183.67,66.29L184.62,65.11L186.02,65.99L185.07,67.16"/><path d="M185.03,67.41L185.99,66.24L186.02,65.99"/><path d="M189.17,62.35L190.09,61.22L190.12,60.97L189.17,62.14L187.76,61.27L187.74,61.46"/><path d="M187.76,61.27L188.72,60.10L190.12,60.97"/><path d="M189.17,62.14L189.14,62.33"/></g><g style="stroke:#000000;stroke-width:0.529"><path d="M130.64,129.00L127.39,132.98"/><path d="M135.15,123.48L132.38,126.88"/><path d="M139.66,117.97L136.88,121.36"/><path d="M144.16,112.45L141.39,115.84"/><path d="M148.67,106.93L145.90,110.32"/><path d="M153.18,101.41L150.41,104.81"/><path d="M157.69,95.90L154.91,99.29"/><path d="M162.19,90.38L159.42,93.77"/><path d="M166.70,84.86L163.93,88.25"/><path d="M171.21,79.34L168.44,82.74"/><path d="M175.71,73.83L172.94,77.22"/><path d="M177.45,71.70L180.22,68.31"/><path d="M184.73,62.79L181.96,66.18"/><path d="M189.24,57.27L186.46,60.67"/><path d="M197.55,53.92L193.86,51.62L190.97,55.15"/></g></g><g id="Actor_.40"><g style="stroke:#000000;stroke-width:0.176"><path d="M137.08,135.92L136.97,135.86L137.00,135.61L138.40,136.48L138.37,136.73L137.08,135.92"/><path d="M137.00,135.61L137.96,134.44L139.36,135.31L138.40,136.48"/><path d="M139.36,135.31L139.33,135.56L138.37,136.73"/><path d="M143.46,130.29L142.06,129.42L141.10,130.59L141.07,130.84L142.47,131.71L142.50,131.46L143.46,130.29L143.42,130.54L142.47,131.71"/><path d="M141.10,130.59L142.50,131.46"/><path d="M146.22,126.21L145.20,125.57L145.16,125.82L146.56,126.70L146.60,126.45L146.22,126.21"/><path d="M145.20,125.57L146.15,124.40L147.55,125.28L146.60,126.45"/><path d="M146.57,126.68L147.52,125.53L147.55,125.28"/><path d="M150.67,121.62L150.70,121.43L149.30,120.56L149.27,120.75"/><path d="M149.30,120.56L150.25,119.39L151.65,120.26L150.70,121.43"/><path d="M150.70,121.64L151.62,120.51L151.65,120.26"/><path d="M153.69,115.18L154.35,114.37L155.75,115.24L155.09,116.05"/><path d="M155.20,116.12L155.72,115.49L155.75,115.24"/><path d="M158.20,109.66L158.45,109.36L159.85,110.23L159.60,110.53"/><path d="M159.71,110.60L159.81,110.48L159.85,110.23"/><path d="M169.98,95.87L169.75,95.73L169.78,95.48L171.18,96.35L171.15,96.60L169.98,95.87"/><path d="M169.78,95.48L169.98,95.23"/><path d="M171.18,96.35L171.39,96.10"/><path d="M171.15,96.60L171.50,96.17"/><path d="M175.89,90.59L175.28,91.33L175.25,91.58L173.85,90.71L173.88,90.46L174.49,89.71"/><path d="M173.88,90.46L175.28,91.33"/><path d="M175.25,91.58L176.01,90.66"/><path d="M177.96,85.60L177.94,85.70L179.34,86.57L179.38,86.32L177.98,85.45L177.96,85.60"/><path d="M177.98,85.45L178.93,84.28L180.34,85.15L179.38,86.32"/><path d="M179.34,86.57L180.30,85.40L180.34,85.15"/><path d="M182.61,81.03L182.04,80.68L182.08,80.43L183.03,79.26L184.43,80.13L183.48,81.30L183.44,81.55L182.61,81.03"/><path d="M182.08,80.43L183.48,81.30"/><path d="M183.44,81.55L184.40,80.38L184.43,80.13"/><path d="M187.57,76.29L186.17,75.41L186.14,75.66L187.54,76.54L188.50,75.37L188.53,75.12L187.57,76.29L187.54,76.54"/><path d="M186.17,75.41L187.13,74.24L188.53,75.12"/><path d="M191.64,71.52L190.24,70.65L190.27,70.40L191.23,69.23L192.63,70.10L191.67,71.27L191.64,71.52L192.59,70.35L192.63,70.10"/><path d="M190.27,70.40L191.67,71.27"/><path d="M195.74,66.45L195.77,66.25L196.72,65.08L195.32,64.21L194.37,65.38L194.34,65.57"/><path d="M194.37,65.38L195.77,66.25"/><path d="M196.72,65.08L196.69,65.33L195.77,66.46"/></g><g style="stroke:#000000;stroke-width:0.529"><path d="M137.25,133.11L134.00,137.09"/><path d="M141.75,127.60L138.98,130.99"/><path d="M146.26,122.08L143.49,125.47"/><path d="M148.00,119.96L150.77,116.56"/><path d="M152.50,114.44L155.27,111.04"/><path d="M159.78,105.53L157.01,108.92"/><path d="M161.52,103.40L164.29,100.01"/><path d="M168.80,94.49L166.02,97.88"/><path d="M173.30,88.97L170.53,92.37"/><path d="M175.04,86.85L177.81,83.46"/><path d="M182.32,77.94L179.55,81.33"/><path d="M184.05,75.81L186.83,72.42"/><path d="M191.33,66.90L188.56,70.30"/><path d="M195.84,61.39L193.07,64.78"/><path d="M204.16,58.03L200.46,55.73L197.58,59.26"/></g></g><g id="Actor_.41"><g style="stroke:#000000;stroke-width:0.176"><path d="M143.93,139.92L143.61,139.72L143.57,139.97L144.97,140.84L145.01,140.59L143.93,139.92"/><path d="M143.61,139.72L144.56,138.55L145.96,139.42L145.01,140.59"/><path d="M144.97,140.84L145.93,139.67L145.96,139.42"/><path d="M148.50,135.20L147.70,134.70L148.66,133.53L150.06,134.40L149.10,135.58L148.50,135.20"/><path d="M149.10,135.58L149.07,135.82L147.67,134.95L147.70,134.70"/><path d="M149.07,135.82L150.03,134.65L150.06,134.40"/><path d="M151.93,129.76L151.80,129.69L151.77,129.94L153.17,130.81L153.20,130.56L151.93,129.76"/><path d="M151.80,129.69L152.76,128.52L154.16,129.39L153.20,130.56"/><path d="M153.17,130.81L154.12,129.64L154.16,129.39"/><path d="M157.27,125.73L157.30,125.54L155.90,124.67L155.87,124.86"/><path d="M155.90,124.67L156.85,123.50L158.26,124.37L157.30,125.54"/><path d="M157.30,125.75L158.22,124.62L158.26,124.37"/><path d="M161.70,120.16L162.35,119.36L160.95,118.48L160.29,119.29"/><path d="M162.35,119.36L162.32,119.61L161.81,120.23"/><path d="M166.20,114.65L166.45,114.34L165.05,113.47L164.80,113.77"/><path d="M166.31,114.72L166.42,114.59L166.45,114.34"/><path d="M177.06,100.01L176.39,99.59L176.35,99.84L177.75,100.71L177.79,100.46L177.06,100.01"/><path d="M176.39,99.59L176.59,99.34"/><path d="M177.79,100.46L177.99,100.22"/><path d="M177.75,100.71L178.10,100.29"/><path d="M181.88,95.45L181.85,95.70L180.45,94.82L180.48,94.58L181.88,95.45L182.50,94.70"/><path d="M180.48,94.58L181.10,93.83"/><path d="M181.85,95.70L182.61,94.77"/><path d="M185.05,89.85L184.58,89.56L184.55,89.81L185.95,90.68L185.98,90.43L185.05,89.85"/><path d="M184.58,89.56L185.54,88.39L186.94,89.26L185.98,90.43"/><path d="M185.95,90.68L186.90,89.51L186.94,89.26"/><path d="M188.68,84.54L188.65,84.79L190.05,85.66L190.08,85.42L188.68,84.54L189.64,83.37L191.04,84.25L190.08,85.42"/><path d="M190.05,85.66L191.00,84.49L191.04,84.25"/><path d="M194.18,80.40L194.14,80.65L192.74,79.78L192.78,79.53L193.73,78.36L195.13,79.23L194.18,80.40L192.78,79.53"/><path d="M194.14,80.65L195.10,79.48L195.13,79.23"/><path d="M198.27,75.38L196.87,74.51L196.84,74.76L198.24,75.63L198.27,75.38L199.23,74.21L199.20,74.46L198.24,75.63"/><path d="M196.87,74.51L197.83,73.34L199.23,74.21"/><path d="M200.95,69.69L200.97,69.49L202.37,70.37L202.35,70.56"/><path d="M200.97,69.49L201.93,68.32L203.33,69.20L202.37,70.37"/><path d="M202.37,70.57L203.29,69.45L203.33,69.20"/></g><g style="stroke:#000000;stroke-width:0.529"><path d="M143.85,137.23L140.60,141.21"/><path d="M148.36,131.71L145.58,135.10"/><path d="M152.86,126.19L150.09,129.59"/><path d="M157.37,120.67L154.60,124.07"/><path d="M161.88,115.16L159.11,118.55"/><path d="M166.39,109.64L163.61,113.03"/><path d="M170.89,104.12L168.12,107.52"/><path d="M175.40,98.60L172.63,102.00"/><path d="M177.14,96.48L179.91,93.09"/><path d="M184.41,87.57L181.64,90.96"/><path d="M188.92,82.05L186.15,85.44"/><path d="M193.43,76.53L190.66,79.93"/><path d="M197.94,71.02L195.16,74.41"/><path d="M199.67,68.89L202.44,65.50"/><path d="M204.18,63.37L207.06,59.84L210.75,62.14"/></g></g><g id="Actor_.42"><g style="stroke:#000000;stroke-width:0.176"><path d="M105.09,115.73L103.98,115.04L103.95,115.29L105.35,116.16L105.39,115.91L105.09,115.73"/><path d="M103.98,115.04L104.94,113.87L106.34,114.74L105.39,115.91"/><path d="M105.35,116.16L106.31,114.99L106.34,114.74"/><path d="M108.52,110.30L108.08,110.03L108.05,110.28L109.45,111.15L109.48,110.90L108.52,110.30"/><path d="M108.08,110.03L109.04,108.86L110.44,109.73L109.48,110.90"/><path d="M109.45,111.15L110.41,109.98L110.44,109.73"/><path d="M113.09,105.58L112.18,105.01L112.15,105.26L113.55,106.13L113.58,105.88L113.09,105.58"/><path d="M112.18,105.01L113.14,103.84L114.54,104.71L113.58,105.88"/><path d="M113.55,106.13L114.50,104.96L114.54,104.71"/><path d="M117.65,101.06L117.68,100.87L116.28,99.99L116.25,100.19"/><path d="M116.28,99.99L117.23,98.82L118.63,99.70L117.68,100.87"/><path d="M117.68,101.07L118.60,99.95L118.63,99.70"/><path d="M120.67,94.61L121.33,93.81L122.73,94.68L122.07,95.49"/><path d="M122.19,95.56L122.70,94.93L122.73,94.68"/><path d="M126.58,89.97L126.83,89.66L125.43,88.79L125.18,89.10"/><path d="M126.83,89.66L126.80,89.91L126.69,90.04"/><path d="M136.97,74.67L136.77,74.91L136.73,75.16L138.13,76.04L138.17,75.79L138.37,75.54"/><path d="M136.77,74.91L138.17,75.79"/><path d="M138.13,76.04L138.48,75.61"/><path d="M142.26,70.77L140.86,69.90L140.83,70.15L142.23,71.02L142.26,70.77L142.87,70.02"/><path d="M140.86,69.90L141.47,69.15"/><path d="M142.23,71.02L142.99,70.09"/><path d="M144.96,64.88L144.93,65.13L146.33,66.00L146.36,65.76L144.96,64.88L145.92,63.71L147.32,64.58L146.36,65.76"/><path d="M146.33,66.00L147.28,64.83L147.32,64.58"/><path d="M149.64,60.50L149.02,60.12L149.06,59.87L150.46,60.74L150.42,60.99L149.64,60.50"/><path d="M149.06,59.87L150.01,58.70L151.41,59.57L150.46,60.74"/><path d="M150.42,60.99L151.38,59.82L151.41,59.57"/><path d="M154.56,55.72L153.16,54.85L153.12,55.10L154.52,55.97L155.48,54.80L155.51,54.55L154.56,55.72L154.52,55.97"/><path d="M153.16,54.85L154.11,53.68L155.51,54.55"/><path d="M158.62,50.96L157.22,50.08L157.25,49.83L158.65,50.71L159.61,49.54L159.58,49.79L158.62,50.96L158.65,50.71"/><path d="M157.25,49.83L158.21,48.66L159.61,49.54"/><path d="M162.75,45.90L163.67,44.77L163.71,44.52L162.75,45.69L161.35,44.82L161.32,45.01"/><path d="M161.35,44.82L162.31,43.65L163.71,44.52"/><path d="M162.73,45.88L162.75,45.69"/></g><g style="stroke:#000000;stroke-width:0.529"><path d="M104.23,112.55L100.98,116.53"/><path d="M108.73,107.03L105.96,110.43"/><path d="M113.24,101.52L110.47,104.91"/><path d="M114.98,99.39L117.75,96.00"/><path d="M122.26,90.48L119.48,93.87"/><path d="M126.76,84.96L123.99,88.36"/><path d="M131.27,79.44L128.50,82.84"/><path d="M135.78,73.93L133.01,77.32"/><path d="M140.29,68.41L137.51,71.80"/><path d="M144.79,62.89L142.02,66.29"/><path d="M149.30,57.37L146.53,60.77"/><path d="M153.81,51.86L151.04,55.25"/><path d="M158.31,46.34L155.54,49.73"/><path d="M162.82,40.82L160.05,44.22"/><path d="M171.14,37.47L167.44,35.17L164.56,38.70"/></g></g><g id="Actor_.43"><g style="stroke:#000000;stroke-width:0.176"><path d="M98.24,111.46L97.38,110.93L97.35,111.18L98.75,112.05L98.78,111.80L98.24,111.46"/><path d="M97.38,110.93L98.34,109.76L99.74,110.63L98.78,111.80"/><path d="M98.75,112.05L99.70,110.88L99.74,110.63"/><path d="M101.67,106.30L101.44,106.16L101.48,105.91L102.88,106.79L102.85,107.04L101.67,106.30"/><path d="M101.48,105.91L102.44,104.74L103.84,105.62L102.88,106.79"/><path d="M102.85,107.04L103.80,105.86L103.84,105.62"/><path d="M106.94,102.02L105.54,101.15L105.58,100.90L106.98,101.77L107.93,100.60L107.90,100.85L106.94,102.02L106.98,101.77"/><path d="M105.58,100.90L106.53,99.73L107.93,100.60"/><path d="M111.05,96.94L111.07,96.75L109.67,95.88L109.65,96.07"/><path d="M109.67,95.88L110.63,94.71L112.03,95.58L111.07,96.75"/><path d="M111.08,96.96L112.00,95.83L112.03,95.58"/><path d="M115.47,91.37L116.13,90.57L114.73,89.69L114.07,90.50"/><path d="M115.58,91.44L116.09,90.82L116.13,90.57"/><path d="M118.58,84.98L118.82,84.68L120.23,85.55L119.98,85.86"/><path d="M120.23,85.55L120.19,85.80L120.09,85.93"/><path d="M130.22,70.84L130.16,70.80L130.13,71.05L131.53,71.92L131.56,71.67L130.22,70.84"/><path d="M130.16,70.80L130.36,70.55"/><path d="M131.53,71.92L131.88,71.50"/><path d="M131.56,71.67L131.76,71.43"/><path d="M134.79,66.39L134.23,66.03L134.26,65.79L135.66,66.66L135.63,66.91L134.79,66.39"/><path d="M134.26,65.79L134.87,65.04"/><path d="M135.63,66.91L136.38,65.98"/><path d="M136.27,65.91L135.66,66.66"/><path d="M139.72,61.89L138.32,61.02L138.36,60.77L139.31,59.60L140.71,60.47L139.76,61.64L139.72,61.89L140.68,60.72L140.71,60.47"/><path d="M138.36,60.77L139.76,61.64"/><path d="M142.79,56.23L142.42,56.00L142.45,55.75L143.86,56.63L143.82,56.88L142.79,56.23"/><path d="M142.45,55.75L143.41,54.58L144.81,55.46L143.86,56.63"/><path d="M143.82,56.88L144.78,55.70L144.81,55.46"/><path d="M147.36,51.24L146.55,50.74L146.52,50.99L147.92,51.86L147.95,51.61L147.36,51.24"/><path d="M146.55,50.74L147.51,49.57L148.91,50.44L147.95,51.61"/><path d="M147.92,51.86L148.87,50.69L148.91,50.44"/><path d="M150.78,45.81L150.65,45.72L150.61,45.97L152.02,46.84L152.05,46.59L150.78,45.81"/><path d="M150.65,45.72L151.61,44.55L153.01,45.42L152.05,46.59"/><path d="M152.02,46.84L152.97,45.67L153.01,45.42"/><path d="M154.72,40.90L154.75,40.71L155.70,39.54L157.10,40.41L156.15,41.58L156.12,41.77"/><path d="M154.75,40.71L156.15,41.58"/><path d="M157.10,40.41L157.07,40.66L156.15,41.78"/></g><g style="stroke:#000000;stroke-width:0.529"><path d="M97.62,108.44L94.37,112.42"/><path d="M99.36,106.31L102.13,102.92"/><path d="M106.64,97.40L103.87,100.80"/><path d="M111.15,91.88L108.37,95.28"/><path d="M115.65,86.37L112.88,89.76"/><path d="M120.16,80.85L117.39,84.24"/><path d="M124.67,75.33L121.90,78.73"/><path d="M126.40,73.21L129.17,69.81"/><path d="M133.68,64.30L130.91,67.69"/><path d="M135.42,62.17L138.19,58.78"/><path d="M142.70,53.26L139.92,56.66"/><path d="M147.20,47.74L144.43,51.14"/><path d="M151.71,42.23L148.94,45.62"/><path d="M156.22,36.71L153.45,40.10"/><path d="M164.54,33.36L160.84,31.05L157.95,34.58"/></g></g><g id="Actor_.44"><g style="stroke:#000000;stroke-width:0.176"><path d="M92.18,107.69L92.14,107.94L90.74,107.07L90.78,106.82L91.73,105.65L93.13,106.52L92.18,107.69L90.78,106.82"/><path d="M92.14,107.94L93.10,106.77L93.13,106.52"/><path d="M95.95,102.74L94.84,102.05L94.87,101.80L95.83,100.63L97.23,101.50L96.28,102.67L96.24,102.92L95.95,102.74"/><path d="M94.87,101.80L96.28,102.67"/><path d="M96.24,102.92L97.20,101.75L97.23,101.50"/><path d="M99.38,97.04L98.97,96.78L98.94,97.03L100.34,97.91L100.37,97.66L99.38,97.04"/><path d="M98.97,96.78L99.93,95.61L101.33,96.49L100.37,97.66"/><path d="M100.34,97.91L101.30,96.74L101.33,96.49"/><path d="M104.45,92.83L104.47,92.64L103.07,91.77L103.04,91.96"/><path d="M103.07,91.77L104.03,90.60L105.43,91.47L104.47,92.64"/><path d="M105.43,91.47L105.39,91.72L104.47,92.85"/><path d="M107.47,86.39L108.12,85.58L109.52,86.45L108.87,87.26"/><path d="M109.52,86.45L109.49,86.70L108.98,87.33"/><path d="M113.37,81.74L113.62,81.44L112.22,80.57L111.97,80.87"/><path d="M113.62,81.44L113.59,81.69L113.49,81.81"/><path d="M124.96,67.56L124.93,67.81L123.52,66.94L123.56,66.69L124.96,67.56L125.16,67.31"/><path d="M123.56,66.69L123.76,66.44"/><path d="M124.93,67.81L125.27,67.38"/><path d="M127.62,61.92L129.02,62.79L129.06,62.55L127.66,61.67L127.62,61.92"/><path d="M127.66,61.67L128.27,60.92"/><path d="M129.02,62.79L129.78,61.87"/><path d="M129.06,62.55L129.67,61.80"/><path d="M132.51,57.13L131.75,56.66L131.72,56.91L133.12,57.78L133.15,57.53L132.51,57.13"/><path d="M131.75,56.66L132.71,55.49L134.11,56.36L133.15,57.53"/><path d="M133.12,57.78L134.08,56.61L134.11,56.36"/><path d="M137.25,52.51L135.85,51.64L135.82,51.89L137.22,52.76L137.25,52.51L138.21,51.34L136.81,50.47L135.85,51.64"/><path d="M137.22,52.76L138.17,51.59L138.21,51.34"/><path d="M140.22,46.79L139.95,46.62L139.91,46.87L141.31,47.75L141.35,47.50L140.22,46.79"/><path d="M139.95,46.62L140.90,45.45L142.30,46.33L141.35,47.50"/><path d="M141.31,47.75L142.27,46.58L142.30,46.33"/><path d="M145.04,42.23L144.05,41.61L144.01,41.86L145.41,42.73L145.45,42.48L145.04,42.23"/><path d="M144.05,41.61L145.00,40.44L146.40,41.31L145.45,42.48"/><path d="M145.41,42.73L146.37,41.56L146.40,41.31"/><path d="M149.52,37.66L149.54,37.46L150.50,36.29L149.10,35.42L148.14,36.59L148.12,36.78"/><path d="M148.14,36.59L149.54,37.46"/><path d="M149.54,37.67L150.47,36.54L150.50,36.29"/></g><g style="stroke:#000000;stroke-width:0.529"><path d="M91.02,104.33L87.77,108.30"/><path d="M95.53,98.81L92.76,102.20"/><path d="M100.04,93.29L97.26,96.68"/><path d="M104.54,87.77L101.77,91.17"/><path d="M109.05,82.25L106.28,85.65"/><path d="M110.78,80.13L113.56,76.74"/><path d="M118.06,71.22L115.29,74.61"/><path d="M122.57,65.70L119.80,69.10"/><path d="M124.31,63.58L127.08,60.18"/><path d="M128.81,58.06L131.59,54.67"/><path d="M136.09,49.15L133.32,52.54"/><path d="M140.60,43.63L137.83,47.02"/><path d="M145.11,38.11L142.34,41.51"/><path d="M149.62,32.60L146.84,35.99"/><path d="M157.93,29.24L154.23,26.94L151.35,30.47"/></g></g><g id="Actor_.45"><g style="stroke:#000000;stroke-width:0.176"><path d="M84.53,102.93L84.17,102.70L84.14,102.95L85.54,103.83L85.57,103.58L84.53,102.93"/><path d="M84.17,102.70L85.13,101.53L86.53,102.41L85.57,103.58"/><path d="M85.54,103.83L86.50,102.66L86.53,102.41"/><path d="M88.58,98.15L88.24,97.94L88.27,97.69L89.67,98.56L89.64,98.81L88.58,98.15"/><path d="M88.27,97.69L89.23,96.52L90.63,97.39L89.67,98.56"/><path d="M89.64,98.81L90.59,97.64L90.63,97.39"/><path d="M92.34,92.92L92.37,92.67L93.77,93.54L93.74,93.79L92.34,92.92"/><path d="M92.37,92.67L93.33,91.50L94.73,92.37L93.77,93.54"/><path d="M93.74,93.79L94.69,92.62L94.73,92.37"/><path d="M97.84,88.72L97.87,88.53L96.47,87.66L96.44,87.85"/><path d="M96.47,87.66L97.42,86.49L98.82,87.36L97.87,88.53"/><path d="M98.82,87.36L98.79,87.61L97.87,88.74"/><path d="M102.26,83.15L102.92,82.34L101.52,81.47L100.86,82.28"/><path d="M102.92,82.34L102.89,82.59L102.38,83.22"/><path d="M105.37,76.76L105.62,76.45L107.02,77.33L106.77,77.63"/><path d="M106.88,77.70L106.98,77.58L107.02,77.33"/><path d="M118.36,63.45L118.32,63.70L116.92,62.82L116.95,62.58L118.36,63.45L118.56,63.20"/><path d="M116.95,62.58L117.16,62.33"/><path d="M118.32,63.70L118.67,63.27"/><path d="M121.05,57.56L122.45,58.43L122.42,58.68L121.02,57.81L121.05,57.56L121.66,56.81"/><path d="M122.45,58.43L123.06,57.68"/><path d="M122.42,58.68L123.18,57.75"/><path d="M126.55,53.42L125.15,52.54L125.12,52.79L126.52,53.67L126.55,53.42L127.51,52.25L126.11,51.37L125.15,52.54"/><path d="M126.52,53.67L127.47,52.50L127.51,52.25"/><path d="M130.65,48.40L129.25,47.53L129.21,47.78L130.61,48.65L130.65,48.40L131.60,47.23L130.20,46.36L129.25,47.53"/><path d="M130.61,48.65L131.57,47.48L131.60,47.23"/><path d="M133.31,42.76L133.34,42.51L134.30,41.34L135.70,42.21L134.75,43.38L134.71,43.63L133.31,42.76"/><path d="M133.34,42.51L134.75,43.38"/><path d="M134.71,43.63L135.67,42.46L135.70,42.23"/><path d="M138.81,38.62L137.41,37.75L137.44,37.50L138.84,38.37L139.80,37.20L139.77,37.45L138.81,38.62L138.84,38.37"/><path d="M137.44,37.50L138.40,36.33L139.80,37.20"/><path d="M142.94,33.56L143.86,32.43L143.90,32.18L142.94,33.35L141.54,32.48L141.51,32.67"/><path d="M141.54,32.48L142.50,31.31L143.90,32.18"/><path d="M142.94,33.35L142.91,33.54"/></g><g style="stroke:#000000;stroke-width:0.529"><path d="M84.42,100.21L81.17,104.19"/><path d="M88.92,94.69L86.15,98.09"/><path d="M90.66,92.57L93.43,89.18"/><path d="M97.94,83.66L95.17,87.05"/><path d="M102.45,78.14L99.67,81.54"/><path d="M104.18,76.02L106.95,72.62"/><path d="M111.46,67.11L108.69,70.50"/><path d="M115.97,61.59L113.20,64.98"/><path d="M120.48,56.07L117.70,59.46"/><path d="M124.98,50.55L122.21,53.95"/><path d="M129.49,45.04L126.72,48.43"/><path d="M134.00,39.52L131.22,42.91"/><path d="M138.50,34.00L135.73,37.39"/><path d="M143.01,28.48L140.24,31.88"/><path d="M151.33,25.13L147.63,22.83L144.75,26.36"/></g></g><g/><g id="paperID" visibility="hidden" opacity="0.00" transform="scale(0.000100)"><path style="stroke:#000000;stroke-width:0.500;fill:#e6e6e6;fill-rule:evenodd" d="M-2000.00,-2000.00L2297.00,-2000.00L2297.00,2210.00L-2000.00,2210.00zM0.00,0.00L297.00,0.00L297.00,210.00L0.00,210.00z"/><path style="fill:#000000;fill-opacity:0.118" d="M3.00,210.00L297.00,210.00L297.00,3.00L300.00,3.00L300.00,213.00L3.00,213.00z"/></g><g id="ToolTip" visibility="hidden" opacity="0" transform="translate(0,0)"><rect id="ToolTipShadow" opacity="0.20" fill="black" stroke="none" x="0" y="0" width="30" height="8"/><rect id="ToolTipBG" fill="#ffffe1" stroke="black" x="0" y="0" width="30" height="8"/><text xml:space="preserve" id="ToolTipText" fill="black" x="0" y="0" width="30" height="8">tooltip</text></g></g></svg>
