<?xml version="1.0" encoding="UTF-8" standalone="no"?>
<svg xmlns="http://www.w3.org/2000/svg" xmlns:xlink="http://www.w3.org/1999/xlink" width="297.000mm" height="210.000mm" viewBox="0.000000 0.000000 297.000000 210.000000" stroke-linejoin="round" stroke-linecap="round" fill="none" fill-rule="evenodd"><desc>3DVIA Composer Export</desc><script type="text/ecmascript"><![CDATA[
if(typeof(top) != "undefined")
{
	top.ShowPaper = ShowPaper;
}
function ShowHotSpot(evt,hotspotid)
{
	var svgDocument = evt.target.ownerDocument;
	var strId = "hotspot."+hotspotid;
	var hotspot = svgDocument.getElementById(strId);
	if(hotspot)
		hotspot.setAttribute("opacity",".5");
}
function HideHotSpot(evt,hotspotid)
{
	var svgDocument = evt.target.ownerDocument;
	var strId = "hotspot."+hotspotid;
	var hotspot = svgDocument.getElementById(strId);
	if(hotspot)
		hotspot.setAttribute("opacity","0");

	var toolTip = svgDocument.getElementById('ToolTip');
	if(toolTip)
		toolTip.setAttribute("visibility","hidden");
}
function ShowToolTip(evt,hotspotid,strTooltip)
{
	if(strTooltip=="")
	return;

	// change text
	var svgDocument = evt.target.ownerDocument;
	var tiptext = svgDocument.getElementById('ToolTipText');
	if( !tiptext )
	return;
	tiptext.firstChild.nodeValue = " " + strTooltip + "  " ;

	// show tooltip before, else some refresh issue

	var toolTip = svgDocument.getElementById('ToolTip');
	if(!toolTip)
	return;

	toolTip.setAttribute("visibility","visible");
	toolTip.setAttribute("opacity",".95");

	// move tooltip
	// get viewbox

	var root = svgDocument.documentElement;
	var vbox = (root.getAttribute("viewBox")).split(' ');
	var x0 = parseFloat(vbox[0]);
	var y0 = parseFloat(vbox[1]);
	var vboxW = parseFloat(vbox[2]);
	var vboxH = parseFloat(vbox[3]);

	// get default width of svg

	var strW = root.getAttribute("width");
	var svgW = parseFloat(strW);
	if(strW.indexOf('mm') != -1)
	svgW *= 3.779;

	var strH = root.getAttribute("height");
	var svgH = parseFloat(strH);
	if(strH.indexOf('mm') != -1)
	svgH *= 3.779;  	// 96 dpi  -> 96/25.4 = 3.779

	// update the viewbox / width / height if svg is embedded in html with zoom fit all
	var realx0 = x0;
	var realy0 = y0;
	var realvboxW = vboxW;
	var realvboxH = vboxH;
	var realsvgW = svgW;
	var realsvgH = svgH;

	if ((typeof(top) == "undefined") || (typeof(top.svgctl1) != "undefined")) // embedded in html
	{
		// get window size in pxl

		svgW = window.innerWidth;
		svgH = window.innerHeight;

		// calculate real viewbox

		realsvgW = svgW;
		realsvgH = svgH;
		if((svgW / svgH) > (vboxW / vboxH))
		{
			realvboxW = (vboxH * svgW) / svgH;
			realvboxH = vboxH;
			realx0 = x0 - (realvboxW - vboxW)/2 ;
		}
		else
		{
			realvboxH = (vboxW * svgH) / svgW;
			realvboxW = vboxW;
			realy0 = y0 - (realvboxH - vboxH)/2 ;
		}
	}

	// get user zoom/pan

	var newScale = root.currentScale;
	var translation = root.currentTranslate;

	// transform pxl to user unit

	var xPos = (((evt.clientX+10- translation.x)/newScale) * realvboxW)/realsvgW  + realx0 ;
	var yPos = (((evt.clientY+5- translation.y)/newScale) * realvboxH)/ realsvgH  + realy0 ;
	var scaleForWidth = ( (1 / newScale) * realvboxH) / realsvgH;

	// move tooltip

	toolTip.setAttribute("transform", "translate(" + xPos + "," + yPos + ")" );

	// resize tooltip

	var fontsize = 12;
	tiptext.setAttribute("font-size",fontsize*scaleForWidth);
	tiptext.setAttribute("y", fontsize*scaleForWidth);
	var tipBG = svgDocument.getElementById('ToolTipBG');
	var outline = tiptext.getBBox();
	if(tipBG)
	{
		tipBG.setAttribute("stroke-width", 1*scaleForWidth);
		tipBG.setAttribute("width", Number(outline.width) );
		tipBG.setAttribute("height", Number(outline.height) + fontsize*.5*scaleForWidth );
	}
	var ToolTipShadow = svgDocument.getElementById('ToolTipShadow');
	if(ToolTipShadow)
	{
		ToolTipShadow.setAttribute("width", Number(outline.width) );
		ToolTipShadow.setAttribute("height", Number(outline.height) + fontsize*.5*scaleForWidth );
		ToolTipShadow.setAttribute("x", 3*scaleForWidth);
		ToolTipShadow.setAttribute("y", 3*scaleForWidth);
	}
}
function ShowPaper()
{
  var svgDocument = getDocument();
  var paper = svgDocument.getElementById("paperID");
  if(paper)
  {
    paper.setAttribute("transform","scale(1)");
    paper.setAttribute("opacity","1");
    paper.setAttribute("visibility","visible");
  }
  var svg = svgDocument.getRootElement();
  if(svg)
  {
    svg.setAttribute("width","307.000mm");
    svg.setAttribute("height","220.000mm");
    svg.setAttribute("viewBox","-5.000000 -5.000000 307.000000 220.000000");
  }
}
]]></script><defs/><g><path style="fill:#000000;fill-opacity:0.098;fill-rule:evenodd" d="M106.23,8.81L105.94,9.53L97.31,20.28L96.17,21.34L96.46,20.65L106.17,8.68zM96.10,21.76L95.19,22.57L95.48,21.88L96.17,21.34zM95.11,22.99L94.21,23.80L94.50,23.10L95.19,22.57zM94.13,24.21L93.22,25.02L93.51,24.33L94.21,23.80zM93.15,25.44L92.24,26.25L92.53,25.56L93.22,25.02zM92.17,26.67L91.26,27.48L91.55,26.78L92.24,26.25zM91.19,27.89L90.28,28.70L90.57,28.01L91.26,27.48zM90.21,29.12L89.30,29.93L89.59,29.24L90.28,28.70zM89.23,30.35L88.32,31.16L88.61,30.46L89.30,29.93zM88.25,31.57L87.34,32.38L87.63,31.69L88.32,31.16zM87.26,32.80L86.36,33.61L86.64,32.92L87.34,32.38zM86.28,34.03L85.37,34.84L85.66,34.14L86.36,33.61zM85.30,35.25L84.39,36.06L84.68,35.37L85.37,34.84zM84.32,36.48L83.41,37.29L83.70,36.60L84.39,36.06zM83.34,37.71L82.43,38.52L82.72,37.82L83.41,37.29zM82.36,38.93L81.45,39.74L81.74,39.05L82.43,38.52zM81.38,40.16L80.47,40.97L80.76,40.28L81.45,39.74zM80.45,41.19L79.30,42.78L78.83,42.78L80.16,41.15L80.47,40.97zM80.87,44.74L81.05,45.54L81.63,45.93L78.90,49.48L79.08,45.96L79.32,44.22zM103.70,55.30L103.73,55.84L101.73,58.33L101.73,57.07L101.90,54.77L102.46,54.76zM112.32,59.44L112.30,60.02L110.57,62.26L110.56,59.78L110.73,58.69L111.03,58.67zM109.41,61.55L109.10,62.01L109.10,61.48L109.36,61.42zM121.09,63.36L120.86,64.19L119.15,66.43L119.15,64.93L119.39,62.62zM117.50,63.02L117.19,63.48L117.19,62.95L117.46,62.89zM118.00,65.72L117.68,66.18L117.68,65.65L117.95,65.59zM129.73,67.54L129.73,68.12L127.73,70.59L127.97,67.62L128.15,66.80L128.45,66.77zM126.09,67.19L125.78,67.65L125.78,67.12L126.05,67.06zM126.58,69.89L126.27,70.35L126.27,69.82L126.54,69.76zM138.31,71.45L138.30,72.30L136.55,74.50L136.56,72.78L136.73,70.72L137.04,70.69zM113.75,73.44L111.07,101.01L103.69,110.09L103.86,107.05L107.62,70.79L108.10,70.71zM134.68,71.37L134.37,71.83L134.37,71.29L134.63,71.23zM135.17,74.06L134.86,74.52L134.86,73.99L135.12,73.93zM147.12,75.41L147.13,76.22L145.13,78.67L145.37,75.19L145.58,74.90zM143.26,75.54L142.95,76.00L142.95,75.46L143.22,75.40zM155.73,79.55L155.72,80.40L153.99,82.37L153.98,80.38L154.15,78.81L154.45,78.79zM151.85,79.71L151.54,80.17L151.54,79.63L151.81,79.57zM153.08,81.42L152.77,81.88L152.77,81.35L153.03,81.29zM164.54,83.51L164.56,84.06L162.57,86.54L162.70,83.22L162.96,82.96L163.55,82.98zM152.10,82.65L151.78,83.11L151.78,82.58L152.05,82.51zM161.66,85.59L161.35,86.05L161.35,85.52L161.62,85.46zM173.16,87.65L173.15,88.23L171.41,90.47L171.40,88.24L171.57,86.90L171.87,86.88zM160.68,86.82L160.37,87.28L160.37,86.75L160.64,86.68zM170.25,89.76L169.94,90.22L169.94,89.69L170.21,89.63zM181.96,91.60L181.70,92.41L179.99,94.64L179.99,93.38L180.23,90.91L180.49,90.84zM178.35,91.24L178.03,91.70L178.03,91.16L178.30,91.10zM178.84,93.94L178.52,94.40L178.52,93.86L178.79,93.80zM190.54,95.52L190.56,96.34L188.57,98.81L188.81,95.84L188.99,95.01zM186.93,95.41L186.62,95.87L186.62,95.33L186.89,95.27zM187.42,98.11L187.11,98.57L187.11,98.03L187.38,97.97zM228.72,98.68L212.62,118.68L212.61,116.94L213.85,105.41L242.31,69.99L242.30,71.55L241.09,83.10L240.01,84.48L237.04,88.13L236.40,89.45L229.55,155.96L222.43,164.80L222.43,162.32L228.82,98.70z"/><g id="Actor_.0"><g style="stroke:#000000;stroke-width:0.176;stroke-opacity:0.25"><path d="M106.28,8.44L106.19,9.27L78.60,43.74"/><path d="M106.19,9.27L239.06,70.79"/><path d="M239.33,70.05L211.74,104.52"/></g><g style="stroke:#000000;stroke-width:0.529;stroke-opacity:0.25"><path d="M78.68,42.91L106.28,8.44L239.33,70.05L239.28,70.52"/><path d="M211.65,105.35L211.81,105.15"/></g><g style="stroke:#ff0000;stroke-width:0.529;stroke-opacity:0.25"><path d="M78.82,43.84L78.60,43.74L78.68,42.91L211.74,104.52L211.65,105.35L78.82,43.84"/></g></g><g id="Actor_.1"><g style="stroke:#000000;stroke-width:0.176;stroke-opacity:0.50"><path d="M101.92,54.53L129.14,20.53L215.53,60.54"/><path d="M129.14,20.49L129.14,20.53"/><path d="M188.34,94.51L215.56,60.51"/></g><g style="stroke:#000000;stroke-width:0.529;stroke-opacity:0.50"><path d="M101.92,54.49L129.14,20.49L215.56,60.51"/><path d="M188.33,94.55L188.36,94.52"/></g><g style="stroke:#ff0000;stroke-width:0.529;stroke-opacity:0.50"><path d="M102.81,54.95L101.92,54.53L101.92,54.49L188.34,94.51L188.33,94.55L102.81,54.95"/></g></g><g id="Actor_.2"><g style="stroke:#000000;stroke-width:0.176"><path d="M106.47,10.01L106.14,9.11L106.20,8.49L239.51,70.23L242.40,69.78"/><path d="M239.13,70.70L106.14,9.11"/><path d="M106.20,8.49L105.40,6.33"/><path d="M215.53,60.54L129.14,20.53"/><path d="M238.21,71.04L238.96,70.92"/></g><g style="stroke:#000000;stroke-width:0.529"><path d="M105.40,6.33L242.40,69.78L241.03,83.18"/></g></g><g id="Actor_.3"><g style="stroke:#000000;stroke-width:0.176"><path d="M78.48,51.65L75.32,55.60"/><path d="M106.14,9.11L78.47,43.67"/><path d="M106.20,8.49L78.53,43.06"/><path d="M79.26,44.04L79.28,44.01"/></g><g style="stroke:#000000;stroke-width:0.529"><path d="M76.69,42.20L105.40,6.33L106.20,8.49L106.14,9.11L106.47,10.01"/><path d="M77.95,56.82L82.36,51.31"/></g><g style="stroke:#ff0000;stroke-width:0.529"><path d="M75.39,55.64L75.32,55.60L76.69,42.20L78.53,43.06L78.47,43.67L79.26,44.04L77.95,56.82L75.39,55.64"/></g></g><g id="Actor_.4"><g style="stroke:#000000;stroke-width:0.176"><path d="M212.85,113.87L209.68,117.83"/><path d="M211.78,105.41L212.16,104.94"/><path d="M238.96,70.92L211.85,104.79"/><path d="M213.69,105.65L242.40,69.78"/></g><g style="stroke:#000000;stroke-width:0.529"><path d="M210.99,105.04L238.21,71.04L238.96,70.92L239.51,70.23L242.40,69.78L241.03,83.18L212.32,119.05"/></g><g style="stroke:#ff0000;stroke-width:0.529"><path d="M209.71,117.55L209.68,117.83L212.32,119.05L213.69,105.65L211.85,104.79L211.78,105.41L210.99,105.04L209.71,117.55"/></g></g><g id="Actor_.5"><g style="stroke:#000000;stroke-width:0.176"><path d="M188.33,94.55L188.36,94.52"/><path d="M238.22,71.00L211.00,105.00"/></g><g style="stroke:#000000;stroke-width:0.529"><path d="M188.34,94.51L215.56,60.51L238.22,71.00L238.21,71.04L210.99,105.04"/></g><g style="stroke:#ff0000;stroke-width:0.529"><path d="M188.48,94.58L188.34,94.51L188.33,94.55L210.99,105.04L211.00,105.00L188.48,94.58"/></g></g><g id="Actor_.6"><g style="stroke:#000000;stroke-width:0.176"><path d="M79.26,44.04L79.28,44.01"/><path d="M101.92,54.49L129.14,20.49"/></g><g style="stroke:#000000;stroke-width:0.529"><path d="M79.26,44.00L106.48,10.00L129.14,20.49L129.14,20.53L101.92,54.53"/></g><g style="stroke:#ff0000;stroke-width:0.529"><path d="M79.26,44.00L79.26,44.04L101.92,54.53L101.92,54.49L79.26,44.00"/></g></g><g id="Actor_.7"><g style="stroke:#000000;stroke-width:0.176"><path d="M101.60,57.62L100.97,58.41"/><path d="M103.79,53.99L104.00,51.93L101.92,54.53"/><path d="M104.29,51.55L104.30,51.55L108.93,45.78L108.92,45.77"/><path d="M104.00,51.93L104.00,51.92"/><path d="M108.93,45.78L108.71,47.84"/><path d="M109.22,45.40L109.22,45.40L113.85,39.63L113.84,39.62"/><path d="M113.64,41.69L113.85,39.63"/><path d="M114.15,39.26L118.77,33.48L118.76,33.48"/><path d="M118.56,35.54L118.77,33.48"/><path d="M119.07,33.11L123.69,27.33L123.48,29.39"/><path d="M123.99,26.96L129.14,20.53"/></g><g style="stroke:#000000;stroke-width:0.529"><path d="M103.58,56.05L101.49,58.66"/><path d="M101.39,54.29L101.42,54.26"/><path d="M106.40,52.53L108.50,49.90"/><path d="M111.32,46.38L113.43,43.75"/><path d="M116.25,40.23L118.35,37.60"/><path d="M123.27,31.45L121.17,34.08"/><path d="M129.14,20.53L128.71,24.65L126.09,27.93"/></g><g style="stroke:#ff0000;stroke-width:0.529"><path d="M100.99,58.21L100.97,58.41L101.49,58.66L101.92,54.53L101.39,54.29L100.99,58.21"/></g></g><g id="Actor_.8"><g style="stroke:#000000;stroke-width:0.176"><path d="M210.09,67.34L123.69,27.33"/><path d="M232.77,77.84L233.06,77.47"/></g><g style="stroke:#000000;stroke-width:0.529"><path d="M129.34,34.26L123.27,31.45L123.48,29.39"/><path d="M123.99,26.96L210.39,66.97"/><path d="M132.17,33.42L131.96,35.48L138.03,38.29"/><path d="M146.73,42.32L140.66,39.51L140.87,37.44"/><path d="M149.56,41.47L149.35,43.53L155.42,46.34"/><path d="M164.12,50.37L158.05,47.56L158.26,45.50"/><path d="M166.95,49.52L166.74,51.58L172.81,54.39"/><path d="M181.50,58.42L175.44,55.61L175.65,53.55"/><path d="M190.20,62.45L184.13,59.64L184.34,57.58"/><path d="M198.89,66.47L192.83,63.66L193.04,61.60"/><path d="M207.57,70.49L201.52,67.69L201.73,65.63"/></g></g><g id="Actor_.9"><g style="stroke:#000000;stroke-width:0.176"><path d="M113.85,39.63L200.24,79.64"/><path d="M222.92,90.14L223.21,89.76"/></g><g style="stroke:#000000;stroke-width:0.529"><path d="M119.49,46.56L113.43,43.75L113.64,41.69"/><path d="M200.54,79.26L114.15,39.26"/><path d="M122.33,45.72L122.12,47.78L128.19,50.59"/><path d="M131.03,49.74L130.82,51.80L136.88,54.61"/><path d="M145.58,58.64L139.51,55.83L139.72,53.77"/><path d="M154.27,62.67L148.20,59.86L148.41,57.80"/><path d="M162.97,66.69L156.90,63.88L157.11,61.82"/><path d="M165.80,65.85L165.59,67.91L171.66,70.72"/><path d="M180.35,74.74L174.29,71.93L174.50,69.87"/><path d="M189.05,78.77L182.98,75.96L183.19,73.90"/><path d="M197.72,82.79L191.68,79.99L191.89,77.93"/></g></g><g id="Actor_.10"><g style="stroke:#000000;stroke-width:0.176"><path d="M104.00,51.93L190.40,91.93"/><path d="M212.66,106.56L212.79,105.23"/><path d="M213.07,102.43L213.38,102.06"/></g><g style="stroke:#000000;stroke-width:0.529"><path d="M101.32,55.00L80.92,45.56L81.00,44.85"/><path d="M110.01,59.03L103.58,56.05L103.79,53.99"/><path d="M104.30,51.55L190.70,91.56"/><path d="M112.49,58.01L112.28,60.08L118.71,63.05"/><path d="M127.40,67.08L120.97,64.10L121.18,62.04"/><path d="M136.09,71.11L129.66,68.13L129.88,66.07"/><path d="M144.79,75.13L138.36,72.15L138.57,70.09"/><path d="M153.48,79.16L147.05,76.18L147.27,74.12"/><path d="M155.96,78.15L155.75,80.21L162.18,83.18"/><path d="M164.65,82.17L164.44,84.23L170.87,87.21"/><path d="M179.57,91.24L173.14,88.26L173.35,86.20"/><path d="M182.04,90.22L181.83,92.29L188.26,95.26"/><path d="M210.92,105.76L190.53,96.31L190.60,95.60"/><path d="M212.66,106.56L212.96,106.19L213.04,105.35"/></g></g><g id="Actor_.11"><g style="stroke:#000000;stroke-width:0.176"><path d="M205.17,73.49L118.77,33.48"/><path d="M227.84,83.99L228.14,83.61"/></g><g style="stroke:#000000;stroke-width:0.529"><path d="M124.42,40.41L118.35,37.60L118.56,35.54"/><path d="M205.46,73.11L119.07,33.11"/><path d="M127.25,39.57L127.04,41.63L133.11,44.44"/><path d="M141.80,48.46L135.74,45.65L135.95,43.59L135.93,43.59"/><path d="M150.50,52.49L144.43,49.68L144.64,47.62"/><path d="M159.19,56.52L153.13,53.71L153.34,51.65"/><path d="M167.89,60.54L161.82,57.73L162.03,55.67"/><path d="M176.58,64.57L170.51,61.76L170.73,59.70"/><path d="M179.42,63.72L179.21,65.79L185.28,68.60"/><path d="M193.97,72.62L187.90,69.81L188.12,67.75"/><path d="M196.81,71.78L196.60,73.84L202.64,76.64"/></g></g><g id="Actor_.12"><g style="stroke:#000000;stroke-width:0.176"><path d="M195.32,85.79L108.93,45.78"/><path d="M218.00,96.29L218.30,95.92"/></g><g style="stroke:#000000;stroke-width:0.529"><path d="M114.57,52.71L108.50,49.90L108.71,47.84"/><path d="M109.22,45.40L195.62,85.41"/><path d="M117.41,51.86L117.20,53.93L123.27,56.74"/><path d="M126.10,55.89L125.89,57.95L131.96,60.76"/><path d="M140.65,64.79L134.59,61.98L134.80,59.92"/><path d="M149.35,68.82L143.28,66.01L143.49,63.94"/><path d="M158.04,72.84L151.98,70.03L152.19,67.97"/><path d="M166.74,76.87L160.67,74.06L160.88,72.00"/><path d="M169.58,76.02L169.36,78.08L175.43,80.89"/><path d="M184.13,84.92L178.06,82.11L178.27,80.05"/><path d="M186.96,84.08L186.75,86.14L192.80,88.94"/></g></g><g id="Actor_.13"><g style="stroke:#000000;stroke-width:0.176"><path d="M109.66,62.44L110.29,61.65"/><path d="M110.61,58.56L112.70,55.95L112.49,58.01"/><path d="M112.70,55.95L112.42,55.82"/><path d="M112.47,55.34L113.00,55.58L117.62,49.80L117.34,49.67"/><path d="M117.41,51.87L117.62,49.80"/><path d="M117.39,49.19L117.92,49.43L122.54,43.66L122.26,43.53"/><path d="M122.33,45.72L122.54,43.66"/><path d="M122.31,43.04L122.84,43.28L127.46,37.51L127.25,39.57"/><path d="M127.24,36.89L127.76,37.13L132.39,31.36L132.11,31.23"/><path d="M127.46,37.51L127.19,37.38"/><path d="M132.39,31.36L132.18,33.42"/><path d="M137.83,24.56L132.68,30.98L132.16,30.74"/></g><g style="stroke:#000000;stroke-width:0.529"><path d="M112.28,60.08L110.19,62.68"/><path d="M112.42,55.82L112.17,55.71L110.08,58.32"/><path d="M112.47,55.34L117.09,49.56L117.34,49.67"/><path d="M117.20,53.93L115.10,56.55"/><path d="M117.39,49.19L122.01,43.41L122.26,43.53"/><path d="M122.12,47.78L120.02,50.40"/><path d="M122.31,43.04L126.94,37.26L127.19,37.38"/><path d="M127.04,41.63L124.94,44.25"/><path d="M127.24,36.89L131.86,31.11L132.11,31.23"/><path d="M131.96,35.48L129.86,38.11"/><path d="M132.16,30.74L137.30,24.31L137.83,24.56L137.41,28.68L134.78,31.96"/></g><g style="stroke:#ff0000;stroke-width:0.529"><path d="M109.66,62.44L110.19,62.68L110.61,58.56L110.08,58.32L109.66,62.44"/></g></g><g id="Actor_.14"><g style="stroke:#000000;stroke-width:0.176"><path d="M118.99,65.67L118.36,66.47"/><path d="M121.19,62.03L121.18,62.04L121.39,59.98L119.31,62.59"/><path d="M126.04,53.70L126.31,53.83L121.69,59.61L121.16,59.36"/><path d="M121.39,59.98L121.11,59.85"/><path d="M126.31,53.83L126.10,55.89L126.11,55.88"/><path d="M126.09,53.21L126.61,53.46L131.24,47.68L130.96,47.55"/><path d="M131.24,47.68L131.03,49.74L131.03,49.73"/><path d="M131.01,47.06L131.53,47.31L136.16,41.53L135.88,41.40"/><path d="M135.93,40.92L136.46,41.16L141.08,35.38L140.87,37.44L140.88,37.44"/><path d="M135.96,43.58L135.95,43.59L136.16,41.53"/><path d="M141.08,35.38L140.80,35.25"/><path d="M146.53,28.58L141.38,35.01L140.85,34.77"/></g><g style="stroke:#000000;stroke-width:0.529"><path d="M118.78,62.34L120.87,59.73L121.11,59.85"/><path d="M120.97,64.10L118.88,66.71"/><path d="M121.16,59.36L125.79,53.59L126.04,53.70"/><path d="M125.89,57.95L123.79,60.58"/><path d="M126.09,53.21L130.71,47.44L130.96,47.55"/><path d="M130.82,51.80L128.71,54.43"/><path d="M131.01,47.06L135.63,41.29L135.88,41.40"/><path d="M133.63,48.28L135.74,45.65"/><path d="M135.93,40.92L140.55,35.14L140.80,35.25"/><path d="M140.66,39.50L138.56,42.13"/><path d="M143.48,35.98L146.10,32.70L146.53,28.58L146.00,28.34L140.85,34.77"/></g><g style="stroke:#ff0000;stroke-width:0.529"><path d="M118.38,66.20L118.36,66.46L118.88,66.71L119.31,62.59L118.78,62.34L118.38,66.20"/></g></g><g id="Actor_.15"><g style="stroke:#000000;stroke-width:0.176"><path d="M127.05,70.49L127.68,69.70"/><path d="M128.00,66.61L130.09,64.01L129.81,63.88"/><path d="M130.09,64.01L129.88,66.07"/><path d="M129.86,63.39L130.39,63.63L135.01,57.86L134.73,57.73"/><path d="M134.78,57.24L135.31,57.48L139.93,51.71L139.65,51.58"/><path d="M135.01,57.86L134.80,59.92L134.79,59.92"/><path d="M139.72,53.77L139.93,51.71"/><path d="M144.58,45.43L144.85,45.56L140.23,51.33L139.70,51.09"/><path d="M144.64,47.62L144.85,45.56"/><path d="M144.62,44.94L145.15,45.19L149.78,39.41L149.50,39.28"/><path d="M149.78,39.41L149.56,41.47"/><path d="M155.22,32.61L150.07,39.04L149.55,38.79"/></g><g style="stroke:#000000;stroke-width:0.529"><path d="M129.66,68.13L127.58,70.74"/><path d="M127.47,66.37L129.56,63.76L129.81,63.88"/><path d="M129.86,63.39L134.48,57.61L134.73,57.73"/><path d="M134.59,61.98L132.49,64.60"/><path d="M134.78,57.24L139.40,51.46L139.65,51.58"/><path d="M137.41,58.46L139.51,55.83"/><path d="M139.70,51.09L144.33,45.31L144.58,45.43"/><path d="M144.43,49.68L142.33,52.31"/><path d="M144.62,44.94L149.25,39.16L149.50,39.28"/><path d="M147.25,46.16L149.35,43.53"/><path d="M149.55,38.79L154.69,32.36L155.22,32.61L154.80,36.73L152.17,40.01"/></g><g style="stroke:#ff0000;stroke-width:0.529"><path d="M127.14,69.62L127.05,70.49L127.58,70.74L128.00,66.61L127.47,66.37L127.14,69.62"/></g></g><g id="Actor_.16"><g style="stroke:#000000;stroke-width:0.176"><path d="M136.38,73.73L135.75,74.52"/><path d="M136.69,70.64L138.78,68.03L138.50,67.90"/><path d="M138.57,70.09L138.78,68.03"/><path d="M143.42,61.75L143.70,61.88L139.08,67.66L138.55,67.41"/><path d="M143.49,63.94L143.70,61.88"/><path d="M143.47,61.27L144.00,61.51L148.63,55.73L148.35,55.60"/><path d="M148.41,57.79L148.63,55.73"/><path d="M148.40,55.12L148.92,55.36L153.55,49.58L153.34,51.65"/><path d="M158.26,45.50L158.47,43.44L153.85,49.21L153.32,48.97"/><path d="M153.55,49.58L153.27,49.45"/><path d="M158.47,43.44L158.19,43.31"/><path d="M163.91,36.63L158.77,43.06L158.24,42.82"/></g><g style="stroke:#000000;stroke-width:0.529"><path d="M138.36,72.15L136.27,74.76"/><path d="M138.50,67.90L138.25,67.79L136.17,70.39"/><path d="M138.55,67.41L143.18,61.64L143.42,61.75"/><path d="M141.18,68.63L143.28,66.01"/><path d="M143.47,61.27L148.10,55.49L148.35,55.60"/><path d="M148.20,59.86L146.10,62.48"/><path d="M148.40,55.12L153.02,49.34L153.27,49.45"/><path d="M153.13,53.71L151.02,56.33"/><path d="M153.32,48.97L157.94,43.19L158.19,43.31"/><path d="M158.05,47.56L155.95,50.18"/><path d="M160.87,44.03L163.49,40.76L163.91,36.63L163.67,36.52L163.39,36.39L158.24,42.82"/></g><g style="stroke:#ff0000;stroke-width:0.529"><path d="M135.78,74.18L135.75,74.52L136.27,74.76L136.69,70.64L136.17,70.39L135.78,74.18"/></g></g><g id="Actor_.17"><g style="stroke:#000000;stroke-width:0.176"><path d="M144.44,78.54L145.07,77.75"/><path d="M145.39,74.66L147.48,72.06L147.20,71.93"/><path d="M147.26,74.12L147.48,72.06"/><path d="M152.12,65.78L152.40,65.91L147.77,71.69L147.25,71.44"/><path d="M152.40,65.91L152.19,67.97"/><path d="M152.17,65.29L152.70,65.54L157.32,59.76L157.04,59.63"/><path d="M157.11,61.82L157.32,59.76"/><path d="M162.03,55.67L162.24,53.61L157.62,59.39L157.09,59.14"/><path d="M166.89,47.33L167.16,47.46L162.54,53.24L162.01,52.99"/><path d="M161.96,53.48L162.24,53.61"/><path d="M166.95,49.52L167.16,47.46"/><path d="M166.94,46.84L167.46,47.09L172.61,40.66"/></g><g style="stroke:#000000;stroke-width:0.529"><path d="M147.05,76.18L144.97,78.79"/><path d="M147.20,71.93L146.95,71.81L144.86,74.42"/><path d="M147.25,71.44L151.87,65.66L152.12,65.78"/><path d="M149.87,72.66L151.98,70.03"/><path d="M152.17,65.29L156.79,59.52L157.04,59.63"/><path d="M154.80,66.51L156.90,63.88"/><path d="M157.09,59.14L161.72,53.37L161.96,53.48"/><path d="M159.72,60.36L161.82,57.73"/><path d="M162.01,52.99L166.64,47.22L166.89,47.33"/><path d="M166.74,51.58L164.64,54.21"/><path d="M166.94,46.84L172.08,40.42L172.61,40.66L172.19,44.78L169.56,48.06"/></g><g style="stroke:#ff0000;stroke-width:0.529"><path d="M144.89,78.75L144.97,78.79L145.39,74.66L144.86,74.42L144.44,78.54L144.89,78.75"/></g></g><g id="Actor_.18"><g style="stroke:#000000;stroke-width:0.176"><path d="M153.77,81.78L153.13,82.57"/><path d="M155.96,78.14L156.17,76.08L154.08,78.69"/><path d="M155.94,75.47L156.47,75.71L161.09,69.93L160.88,72.00"/><path d="M156.17,76.08L155.89,75.95"/><path d="M160.81,69.81L161.09,69.93"/><path d="M165.74,63.66L166.01,63.79L161.39,69.56L160.86,69.32"/><path d="M165.80,65.85L166.01,63.79"/><path d="M170.73,59.70L170.94,57.64L166.31,63.41L165.79,63.17"/><path d="M175.65,53.55L175.86,51.49L171.24,57.26L170.71,57.02"/><path d="M170.94,57.64L170.66,57.51"/><path d="M175.86,51.49L175.58,51.36"/><path d="M181.30,44.69L176.16,51.11L175.63,50.87"/></g><g style="stroke:#000000;stroke-width:0.529"><path d="M155.75,80.21L153.66,82.81"/><path d="M155.89,75.95L155.64,75.84L153.56,78.45"/><path d="M155.94,75.47L160.57,69.69L160.81,69.81"/><path d="M160.67,74.06L158.57,76.68"/><path d="M160.86,69.32L165.49,63.54L165.74,63.66"/><path d="M163.49,70.53L165.59,67.91"/><path d="M165.79,63.17L170.41,57.39L170.66,57.51"/><path d="M170.51,61.76L168.41,64.39"/><path d="M170.71,57.02L175.33,51.24L175.58,51.36"/><path d="M173.33,58.24L175.44,55.61"/><path d="M175.63,50.87L180.78,44.44L181.30,44.69L180.88,48.81L178.26,52.09"/></g><g style="stroke:#ff0000;stroke-width:0.529"><path d="M153.13,82.57L153.66,82.81L154.08,78.69L153.56,78.45L153.13,82.57"/></g></g><g id="Actor_.19"><g style="stroke:#000000;stroke-width:0.176"><path d="M162.46,85.81L161.83,86.60"/><path d="M164.59,79.98L164.86,80.11L162.78,82.72"/><path d="M164.86,80.11L164.65,82.17"/><path d="M164.64,79.49L165.16,79.74L169.79,73.96L169.51,73.83"/><path d="M169.58,76.02L169.79,73.96"/><path d="M169.56,73.34L170.09,73.59L174.71,67.81L174.43,67.68"/><path d="M174.50,69.87L174.71,67.81"/><path d="M179.35,61.53L179.63,61.66L175.01,67.44L174.48,67.20"/><path d="M179.42,63.72L179.63,61.66"/><path d="M179.40,61.05L179.93,61.29L184.55,55.51L184.27,55.38"/><path d="M184.34,57.58L184.55,55.51"/><path d="M190.00,48.71L184.85,55.14L184.32,54.90"/></g><g style="stroke:#000000;stroke-width:0.529"><path d="M164.44,84.23L162.36,86.84"/><path d="M164.59,79.98L164.34,79.87L162.25,82.47"/><path d="M164.64,79.49L169.26,73.72L169.51,73.83"/><path d="M167.26,80.71L169.36,78.08"/><path d="M169.56,73.34L174.18,67.57L174.43,67.68"/><path d="M172.18,74.56L174.29,71.94"/><path d="M174.48,67.20L179.10,61.42L179.35,61.53"/><path d="M179.21,65.79L177.11,68.41"/><path d="M179.40,61.05L184.03,55.27L184.27,55.38"/><path d="M182.03,62.26L184.13,59.64"/><path d="M184.32,54.90L189.47,48.47L190.00,48.71L189.58,52.84L186.95,56.11"/></g><g style="stroke:#ff0000;stroke-width:0.529"><path d="M162.14,86.74L162.36,86.84L162.78,82.72L162.25,82.47L161.83,86.60L162.14,86.74"/></g></g><g id="Actor_.20"><g style="stroke:#000000;stroke-width:0.176"><path d="M171.16,89.83L170.52,90.62"/><path d="M171.48,86.74L173.56,84.14L173.28,84.01"/><path d="M173.35,86.20L173.56,84.14"/><path d="M173.33,83.52L173.86,83.76L178.48,77.99L178.20,77.86"/><path d="M178.27,80.05L178.48,77.99"/><path d="M183.12,71.71L183.40,71.84L178.78,77.61L178.25,77.37"/><path d="M183.19,73.90L183.40,71.84"/><path d="M183.17,71.22L183.70,71.47L188.33,65.69L188.05,65.56"/><path d="M188.11,67.75L188.33,65.69"/><path d="M192.97,59.41L193.25,59.54L188.62,65.32L188.10,65.07"/><path d="M193.04,61.60L193.25,59.54"/><path d="M193.02,58.92L193.55,59.17L198.69,52.74"/><path d="M198.16,52.49L198.16,52.50"/></g><g style="stroke:#000000;stroke-width:0.529"><path d="M173.14,88.26L171.05,90.87"/><path d="M170.95,86.50L173.03,83.89L173.28,84.01"/><path d="M173.33,83.52L177.95,77.74L178.20,77.86"/><path d="M175.96,84.74L178.06,82.11"/><path d="M178.25,77.37L182.88,71.59L183.12,71.71"/><path d="M182.98,75.96L180.88,78.59"/><path d="M183.17,71.22L187.80,65.44L188.05,65.56"/><path d="M185.80,72.44L187.90,69.81"/><path d="M188.10,65.07L192.72,59.30L192.97,59.41"/><path d="M190.72,66.29L192.83,63.66"/><path d="M193.02,58.92L198.16,52.49L198.18,52.50L198.69,52.74L198.27,56.86L195.65,60.14"/></g><g style="stroke:#ff0000;stroke-width:0.529"><path d="M170.57,90.16L170.52,90.62L171.05,90.87L171.47,86.74L170.95,86.50L170.57,90.16"/></g></g><g id="Actor_.21"><g style="stroke:#000000;stroke-width:0.176"><path d="M179.85,93.86L179.22,94.65"/><path d="M180.17,90.77L182.25,88.16L181.98,88.03"/><path d="M182.04,90.22L182.25,88.16"/><path d="M182.02,87.55L182.55,87.79L187.18,82.01L186.90,81.88"/><path d="M187.18,82.01L186.96,84.07"/><path d="M186.95,81.40L187.47,81.64L192.10,75.86L191.82,75.74"/><path d="M191.89,77.93L192.10,75.86"/><path d="M191.87,75.25L192.40,75.49L197.02,69.72L196.81,71.78"/><path d="M197.02,69.72L196.74,69.59"/><path d="M201.66,63.44L201.94,63.57L197.32,69.34L196.79,69.10"/><path d="M201.73,65.63L201.94,63.57"/><path d="M207.39,56.76L202.24,63.19L201.71,62.95"/></g><g style="stroke:#000000;stroke-width:0.529"><path d="M181.83,92.29L179.74,94.89"/><path d="M179.64,90.53L181.73,87.92L181.98,88.03"/><path d="M182.02,87.55L186.65,81.77L186.90,81.88"/><path d="M186.75,86.14L184.65,88.76"/><path d="M186.95,81.40L191.57,75.62L191.82,75.74"/><path d="M191.68,79.99L189.57,82.61"/><path d="M191.87,75.25L196.49,69.47L196.74,69.59"/><path d="M194.50,76.46L196.60,73.84"/><path d="M196.79,69.10L201.42,63.32L201.66,63.44"/><path d="M199.42,70.31L201.52,67.69"/><path d="M201.71,62.95L206.86,56.52L207.39,56.76L206.96,60.89L204.34,64.17"/></g><g style="stroke:#ff0000;stroke-width:0.529"><path d="M179.33,93.59L179.22,94.65L179.74,94.89L180.17,90.77L179.64,90.53L179.33,93.59"/></g></g><g id="Actor_.22"><g style="stroke:#000000;stroke-width:0.176"><path d="M187.91,98.67L188.54,97.88"/><path d="M188.86,94.80L188.89,94.76"/></g><g style="stroke:#000000;stroke-width:0.529"><path d="M188.44,98.92L190.53,96.31"/><path d="M188.33,94.55L188.36,94.52"/></g><g style="stroke:#ff0000;stroke-width:0.529"><path d="M187.91,98.67L188.44,98.92L188.86,94.80L188.33,94.55L187.91,98.67"/></g></g><g id="Actor_.23"><g style="stroke:#000000;stroke-width:0.176"><path d="M137.59,76.67L137.72,76.51"/><path d="M142.43,76.19L140.58,75.33L140.54,75.74L142.38,76.60L142.43,76.19L143.47,74.88L141.63,74.03L140.58,75.33"/><path d="M142.38,76.60L143.43,75.29L143.47,74.88"/><path d="M142.89,78.90L144.63,76.73"/><path d="M145.07,70.18L145.01,70.15L145.06,69.74L146.10,68.44L147.94,69.29L146.90,70.59L146.86,71.01L145.07,70.18"/><path d="M145.06,69.74L146.90,70.59"/><path d="M146.86,71.01L147.90,69.70L147.94,69.29"/><path d="M149.58,64.09L150.57,62.85L152.42,63.70L151.42,64.95"/><path d="M151.63,65.04L152.38,64.11L152.42,63.70"/><path d="M156.34,58.80L156.89,58.11L155.05,57.26L154.50,57.94"/><path d="M156.55,58.89L156.85,58.52L156.89,58.11"/><path d="M161.27,52.65L161.37,52.52L159.52,51.67L159.42,51.79"/><path d="M161.35,52.69L161.37,52.52"/></g><g style="stroke:#000000;stroke-width:0.529"><path d="M137.62,76.46L140.33,73.07"/><path d="M142.86,79.11L144.60,76.94"/><path d="M145.26,66.92L143.15,69.55"/><path d="M148.08,63.40L150.18,60.77"/><path d="M155.10,54.62L153.00,57.25"/><path d="M157.92,51.10L160.02,48.47"/><path d="M168.93,44.35L164.84,42.46L162.84,44.95"/></g><g style="stroke:#ff0000;stroke-width:0.529"><path d="M138.22,76.96L137.59,76.67L137.62,76.47L138.72,76.98L142.89,78.90L142.86,79.11L138.22,76.96"/></g></g><g id="Actor_.24"><g style="stroke:#000000;stroke-width:0.176"><path d="M77.95,56.82L82.36,51.31"/><path d="M213.59,106.66L210.42,110.61"/></g><g style="stroke:#000000;stroke-width:0.529"><path d="M78.69,49.61L81.66,45.90"/><path d="M127.83,25.75L129.81,26.67"/><path d="M136.53,29.78L138.50,30.70"/><path d="M147.19,34.72L145.22,33.81"/><path d="M155.89,38.75L153.91,37.83"/><path d="M164.58,42.77L162.61,41.86"/><path d="M171.30,45.89L173.28,46.80"/><path d="M181.97,50.83L180.00,49.91"/><path d="M190.67,54.85L188.69,53.94"/><path d="M199.36,58.88L197.39,57.96"/><path d="M208.06,62.90L206.08,61.99"/><path d="M212.85,113.87L209.68,117.83"/></g><g style="stroke:#ff0000;stroke-width:0.529"><path d="M78.82,57.23L77.95,56.82L78.69,49.61L210.42,110.61L209.68,117.83L78.82,57.23"/></g></g><g id="Actor_.25"><g style="stroke:#000000;stroke-width:0.176"><path d="M103.50,110.39L107.58,70.54"/></g><g style="stroke:#000000;stroke-width:0.529"><path d="M113.79,73.42L110.96,101.07L103.50,110.39L90.32,104.29L94.40,64.44"/></g></g><g id="Actor_.26"><g style="stroke:#000000;stroke-width:0.176"><path d="M222.06,165.29L228.92,98.31"/></g><g style="stroke:#000000;stroke-width:0.529"><path d="M236.37,88.99L229.52,155.98L222.06,165.29L208.88,159.19L213.09,118.08"/></g></g><g id="Actor_.27"><g style="stroke:#000000;stroke-width:0.176"><path d="M146.29,80.70L146.42,80.54"/><path d="M149.50,79.89L151.08,80.62L151.12,80.21L149.28,79.36L149.23,79.77L149.50,79.89"/><path d="M149.28,79.36L150.32,78.05L152.16,78.91L151.12,80.21"/><path d="M151.58,82.93L153.32,80.76"/><path d="M151.08,80.62L152.12,79.32L152.16,78.91"/><path d="M154.21,74.41L153.71,74.18L153.75,73.77L154.79,72.46L156.64,73.32L155.60,74.62L155.55,75.03L154.21,74.41"/><path d="M153.75,73.77L155.60,74.62"/><path d="M155.55,75.03L156.60,73.73L156.64,73.32"/><path d="M158.27,68.12L159.27,66.87L161.11,67.73L160.12,68.97"/><path d="M161.07,68.14L161.07,68.14L160.33,69.07"/><path d="M161.07,68.14L161.11,67.73"/><path d="M163.19,61.97L163.74,61.28L165.59,62.14L165.04,62.82"/><path d="M165.59,62.14L165.55,62.55L165.25,62.92"/><path d="M169.96,56.67L170.06,56.55L168.22,55.69L168.12,55.82"/><path d="M170.06,56.55L170.05,56.71"/></g><g style="stroke:#000000;stroke-width:0.529"><path d="M146.31,80.49L149.03,77.09"/><path d="M153.30,80.96L151.56,83.14"/><path d="M153.95,70.95L151.85,73.57"/><path d="M158.87,64.80L156.77,67.42"/><path d="M163.79,58.65L161.69,61.27"/><path d="M166.61,55.12L168.72,52.50"/><path d="M171.54,48.98L173.53,46.48L177.62,48.38"/></g><g style="stroke:#ff0000;stroke-width:0.529"><path d="M147.36,81.19L146.29,80.70L146.31,80.49L147.42,81.00L151.58,82.93L151.56,83.14L147.36,81.19"/></g></g><g id="Actor_.28"><g style="stroke:#000000;stroke-width:0.176"><path d="M154.98,84.72L155.11,84.56"/><path d="M159.81,84.24L157.97,83.38L157.93,83.80L159.77,84.65L159.81,84.24L160.86,82.93L160.82,83.35L159.77,84.65"/><path d="M157.97,83.38L159.01,82.08L160.86,82.93"/><path d="M162.01,84.78L160.27,86.96"/><path d="M163.35,78.21L162.45,77.79L162.40,78.21L164.25,79.06L164.29,78.65L163.35,78.21"/><path d="M162.45,77.79L163.49,76.49L165.33,77.34L164.29,78.65"/><path d="M164.25,79.06L165.29,77.76L165.33,77.34"/><path d="M168.81,73.00L169.81,71.75L167.96,70.90L166.97,72.14"/><path d="M169.02,73.10L169.77,72.17L169.81,71.75"/><path d="M173.73,66.85L174.28,66.16L172.44,65.31L171.89,66.00"/><path d="M174.28,66.16L174.24,66.58L173.94,66.95"/><path d="M178.66,60.70L178.76,60.57L176.91,59.72L176.81,59.85"/><path d="M178.76,60.57L178.74,60.74"/></g><g style="stroke:#000000;stroke-width:0.529"><path d="M155.00,84.52L157.72,81.12"/><path d="M160.25,87.16L161.99,84.99"/><path d="M160.54,77.60L162.64,74.97"/><path d="M165.46,71.45L167.57,68.82"/><path d="M170.39,65.30L172.49,62.67"/><path d="M175.31,59.15L177.41,56.52"/><path d="M180.23,53.00L182.22,50.51L186.32,52.41"/></g><g style="stroke:#ff0000;stroke-width:0.529"><path d="M155.35,84.89L154.98,84.72L155.00,84.52L156.11,85.03L160.27,86.96L160.25,87.16L155.35,84.89"/></g></g><g id="Actor_.29"><g style="stroke:#000000;stroke-width:0.176"><path d="M163.68,88.75L163.80,88.59"/><path d="M166.78,87.46L166.66,87.41L166.62,87.82L168.47,88.68L168.51,88.26L166.78,87.46"/><path d="M166.66,87.41L167.71,86.11L169.55,86.96L168.51,88.26"/><path d="M168.97,90.98L170.71,88.81"/><path d="M168.47,88.68L169.51,87.37L169.55,86.96"/><path d="M171.35,82.35L171.10,82.23L171.14,81.82L172.98,82.67L172.94,83.09L171.35,82.35"/><path d="M171.14,81.82L172.18,80.52L174.03,81.37L172.98,82.67"/><path d="M172.94,83.09L173.99,81.78L174.03,81.37"/><path d="M177.51,77.02L178.50,75.78L176.66,74.93L175.66,76.17"/><path d="M177.72,77.12L178.46,76.19L178.50,75.78"/><path d="M182.43,70.88L182.98,70.19L181.13,69.33L180.58,70.02"/><path d="M182.98,70.19L182.94,70.60L182.64,70.97"/><path d="M187.35,64.73L187.45,64.60L185.61,63.75L185.51,63.87"/><path d="M187.45,64.60L187.43,64.77"/></g><g style="stroke:#000000;stroke-width:0.529"><path d="M163.70,88.54L166.42,85.15"/><path d="M170.69,89.01L168.95,91.19"/><path d="M169.24,81.62L171.34,79.00"/><path d="M174.16,75.47L176.26,72.85"/><path d="M179.08,69.33L181.18,66.70"/><path d="M184.00,63.18L186.11,60.55"/><path d="M195.01,56.43L190.92,54.54L188.93,57.03"/></g><g style="stroke:#ff0000;stroke-width:0.529"><path d="M164.49,89.13L163.68,88.75L163.70,88.55L164.81,89.05L168.97,90.98L168.95,91.19L164.49,89.13"/></g></g><g id="Actor_.30"><g style="stroke:#000000;stroke-width:0.176"><path d="M172.37,92.77L172.50,92.62"/><path d="M175.32,91.85L177.16,92.70L177.20,92.29L175.36,91.44L175.32,91.85"/><path d="M175.36,91.44L176.40,90.13L178.25,90.99L177.20,92.29"/><path d="M179.40,92.83L177.66,95.01"/><path d="M177.16,92.70L178.21,91.40L178.20,91.40"/><path d="M178.21,91.40L178.25,90.99"/><path d="M180.48,86.15L179.83,85.85L179.79,86.26L181.64,87.11L181.68,86.70L180.48,86.15"/><path d="M179.83,85.85L180.88,84.54L182.72,85.40L181.68,86.70"/><path d="M181.64,87.11L182.68,85.81L182.72,85.40"/><path d="M184.36,80.20L185.35,78.95L187.20,79.81L186.20,81.05"/><path d="M187.20,79.81L187.16,80.22L186.41,81.15"/><path d="M189.28,74.05L189.83,73.36L191.67,74.22L191.12,74.90"/><path d="M191.33,75.00L191.63,74.63L191.67,74.22"/><path d="M196.04,68.75L196.15,68.63L194.30,67.77L194.20,67.90"/><path d="M196.15,68.63L196.13,68.79"/></g><g style="stroke:#000000;stroke-width:0.529"><path d="M172.39,92.57L175.11,89.17"/><path d="M177.64,95.21L179.38,93.04"/><path d="M177.93,85.65L180.03,83.02"/><path d="M182.85,79.50L184.96,76.88"/><path d="M187.78,73.35L189.88,70.73"/><path d="M192.70,67.20L194.80,64.58"/><path d="M203.71,60.46L199.61,58.56L197.62,61.05"/></g><g style="stroke:#ff0000;stroke-width:0.529"><path d="M172.49,92.83L172.37,92.77L172.39,92.57L173.50,93.08L177.66,95.01L177.64,95.21L172.49,92.83"/></g></g><g id="Actor_.31"><g style="stroke:#000000;stroke-width:0.176"><path d="M181.07,96.80L181.19,96.64"/><path d="M185.86,96.73L184.01,95.87L184.05,95.46L185.90,96.32L185.86,96.73L186.90,95.42L186.94,95.01L185.90,96.32"/><path d="M184.05,95.46L185.10,94.16L186.94,95.01"/><path d="M188.10,96.86L186.36,99.03"/><path d="M189.62,90.38L188.53,89.87L188.49,90.28L190.33,91.14L190.37,90.73L189.62,90.38"/><path d="M188.53,89.87L189.57,88.57L191.42,89.42L190.37,90.73"/><path d="M191.42,89.42L191.37,89.83L190.33,91.14"/><path d="M194.89,85.08L195.89,83.83L194.05,82.98L193.05,84.22"/><path d="M195.89,83.83L195.85,84.24L195.10,85.17"/><path d="M197.97,78.07L198.52,77.39L200.37,78.24L199.82,78.93"/><path d="M200.03,79.03L200.32,78.65L200.37,78.24"/><path d="M204.74,72.78L204.84,72.65L203.00,71.80L202.89,71.92"/><path d="M204.84,72.65L204.82,72.82"/></g><g style="stroke:#000000;stroke-width:0.529"><path d="M181.09,96.59L183.81,93.20"/><path d="M188.08,97.07L186.34,99.24"/><path d="M186.63,89.68L188.73,87.05"/><path d="M191.55,83.53L193.65,80.90"/><path d="M196.47,77.38L198.57,74.75"/><path d="M201.39,71.23L203.49,68.60"/><path d="M206.31,65.08L208.31,62.59L212.38,64.48"/></g><g style="stroke:#ff0000;stroke-width:0.529"><path d="M181.63,97.06L181.07,96.80L181.09,96.60L182.20,97.11L186.36,99.03L186.34,99.24L181.63,97.06"/></g></g><g id="Actor_.32"><g style="stroke:#000000;stroke-width:0.176"><path d="M128.90,72.64L129.03,72.49"/><path d="M132.51,71.59L131.89,71.31L131.84,71.72L133.69,72.57L133.73,72.16L132.51,71.59"/><path d="M131.89,71.31L132.93,70.00L134.78,70.85L133.73,72.16"/><path d="M134.19,74.88L135.93,72.70"/><path d="M133.69,72.57L134.73,71.27L134.78,70.85"/><path d="M136.32,66.13L138.16,66.98L138.21,66.57L136.36,65.71L136.32,66.13"/><path d="M136.36,65.71L137.41,64.41L139.25,65.26L138.21,66.57"/><path d="M138.16,66.98L139.21,65.68L139.25,65.26"/><path d="M140.88,60.07L141.88,58.82L143.72,59.68L142.73,60.92"/><path d="M142.94,61.02L143.68,60.09L143.72,59.68"/><path d="M145.81,53.92L146.36,53.23L148.20,54.08L147.65,54.77"/><path d="M147.86,54.87L148.16,54.50L148.20,54.08"/><path d="M152.57,48.62L152.67,48.49L150.83,47.64L150.73,47.77"/><path d="M152.67,48.49L152.66,48.66"/></g><g style="stroke:#000000;stroke-width:0.529"><path d="M128.92,72.44L131.64,69.04"/><path d="M135.91,72.91L134.17,75.08"/><path d="M136.56,62.89L134.46,65.52"/><path d="M141.48,56.74L139.38,59.37"/><path d="M144.30,53.22L146.41,50.60"/><path d="M149.23,47.07L151.33,44.45"/><path d="M160.23,40.33L156.14,38.43L154.15,40.92"/></g><g style="stroke:#ff0000;stroke-width:0.529"><path d="M129.08,72.73L128.90,72.64L128.92,72.44L130.03,72.95L134.19,74.88L134.17,75.08L129.08,72.73"/></g></g><g id="Actor_.33"><g style="stroke:#000000;stroke-width:0.176"><path d="M120.33,68.46L120.21,68.62"/><path d="M123.37,67.36L123.19,67.28L123.15,67.69L124.99,68.55L125.04,68.13L123.37,67.36"/><path d="M123.19,67.28L124.24,65.97L126.08,66.83L125.04,68.13"/><path d="M125.50,70.85L127.24,68.68"/><path d="M124.99,68.55L126.04,67.24L126.08,66.83"/><path d="M129.51,62.54L127.67,61.69L127.63,62.10L129.47,62.95L130.51,61.65L130.56,61.24L129.51,62.54L129.47,62.95"/><path d="M127.67,61.69L128.71,60.38L130.56,61.24"/><path d="M132.19,56.04L133.19,54.79L135.03,55.65L134.03,56.89"/><path d="M135.03,55.65L134.99,56.06L134.24,56.99"/><path d="M138.96,50.74L139.51,50.06L137.66,49.20L137.11,49.89"/><path d="M139.17,50.84L139.46,50.47L139.51,50.06"/><path d="M142.03,43.74L142.14,43.61L143.98,44.47L143.88,44.60"/><path d="M143.98,44.47L143.96,44.63"/></g><g style="stroke:#000000;stroke-width:0.529"><path d="M120.23,68.41L122.94,65.02"/><path d="M125.48,71.06L127.22,68.88"/><path d="M127.87,58.87L125.76,61.49"/><path d="M132.79,52.72L130.69,55.34"/><path d="M137.71,46.57L135.61,49.19"/><path d="M140.53,43.05L142.63,40.42"/><path d="M151.54,36.30L147.45,34.41L145.45,36.90"/></g><g style="stroke:#ff0000;stroke-width:0.529"><path d="M121.08,69.02L120.21,68.62L120.23,68.41L121.33,68.92L125.50,70.85L125.48,71.06L121.08,69.02"/></g></g><g id="Actor_.34"><g style="stroke:#000000;stroke-width:0.176"><path d="M111.51,64.59L111.64,64.43"/><path d="M116.34,64.11L116.30,64.52L114.46,63.67L114.50,63.25L115.54,61.95L117.39,62.80L116.34,64.11L114.50,63.25"/><path d="M116.30,64.52L117.34,63.21L117.39,62.80"/><path d="M116.80,66.82L118.54,64.65"/><path d="M120.78,58.93L118.93,58.07L118.97,57.66L120.02,56.36L121.86,57.21L120.82,58.52L120.78,58.93L121.82,57.62L121.86,57.21"/><path d="M118.97,57.66L120.82,58.52"/><path d="M123.49,52.01L124.49,50.77L126.34,51.62L125.34,52.87"/><path d="M125.55,52.96L126.29,52.03L126.34,51.62"/><path d="M130.26,46.72L130.81,46.03L128.97,45.18L128.42,45.86"/><path d="M130.47,46.82L130.77,46.44L130.81,46.03"/><path d="M135.18,40.57L135.29,40.44L133.44,39.59L133.34,39.72"/><path d="M135.27,40.61L135.29,40.44"/></g><g style="stroke:#000000;stroke-width:0.529"><path d="M111.53,64.38L114.25,60.99"/><path d="M118.52,64.86L116.78,67.03"/><path d="M119.17,54.84L117.07,57.47"/><path d="M124.09,48.69L121.99,51.32"/><path d="M129.02,42.54L126.91,45.17"/><path d="M131.84,39.02L133.94,36.39"/><path d="M142.85,32.28L138.75,30.38L136.76,32.87"/></g><g style="stroke:#ff0000;stroke-width:0.529"><path d="M111.95,64.79L111.51,64.59L111.53,64.39L112.64,64.90L116.80,66.82L116.78,67.03L111.95,64.79"/></g></g><g id="Actor_.35"><g style="stroke:#000000;stroke-width:0.176"><path d="M102.82,60.56L102.94,60.41"/><path d="M106.23,59.43L105.80,59.23L106.85,57.92L108.69,58.78L107.65,60.08L106.23,59.43"/><path d="M107.65,60.08L107.61,60.49L107.60,60.49L105.76,59.64L105.80,59.23"/><path d="M108.11,62.80L109.85,60.62"/><path d="M107.61,60.49L108.65,59.19L108.69,58.78"/><path d="M110.29,53.64L110.28,53.64L110.24,54.05L112.08,54.90L112.12,54.49L110.29,53.64"/><path d="M110.28,53.64L111.32,52.33L113.17,53.19L112.12,54.49"/><path d="M112.08,54.90L113.13,53.60L113.17,53.19"/><path d="M114.80,47.99L115.80,46.74L117.64,47.60L116.64,48.84"/><path d="M117.64,47.60L117.60,48.01L116.85,48.94"/><path d="M119.72,41.84L120.27,41.15L122.12,42.01L121.57,42.69"/><path d="M121.78,42.79L122.07,42.42L122.12,42.01"/><path d="M124.64,35.69L124.75,35.56L126.59,36.42L126.49,36.54"/><path d="M126.59,36.42L126.57,36.58"/></g><g style="stroke:#000000;stroke-width:0.529"><path d="M102.84,60.36L105.56,56.96"/><path d="M109.83,60.83L108.09,63.00"/><path d="M108.38,53.44L110.48,50.81"/><path d="M113.30,47.29L115.40,44.67"/><path d="M120.32,38.52L118.22,41.14"/><path d="M125.24,32.37L123.14,34.99"/><path d="M134.15,28.25L130.06,26.35L128.06,28.84"/></g><g style="stroke:#ff0000;stroke-width:0.529"><path d="M103.95,60.87L102.84,60.36L102.82,60.56L108.09,63.00L108.11,62.80L103.95,60.87"/></g></g><g id="Actor_.36"><g style="stroke:#000000;stroke-width:0.176"><path d="M137.57,76.88L137.70,76.72"/><path d="M142.86,79.11L144.60,76.94"/></g><g style="stroke:#000000;stroke-width:0.529"><path d="M137.59,76.67L137.72,76.51"/><path d="M142.84,79.32L144.58,77.14"/></g><g style="stroke:#ff0000;stroke-width:0.529"><path d="M137.59,76.74L137.57,76.88L142.84,79.32L142.86,79.11L137.59,76.67L137.59,76.74"/></g></g><g id="Actor_.37"><g style="stroke:#000000;stroke-width:0.176"><path d="M146.27,80.90L146.39,80.74"/><path d="M151.56,83.14L153.30,80.96"/></g><g style="stroke:#000000;stroke-width:0.529"><path d="M146.29,80.70L146.42,80.54"/><path d="M151.54,83.34L153.28,81.17"/></g><g style="stroke:#ff0000;stroke-width:0.529"><path d="M146.55,81.03L151.54,83.34L151.56,83.14L146.29,80.70L146.27,80.90L146.55,81.03"/></g></g><g id="Actor_.38"><g style="stroke:#000000;stroke-width:0.176"><path d="M154.96,84.93L155.09,84.77"/><path d="M160.25,87.16L161.99,84.99"/></g><g style="stroke:#000000;stroke-width:0.529"><path d="M154.98,84.72L155.11,84.56"/><path d="M160.23,87.37L161.97,85.19"/></g><g style="stroke:#ff0000;stroke-width:0.529"><path d="M154.98,84.80L154.96,84.93L160.23,87.37L160.25,87.16L154.98,84.72L154.98,84.80"/></g></g><g id="Actor_.39"><g style="stroke:#000000;stroke-width:0.176"><path d="M163.66,88.95L163.78,88.80"/><path d="M168.95,91.19L170.69,89.01"/></g><g style="stroke:#000000;stroke-width:0.529"><path d="M163.68,88.75L163.80,88.59"/><path d="M168.93,91.39L170.67,89.22"/></g><g style="stroke:#ff0000;stroke-width:0.529"><path d="M163.80,89.02L168.93,91.39L168.95,91.19L163.68,88.75L163.66,88.95L163.80,89.02"/></g></g><g id="Actor_.40"><g style="stroke:#000000;stroke-width:0.176"><path d="M172.35,92.98L172.48,92.82"/><path d="M177.64,95.21L179.38,93.04"/></g><g style="stroke:#000000;stroke-width:0.529"><path d="M172.37,92.77L172.50,92.62"/><path d="M177.62,95.42L179.36,93.25"/></g><g style="stroke:#ff0000;stroke-width:0.529"><path d="M172.36,92.85L172.35,92.98L177.62,95.42L177.64,95.21L172.37,92.77L172.36,92.85"/></g></g><g id="Actor_.41"><g style="stroke:#000000;stroke-width:0.176"><path d="M181.05,97.01L181.17,96.85"/><path d="M188.08,97.07L186.34,99.24"/></g><g style="stroke:#000000;stroke-width:0.529"><path d="M181.07,96.80L181.19,96.64"/><path d="M186.32,99.45L188.06,97.27"/></g><g style="stroke:#ff0000;stroke-width:0.529"><path d="M181.05,97.01L186.32,99.45L186.34,99.24L181.07,96.80L181.05,97.01L181.05,97.01"/></g></g><g id="Actor_.42"><g style="stroke:#000000;stroke-width:0.176"><path d="M128.88,72.85L129.01,72.69"/><path d="M134.17,75.08L135.91,72.91"/></g><g style="stroke:#000000;stroke-width:0.529"><path d="M128.90,72.64L129.03,72.49"/><path d="M135.89,73.12L134.15,75.29"/></g><g style="stroke:#ff0000;stroke-width:0.529"><path d="M128.89,72.72L128.88,72.85L134.15,75.29L134.17,75.08L128.90,72.64L128.89,72.72"/></g></g><g id="Actor_.43"><g style="stroke:#000000;stroke-width:0.176"><path d="M120.18,68.82L120.31,68.67"/><path d="M125.48,71.06L127.22,68.88"/></g><g style="stroke:#000000;stroke-width:0.529"><path d="M120.21,68.62L120.33,68.46"/><path d="M125.45,71.26L127.19,69.09"/></g><g style="stroke:#ff0000;stroke-width:0.529"><path d="M120.20,68.69L120.18,68.82L125.45,71.26L125.48,71.06L120.21,68.62L120.20,68.69"/></g></g><g id="Actor_.44"><g style="stroke:#000000;stroke-width:0.176"><path d="M111.49,64.80L111.62,64.64"/><path d="M116.78,67.03L118.52,64.86"/></g><g style="stroke:#000000;stroke-width:0.529"><path d="M111.51,64.59L111.64,64.43"/><path d="M118.50,65.06L116.76,67.24"/></g><g style="stroke:#ff0000;stroke-width:0.529"><path d="M111.50,64.67L111.49,64.80L116.76,67.24L116.78,67.03L111.51,64.59L111.50,64.67"/></g></g><g id="Actor_.45"><g style="stroke:#000000;stroke-width:0.176"><path d="M102.80,60.77L102.92,60.61"/><path d="M108.09,63.00L109.83,60.83"/></g><g style="stroke:#000000;stroke-width:0.529"><path d="M102.82,60.56L102.94,60.41"/><path d="M108.07,63.21L109.81,61.04"/></g><g style="stroke:#ff0000;stroke-width:0.529"><path d="M102.81,60.65L102.80,60.77L108.07,63.21L108.09,63.00L102.82,60.56L102.81,60.65"/></g></g><g/><g id="paperID" visibility="hidden" opacity="0.00" transform="scale(0.000100)"><path style="stroke:#000000;stroke-width:0.500;fill:#e6e6e6;fill-rule:evenodd" d="M-2000.00,-2000.00L2297.00,-2000.00L2297.00,2210.00L-2000.00,2210.00zM0.00,0.00L297.00,0.00L297.00,210.00L0.00,210.00z"/><path style="fill:#000000;fill-opacity:0.118" d="M3.00,210.00L297.00,210.00L297.00,3.00L300.00,3.00L300.00,213.00L3.00,213.00z"/></g><g id="ToolTip" visibility="hidden" opacity="0" transform="translate(0,0)"><rect id="ToolTipShadow" opacity="0.20" fill="black" stroke="none" x="0" y="0" width="30" height="8"/><rect id="ToolTipBG" fill="#ffffe1" stroke="black" x="0" y="0" width="30" height="8"/><text xml:space="preserve" id="ToolTipText" fill="black" x="0" y="0" width="30" height="8">tooltip</text></g></g></svg>
