<?xml version="1.0" encoding="UTF-8" standalone="no"?>
<!-- Created with Inkscape (http://www.inkscape.org/) -->

<svg
   xmlns:dc="http://purl.org/dc/elements/1.1/"
   xmlns:cc="http://creativecommons.org/ns#"
   xmlns:rdf="http://www.w3.org/1999/02/22-rdf-syntax-ns#"
   xmlns:svg="http://www.w3.org/2000/svg"
   xmlns="http://www.w3.org/2000/svg"
   xmlns:sodipodi="http://sodipodi.sourceforge.net/DTD/sodipodi-0.dtd"
   xmlns:inkscape="http://www.inkscape.org/namespaces/inkscape"
   width="353.22018"
   height="352.15231"
   id="svg2"
   version="1.1"
   inkscape:version="0.48.4 r9939"
   sodipodi:docname="logo.svg">
  <defs
     id="defs4" />
  <sodipodi:namedview
     id="base"
     pagecolor="#ffffff"
     bordercolor="#666666"
     borderopacity="1.0"
     inkscape:pageopacity="0.0"
     inkscape:pageshadow="2"
     inkscape:zoom="1.4"
     inkscape:cx="0.094160771"
     inkscape:cy="62.738946"
     inkscape:document-units="px"
     inkscape:current-layer="layer1"
     showgrid="false"
     inkscape:window-width="1920"
     inkscape:window-height="1056"
     inkscape:window-x="1440"
     inkscape:window-y="0"
     inkscape:window-maximized="1"
     fit-margin-top="0"
     fit-margin-left="0"
     fit-margin-right="0"
     fit-margin-bottom="0" />
  <metadata
     id="metadata7">
    <rdf:RDF>
      <cc:Work
         rdf:about="">
        <dc:format>image/svg+xml</dc:format>
        <dc:type
           rdf:resource="http://purl.org/dc/dcmitype/StillImage" />
      </cc:Work>
    </rdf:RDF>
  </metadata>
  <g
     inkscape:label="Calque 1"
     inkscape:groupmode="layer"
     id="layer1"
     transform="translate(-130.85884,-251.38968)">
    <path
       style="fill:#ff00ff"
       d="m 251.97652,306.38968 0,-55 55,0 55,0 0,55 0,55 -55,0 -55,0 0,-55 z"
       id="path3019"
       inkscape:connector-curvature="0" />
    <path
       style="fill:#0066ff"
       d="m 130.92049,548.542 0,-55 55,0 55,0 0,55 0,55 -55,0 -55,0 0,-55 z"
       id="path3021"
       inkscape:connector-curvature="0" />
    <path
       style="fill:#ff6600"
       d="m 373.00758,306.38968 0,-55 55,0 55,0 0,55 0,55 -55,0 -55,0 0,-55 z"
       id="path3023"
       inkscape:connector-curvature="0" />
    <path
       style="fill:#ffcc00"
       d="m 373.00758,427.70611 0,-55 55,0 55,0 0,55 0,55 -55,0 -55,0 0,-55 z"
       id="path3025"
       inkscape:connector-curvature="0" />
    <path
       style="fill:#aad400"
       d="m 374.07901,548.542 0,-55 55,0 55,0 0,55 0,55 -55,0 -55,0 0,-55 z"
       id="path3027"
       inkscape:connector-curvature="0" />
    <path
       style="fill:#dc143c;fill-opacity:1"
       d="m 130.85884,306.38968 0,-55 55,0 55,0 0,55 0,55 -55,0 -55,0 0,-55 z"
       id="path3029-3"
       inkscape:connector-curvature="0" />
    <path
       style="fill:#4400aa"
       d="m 130.85916,427.70611 0,-55 55,0 55,0 0,55 0,55 -55,0 -55,0 0,-55 z"
       id="path3021-0"
       inkscape:connector-curvature="0" />
    <path
       style="fill:#008033"
       d="m 252.49974,548.542 0,-55 55,0 55,0 0,55 0,55 -55,0 -55,0 0,-55 z"
       id="path3027-9"
       inkscape:connector-curvature="0" />
  </g>
</svg>
