<?xml version="1.0" encoding="UTF-8" standalone="no"?>
<!-- Created with Inkscape (http://www.inkscape.org/) -->

<svg
   xmlns:dc="http://purl.org/dc/elements/1.1/"
   xmlns:cc="http://creativecommons.org/ns#"
   xmlns:rdf="http://www.w3.org/1999/02/22-rdf-syntax-ns#"
   xmlns:svg="http://www.w3.org/2000/svg"
   xmlns="http://www.w3.org/2000/svg"
   xmlns:sodipodi="http://sodipodi.sourceforge.net/DTD/sodipodi-0.dtd"
   xmlns:inkscape="http://www.inkscape.org/namespaces/inkscape"
   width="1814.5275"
   height="1814.5275"
   id="svg3768"
   version="1.1"
   inkscape:version="0.48.4 r9939"
   sodipodi:docname="6mm.svg">
  <defs
     id="defs3770" />
  <sodipodi:namedview
     id="base"
     pagecolor="#ffffff"
     bordercolor="#666666"
     borderopacity="1.0"
     inkscape:pageopacity="0.0"
     inkscape:pageshadow="2"
     inkscape:zoom="0.49497475"
     inkscape:cx="1162.7675"
     inkscape:cy="1388.1849"
     inkscape:document-units="mm"
     inkscape:current-layer="layer1"
     showgrid="false"
     units="mm"
     inkscape:window-width="1920"
     inkscape:window-height="1056"
     inkscape:window-x="1440"
     inkscape:window-y="0"
     inkscape:window-maximized="1"
     fit-margin-top="0"
     fit-margin-left="0"
     fit-margin-right="0"
     fit-margin-bottom="0" />
  <metadata
     id="metadata3773">
    <rdf:RDF>
      <cc:Work
         rdf:about="">
        <dc:format>image/svg+xml</dc:format>
        <dc:type
           rdf:resource="http://purl.org/dc/dcmitype/StillImage" />
        <dc:title></dc:title>
      </cc:Work>
    </rdf:RDF>
  </metadata>
  <g
     inkscape:label="Calque 1"
     inkscape:groupmode="layer"
     id="layer1"
     transform="translate(-195.59338,998.42735)">
    <path
       style="fill:none;stroke:#ff0000;stroke-width:0.35433072;stroke-miterlimit:4;stroke-dasharray:none"
       d="m 566.04613,373.30492 c 0,-1.46767 -1.18981,-2.65748 -2.65748,-2.65748 -1.46767,0 -2.65748,1.18981 -2.65748,2.65748 0,1.46771 1.18981,2.65749 2.65748,2.65749 1.46767,0 2.65748,-1.18978 2.65748,-2.65749 z"
       id="path5479"
       inkscape:connector-curvature="0" />
    <path
       style="fill:none;stroke:#ff0000;stroke-width:0.35433072;stroke-miterlimit:4;stroke-dasharray:none"
       d="m 1510.928,-217.24629 c 0,-1.46771 -1.1898,-2.65748 -2.6575,-2.65748 -1.4677,0 -2.6575,1.18977 -2.6575,2.65748 0,1.46767 1.1898,2.65748 2.6575,2.65748 1.4677,0 2.6575,-1.18981 2.6575,-2.65748 z"
       id="path5477"
       inkscape:connector-curvature="0" />
    <path
       style="fill:none;stroke:#ff0000;stroke-width:0.35433072;stroke-miterlimit:4;stroke-dasharray:none"
       d="m 802.26661,18.97419 c 0,-1.467709 -1.18977,-2.657481 -2.65748,-2.657481 -1.46767,0 -2.65748,1.189772 -2.65748,2.657481 0,1.467673 1.18981,2.65748 2.65748,2.65748 1.46771,0 2.65748,-1.189807 2.65748,-2.65748 z"
       id="path5475"
       inkscape:connector-curvature="0" />
    <path
       style="fill:none;stroke:#ff0000;stroke-width:0.35433072;stroke-miterlimit:4;stroke-dasharray:none"
       d="m 1156.5973,-335.35648 c 0,-1.46767 -1.1898,-2.65748 -2.6575,-2.65748 -1.4677,0 -2.6575,1.18981 -2.6575,2.65748 0,1.46771 1.1898,2.65749 2.6575,2.65749 1.4677,0 2.6575,-1.18978 2.6575,-2.65749 z"
       id="path5473"
       inkscape:connector-curvature="0" />
    <path
       style="fill:none;stroke:#ff0000;stroke-width:0.35433072;stroke-miterlimit:4;stroke-dasharray:none"
       d="m 1392.8178,-217.24629 c 0,-1.46771 -1.1898,-2.65748 -2.6575,-2.65748 -1.4677,0 -2.6575,1.18977 -2.6575,2.65748 0,1.46767 1.1898,2.65748 2.6575,2.65748 1.4677,0 2.6575,-1.18981 2.6575,-2.65748 z"
       id="path5471"
       inkscape:connector-curvature="0" />
    <path
       style="fill:none;stroke:#ff0000;stroke-width:0.35433072;stroke-miterlimit:4;stroke-dasharray:none"
       d="m 429.62881,-746.67539 0,-177.16535 53.14961,0 0,177.16535 z"
       id="path5469"
       inkscape:connector-curvature="0" />
    <path
       style="fill:none;stroke:#ff0000;stroke-width:0.35433072;stroke-miterlimit:4;stroke-dasharray:none"
       d="m 1629.0382,255.19467 c 0,-1.46768 -1.1898,-2.65748 -2.6574,-2.65748 -1.4677,0 -2.6575,1.1898 -2.6575,2.65748 0,1.46767 1.1898,2.65748 2.6575,2.65748 1.4676,0 2.6574,-1.18981 2.6574,-2.65748 z"
       id="path5467"
       inkscape:connector-curvature="0" />
    <path
       style="fill:none;stroke:#ff0000;stroke-width:0.35433072;stroke-miterlimit:4;stroke-dasharray:none"
       d="m 1865.2587,255.19467 c 0,-1.46768 -1.1898,-2.65748 -2.6575,-2.65748 -1.4677,0 -2.6575,1.1898 -2.6575,2.65748 0,1.46767 1.1898,2.65748 2.6575,2.65748 1.4677,0 2.6575,-1.18981 2.6575,-2.65748 z"
       id="path5465"
       inkscape:connector-curvature="0" />
    <path
       style="fill:none;stroke:#ff0000;stroke-width:0.35433072;stroke-miterlimit:4;stroke-dasharray:none"
       d="m 1865.2587,18.97419 c 0,-1.467709 -1.1898,-2.657481 -2.6575,-2.657481 -1.4677,0 -2.6575,1.189772 -2.6575,2.657481 0,1.467673 1.1898,2.65748 2.6575,2.65748 1.4677,0 2.6575,-1.189807 2.6575,-2.65748 z"
       id="path5463"
       inkscape:connector-curvature="0" />
    <path
       style="fill:none;stroke:#ff0000;stroke-width:0.35433072;stroke-miterlimit:4;stroke-dasharray:none"
       d="m 1908.9595,697.22222 c 0,-9.78458 -7.932,-17.71654 -17.7166,-17.71654 -9.7845,0 -17.7165,7.93196 -17.7165,17.71654 0,9.78457 7.932,17.71653 17.7165,17.71653 9.7846,0 17.7166,-7.93196 17.7166,-17.71653 z"
       id="path5461"
       inkscape:connector-curvature="0" />
    <path
       style="fill:none;stroke:#ff0000;stroke-width:0.35433072;stroke-miterlimit:4;stroke-dasharray:none"
       d="m 1747.1485,-217.24629 c 0,-1.46771 -1.1898,-2.65748 -2.6575,-2.65748 -1.4677,0 -2.6575,1.18977 -2.6575,2.65748 0,1.46767 1.1898,2.65748 2.6575,2.65748 1.4677,0 2.6575,-1.18981 2.6575,-2.65748 z"
       id="path5459"
       inkscape:connector-curvature="0" />
    <path
       style="fill:none;stroke:#ff0000;stroke-width:0.35433072;stroke-miterlimit:4;stroke-dasharray:none"
       d="m 1865.2587,-453.46673 c 0,-1.46768 -1.1898,-2.65748 -2.6575,-2.65748 -1.4677,0 -2.6575,1.1898 -2.6575,2.65748 0,1.46767 1.1898,2.65748 2.6575,2.65748 1.4677,0 2.6575,-1.18981 2.6575,-2.65748 z"
       id="path5457"
       inkscape:connector-curvature="0" />
    <path
       style="fill:none;stroke:#ff0000;stroke-width:0.35433072;stroke-miterlimit:4;stroke-dasharray:none"
       d="m 1747.1485,-335.35648 c 0,-1.46767 -1.1898,-2.65748 -2.6575,-2.65748 -1.4677,0 -2.6575,1.18981 -2.6575,2.65748 0,1.46771 1.1898,2.65749 2.6575,2.65749 1.4677,0 2.6575,-1.18978 2.6575,-2.65749 z"
       id="path5455"
       inkscape:connector-curvature="0" />
    <path
       style="fill:none;stroke:#ff0000;stroke-width:0.35433072;stroke-miterlimit:4;stroke-dasharray:none"
       d="m 1722.9359,-746.67539 53.1496,0 0,-177.16535 -53.1496,0 z"
       id="path5453"
       inkscape:connector-curvature="0" />
    <path
       style="fill:none;stroke:#ff0000;stroke-width:0.35433072;stroke-miterlimit:4;stroke-dasharray:none"
       d="m 1908.9595,-879.5494 c 0,-9.78456 -7.932,-17.71653 -17.7166,-17.71653 -9.7845,0 -17.7165,7.93197 -17.7165,17.71653 0,9.78456 7.932,17.71654 17.7165,17.71654 9.7846,0 17.7166,-7.93198 17.7166,-17.71654 z"
       id="path5451"
       inkscape:connector-curvature="0" />
    <path
       style="fill:none;stroke:#ff0000;stroke-width:0.35433072;stroke-miterlimit:4;stroke-dasharray:none"
       d="m 332.18787,-879.5494 c 0,-9.78456 -7.93196,-17.71653 -17.71654,-17.71653 -9.78457,0 -17.71653,7.93197 -17.71653,17.71653 0,9.78456 7.93196,17.71654 17.71653,17.71654 9.78458,0 17.71654,-7.93198 17.71654,-17.71654 z"
       id="path5449"
       inkscape:connector-curvature="0" />
    <path
       style="fill:none;stroke:#ff0000;stroke-width:0.35433072;stroke-miterlimit:4;stroke-dasharray:none"
       d="m 332.18787,697.22222 c 0,-9.78458 -7.93196,-17.71654 -17.71654,-17.71654 -9.78457,0 -17.71653,7.93196 -17.71653,17.71654 0,9.78457 7.93196,17.71653 17.71653,17.71653 9.78458,0 17.71654,-7.93196 17.71654,-17.71653 z"
       id="path5447"
       inkscape:connector-curvature="0" />
    <path
       style="fill:none;stroke:#ff0000;stroke-width:0.35433072;stroke-miterlimit:4;stroke-dasharray:none"
       d="m 429.62881,741.51355 0,-177.16535 53.14961,0 0,177.16535 z"
       id="path5445"
       inkscape:connector-curvature="0" />
    <path
       style="fill:none;stroke:#ff0000;stroke-width:0.35433072;stroke-miterlimit:4;stroke-dasharray:none"
       d="m 1722.9359,564.3482 0,177.16535 53.1496,0 0,-177.16535 z"
       id="path5443"
       inkscape:connector-curvature="0" />
    <path
       style="fill:none;stroke:#ff0000;stroke-width:0.35433072;stroke-miterlimit:4;stroke-dasharray:none"
       d="m 329.82566,-571.57699 c 0,-1.46771 -1.18979,-2.65748 -2.65748,-2.65748 -1.46769,0 -2.65748,1.18977 -2.65748,2.65748 0,1.46767 1.18979,2.65748 2.65748,2.65748 1.46769,0 2.65748,-1.18981 2.65748,-2.65748 z"
       id="path5441"
       inkscape:connector-curvature="0" />
    <path
       style="fill:none;stroke:#ff0000;stroke-width:0.35433072;stroke-miterlimit:4;stroke-dasharray:none"
       d="m 329.82566,-99.136032 c 0,-1.467678 -1.18979,-2.657478 -2.65748,-2.657478 -1.46769,0 -2.65748,1.1898 -2.65748,2.657478 0,1.467673 1.18979,2.65748 2.65748,2.65748 1.46769,0 2.65748,-1.189807 2.65748,-2.65748 z"
       id="path5439"
       inkscape:connector-curvature="0" />
    <path
       style="fill:none;stroke:#ff0000;stroke-width:0.35433072;stroke-miterlimit:4;stroke-dasharray:none"
       d="m 329.82566,-217.24629 c 0,-1.46771 -1.18979,-2.65748 -2.65748,-2.65748 -1.46769,0 -2.65748,1.18977 -2.65748,2.65748 0,1.46767 1.18979,2.65748 2.65748,2.65748 1.46769,0 2.65748,-1.18981 2.65748,-2.65748 z"
       id="path5437"
       inkscape:connector-curvature="0" />
    <path
       style="fill:none;stroke:#ff0000;stroke-width:0.35433072;stroke-miterlimit:4;stroke-dasharray:none"
       d="m 329.82566,-335.35648 c 0,-1.46767 -1.18979,-2.65748 -2.65748,-2.65748 -1.46769,0 -2.65748,1.18981 -2.65748,2.65748 0,1.46771 1.18979,2.65749 2.65748,2.65749 1.46769,0 2.65748,-1.18978 2.65748,-2.65749 z"
       id="path5435"
       inkscape:connector-curvature="0" />
    <path
       style="fill:none;stroke:#ff0000;stroke-width:0.35433072;stroke-miterlimit:4;stroke-dasharray:none"
       d="m 329.82566,-453.46673 c 0,-1.46768 -1.18979,-2.65748 -2.65748,-2.65748 -1.46769,0 -2.65748,1.1898 -2.65748,2.65748 0,1.46767 1.18979,2.65748 2.65748,2.65748 1.46769,0 2.65748,-1.18981 2.65748,-2.65748 z"
       id="path5433"
       inkscape:connector-curvature="0" />
    <path
       style="fill:none;stroke:#ff0000;stroke-width:0.35433072;stroke-miterlimit:4;stroke-dasharray:none"
       d="m 329.82566,18.97419 c 0,-1.467709 -1.18979,-2.657481 -2.65748,-2.657481 -1.46769,0 -2.65748,1.189772 -2.65748,2.657481 0,1.467673 1.18979,2.65748 2.65748,2.65748 1.46769,0 2.65748,-1.189807 2.65748,-2.65748 z"
       id="path5431"
       inkscape:connector-curvature="0" />
    <path
       style="fill:none;stroke:#ff0000;stroke-width:0.35433072;stroke-miterlimit:4;stroke-dasharray:none"
       d="m 329.82566,255.19467 c 0,-1.46768 -1.18979,-2.65748 -2.65748,-2.65748 -1.46769,0 -2.65748,1.1898 -2.65748,2.65748 0,1.46767 1.18979,2.65748 2.65748,2.65748 1.46769,0 2.65748,-1.18981 2.65748,-2.65748 z"
       id="path5429"
       inkscape:connector-curvature="0" />
    <path
       style="fill:none;stroke:#ff0000;stroke-width:0.35433072;stroke-miterlimit:4;stroke-dasharray:none"
       d="m 329.82566,137.08445 c 0,-1.46768 -1.18979,-2.65748 -2.65748,-2.65748 -1.46769,0 -2.65748,1.1898 -2.65748,2.65748 0,1.46771 1.18979,2.65748 2.65748,2.65748 1.46769,0 2.65748,-1.18977 2.65748,-2.65748 z"
       id="path5427"
       inkscape:connector-curvature="0" />
    <path
       style="fill:none;stroke:#ff0000;stroke-width:0.35433072;stroke-miterlimit:4;stroke-dasharray:none"
       d="m 329.82566,491.41513 c 0,-1.46769 -1.18979,-2.65748 -2.65748,-2.65748 -1.46769,0 -2.65748,1.18979 -2.65748,2.65748 0,1.46768 1.18979,2.65748 2.65748,2.65748 1.46769,0 2.65748,-1.1898 2.65748,-2.65748 z"
       id="path5425"
       inkscape:connector-curvature="0" />
    <path
       style="fill:none;stroke:#ff0000;stroke-width:0.35433072;stroke-miterlimit:4;stroke-dasharray:none"
       d="m 329.82566,373.30492 c 0,-1.46767 -1.18979,-2.65748 -2.65748,-2.65748 -1.46769,0 -2.65748,1.18981 -2.65748,2.65748 0,1.46771 1.18979,2.65749 2.65748,2.65749 1.46769,0 2.65748,-1.18978 2.65748,-2.65749 z"
       id="path5423"
       inkscape:connector-curvature="0" />
    <path
       style="fill:none;stroke:#ff0000;stroke-width:0.35433072;stroke-miterlimit:4;stroke-dasharray:none"
       d="m 447.93589,-571.57699 c 0,-1.46771 -1.18979,-2.65748 -2.65748,-2.65748 -1.46769,0 -2.65748,1.18977 -2.65748,2.65748 0,1.46767 1.18979,2.65748 2.65748,2.65748 1.46769,0 2.65748,-1.18981 2.65748,-2.65748 z"
       id="path5421"
       inkscape:connector-curvature="0" />
    <path
       style="fill:none;stroke:#ff0000;stroke-width:0.35433072;stroke-miterlimit:4;stroke-dasharray:none"
       d="m 566.04613,-571.57699 c 0,-1.46771 -1.18981,-2.65748 -2.65748,-2.65748 -1.46767,0 -2.65748,1.18977 -2.65748,2.65748 0,1.46767 1.18981,2.65748 2.65748,2.65748 1.46767,0 2.65748,-1.18981 2.65748,-2.65748 z"
       id="path5419"
       inkscape:connector-curvature="0" />
    <path
       style="fill:none;stroke:#ff0000;stroke-width:0.35433072;stroke-miterlimit:4;stroke-dasharray:none"
       d="m 566.04613,-335.35648 c 0,-1.46767 -1.18981,-2.65748 -2.65748,-2.65748 -1.46767,0 -2.65748,1.18981 -2.65748,2.65748 0,1.46771 1.18981,2.65749 2.65748,2.65749 1.46767,0 2.65748,-1.18978 2.65748,-2.65749 z"
       id="path5417"
       inkscape:connector-curvature="0" />
    <path
       style="fill:none;stroke:#ff0000;stroke-width:0.35433072;stroke-miterlimit:4;stroke-dasharray:none"
       d="m 447.93589,-335.35648 c 0,-1.46767 -1.18979,-2.65748 -2.65748,-2.65748 -1.46769,0 -2.65748,1.18981 -2.65748,2.65748 0,1.46771 1.18979,2.65749 2.65748,2.65749 1.46769,0 2.65748,-1.18978 2.65748,-2.65749 z"
       id="path5415"
       inkscape:connector-curvature="0" />
    <path
       style="fill:none;stroke:#ff0000;stroke-width:0.35433072;stroke-miterlimit:4;stroke-dasharray:none"
       d="m 447.93589,-453.46673 c 0,-1.46768 -1.18979,-2.65748 -2.65748,-2.65748 -1.46769,0 -2.65748,1.1898 -2.65748,2.65748 0,1.46767 1.18979,2.65748 2.65748,2.65748 1.46769,0 2.65748,-1.18981 2.65748,-2.65748 z"
       id="path5413"
       inkscape:connector-curvature="0" />
    <path
       style="fill:none;stroke:#ff0000;stroke-width:0.35433072;stroke-miterlimit:4;stroke-dasharray:none"
       d="m 566.04613,-453.46673 c 0,-1.46768 -1.18981,-2.65748 -2.65748,-2.65748 -1.46767,0 -2.65748,1.1898 -2.65748,2.65748 0,1.46767 1.18981,2.65748 2.65748,2.65748 1.46767,0 2.65748,-1.18981 2.65748,-2.65748 z"
       id="path5411"
       inkscape:connector-curvature="0" />
    <path
       style="fill:none;stroke:#ff0000;stroke-width:0.35433072;stroke-miterlimit:4;stroke-dasharray:none"
       d="m 447.93589,-99.136032 c 0,-1.467678 -1.18979,-2.657478 -2.65748,-2.657478 -1.46769,0 -2.65748,1.1898 -2.65748,2.657478 0,1.467673 1.18979,2.65748 2.65748,2.65748 1.46769,0 2.65748,-1.189807 2.65748,-2.65748 z"
       id="path5409"
       inkscape:connector-curvature="0" />
    <path
       style="fill:none;stroke:#ff0000;stroke-width:0.35433072;stroke-miterlimit:4;stroke-dasharray:none"
       d="m 566.04613,-99.136032 c 0,-1.467678 -1.18981,-2.657478 -2.65748,-2.657478 -1.46767,0 -2.65748,1.1898 -2.65748,2.657478 0,1.467673 1.18981,2.65748 2.65748,2.65748 1.46767,0 2.65748,-1.189807 2.65748,-2.65748 z"
       id="path5407"
       inkscape:connector-curvature="0" />
    <path
       style="fill:none;stroke:#ff0000;stroke-width:0.35433072;stroke-miterlimit:4;stroke-dasharray:none"
       d="m 447.93589,-217.24629 c 0,-1.46771 -1.18979,-2.65748 -2.65748,-2.65748 -1.46769,0 -2.65748,1.18977 -2.65748,2.65748 0,1.46767 1.18979,2.65748 2.65748,2.65748 1.46769,0 2.65748,-1.18981 2.65748,-2.65748 z"
       id="path5405"
       inkscape:connector-curvature="0" />
    <path
       style="fill:none;stroke:#ff0000;stroke-width:0.35433072;stroke-miterlimit:4;stroke-dasharray:none"
       d="m 566.04613,-217.24629 c 0,-1.46771 -1.18981,-2.65748 -2.65748,-2.65748 -1.46767,0 -2.65748,1.18977 -2.65748,2.65748 0,1.46767 1.18981,2.65748 2.65748,2.65748 1.46767,0 2.65748,-1.18981 2.65748,-2.65748 z"
       id="path5403"
       inkscape:connector-curvature="0" />
    <path
       style="fill:none;stroke:#ff0000;stroke-width:0.35433072;stroke-miterlimit:4;stroke-dasharray:none"
       d="m 447.93589,373.30492 c 0,-1.46767 -1.18979,-2.65748 -2.65748,-2.65748 -1.46769,0 -2.65748,1.18981 -2.65748,2.65748 0,1.46771 1.18979,2.65749 2.65748,2.65749 1.46769,0 2.65748,-1.18978 2.65748,-2.65749 z"
       id="path5401"
       inkscape:connector-curvature="0" />
    <path
       style="fill:none;stroke:#ff0000;stroke-width:0.35433072;stroke-miterlimit:4;stroke-dasharray:none"
       d="m 447.93589,491.41513 c 0,-1.46769 -1.18979,-2.65748 -2.65748,-2.65748 -1.46769,0 -2.65748,1.18979 -2.65748,2.65748 0,1.46768 1.18979,2.65748 2.65748,2.65748 1.46769,0 2.65748,-1.1898 2.65748,-2.65748 z"
       id="path5399"
       inkscape:connector-curvature="0" />
    <path
       style="fill:none;stroke:#ff0000;stroke-width:0.35433072;stroke-miterlimit:4;stroke-dasharray:none"
       d="m 566.04613,491.41513 c 0,-1.46769 -1.18981,-2.65748 -2.65748,-2.65748 -1.46767,0 -2.65748,1.18979 -2.65748,2.65748 0,1.46768 1.18981,2.65748 2.65748,2.65748 1.46767,0 2.65748,-1.1898 2.65748,-2.65748 z"
       id="path5397"
       inkscape:connector-curvature="0" />
    <path
       style="fill:none;stroke:#ff0000;stroke-width:0.35433072;stroke-miterlimit:4;stroke-dasharray:none"
       d="m 566.04613,255.19467 c 0,-1.46768 -1.18981,-2.65748 -2.65748,-2.65748 -1.46767,0 -2.65748,1.1898 -2.65748,2.65748 0,1.46767 1.18981,2.65748 2.65748,2.65748 1.46767,0 2.65748,-1.18981 2.65748,-2.65748 z"
       id="path5395"
       inkscape:connector-curvature="0" />
    <path
       style="fill:none;stroke:#ff0000;stroke-width:0.35433072;stroke-miterlimit:4;stroke-dasharray:none"
       d="m 447.93589,255.19467 c 0,-1.46768 -1.18979,-2.65748 -2.65748,-2.65748 -1.46769,0 -2.65748,1.1898 -2.65748,2.65748 0,1.46767 1.18979,2.65748 2.65748,2.65748 1.46769,0 2.65748,-1.18981 2.65748,-2.65748 z"
       id="path5393"
       inkscape:connector-curvature="0" />
    <path
       style="fill:none;stroke:#ff0000;stroke-width:0.35433072;stroke-miterlimit:4;stroke-dasharray:none"
       d="m 447.93589,137.08445 c 0,-1.46768 -1.18979,-2.65748 -2.65748,-2.65748 -1.46769,0 -2.65748,1.1898 -2.65748,2.65748 0,1.46771 1.18979,2.65748 2.65748,2.65748 1.46769,0 2.65748,-1.18977 2.65748,-2.65748 z"
       id="path5391"
       inkscape:connector-curvature="0" />
    <path
       style="fill:none;stroke:#ff0000;stroke-width:0.35433072;stroke-miterlimit:4;stroke-dasharray:none"
       d="m 566.04613,137.08445 c 0,-1.46768 -1.18981,-2.65748 -2.65748,-2.65748 -1.46767,0 -2.65748,1.1898 -2.65748,2.65748 0,1.46771 1.18981,2.65748 2.65748,2.65748 1.46767,0 2.65748,-1.18977 2.65748,-2.65748 z"
       id="path5389"
       inkscape:connector-curvature="0" />
    <path
       style="fill:none;stroke:#ff0000;stroke-width:0.35433072;stroke-miterlimit:4;stroke-dasharray:none"
       d="m 566.04613,18.97419 c 0,-1.467709 -1.18981,-2.657481 -2.65748,-2.657481 -1.46767,0 -2.65748,1.189772 -2.65748,2.657481 0,1.467673 1.18981,2.65748 2.65748,2.65748 1.46767,0 2.65748,-1.189807 2.65748,-2.65748 z"
       id="path5387"
       inkscape:connector-curvature="0" />
    <path
       style="fill:none;stroke:#ff0000;stroke-width:0.35433072;stroke-miterlimit:4;stroke-dasharray:none"
       d="m 447.93589,18.97419 c 0,-1.467709 -1.18979,-2.657481 -2.65748,-2.657481 -1.46769,0 -2.65748,1.189772 -2.65748,2.657481 0,1.467673 1.18979,2.65748 2.65748,2.65748 1.46769,0 2.65748,-1.189807 2.65748,-2.65748 z"
       id="path5385"
       inkscape:connector-curvature="0" />
    <path
       style="fill:none;stroke:#ff0000;stroke-width:0.35433072;stroke-miterlimit:4;stroke-dasharray:none"
       d="m 1629.0382,-571.57699 c 0,-1.46771 -1.1898,-2.65748 -2.6574,-2.65748 -1.4677,0 -2.6575,1.18977 -2.6575,2.65748 0,1.46767 1.1898,2.65748 2.6575,2.65748 1.4676,0 2.6574,-1.18981 2.6574,-2.65748 z"
       id="path5383"
       inkscape:connector-curvature="0" />
    <path
       style="fill:none;stroke:#ff0000;stroke-width:0.35433072;stroke-miterlimit:4;stroke-dasharray:none"
       d="m 1747.1485,-571.57699 c 0,-1.46771 -1.1898,-2.65748 -2.6575,-2.65748 -1.4677,0 -2.6575,1.18977 -2.6575,2.65748 0,1.46767 1.1898,2.65748 2.6575,2.65748 1.4677,0 2.6575,-1.18981 2.6575,-2.65748 z"
       id="path5381"
       inkscape:connector-curvature="0" />
    <path
       style="fill:none;stroke:#ff0000;stroke-width:0.35433072;stroke-miterlimit:4;stroke-dasharray:none"
       d="m 1865.2587,-571.57699 c 0,-1.46771 -1.1898,-2.65748 -2.6575,-2.65748 -1.4677,0 -2.6575,1.18977 -2.6575,2.65748 0,1.46767 1.1898,2.65748 2.6575,2.65748 1.4677,0 2.6575,-1.18981 2.6575,-2.65748 z"
       id="path5379"
       inkscape:connector-curvature="0" />
    <path
       style="fill:none;stroke:#ff0000;stroke-width:0.35433072;stroke-miterlimit:4;stroke-dasharray:none"
       d="m 1038.4871,-571.57699 c 0,-1.46771 -1.1899,-2.65748 -2.6575,-2.65748 -1.4677,0 -2.6575,1.18977 -2.6575,2.65748 0,1.46767 1.1898,2.65748 2.6575,2.65748 1.4676,0 2.6575,-1.18981 2.6575,-2.65748 z"
       id="path5377"
       inkscape:connector-curvature="0" />
    <path
       style="fill:none;stroke:#ff0000;stroke-width:0.35433072;stroke-miterlimit:4;stroke-dasharray:none"
       d="m 920.37683,-571.57699 c 0,-1.46771 -1.18981,-2.65748 -2.65748,-2.65748 -1.46767,0 -2.65748,1.18977 -2.65748,2.65748 0,1.46767 1.18981,2.65748 2.65748,2.65748 1.46767,0 2.65748,-1.18981 2.65748,-2.65748 z"
       id="path5375"
       inkscape:connector-curvature="0" />
    <path
       style="fill:none;stroke:#ff0000;stroke-width:0.35433072;stroke-miterlimit:4;stroke-dasharray:none"
       d="m 802.26661,-571.57699 c 0,-1.46771 -1.18977,-2.65748 -2.65748,-2.65748 -1.46767,0 -2.65748,1.18977 -2.65748,2.65748 0,1.46767 1.18981,2.65748 2.65748,2.65748 1.46771,0 2.65748,-1.18981 2.65748,-2.65748 z"
       id="path5373"
       inkscape:connector-curvature="0" />
    <path
       style="fill:none;stroke:#ff0000;stroke-width:0.35433072;stroke-miterlimit:4;stroke-dasharray:none"
       d="m 684.15635,-571.57699 c 0,-1.46771 -1.1898,-2.65748 -2.65748,-2.65748 -1.46771,0 -2.65748,1.18977 -2.65748,2.65748 0,1.46767 1.18977,2.65748 2.65748,2.65748 1.46768,0 2.65748,-1.18981 2.65748,-2.65748 z"
       id="path5371"
       inkscape:connector-curvature="0" />
    <path
       style="fill:none;stroke:#ff0000;stroke-width:0.35433072;stroke-miterlimit:4;stroke-dasharray:none"
       d="m 1274.7075,-571.57699 c 0,-1.46771 -1.1898,-2.65748 -2.6574,-2.65748 -1.4677,0 -2.6575,1.18977 -2.6575,2.65748 0,1.46767 1.1898,2.65748 2.6575,2.65748 1.4676,0 2.6574,-1.18981 2.6574,-2.65748 z"
       id="path5369"
       inkscape:connector-curvature="0" />
    <path
       style="fill:none;stroke:#ff0000;stroke-width:0.35433072;stroke-miterlimit:4;stroke-dasharray:none"
       d="m 1156.5973,-571.57699 c 0,-1.46771 -1.1898,-2.65748 -2.6575,-2.65748 -1.4677,0 -2.6575,1.18977 -2.6575,2.65748 0,1.46767 1.1898,2.65748 2.6575,2.65748 1.4677,0 2.6575,-1.18981 2.6575,-2.65748 z"
       id="path5367"
       inkscape:connector-curvature="0" />
    <path
       style="fill:none;stroke:#ff0000;stroke-width:0.35433072;stroke-miterlimit:4;stroke-dasharray:none"
       d="m 1392.8178,-571.57699 c 0,-1.46771 -1.1898,-2.65748 -2.6575,-2.65748 -1.4677,0 -2.6575,1.18977 -2.6575,2.65748 0,1.46767 1.1898,2.65748 2.6575,2.65748 1.4677,0 2.6575,-1.18981 2.6575,-2.65748 z"
       id="path5365"
       inkscape:connector-curvature="0" />
    <path
       style="fill:none;stroke:#ff0000;stroke-width:0.35433072;stroke-miterlimit:4;stroke-dasharray:none"
       d="m 1510.928,-571.57699 c 0,-1.46771 -1.1898,-2.65748 -2.6575,-2.65748 -1.4677,0 -2.6575,1.18977 -2.6575,2.65748 0,1.46767 1.1898,2.65748 2.6575,2.65748 1.4677,0 2.6575,-1.18981 2.6575,-2.65748 z"
       id="path5363"
       inkscape:connector-curvature="0" />
    <path
       style="fill:none;stroke:#ff0000;stroke-width:0.35433072;stroke-miterlimit:4;stroke-dasharray:none"
       d="m 684.15635,-453.46673 c 0,-1.46768 -1.1898,-2.65748 -2.65748,-2.65748 -1.46771,0 -2.65748,1.1898 -2.65748,2.65748 0,1.46767 1.18977,2.65748 2.65748,2.65748 1.46768,0 2.65748,-1.18981 2.65748,-2.65748 z"
       id="path5361"
       inkscape:connector-curvature="0" />
    <path
       style="fill:none;stroke:#ff0000;stroke-width:0.35433072;stroke-miterlimit:4;stroke-dasharray:none"
       d="m 802.26661,-453.46673 c 0,-1.46768 -1.18977,-2.65748 -2.65748,-2.65748 -1.46767,0 -2.65748,1.1898 -2.65748,2.65748 0,1.46767 1.18981,2.65748 2.65748,2.65748 1.46771,0 2.65748,-1.18981 2.65748,-2.65748 z"
       id="path5359"
       inkscape:connector-curvature="0" />
    <path
       style="fill:none;stroke:#ff0000;stroke-width:0.35433072;stroke-miterlimit:4;stroke-dasharray:none"
       d="m 1747.1485,-453.46673 c 0,-1.46768 -1.1898,-2.65748 -2.6575,-2.65748 -1.4677,0 -2.6575,1.1898 -2.6575,2.65748 0,1.46767 1.1898,2.65748 2.6575,2.65748 1.4677,0 2.6575,-1.18981 2.6575,-2.65748 z"
       id="path5357"
       inkscape:connector-curvature="0" />
    <path
       style="fill:none;stroke:#ff0000;stroke-width:0.35433072;stroke-miterlimit:4;stroke-dasharray:none"
       d="m 1629.0382,-453.46673 c 0,-1.46768 -1.1898,-2.65748 -2.6574,-2.65748 -1.4677,0 -2.6575,1.1898 -2.6575,2.65748 0,1.46767 1.1898,2.65748 2.6575,2.65748 1.4676,0 2.6574,-1.18981 2.6574,-2.65748 z"
       id="path5355"
       inkscape:connector-curvature="0" />
    <path
       style="fill:none;stroke:#ff0000;stroke-width:0.35433072;stroke-miterlimit:4;stroke-dasharray:none"
       d="m 1510.928,-453.46673 c 0,-1.46768 -1.1898,-2.65748 -2.6575,-2.65748 -1.4677,0 -2.6575,1.1898 -2.6575,2.65748 0,1.46767 1.1898,2.65748 2.6575,2.65748 1.4677,0 2.6575,-1.18981 2.6575,-2.65748 z"
       id="path5353"
       inkscape:connector-curvature="0" />
    <path
       style="fill:none;stroke:#ff0000;stroke-width:0.35433072;stroke-miterlimit:4;stroke-dasharray:none"
       d="m 1274.7075,-453.46673 c 0,-1.46768 -1.1898,-2.65748 -2.6574,-2.65748 -1.4677,0 -2.6575,1.1898 -2.6575,2.65748 0,1.46767 1.1898,2.65748 2.6575,2.65748 1.4676,0 2.6574,-1.18981 2.6574,-2.65748 z"
       id="path5351"
       inkscape:connector-curvature="0" />
    <path
       style="fill:none;stroke:#ff0000;stroke-width:0.35433072;stroke-miterlimit:4;stroke-dasharray:none"
       d="m 1392.8178,-453.46673 c 0,-1.46768 -1.1898,-2.65748 -2.6575,-2.65748 -1.4677,0 -2.6575,1.1898 -2.6575,2.65748 0,1.46767 1.1898,2.65748 2.6575,2.65748 1.4677,0 2.6575,-1.18981 2.6575,-2.65748 z"
       id="path5349"
       inkscape:connector-curvature="0" />
    <path
       style="fill:none;stroke:#ff0000;stroke-width:0.35433072;stroke-miterlimit:4;stroke-dasharray:none"
       d="m 1156.5973,-453.46673 c 0,-1.46768 -1.1898,-2.65748 -2.6575,-2.65748 -1.4677,0 -2.6575,1.1898 -2.6575,2.65748 0,1.46767 1.1898,2.65748 2.6575,2.65748 1.4677,0 2.6575,-1.18981 2.6575,-2.65748 z"
       id="path5347"
       inkscape:connector-curvature="0" />
    <path
       style="fill:none;stroke:#ff0000;stroke-width:0.35433072;stroke-miterlimit:4;stroke-dasharray:none"
       d="m 1038.4871,-453.46673 c 0,-1.46768 -1.1899,-2.65748 -2.6575,-2.65748 -1.4677,0 -2.6575,1.1898 -2.6575,2.65748 0,1.46767 1.1898,2.65748 2.6575,2.65748 1.4676,0 2.6575,-1.18981 2.6575,-2.65748 z"
       id="path5345"
       inkscape:connector-curvature="0" />
    <path
       style="fill:none;stroke:#ff0000;stroke-width:0.35433072;stroke-miterlimit:4;stroke-dasharray:none"
       d="m 920.37683,-453.46673 c 0,-1.46768 -1.18981,-2.65748 -2.65748,-2.65748 -1.46767,0 -2.65748,1.1898 -2.65748,2.65748 0,1.46767 1.18981,2.65748 2.65748,2.65748 1.46767,0 2.65748,-1.18981 2.65748,-2.65748 z"
       id="path5343"
       inkscape:connector-curvature="0" />
    <path
       style="fill:none;stroke:#ff0000;stroke-width:0.35433072;stroke-miterlimit:4;stroke-dasharray:none"
       d="m 1865.2587,-335.35648 c 0,-1.46767 -1.1898,-2.65748 -2.6575,-2.65748 -1.4677,0 -2.6575,1.18981 -2.6575,2.65748 0,1.46771 1.1898,2.65749 2.6575,2.65749 1.4677,0 2.6575,-1.18978 2.6575,-2.65749 z"
       id="path5341"
       inkscape:connector-curvature="0" />
    <path
       style="fill:none;stroke:#ff0000;stroke-width:0.35433072;stroke-miterlimit:4;stroke-dasharray:none"
       d="m 1865.2587,-217.24629 c 0,-1.46771 -1.1898,-2.65748 -2.6575,-2.65748 -1.4677,0 -2.6575,1.18977 -2.6575,2.65748 0,1.46767 1.1898,2.65748 2.6575,2.65748 1.4677,0 2.6575,-1.18981 2.6575,-2.65748 z"
       id="path5339"
       inkscape:connector-curvature="0" />
    <path
       style="fill:none;stroke:#ff0000;stroke-width:0.35433072;stroke-miterlimit:4;stroke-dasharray:none"
       d="m 1865.2587,137.08445 c 0,-1.46768 -1.1898,-2.65748 -2.6575,-2.65748 -1.4677,0 -2.6575,1.1898 -2.6575,2.65748 0,1.46771 1.1898,2.65748 2.6575,2.65748 1.4677,0 2.6575,-1.18977 2.6575,-2.65748 z"
       id="path5337"
       inkscape:connector-curvature="0" />
    <path
       style="fill:none;stroke:#ff0000;stroke-width:0.35433072;stroke-miterlimit:4;stroke-dasharray:none"
       d="m 1865.2587,-99.136032 c 0,-1.467678 -1.1898,-2.657478 -2.6575,-2.657478 -1.4677,0 -2.6575,1.1898 -2.6575,2.657478 0,1.467673 1.1898,2.65748 2.6575,2.65748 1.4677,0 2.6575,-1.189807 2.6575,-2.65748 z"
       id="path5335"
       inkscape:connector-curvature="0" />
    <path
       style="fill:none;stroke:#ff0000;stroke-width:0.35433072;stroke-miterlimit:4;stroke-dasharray:none"
       d="m 1865.2587,373.30492 c 0,-1.46767 -1.1898,-2.65748 -2.6575,-2.65748 -1.4677,0 -2.6575,1.18981 -2.6575,2.65748 0,1.46771 1.1898,2.65749 2.6575,2.65749 1.4677,0 2.6575,-1.18978 2.6575,-2.65749 z"
       id="path5333"
       inkscape:connector-curvature="0" />
    <path
       style="fill:none;stroke:#ff0000;stroke-width:0.35433072;stroke-miterlimit:4;stroke-dasharray:none"
       d="m 1865.2587,491.41513 c 0,-1.46769 -1.1898,-2.65748 -2.6575,-2.65748 -1.4677,0 -2.6575,1.18979 -2.6575,2.65748 0,1.46768 1.1898,2.65748 2.6575,2.65748 1.4677,0 2.6575,-1.1898 2.6575,-2.65748 z"
       id="path5331"
       inkscape:connector-curvature="0" />
    <path
       style="fill:none;stroke:#ff0000;stroke-width:0.35433072;stroke-miterlimit:4;stroke-dasharray:none"
       d="m 1156.5973,491.41513 c 0,-1.46769 -1.1898,-2.65748 -2.6575,-2.65748 -1.4677,0 -2.6575,1.18979 -2.6575,2.65748 0,1.46768 1.1898,2.65748 2.6575,2.65748 1.4677,0 2.6575,-1.1898 2.6575,-2.65748 z"
       id="path5329"
       inkscape:connector-curvature="0" />
    <path
       style="fill:none;stroke:#ff0000;stroke-width:0.35433072;stroke-miterlimit:4;stroke-dasharray:none"
       d="m 1156.5973,137.08445 c 0,-1.46768 -1.1898,-2.65748 -2.6575,-2.65748 -1.4677,0 -2.6575,1.1898 -2.6575,2.65748 0,1.46771 1.1898,2.65748 2.6575,2.65748 1.4677,0 2.6575,-1.18977 2.6575,-2.65748 z"
       id="path5327"
       inkscape:connector-curvature="0" />
    <path
       style="fill:none;stroke:#ff0000;stroke-width:0.35433072;stroke-miterlimit:4;stroke-dasharray:none"
       d="m 1274.7075,137.08445 c 0,-1.46768 -1.1898,-2.65748 -2.6574,-2.65748 -1.4677,0 -2.6575,1.1898 -2.6575,2.65748 0,1.46771 1.1898,2.65748 2.6575,2.65748 1.4676,0 2.6574,-1.18977 2.6574,-2.65748 z"
       id="path5325"
       inkscape:connector-curvature="0" />
    <path
       style="fill:none;stroke:#ff0000;stroke-width:0.35433072;stroke-miterlimit:4;stroke-dasharray:none"
       d="m 1274.7075,255.19467 c 0,-1.46768 -1.1898,-2.65748 -2.6574,-2.65748 -1.4677,0 -2.6575,1.1898 -2.6575,2.65748 0,1.46767 1.1898,2.65748 2.6575,2.65748 1.4676,0 2.6574,-1.18981 2.6574,-2.65748 z"
       id="path5323"
       inkscape:connector-curvature="0" />
    <path
       style="fill:none;stroke:#ff0000;stroke-width:0.35433072;stroke-miterlimit:4;stroke-dasharray:none"
       d="m 1274.7075,373.30492 c 0,-1.46767 -1.1898,-2.65748 -2.6574,-2.65748 -1.4677,0 -2.6575,1.18981 -2.6575,2.65748 0,1.46771 1.1898,2.65749 2.6575,2.65749 1.4676,0 2.6574,-1.18978 2.6574,-2.65749 z"
       id="path5321"
       inkscape:connector-curvature="0" />
    <path
       style="fill:none;stroke:#ff0000;stroke-width:0.35433072;stroke-miterlimit:4;stroke-dasharray:none"
       d="m 920.37683,373.30492 c 0,-1.46767 -1.18981,-2.65748 -2.65748,-2.65748 -1.46767,0 -2.65748,1.18981 -2.65748,2.65748 0,1.46771 1.18981,2.65749 2.65748,2.65749 1.46767,0 2.65748,-1.18978 2.65748,-2.65749 z"
       id="path5319"
       inkscape:connector-curvature="0" />
    <path
       style="fill:none;stroke:#ff0000;stroke-width:0.35433072;stroke-miterlimit:4;stroke-dasharray:none"
       d="m 920.37683,255.19467 c 0,-1.46768 -1.18981,-2.65748 -2.65748,-2.65748 -1.46767,0 -2.65748,1.1898 -2.65748,2.65748 0,1.46767 1.18981,2.65748 2.65748,2.65748 1.46767,0 2.65748,-1.18981 2.65748,-2.65748 z"
       id="path5317"
       inkscape:connector-curvature="0" />
    <path
       style="fill:none;stroke:#ff0000;stroke-width:0.35433072;stroke-miterlimit:4;stroke-dasharray:none"
       d="m 1038.4871,255.19467 c 0,-1.46768 -1.1899,-2.65748 -2.6575,-2.65748 -1.4677,0 -2.6575,1.1898 -2.6575,2.65748 0,1.46767 1.1898,2.65748 2.6575,2.65748 1.4676,0 2.6575,-1.18981 2.6575,-2.65748 z"
       id="path5315"
       inkscape:connector-curvature="0" />
    <path
       style="fill:none;stroke:#ff0000;stroke-width:0.35433072;stroke-miterlimit:4;stroke-dasharray:none"
       d="m 1156.5973,255.19467 c 0,-1.46768 -1.1898,-2.65748 -2.6575,-2.65748 -1.4677,0 -2.6575,1.1898 -2.6575,2.65748 0,1.46767 1.1898,2.65748 2.6575,2.65748 1.4677,0 2.6575,-1.18981 2.6575,-2.65748 z"
       id="path5313"
       inkscape:connector-curvature="0" />
    <path
       style="fill:none;stroke:#ff0000;stroke-width:0.35433072;stroke-miterlimit:4;stroke-dasharray:none"
       d="m 1156.5973,373.30492 c 0,-1.46767 -1.1898,-2.65748 -2.6575,-2.65748 -1.4677,0 -2.6575,1.18981 -2.6575,2.65748 0,1.46771 1.1898,2.65749 2.6575,2.65749 1.4677,0 2.6575,-1.18978 2.6575,-2.65749 z"
       id="path5311"
       inkscape:connector-curvature="0" />
    <path
       style="fill:none;stroke:#ff0000;stroke-width:0.35433072;stroke-miterlimit:4;stroke-dasharray:none"
       d="m 1156.5973,18.97419 c 0,-1.467709 -1.1898,-2.657481 -2.6575,-2.657481 -1.4677,0 -2.6575,1.189772 -2.6575,2.657481 0,1.467673 1.1898,2.65748 2.6575,2.65748 1.4677,0 2.6575,-1.189807 2.6575,-2.65748 z"
       id="path5309"
       inkscape:connector-curvature="0" />
    <path
       style="fill:none;stroke:#ff0000;stroke-width:0.35433072;stroke-miterlimit:4;stroke-dasharray:none"
       d="m 1038.4871,18.97419 c 0,-1.467709 -1.1899,-2.657481 -2.6575,-2.657481 -1.4677,0 -2.6575,1.189772 -2.6575,2.657481 0,1.467673 1.1898,2.65748 2.6575,2.65748 1.4676,0 2.6575,-1.189807 2.6575,-2.65748 z"
       id="path5307"
       inkscape:connector-curvature="0" />
    <path
       style="fill:none;stroke:#ff0000;stroke-width:0.35433072;stroke-miterlimit:4;stroke-dasharray:none"
       d="m 1274.7075,18.97419 c 0,-1.467709 -1.1898,-2.657481 -2.6574,-2.657481 -1.4677,0 -2.6575,1.189772 -2.6575,2.657481 0,1.467673 1.1898,2.65748 2.6575,2.65748 1.4676,0 2.6574,-1.189807 2.6574,-2.65748 z"
       id="path5305"
       inkscape:connector-curvature="0" />
    <path
       style="fill:none;stroke:#ff0000;stroke-width:0.35433072;stroke-miterlimit:4;stroke-dasharray:none"
       d="m 920.37683,-335.35648 c 0,-1.46767 -1.18981,-2.65748 -2.65748,-2.65748 -1.46767,0 -2.65748,1.18981 -2.65748,2.65748 0,1.46771 1.18981,2.65749 2.65748,2.65749 1.46767,0 2.65748,-1.18978 2.65748,-2.65749 z"
       id="path5303"
       inkscape:connector-curvature="0" />
    <path
       style="fill:none;stroke:#ff0000;stroke-width:0.35433072;stroke-miterlimit:4;stroke-dasharray:none"
       d="m 1038.4871,-335.35648 c 0,-1.46767 -1.1899,-2.65748 -2.6575,-2.65748 -1.4677,0 -2.6575,1.18981 -2.6575,2.65748 0,1.46771 1.1898,2.65749 2.6575,2.65749 1.4676,0 2.6575,-1.18978 2.6575,-2.65749 z"
       id="path5301"
       inkscape:connector-curvature="0" />
    <path
       style="fill:none;stroke:#ff0000;stroke-width:0.35433072;stroke-miterlimit:4;stroke-dasharray:none"
       d="m 1038.4871,-217.24629 c 0,-1.46771 -1.1899,-2.65748 -2.6575,-2.65748 -1.4677,0 -2.6575,1.18977 -2.6575,2.65748 0,1.46767 1.1898,2.65748 2.6575,2.65748 1.4676,0 2.6575,-1.18981 2.6575,-2.65748 z"
       id="path5299"
       inkscape:connector-curvature="0" />
    <path
       style="fill:none;stroke:#ff0000;stroke-width:0.35433072;stroke-miterlimit:4;stroke-dasharray:none"
       d="m 920.37683,-217.24629 c 0,-1.46771 -1.18981,-2.65748 -2.65748,-2.65748 -1.46767,0 -2.65748,1.18977 -2.65748,2.65748 0,1.46767 1.18981,2.65748 2.65748,2.65748 1.46767,0 2.65748,-1.18981 2.65748,-2.65748 z"
       id="path5297"
       inkscape:connector-curvature="0" />
    <path
       style="fill:none;stroke:#ff0000;stroke-width:0.35433072;stroke-miterlimit:4;stroke-dasharray:none"
       d="m 920.37683,-99.136032 c 0,-1.467678 -1.18981,-2.657478 -2.65748,-2.657478 -1.46767,0 -2.65748,1.1898 -2.65748,2.657478 0,1.467673 1.18981,2.65748 2.65748,2.65748 1.46767,0 2.65748,-1.189807 2.65748,-2.65748 z"
       id="path5295"
       inkscape:connector-curvature="0" />
    <path
       style="fill:none;stroke:#ff0000;stroke-width:0.35433072;stroke-miterlimit:4;stroke-dasharray:none"
       d="m 1274.7075,-99.136032 c 0,-1.467678 -1.1898,-2.657478 -2.6574,-2.657478 -1.4677,0 -2.6575,1.1898 -2.6575,2.657478 0,1.467673 1.1898,2.65748 2.6575,2.65748 1.4676,0 2.6574,-1.189807 2.6574,-2.65748 z"
       id="path5293"
       inkscape:connector-curvature="0" />
    <path
       style="fill:none;stroke:#ff0000;stroke-width:0.35433072;stroke-miterlimit:4;stroke-dasharray:none"
       d="m 1156.5973,-99.136032 c 0,-1.467678 -1.1898,-2.657478 -2.6575,-2.657478 -1.4677,0 -2.6575,1.1898 -2.6575,2.657478 0,1.467673 1.1898,2.65748 2.6575,2.65748 1.4677,0 2.6575,-1.189807 2.6575,-2.65748 z"
       id="path5291"
       inkscape:connector-curvature="0" />
    <path
       style="fill:none;stroke:#ff0000;stroke-width:0.35433072;stroke-miterlimit:4;stroke-dasharray:none"
       d="m 1274.7075,-217.24629 c 0,-1.46771 -1.1898,-2.65748 -2.6574,-2.65748 -1.4677,0 -2.6575,1.18977 -2.6575,2.65748 0,1.46767 1.1898,2.65748 2.6575,2.65748 1.4676,0 2.6574,-1.18981 2.6574,-2.65748 z"
       id="path5289"
       inkscape:connector-curvature="0" />
    <path
       style="fill:none;stroke:#ff0000;stroke-width:0.35433072;stroke-miterlimit:4;stroke-dasharray:none"
       d="m 1274.7075,-335.35648 c 0,-1.46767 -1.1898,-2.65748 -2.6574,-2.65748 -1.4677,0 -2.6575,1.18981 -2.6575,2.65748 0,1.46771 1.1898,2.65749 2.6575,2.65749 1.4676,0 2.6574,-1.18978 2.6574,-2.65749 z"
       id="path5287"
       inkscape:connector-curvature="0" />
    <path
       style="fill:none;stroke:#ff0000;stroke-width:0.35433072;stroke-miterlimit:4;stroke-dasharray:none"
       d="m 920.37683,18.97419 c 0,-1.467709 -1.18981,-2.657481 -2.65748,-2.657481 -1.46767,0 -2.65748,1.189772 -2.65748,2.657481 0,1.467673 1.18981,2.65748 2.65748,2.65748 1.46767,0 2.65748,-1.189807 2.65748,-2.65748 z"
       id="path5285"
       inkscape:connector-curvature="0" />
    <path
       style="fill:none;stroke:#ff0000;stroke-width:0.35433072;stroke-miterlimit:4;stroke-dasharray:none"
       d="m 920.37683,137.08445 c 0,-1.46768 -1.18981,-2.65748 -2.65748,-2.65748 -1.46767,0 -2.65748,1.1898 -2.65748,2.65748 0,1.46771 1.18981,2.65748 2.65748,2.65748 1.46767,0 2.65748,-1.18977 2.65748,-2.65748 z"
       id="path5283"
       inkscape:connector-curvature="0" />
    <path
       style="fill:none;stroke:#ff0000;stroke-width:0.35433072;stroke-miterlimit:4;stroke-dasharray:none"
       d="m 1038.4871,373.30492 c 0,-1.46767 -1.1899,-2.65748 -2.6575,-2.65748 -1.4677,0 -2.6575,1.18981 -2.6575,2.65748 0,1.46771 1.1898,2.65749 2.6575,2.65749 1.4676,0 2.6575,-1.18978 2.6575,-2.65749 z"
       id="path5281"
       inkscape:connector-curvature="0" />
    <path
       style="fill:none;stroke:#ff0000;stroke-width:0.35433072;stroke-miterlimit:4;stroke-dasharray:none"
       d="m 920.37683,491.41513 c 0,-1.46769 -1.18981,-2.65748 -2.65748,-2.65748 -1.46767,0 -2.65748,1.18979 -2.65748,2.65748 0,1.46768 1.18981,2.65748 2.65748,2.65748 1.46767,0 2.65748,-1.1898 2.65748,-2.65748 z"
       id="path5279"
       inkscape:connector-curvature="0" />
    <path
       style="fill:none;stroke:#ff0000;stroke-width:0.35433072;stroke-miterlimit:4;stroke-dasharray:none"
       d="m 1038.4871,491.41513 c 0,-1.46769 -1.1899,-2.65748 -2.6575,-2.65748 -1.4677,0 -2.6575,1.18979 -2.6575,2.65748 0,1.46768 1.1898,2.65748 2.6575,2.65748 1.4676,0 2.6575,-1.1898 2.6575,-2.65748 z"
       id="path5277"
       inkscape:connector-curvature="0" />
    <path
       style="fill:none;stroke:#ff0000;stroke-width:0.35433072;stroke-miterlimit:4;stroke-dasharray:none"
       d="m 684.15635,137.08445 c 0,-1.46768 -1.1898,-2.65748 -2.65748,-2.65748 -1.46771,0 -2.65748,1.1898 -2.65748,2.65748 0,1.46771 1.18977,2.65748 2.65748,2.65748 1.46768,0 2.65748,-1.18977 2.65748,-2.65748 z"
       id="path5275"
       inkscape:connector-curvature="0" />
    <path
       style="fill:none;stroke:#ff0000;stroke-width:0.35433072;stroke-miterlimit:4;stroke-dasharray:none"
       d="m 684.15635,255.19467 c 0,-1.46768 -1.1898,-2.65748 -2.65748,-2.65748 -1.46771,0 -2.65748,1.1898 -2.65748,2.65748 0,1.46767 1.18977,2.65748 2.65748,2.65748 1.46768,0 2.65748,-1.18981 2.65748,-2.65748 z"
       id="path5273"
       inkscape:connector-curvature="0" />
    <path
       style="fill:none;stroke:#ff0000;stroke-width:0.35433072;stroke-miterlimit:4;stroke-dasharray:none"
       d="m 802.26661,255.19467 c 0,-1.46768 -1.18977,-2.65748 -2.65748,-2.65748 -1.46767,0 -2.65748,1.1898 -2.65748,2.65748 0,1.46767 1.18981,2.65748 2.65748,2.65748 1.46771,0 2.65748,-1.18981 2.65748,-2.65748 z"
       id="path5271"
       inkscape:connector-curvature="0" />
    <path
       style="fill:none;stroke:#ff0000;stroke-width:0.35433072;stroke-miterlimit:4;stroke-dasharray:none"
       d="m 802.26661,137.08445 c 0,-1.46768 -1.18977,-2.65748 -2.65748,-2.65748 -1.46767,0 -2.65748,1.1898 -2.65748,2.65748 0,1.46771 1.18981,2.65748 2.65748,2.65748 1.46771,0 2.65748,-1.18977 2.65748,-2.65748 z"
       id="path5269"
       inkscape:connector-curvature="0" />
    <path
       style="fill:none;stroke:#ff0000;stroke-width:0.35433072;stroke-miterlimit:4;stroke-dasharray:none"
       d="m 684.15635,373.30492 c 0,-1.46767 -1.1898,-2.65748 -2.65748,-2.65748 -1.46771,0 -2.65748,1.18981 -2.65748,2.65748 0,1.46771 1.18977,2.65749 2.65748,2.65749 1.46768,0 2.65748,-1.18978 2.65748,-2.65749 z"
       id="path5267"
       inkscape:connector-curvature="0" />
    <path
       style="fill:none;stroke:#ff0000;stroke-width:0.35433072;stroke-miterlimit:4;stroke-dasharray:none"
       d="m 802.26661,373.30492 c 0,-1.46767 -1.18977,-2.65748 -2.65748,-2.65748 -1.46767,0 -2.65748,1.18981 -2.65748,2.65748 0,1.46771 1.18981,2.65749 2.65748,2.65749 1.46771,0 2.65748,-1.18978 2.65748,-2.65749 z"
       id="path5265"
       inkscape:connector-curvature="0" />
    <path
       style="fill:none;stroke:#ff0000;stroke-width:0.35433072;stroke-miterlimit:4;stroke-dasharray:none"
       d="m 684.15635,491.41513 c 0,-1.46769 -1.1898,-2.65748 -2.65748,-2.65748 -1.46771,0 -2.65748,1.18979 -2.65748,2.65748 0,1.46768 1.18977,2.65748 2.65748,2.65748 1.46768,0 2.65748,-1.1898 2.65748,-2.65748 z"
       id="path5263"
       inkscape:connector-curvature="0" />
    <path
       style="fill:none;stroke:#ff0000;stroke-width:0.35433072;stroke-miterlimit:4;stroke-dasharray:none"
       d="m 802.26661,491.41513 c 0,-1.46769 -1.18977,-2.65748 -2.65748,-2.65748 -1.46767,0 -2.65748,1.18979 -2.65748,2.65748 0,1.46768 1.18981,2.65748 2.65748,2.65748 1.46771,0 2.65748,-1.1898 2.65748,-2.65748 z"
       id="path5261"
       inkscape:connector-curvature="0" />
    <path
       style="fill:none;stroke:#ff0000;stroke-width:0.35433072;stroke-miterlimit:4;stroke-dasharray:none"
       d="m 684.15635,18.97419 c 0,-1.467709 -1.1898,-2.657481 -2.65748,-2.657481 -1.46771,0 -2.65748,1.189772 -2.65748,2.657481 0,1.467673 1.18977,2.65748 2.65748,2.65748 1.46768,0 2.65748,-1.189807 2.65748,-2.65748 z"
       id="path5259"
       inkscape:connector-curvature="0" />
    <path
       style="fill:none;stroke:#ff0000;stroke-width:0.35433072;stroke-miterlimit:4;stroke-dasharray:none"
       d="m 802.26661,-335.35648 c 0,-1.46767 -1.18977,-2.65748 -2.65748,-2.65748 -1.46767,0 -2.65748,1.18981 -2.65748,2.65748 0,1.46771 1.18981,2.65749 2.65748,2.65749 1.46771,0 2.65748,-1.18978 2.65748,-2.65749 z"
       id="path5257"
       inkscape:connector-curvature="0" />
    <path
       style="fill:none;stroke:#ff0000;stroke-width:0.35433072;stroke-miterlimit:4;stroke-dasharray:none"
       d="m 802.26661,-99.136032 c 0,-1.467678 -1.18977,-2.657478 -2.65748,-2.657478 -1.46767,0 -2.65748,1.1898 -2.65748,2.657478 0,1.467673 1.18981,2.65748 2.65748,2.65748 1.46771,0 2.65748,-1.189807 2.65748,-2.65748 z"
       id="path5255"
       inkscape:connector-curvature="0" />
    <path
       style="fill:none;stroke:#ff0000;stroke-width:0.35433072;stroke-miterlimit:4;stroke-dasharray:none"
       d="m 802.26661,-217.24629 c 0,-1.46771 -1.18977,-2.65748 -2.65748,-2.65748 -1.46767,0 -2.65748,1.18977 -2.65748,2.65748 0,1.46767 1.18981,2.65748 2.65748,2.65748 1.46771,0 2.65748,-1.18981 2.65748,-2.65748 z"
       id="path5253"
       inkscape:connector-curvature="0" />
    <path
       style="fill:none;stroke:#ff0000;stroke-width:0.35433072;stroke-miterlimit:4;stroke-dasharray:none"
       d="m 684.15635,-217.24629 c 0,-1.46771 -1.1898,-2.65748 -2.65748,-2.65748 -1.46771,0 -2.65748,1.18977 -2.65748,2.65748 0,1.46767 1.18977,2.65748 2.65748,2.65748 1.46768,0 2.65748,-1.18981 2.65748,-2.65748 z"
       id="path5251"
       inkscape:connector-curvature="0" />
    <path
       style="fill:none;stroke:#ff0000;stroke-width:0.35433072;stroke-miterlimit:4;stroke-dasharray:none"
       d="m 684.15635,-99.136032 c 0,-1.467678 -1.1898,-2.657478 -2.65748,-2.657478 -1.46771,0 -2.65748,1.1898 -2.65748,2.657478 0,1.467673 1.18977,2.65748 2.65748,2.65748 1.46768,0 2.65748,-1.189807 2.65748,-2.65748 z"
       id="path5249"
       inkscape:connector-curvature="0" />
    <path
       style="fill:none;stroke:#ff0000;stroke-width:0.35433072;stroke-miterlimit:4;stroke-dasharray:none"
       d="m 684.15635,-335.35648 c 0,-1.46767 -1.1898,-2.65748 -2.65748,-2.65748 -1.46771,0 -2.65748,1.18981 -2.65748,2.65748 0,1.46771 1.18977,2.65749 2.65748,2.65749 1.46768,0 2.65748,-1.18978 2.65748,-2.65749 z"
       id="path5247"
       inkscape:connector-curvature="0" />
    <path
       style="fill:none;stroke:#ff0000;stroke-width:0.35433072;stroke-miterlimit:4;stroke-dasharray:none"
       d="m 1510.928,-335.35648 c 0,-1.46767 -1.1898,-2.65748 -2.6575,-2.65748 -1.4677,0 -2.6575,1.18981 -2.6575,2.65748 0,1.46771 1.1898,2.65749 2.6575,2.65749 1.4677,0 2.6575,-1.18978 2.6575,-2.65749 z"
       id="path5245"
       inkscape:connector-curvature="0" />
    <path
       style="fill:none;stroke:#ff0000;stroke-width:0.35433072;stroke-miterlimit:4;stroke-dasharray:none"
       d="m 1392.8178,-335.35648 c 0,-1.46767 -1.1898,-2.65748 -2.6575,-2.65748 -1.4677,0 -2.6575,1.18981 -2.6575,2.65748 0,1.46771 1.1898,2.65749 2.6575,2.65749 1.4677,0 2.6575,-1.18978 2.6575,-2.65749 z"
       id="path5243"
       inkscape:connector-curvature="0" />
    <path
       style="fill:none;stroke:#ff0000;stroke-width:0.35433072;stroke-miterlimit:4;stroke-dasharray:none"
       d="m 1629.0382,-335.35648 c 0,-1.46767 -1.1898,-2.65748 -2.6574,-2.65748 -1.4677,0 -2.6575,1.18981 -2.6575,2.65748 0,1.46771 1.1898,2.65749 2.6575,2.65749 1.4676,0 2.6574,-1.18978 2.6574,-2.65749 z"
       id="path5241"
       inkscape:connector-curvature="0" />
    <path
       style="fill:none;stroke:#ff0000;stroke-width:0.35433072;stroke-miterlimit:4;stroke-dasharray:none"
       d="m 1156.5973,-217.24629 c 0,-1.46771 -1.1898,-2.65748 -2.6575,-2.65748 -1.4677,0 -2.6575,1.18977 -2.6575,2.65748 0,1.46767 1.1898,2.65748 2.6575,2.65748 1.4677,0 2.6575,-1.18981 2.6575,-2.65748 z"
       id="path5239"
       inkscape:connector-curvature="0" />
    <path
       style="fill:none;stroke:#ff0000;stroke-width:0.35433072;stroke-miterlimit:4;stroke-dasharray:none"
       d="m 1629.0382,-217.24629 c 0,-1.46771 -1.1898,-2.65748 -2.6574,-2.65748 -1.4677,0 -2.6575,1.18977 -2.6575,2.65748 0,1.46767 1.1898,2.65748 2.6575,2.65748 1.4676,0 2.6574,-1.18981 2.6574,-2.65748 z"
       id="path5237"
       inkscape:connector-curvature="0" />
    <path
       style="fill:none;stroke:#ff0000;stroke-width:0.35433072;stroke-miterlimit:4;stroke-dasharray:none"
       d="m 1747.1485,-99.136032 c 0,-1.467678 -1.1898,-2.657478 -2.6575,-2.657478 -1.4677,0 -2.6575,1.1898 -2.6575,2.657478 0,1.467673 1.1898,2.65748 2.6575,2.65748 1.4677,0 2.6575,-1.189807 2.6575,-2.65748 z"
       id="path5235"
       inkscape:connector-curvature="0" />
    <path
       style="fill:none;stroke:#ff0000;stroke-width:0.35433072;stroke-miterlimit:4;stroke-dasharray:none"
       d="m 1629.0382,-99.136032 c 0,-1.467678 -1.1898,-2.657478 -2.6574,-2.657478 -1.4677,0 -2.6575,1.1898 -2.6575,2.657478 0,1.467673 1.1898,2.65748 2.6575,2.65748 1.4676,0 2.6574,-1.189807 2.6574,-2.65748 z"
       id="path5233"
       inkscape:connector-curvature="0" />
    <path
       style="fill:none;stroke:#ff0000;stroke-width:0.35433072;stroke-miterlimit:4;stroke-dasharray:none"
       d="m 1038.4871,-99.136032 c 0,-1.467678 -1.1899,-2.657478 -2.6575,-2.657478 -1.4677,0 -2.6575,1.1898 -2.6575,2.657478 0,1.467673 1.1898,2.65748 2.6575,2.65748 1.4676,0 2.6575,-1.189807 2.6575,-2.65748 z"
       id="path5231"
       inkscape:connector-curvature="0" />
    <path
       style="fill:none;stroke:#ff0000;stroke-width:0.35433072;stroke-miterlimit:4;stroke-dasharray:none"
       d="m 1392.8178,-99.136032 c 0,-1.467678 -1.1898,-2.657478 -2.6575,-2.657478 -1.4677,0 -2.6575,1.1898 -2.6575,2.657478 0,1.467673 1.1898,2.65748 2.6575,2.65748 1.4677,0 2.6575,-1.189807 2.6575,-2.65748 z"
       id="path5229"
       inkscape:connector-curvature="0" />
    <path
       style="fill:none;stroke:#ff0000;stroke-width:0.35433072;stroke-miterlimit:4;stroke-dasharray:none"
       d="m 1510.928,-99.136032 c 0,-1.467678 -1.1898,-2.657478 -2.6575,-2.657478 -1.4677,0 -2.6575,1.1898 -2.6575,2.657478 0,1.467673 1.1898,2.65748 2.6575,2.65748 1.4677,0 2.6575,-1.189807 2.6575,-2.65748 z"
       id="path5227"
       inkscape:connector-curvature="0" />
    <path
       style="fill:none;stroke:#ff0000;stroke-width:0.35433072;stroke-miterlimit:4;stroke-dasharray:none"
       d="m 1747.1485,18.97419 c 0,-1.467709 -1.1898,-2.657481 -2.6575,-2.657481 -1.4677,0 -2.6575,1.189772 -2.6575,2.657481 0,1.467673 1.1898,2.65748 2.6575,2.65748 1.4677,0 2.6575,-1.189807 2.6575,-2.65748 z"
       id="path5225"
       inkscape:connector-curvature="0" />
    <path
       style="fill:none;stroke:#ff0000;stroke-width:0.35433072;stroke-miterlimit:4;stroke-dasharray:none"
       d="m 1629.0382,18.97419 c 0,-1.467709 -1.1898,-2.657481 -2.6574,-2.657481 -1.4677,0 -2.6575,1.189772 -2.6575,2.657481 0,1.467673 1.1898,2.65748 2.6575,2.65748 1.4676,0 2.6574,-1.189807 2.6574,-2.65748 z"
       id="path5223"
       inkscape:connector-curvature="0" />
    <path
       style="fill:none;stroke:#ff0000;stroke-width:0.35433072;stroke-miterlimit:4;stroke-dasharray:none"
       d="m 1510.928,18.97419 c 0,-1.467709 -1.1898,-2.657481 -2.6575,-2.657481 -1.4677,0 -2.6575,1.189772 -2.6575,2.657481 0,1.467673 1.1898,2.65748 2.6575,2.65748 1.4677,0 2.6575,-1.189807 2.6575,-2.65748 z"
       id="path5221"
       inkscape:connector-curvature="0" />
    <path
       style="fill:none;stroke:#ff0000;stroke-width:0.35433072;stroke-miterlimit:4;stroke-dasharray:none"
       d="m 1392.8178,18.97419 c 0,-1.467709 -1.1898,-2.657481 -2.6575,-2.657481 -1.4677,0 -2.6575,1.189772 -2.6575,2.657481 0,1.467673 1.1898,2.65748 2.6575,2.65748 1.4677,0 2.6575,-1.189807 2.6575,-2.65748 z"
       id="path5219"
       inkscape:connector-curvature="0" />
    <path
       style="fill:none;stroke:#ff0000;stroke-width:0.35433072;stroke-miterlimit:4;stroke-dasharray:none"
       d="m 1747.1485,373.30492 c 0,-1.46767 -1.1898,-2.65748 -2.6575,-2.65748 -1.4677,0 -2.6575,1.18981 -2.6575,2.65748 0,1.46771 1.1898,2.65749 2.6575,2.65749 1.4677,0 2.6575,-1.18978 2.6575,-2.65749 z"
       id="path5217"
       inkscape:connector-curvature="0" />
    <path
       style="fill:none;stroke:#ff0000;stroke-width:0.35433072;stroke-miterlimit:4;stroke-dasharray:none"
       d="m 1747.1485,491.41513 c 0,-1.46769 -1.1898,-2.65748 -2.6575,-2.65748 -1.4677,0 -2.6575,1.18979 -2.6575,2.65748 0,1.46768 1.1898,2.65748 2.6575,2.65748 1.4677,0 2.6575,-1.1898 2.6575,-2.65748 z"
       id="path5215"
       inkscape:connector-curvature="0" />
    <path
       style="fill:none;stroke:#ff0000;stroke-width:0.35433072;stroke-miterlimit:4;stroke-dasharray:none"
       d="m 1510.928,373.30492 c 0,-1.46767 -1.1898,-2.65748 -2.6575,-2.65748 -1.4677,0 -2.6575,1.18981 -2.6575,2.65748 0,1.46771 1.1898,2.65749 2.6575,2.65749 1.4677,0 2.6575,-1.18978 2.6575,-2.65749 z"
       id="path5213"
       inkscape:connector-curvature="0" />
    <path
       style="fill:none;stroke:#ff0000;stroke-width:0.35433072;stroke-miterlimit:4;stroke-dasharray:none"
       d="m 1510.928,491.41513 c 0,-1.46769 -1.1898,-2.65748 -2.6575,-2.65748 -1.4677,0 -2.6575,1.18979 -2.6575,2.65748 0,1.46768 1.1898,2.65748 2.6575,2.65748 1.4677,0 2.6575,-1.1898 2.6575,-2.65748 z"
       id="path5211"
       inkscape:connector-curvature="0" />
    <path
       style="fill:none;stroke:#ff0000;stroke-width:0.35433072;stroke-miterlimit:4;stroke-dasharray:none"
       d="m 1629.0382,373.30492 c 0,-1.46767 -1.1898,-2.65748 -2.6574,-2.65748 -1.4677,0 -2.6575,1.18981 -2.6575,2.65748 0,1.46771 1.1898,2.65749 2.6575,2.65749 1.4676,0 2.6574,-1.18978 2.6574,-2.65749 z"
       id="path5209"
       inkscape:connector-curvature="0" />
    <path
       style="fill:none;stroke:#ff0000;stroke-width:0.35433072;stroke-miterlimit:4;stroke-dasharray:none"
       d="m 1629.0382,491.41513 c 0,-1.46769 -1.1898,-2.65748 -2.6574,-2.65748 -1.4677,0 -2.6575,1.18979 -2.6575,2.65748 0,1.46768 1.1898,2.65748 2.6575,2.65748 1.4676,0 2.6574,-1.1898 2.6574,-2.65748 z"
       id="path5207"
       inkscape:connector-curvature="0" />
    <path
       style="fill:none;stroke:#ff0000;stroke-width:0.35433072;stroke-miterlimit:4;stroke-dasharray:none"
       d="m 1392.8178,491.41513 c 0,-1.46769 -1.1898,-2.65748 -2.6575,-2.65748 -1.4677,0 -2.6575,1.18979 -2.6575,2.65748 0,1.46768 1.1898,2.65748 2.6575,2.65748 1.4677,0 2.6575,-1.1898 2.6575,-2.65748 z"
       id="path5205"
       inkscape:connector-curvature="0" />
    <path
       style="fill:none;stroke:#ff0000;stroke-width:0.35433072;stroke-miterlimit:4;stroke-dasharray:none"
       d="m 1392.8178,373.30492 c 0,-1.46767 -1.1898,-2.65748 -2.6575,-2.65748 -1.4677,0 -2.6575,1.18981 -2.6575,2.65748 0,1.46771 1.1898,2.65749 2.6575,2.65749 1.4677,0 2.6575,-1.18978 2.6575,-2.65749 z"
       id="path5203"
       inkscape:connector-curvature="0" />
    <path
       style="fill:none;stroke:#ff0000;stroke-width:0.35433072;stroke-miterlimit:4;stroke-dasharray:none"
       d="m 1274.7075,491.41513 c 0,-1.46769 -1.1898,-2.65748 -2.6574,-2.65748 -1.4677,0 -2.6575,1.18979 -2.6575,2.65748 0,1.46768 1.1898,2.65748 2.6575,2.65748 1.4676,0 2.6574,-1.1898 2.6574,-2.65748 z"
       id="path5201"
       inkscape:connector-curvature="0" />
    <path
       style="fill:none;stroke:#ff0000;stroke-width:0.35433072;stroke-miterlimit:4;stroke-dasharray:none"
       d="m 1747.1485,137.08445 c 0,-1.46768 -1.1898,-2.65748 -2.6575,-2.65748 -1.4677,0 -2.6575,1.1898 -2.6575,2.65748 0,1.46771 1.1898,2.65748 2.6575,2.65748 1.4677,0 2.6575,-1.18977 2.6575,-2.65748 z"
       id="path5199"
       inkscape:connector-curvature="0" />
    <path
       style="fill:none;stroke:#ff0000;stroke-width:0.35433072;stroke-miterlimit:4;stroke-dasharray:none"
       d="m 1392.8178,137.08445 c 0,-1.46768 -1.1898,-2.65748 -2.6575,-2.65748 -1.4677,0 -2.6575,1.1898 -2.6575,2.65748 0,1.46771 1.1898,2.65748 2.6575,2.65748 1.4677,0 2.6575,-1.18977 2.6575,-2.65748 z"
       id="path5197"
       inkscape:connector-curvature="0" />
    <path
       style="fill:none;stroke:#ff0000;stroke-width:0.35433072;stroke-miterlimit:4;stroke-dasharray:none"
       d="m 1629.0382,137.08445 c 0,-1.46768 -1.1898,-2.65748 -2.6574,-2.65748 -1.4677,0 -2.6575,1.1898 -2.6575,2.65748 0,1.46771 1.1898,2.65748 2.6575,2.65748 1.4676,0 2.6574,-1.18977 2.6574,-2.65748 z"
       id="path5195"
       inkscape:connector-curvature="0" />
    <path
       style="fill:none;stroke:#ff0000;stroke-width:0.35433072;stroke-miterlimit:4;stroke-dasharray:none"
       d="m 1510.928,137.08445 c 0,-1.46768 -1.1898,-2.65748 -2.6575,-2.65748 -1.4677,0 -2.6575,1.1898 -2.6575,2.65748 0,1.46771 1.1898,2.65748 2.6575,2.65748 1.4677,0 2.6575,-1.18977 2.6575,-2.65748 z"
       id="path5193"
       inkscape:connector-curvature="0" />
    <path
       style="fill:none;stroke:#ff0000;stroke-width:0.35433072;stroke-miterlimit:4;stroke-dasharray:none"
       d="m 1510.928,255.19467 c 0,-1.46768 -1.1898,-2.65748 -2.6575,-2.65748 -1.4677,0 -2.6575,1.1898 -2.6575,2.65748 0,1.46767 1.1898,2.65748 2.6575,2.65748 1.4677,0 2.6575,-1.18981 2.6575,-2.65748 z"
       id="path5191"
       inkscape:connector-curvature="0" />
    <path
       style="fill:none;stroke:#ff0000;stroke-width:0.35433072;stroke-miterlimit:4;stroke-dasharray:none"
       d="m 1392.8178,255.19467 c 0,-1.46768 -1.1898,-2.65748 -2.6575,-2.65748 -1.4677,0 -2.6575,1.1898 -2.6575,2.65748 0,1.46767 1.1898,2.65748 2.6575,2.65748 1.4677,0 2.6575,-1.18981 2.6575,-2.65748 z"
       id="path5189"
       inkscape:connector-curvature="0" />
    <path
       style="fill:none;stroke:#ff0000;stroke-width:0.35433072;stroke-miterlimit:4;stroke-dasharray:none"
       d="m 1747.1485,255.19467 c 0,-1.46768 -1.1898,-2.65748 -2.6575,-2.65748 -1.4677,0 -2.6575,1.1898 -2.6575,2.65748 0,1.46767 1.1898,2.65748 2.6575,2.65748 1.4677,0 2.6575,-1.18981 2.6575,-2.65748 z"
       id="path5187"
       inkscape:connector-curvature="0" />
    <path
       style="fill:none;stroke:#ff0000;stroke-width:0.35433072;stroke-miterlimit:4;stroke-dasharray:none"
       d="m 1038.4871,137.08445 c 0,-1.46768 -1.1899,-2.65748 -2.6575,-2.65748 -1.4677,0 -2.6575,1.1898 -2.6575,2.65748 0,1.46771 1.1898,2.65748 2.6575,2.65748 1.4676,0 2.6575,-1.18977 2.6575,-2.65748 z"
       id="path5185"
       inkscape:connector-curvature="0" />
    <path
       style="fill:none;stroke:#0000ff;stroke-width:0.35433072;stroke-miterlimit:4;stroke-dasharray:none"
       d="m 195.77055,-998.25018 114.50476,0 0,21.25984 93.24492,0 0,-21.25984 93.24492,0 0,21.25984 93.24493,0 0,-21.25984 93.24493,0 0,21.25984 93.24492,0 0,-21.25984 93.24492,0 0,21.25984 93.24493,0 0,-21.25984 93.24492,0 0,21.25984 93.2449,0 0,-21.25984 93.2449,0 0,21.25984 93.2449,0 0,-21.25984 93.245,0 0,21.25984 93.2449,0 0,-21.25984 93.2449,0 0,21.25984 93.2449,0 0,-21.25984 93.2449,0 0,21.25984 93.245,0 0,-21.25984 114.5047,0 0,114.50476 -21.2598,0 0,93.24492 21.2598,0 0,93.24493 -21.2598,0 0,93.24492 21.2598,0 0,93.24492 -21.2598,0 0,93.24493 21.2598,0 0,93.24492 -21.2598,0 0,93.24492 21.2598,0 0,93.24493 -21.2598,0 0,93.244883 21.2598,0 0,93.244922 -21.2598,0 0,93.244925 21.2598,0 0,93.24492 -21.2598,0 0,93.24492 21.2598,0 0,93.24493 -21.2598,0 0,93.24493 21.2598,0 0,93.24492 -21.2598,0 0,93.24492 21.2598,0 0,114.50476 -114.5047,0 0,-21.25984 -93.245,0 0,21.25984 -93.2449,0 0,-21.25984 -93.2449,0 0,21.25984 -93.2449,0 0,-21.25984 -93.2449,0 0,21.25984 -93.245,0 0,-21.25984 -93.2449,0 0,21.25984 -93.2449,0 0,-21.25984 -93.2449,0 0,21.25984 -93.24492,0 0,-21.25984 -93.24493,0 0,21.25984 -93.24492,0 0,-21.25984 -93.24492,0 0,21.25984 -93.24493,0 0,-21.25984 -93.24493,0 0,21.25984 -93.24492,0 0,-21.25984 -93.24492,0 0,21.25984 -114.50476,0 0,-114.50476 21.25984,0 0,-93.24492 -21.25984,0 0,-93.24492 21.25984,0 0,-53.3361 7.08662,0 0,-42.51968 -7.08662,0 0,2.61085 -21.25984,0 0,-93.24493 21.25984,0 0,-93.24492 -21.25984,0 0,-93.24492 21.25984,0 0,-93.244925 -21.25984,0 0,-93.244922 21.25984,0 0,-93.244883 -21.25984,0 0,-93.24493 21.25984,0 0,-93.24492 -21.25984,0 0,-93.24492 21.25984,0 0,-93.24493 -21.25984,0 0,-93.24492 21.25984,0 0,-93.24492 -21.25984,0 0,-93.24493 21.25984,0 0,-93.24492 -21.25984,0 z"
       id="circle459"
       inkscape:connector-curvature="0" />
  </g>
</svg>
