<?xml version="1.0" encoding="UTF-8" standalone="no"?>
<!-- Created with Inkscape (http://www.inkscape.org/) -->

<svg
   xmlns:dc="http://purl.org/dc/elements/1.1/"
   xmlns:cc="http://creativecommons.org/ns#"
   xmlns:rdf="http://www.w3.org/1999/02/22-rdf-syntax-ns#"
   xmlns:svg="http://www.w3.org/2000/svg"
   xmlns="http://www.w3.org/2000/svg"
   xmlns:sodipodi="http://sodipodi.sourceforge.net/DTD/sodipodi-0.dtd"
   xmlns:inkscape="http://www.inkscape.org/namespaces/inkscape"
   width="2041.2992"
   height="2041.2992"
   id="svg3131"
   version="1.1"
   inkscape:version="0.48.4 r9939"
   sodipodi:docname="5mm.svg">
  <defs
     id="defs3133" />
  <sodipodi:namedview
     id="base"
     pagecolor="#ffffff"
     bordercolor="#666666"
     borderopacity="1.0"
     inkscape:pageopacity="0.0"
     inkscape:pageshadow="2"
     inkscape:zoom="2"
     inkscape:cx="296.29007"
     inkscape:cy="508.70458"
     inkscape:document-units="mm"
     inkscape:current-layer="layer1"
     showgrid="false"
     units="mm"
     fit-margin-top="0"
     fit-margin-left="0"
     fit-margin-right="0"
     fit-margin-bottom="0"
     inkscape:window-width="1440"
     inkscape:window-height="851"
     inkscape:window-x="0"
     inkscape:window-y="0"
     inkscape:window-maximized="1" />
  <metadata
     id="metadata3136">
    <rdf:RDF>
      <cc:Work
         rdf:about="">
        <dc:format>image/svg+xml</dc:format>
        <dc:type
           rdf:resource="http://purl.org/dc/dcmitype/StillImage" />
        <dc:title />
      </cc:Work>
    </rdf:RDF>
  </metadata>
  <g
     inkscape:label="Calque 1"
     inkscape:groupmode="layer"
     id="layer1"
     transform="translate(16.536277,1333.2247)">
    <g
       transform="translate(-98.743839,-221.4115)"
       id="layer1-5"
       inkscape:label="Calque 1">
      <path
         inkscape:connector-curvature="0"
         id="path5479"
         d="m 566.04613,373.30492 c 0,-1.46767 -1.18981,-2.65748 -2.65748,-2.65748 -1.46767,0 -2.65748,1.18981 -2.65748,2.65748 0,1.46771 1.18981,2.65749 2.65748,2.65749 1.46767,0 2.65748,-1.18978 2.65748,-2.65749 z"
         style="fill:none;stroke:#ff0000;stroke-width:0.35433072;stroke-miterlimit:4;stroke-dasharray:none" />
      <path
         inkscape:connector-curvature="0"
         id="path5477"
         d="m 1510.928,-217.24629 c 0,-1.46771 -1.1898,-2.65748 -2.6575,-2.65748 -1.4677,0 -2.6575,1.18977 -2.6575,2.65748 0,1.46767 1.1898,2.65748 2.6575,2.65748 1.4677,0 2.6575,-1.18981 2.6575,-2.65748 z"
         style="fill:none;stroke:#ff0000;stroke-width:0.35433072;stroke-miterlimit:4;stroke-dasharray:none" />
      <path
         inkscape:connector-curvature="0"
         id="path5475"
         d="m 802.26661,18.97419 c 0,-1.467709 -1.18977,-2.657481 -2.65748,-2.657481 -1.46767,0 -2.65748,1.189772 -2.65748,2.657481 0,1.467673 1.18981,2.65748 2.65748,2.65748 1.46771,0 2.65748,-1.189807 2.65748,-2.65748 z"
         style="fill:none;stroke:#ff0000;stroke-width:0.35433072;stroke-miterlimit:4;stroke-dasharray:none" />
      <path
         inkscape:connector-curvature="0"
         id="path5473"
         d="m 1156.5973,-335.35648 c 0,-1.46767 -1.1898,-2.65748 -2.6575,-2.65748 -1.4677,0 -2.6575,1.18981 -2.6575,2.65748 0,1.46771 1.1898,2.65749 2.6575,2.65749 1.4677,0 2.6575,-1.18978 2.6575,-2.65749 z"
         style="fill:none;stroke:#ff0000;stroke-width:0.35433072;stroke-miterlimit:4;stroke-dasharray:none" />
      <path
         inkscape:connector-curvature="0"
         id="path5471"
         d="m 1392.8178,-217.24629 c 0,-1.46771 -1.1898,-2.65748 -2.6575,-2.65748 -1.4677,0 -2.6575,1.18977 -2.6575,2.65748 0,1.46767 1.1898,2.65748 2.6575,2.65748 1.4677,0 2.6575,-1.18981 2.6575,-2.65748 z"
         style="fill:none;stroke:#ff0000;stroke-width:0.35433072;stroke-miterlimit:4;stroke-dasharray:none" />
      <path
         inkscape:connector-curvature="0"
         id="path5469"
         d="m 429.62881,-746.67539 0,-177.16535 53.14961,0 0,177.16535 z"
         style="fill:none;stroke:#ff0000;stroke-width:0.35433072;stroke-miterlimit:4;stroke-dasharray:none" />
      <path
         inkscape:connector-curvature="0"
         id="path5467"
         d="m 1629.0382,255.19467 c 0,-1.46768 -1.1898,-2.65748 -2.6574,-2.65748 -1.4677,0 -2.6575,1.1898 -2.6575,2.65748 0,1.46767 1.1898,2.65748 2.6575,2.65748 1.4676,0 2.6574,-1.18981 2.6574,-2.65748 z"
         style="fill:none;stroke:#ff0000;stroke-width:0.35433072;stroke-miterlimit:4;stroke-dasharray:none" />
      <path
         inkscape:connector-curvature="0"
         id="path5465"
         d="m 1865.2587,255.19467 c 0,-1.46768 -1.1898,-2.65748 -2.6575,-2.65748 -1.4677,0 -2.6575,1.1898 -2.6575,2.65748 0,1.46767 1.1898,2.65748 2.6575,2.65748 1.4677,0 2.6575,-1.18981 2.6575,-2.65748 z"
         style="fill:none;stroke:#ff0000;stroke-width:0.35433072;stroke-miterlimit:4;stroke-dasharray:none" />
      <path
         inkscape:connector-curvature="0"
         id="path5463"
         d="m 1865.2587,18.97419 c 0,-1.467709 -1.1898,-2.657481 -2.6575,-2.657481 -1.4677,0 -2.6575,1.189772 -2.6575,2.657481 0,1.467673 1.1898,2.65748 2.6575,2.65748 1.4677,0 2.6575,-1.189807 2.6575,-2.65748 z"
         style="fill:none;stroke:#ff0000;stroke-width:0.35433072;stroke-miterlimit:4;stroke-dasharray:none" />
      <path
         inkscape:connector-curvature="0"
         id="path5461"
         d="m 1908.9595,697.22222 c 0,-9.78458 -7.932,-17.71654 -17.7166,-17.71654 -9.7845,0 -17.7165,7.93196 -17.7165,17.71654 0,9.78457 7.932,17.71653 17.7165,17.71653 9.7846,0 17.7166,-7.93196 17.7166,-17.71653 z"
         style="fill:none;stroke:#ff0000;stroke-width:0.35433072;stroke-miterlimit:4;stroke-dasharray:none" />
      <path
         inkscape:connector-curvature="0"
         id="path5459"
         d="m 1747.1485,-217.24629 c 0,-1.46771 -1.1898,-2.65748 -2.6575,-2.65748 -1.4677,0 -2.6575,1.18977 -2.6575,2.65748 0,1.46767 1.1898,2.65748 2.6575,2.65748 1.4677,0 2.6575,-1.18981 2.6575,-2.65748 z"
         style="fill:none;stroke:#ff0000;stroke-width:0.35433072;stroke-miterlimit:4;stroke-dasharray:none" />
      <path
         inkscape:connector-curvature="0"
         id="path5457"
         d="m 1865.2587,-453.46673 c 0,-1.46768 -1.1898,-2.65748 -2.6575,-2.65748 -1.4677,0 -2.6575,1.1898 -2.6575,2.65748 0,1.46767 1.1898,2.65748 2.6575,2.65748 1.4677,0 2.6575,-1.18981 2.6575,-2.65748 z"
         style="fill:none;stroke:#ff0000;stroke-width:0.35433072;stroke-miterlimit:4;stroke-dasharray:none" />
      <path
         inkscape:connector-curvature="0"
         id="path5455"
         d="m 1747.1485,-335.35648 c 0,-1.46767 -1.1898,-2.65748 -2.6575,-2.65748 -1.4677,0 -2.6575,1.18981 -2.6575,2.65748 0,1.46771 1.1898,2.65749 2.6575,2.65749 1.4677,0 2.6575,-1.18978 2.6575,-2.65749 z"
         style="fill:none;stroke:#ff0000;stroke-width:0.35433072;stroke-miterlimit:4;stroke-dasharray:none" />
      <path
         inkscape:connector-curvature="0"
         id="path5453"
         d="m 1722.9359,-746.67539 53.1496,0 0,-177.16535 -53.1496,0 z"
         style="fill:none;stroke:#ff0000;stroke-width:0.35433072;stroke-miterlimit:4;stroke-dasharray:none" />
      <path
         inkscape:connector-curvature="0"
         id="path5451"
         d="m 1908.9595,-879.5494 c 0,-9.78456 -7.932,-17.71653 -17.7166,-17.71653 -9.7845,0 -17.7165,7.93197 -17.7165,17.71653 0,9.78456 7.932,17.71654 17.7165,17.71654 9.7846,0 17.7166,-7.93198 17.7166,-17.71654 z"
         style="fill:none;stroke:#ff0000;stroke-width:0.35433072;stroke-miterlimit:4;stroke-dasharray:none" />
      <path
         inkscape:connector-curvature="0"
         id="path5449"
         d="m 332.18787,-879.5494 c 0,-9.78456 -7.93196,-17.71653 -17.71654,-17.71653 -9.78457,0 -17.71653,7.93197 -17.71653,17.71653 0,9.78456 7.93196,17.71654 17.71653,17.71654 9.78458,0 17.71654,-7.93198 17.71654,-17.71654 z"
         style="fill:none;stroke:#ff0000;stroke-width:0.35433072;stroke-miterlimit:4;stroke-dasharray:none" />
      <path
         inkscape:connector-curvature="0"
         id="path5447"
         d="m 332.18787,697.22222 c 0,-9.78458 -7.93196,-17.71654 -17.71654,-17.71654 -9.78457,0 -17.71653,7.93196 -17.71653,17.71654 0,9.78457 7.93196,17.71653 17.71653,17.71653 9.78458,0 17.71654,-7.93196 17.71654,-17.71653 z"
         style="fill:none;stroke:#ff0000;stroke-width:0.35433072;stroke-miterlimit:4;stroke-dasharray:none" />
      <path
         inkscape:connector-curvature="0"
         id="path5445"
         d="m 429.62881,741.51355 0,-177.16535 53.14961,0 0,177.16535 z"
         style="fill:none;stroke:#ff0000;stroke-width:0.35433072;stroke-miterlimit:4;stroke-dasharray:none" />
      <path
         inkscape:connector-curvature="0"
         id="path5443"
         d="m 1722.9359,564.3482 0,177.16535 53.1496,0 0,-177.16535 z"
         style="fill:none;stroke:#ff0000;stroke-width:0.35433072;stroke-miterlimit:4;stroke-dasharray:none" />
      <path
         inkscape:connector-curvature="0"
         id="path5441"
         d="m 329.82566,-571.57699 c 0,-1.46771 -1.18979,-2.65748 -2.65748,-2.65748 -1.46769,0 -2.65748,1.18977 -2.65748,2.65748 0,1.46767 1.18979,2.65748 2.65748,2.65748 1.46769,0 2.65748,-1.18981 2.65748,-2.65748 z"
         style="fill:none;stroke:#ff0000;stroke-width:0.35433072;stroke-miterlimit:4;stroke-dasharray:none" />
      <path
         inkscape:connector-curvature="0"
         id="path5439"
         d="m 329.82566,-99.136032 c 0,-1.467678 -1.18979,-2.657478 -2.65748,-2.657478 -1.46769,0 -2.65748,1.1898 -2.65748,2.657478 0,1.467673 1.18979,2.65748 2.65748,2.65748 1.46769,0 2.65748,-1.189807 2.65748,-2.65748 z"
         style="fill:none;stroke:#ff0000;stroke-width:0.35433072;stroke-miterlimit:4;stroke-dasharray:none" />
      <path
         inkscape:connector-curvature="0"
         id="path5437"
         d="m 329.82566,-217.24629 c 0,-1.46771 -1.18979,-2.65748 -2.65748,-2.65748 -1.46769,0 -2.65748,1.18977 -2.65748,2.65748 0,1.46767 1.18979,2.65748 2.65748,2.65748 1.46769,0 2.65748,-1.18981 2.65748,-2.65748 z"
         style="fill:none;stroke:#ff0000;stroke-width:0.35433072;stroke-miterlimit:4;stroke-dasharray:none" />
      <path
         inkscape:connector-curvature="0"
         id="path5435"
         d="m 329.82566,-335.35648 c 0,-1.46767 -1.18979,-2.65748 -2.65748,-2.65748 -1.46769,0 -2.65748,1.18981 -2.65748,2.65748 0,1.46771 1.18979,2.65749 2.65748,2.65749 1.46769,0 2.65748,-1.18978 2.65748,-2.65749 z"
         style="fill:none;stroke:#ff0000;stroke-width:0.35433072;stroke-miterlimit:4;stroke-dasharray:none" />
      <path
         inkscape:connector-curvature="0"
         id="path5433"
         d="m 329.82566,-453.46673 c 0,-1.46768 -1.18979,-2.65748 -2.65748,-2.65748 -1.46769,0 -2.65748,1.1898 -2.65748,2.65748 0,1.46767 1.18979,2.65748 2.65748,2.65748 1.46769,0 2.65748,-1.18981 2.65748,-2.65748 z"
         style="fill:none;stroke:#ff0000;stroke-width:0.35433072;stroke-miterlimit:4;stroke-dasharray:none" />
      <path
         inkscape:connector-curvature="0"
         id="path5431"
         d="m 329.82566,18.97419 c 0,-1.467709 -1.18979,-2.657481 -2.65748,-2.657481 -1.46769,0 -2.65748,1.189772 -2.65748,2.657481 0,1.467673 1.18979,2.65748 2.65748,2.65748 1.46769,0 2.65748,-1.189807 2.65748,-2.65748 z"
         style="fill:none;stroke:#ff0000;stroke-width:0.35433072;stroke-miterlimit:4;stroke-dasharray:none" />
      <path
         inkscape:connector-curvature="0"
         id="path5429"
         d="m 329.82566,255.19467 c 0,-1.46768 -1.18979,-2.65748 -2.65748,-2.65748 -1.46769,0 -2.65748,1.1898 -2.65748,2.65748 0,1.46767 1.18979,2.65748 2.65748,2.65748 1.46769,0 2.65748,-1.18981 2.65748,-2.65748 z"
         style="fill:none;stroke:#ff0000;stroke-width:0.35433072;stroke-miterlimit:4;stroke-dasharray:none" />
      <path
         inkscape:connector-curvature="0"
         id="path5427"
         d="m 329.82566,137.08445 c 0,-1.46768 -1.18979,-2.65748 -2.65748,-2.65748 -1.46769,0 -2.65748,1.1898 -2.65748,2.65748 0,1.46771 1.18979,2.65748 2.65748,2.65748 1.46769,0 2.65748,-1.18977 2.65748,-2.65748 z"
         style="fill:none;stroke:#ff0000;stroke-width:0.35433072;stroke-miterlimit:4;stroke-dasharray:none" />
      <path
         inkscape:connector-curvature="0"
         id="path5425"
         d="m 329.82566,491.41513 c 0,-1.46769 -1.18979,-2.65748 -2.65748,-2.65748 -1.46769,0 -2.65748,1.18979 -2.65748,2.65748 0,1.46768 1.18979,2.65748 2.65748,2.65748 1.46769,0 2.65748,-1.1898 2.65748,-2.65748 z"
         style="fill:none;stroke:#ff0000;stroke-width:0.35433072;stroke-miterlimit:4;stroke-dasharray:none" />
      <path
         inkscape:connector-curvature="0"
         id="path5423"
         d="m 329.82566,373.30492 c 0,-1.46767 -1.18979,-2.65748 -2.65748,-2.65748 -1.46769,0 -2.65748,1.18981 -2.65748,2.65748 0,1.46771 1.18979,2.65749 2.65748,2.65749 1.46769,0 2.65748,-1.18978 2.65748,-2.65749 z"
         style="fill:none;stroke:#ff0000;stroke-width:0.35433072;stroke-miterlimit:4;stroke-dasharray:none" />
      <path
         inkscape:connector-curvature="0"
         id="path5421"
         d="m 447.93589,-571.57699 c 0,-1.46771 -1.18979,-2.65748 -2.65748,-2.65748 -1.46769,0 -2.65748,1.18977 -2.65748,2.65748 0,1.46767 1.18979,2.65748 2.65748,2.65748 1.46769,0 2.65748,-1.18981 2.65748,-2.65748 z"
         style="fill:none;stroke:#ff0000;stroke-width:0.35433072;stroke-miterlimit:4;stroke-dasharray:none" />
      <path
         inkscape:connector-curvature="0"
         id="path5419"
         d="m 566.04613,-571.57699 c 0,-1.46771 -1.18981,-2.65748 -2.65748,-2.65748 -1.46767,0 -2.65748,1.18977 -2.65748,2.65748 0,1.46767 1.18981,2.65748 2.65748,2.65748 1.46767,0 2.65748,-1.18981 2.65748,-2.65748 z"
         style="fill:none;stroke:#ff0000;stroke-width:0.35433072;stroke-miterlimit:4;stroke-dasharray:none" />
      <path
         inkscape:connector-curvature="0"
         id="path5417"
         d="m 566.04613,-335.35648 c 0,-1.46767 -1.18981,-2.65748 -2.65748,-2.65748 -1.46767,0 -2.65748,1.18981 -2.65748,2.65748 0,1.46771 1.18981,2.65749 2.65748,2.65749 1.46767,0 2.65748,-1.18978 2.65748,-2.65749 z"
         style="fill:none;stroke:#ff0000;stroke-width:0.35433072;stroke-miterlimit:4;stroke-dasharray:none" />
      <path
         inkscape:connector-curvature="0"
         id="path5415"
         d="m 447.93589,-335.35648 c 0,-1.46767 -1.18979,-2.65748 -2.65748,-2.65748 -1.46769,0 -2.65748,1.18981 -2.65748,2.65748 0,1.46771 1.18979,2.65749 2.65748,2.65749 1.46769,0 2.65748,-1.18978 2.65748,-2.65749 z"
         style="fill:none;stroke:#ff0000;stroke-width:0.35433072;stroke-miterlimit:4;stroke-dasharray:none" />
      <path
         inkscape:connector-curvature="0"
         id="path5413"
         d="m 447.93589,-453.46673 c 0,-1.46768 -1.18979,-2.65748 -2.65748,-2.65748 -1.46769,0 -2.65748,1.1898 -2.65748,2.65748 0,1.46767 1.18979,2.65748 2.65748,2.65748 1.46769,0 2.65748,-1.18981 2.65748,-2.65748 z"
         style="fill:none;stroke:#ff0000;stroke-width:0.35433072;stroke-miterlimit:4;stroke-dasharray:none" />
      <path
         inkscape:connector-curvature="0"
         id="path5411"
         d="m 566.04613,-453.46673 c 0,-1.46768 -1.18981,-2.65748 -2.65748,-2.65748 -1.46767,0 -2.65748,1.1898 -2.65748,2.65748 0,1.46767 1.18981,2.65748 2.65748,2.65748 1.46767,0 2.65748,-1.18981 2.65748,-2.65748 z"
         style="fill:none;stroke:#ff0000;stroke-width:0.35433072;stroke-miterlimit:4;stroke-dasharray:none" />
      <path
         inkscape:connector-curvature="0"
         id="path5409"
         d="m 447.93589,-99.136032 c 0,-1.467678 -1.18979,-2.657478 -2.65748,-2.657478 -1.46769,0 -2.65748,1.1898 -2.65748,2.657478 0,1.467673 1.18979,2.65748 2.65748,2.65748 1.46769,0 2.65748,-1.189807 2.65748,-2.65748 z"
         style="fill:none;stroke:#ff0000;stroke-width:0.35433072;stroke-miterlimit:4;stroke-dasharray:none" />
      <path
         inkscape:connector-curvature="0"
         id="path5407"
         d="m 566.04613,-99.136032 c 0,-1.467678 -1.18981,-2.657478 -2.65748,-2.657478 -1.46767,0 -2.65748,1.1898 -2.65748,2.657478 0,1.467673 1.18981,2.65748 2.65748,2.65748 1.46767,0 2.65748,-1.189807 2.65748,-2.65748 z"
         style="fill:none;stroke:#ff0000;stroke-width:0.35433072;stroke-miterlimit:4;stroke-dasharray:none" />
      <path
         inkscape:connector-curvature="0"
         id="path5405"
         d="m 447.93589,-217.24629 c 0,-1.46771 -1.18979,-2.65748 -2.65748,-2.65748 -1.46769,0 -2.65748,1.18977 -2.65748,2.65748 0,1.46767 1.18979,2.65748 2.65748,2.65748 1.46769,0 2.65748,-1.18981 2.65748,-2.65748 z"
         style="fill:none;stroke:#ff0000;stroke-width:0.35433072;stroke-miterlimit:4;stroke-dasharray:none" />
      <path
         inkscape:connector-curvature="0"
         id="path5403"
         d="m 566.04613,-217.24629 c 0,-1.46771 -1.18981,-2.65748 -2.65748,-2.65748 -1.46767,0 -2.65748,1.18977 -2.65748,2.65748 0,1.46767 1.18981,2.65748 2.65748,2.65748 1.46767,0 2.65748,-1.18981 2.65748,-2.65748 z"
         style="fill:none;stroke:#ff0000;stroke-width:0.35433072;stroke-miterlimit:4;stroke-dasharray:none" />
      <path
         inkscape:connector-curvature="0"
         id="path5401"
         d="m 447.93589,373.30492 c 0,-1.46767 -1.18979,-2.65748 -2.65748,-2.65748 -1.46769,0 -2.65748,1.18981 -2.65748,2.65748 0,1.46771 1.18979,2.65749 2.65748,2.65749 1.46769,0 2.65748,-1.18978 2.65748,-2.65749 z"
         style="fill:none;stroke:#ff0000;stroke-width:0.35433072;stroke-miterlimit:4;stroke-dasharray:none" />
      <path
         inkscape:connector-curvature="0"
         id="path5399"
         d="m 447.93589,491.41513 c 0,-1.46769 -1.18979,-2.65748 -2.65748,-2.65748 -1.46769,0 -2.65748,1.18979 -2.65748,2.65748 0,1.46768 1.18979,2.65748 2.65748,2.65748 1.46769,0 2.65748,-1.1898 2.65748,-2.65748 z"
         style="fill:none;stroke:#ff0000;stroke-width:0.35433072;stroke-miterlimit:4;stroke-dasharray:none" />
      <path
         inkscape:connector-curvature="0"
         id="path5397"
         d="m 566.04613,491.41513 c 0,-1.46769 -1.18981,-2.65748 -2.65748,-2.65748 -1.46767,0 -2.65748,1.18979 -2.65748,2.65748 0,1.46768 1.18981,2.65748 2.65748,2.65748 1.46767,0 2.65748,-1.1898 2.65748,-2.65748 z"
         style="fill:none;stroke:#ff0000;stroke-width:0.35433072;stroke-miterlimit:4;stroke-dasharray:none" />
      <path
         inkscape:connector-curvature="0"
         id="path5395"
         d="m 566.04613,255.19467 c 0,-1.46768 -1.18981,-2.65748 -2.65748,-2.65748 -1.46767,0 -2.65748,1.1898 -2.65748,2.65748 0,1.46767 1.18981,2.65748 2.65748,2.65748 1.46767,0 2.65748,-1.18981 2.65748,-2.65748 z"
         style="fill:none;stroke:#ff0000;stroke-width:0.35433072;stroke-miterlimit:4;stroke-dasharray:none" />
      <path
         inkscape:connector-curvature="0"
         id="path5393"
         d="m 447.93589,255.19467 c 0,-1.46768 -1.18979,-2.65748 -2.65748,-2.65748 -1.46769,0 -2.65748,1.1898 -2.65748,2.65748 0,1.46767 1.18979,2.65748 2.65748,2.65748 1.46769,0 2.65748,-1.18981 2.65748,-2.65748 z"
         style="fill:none;stroke:#ff0000;stroke-width:0.35433072;stroke-miterlimit:4;stroke-dasharray:none" />
      <path
         inkscape:connector-curvature="0"
         id="path5391"
         d="m 447.93589,137.08445 c 0,-1.46768 -1.18979,-2.65748 -2.65748,-2.65748 -1.46769,0 -2.65748,1.1898 -2.65748,2.65748 0,1.46771 1.18979,2.65748 2.65748,2.65748 1.46769,0 2.65748,-1.18977 2.65748,-2.65748 z"
         style="fill:none;stroke:#ff0000;stroke-width:0.35433072;stroke-miterlimit:4;stroke-dasharray:none" />
      <path
         inkscape:connector-curvature="0"
         id="path5389"
         d="m 566.04613,137.08445 c 0,-1.46768 -1.18981,-2.65748 -2.65748,-2.65748 -1.46767,0 -2.65748,1.1898 -2.65748,2.65748 0,1.46771 1.18981,2.65748 2.65748,2.65748 1.46767,0 2.65748,-1.18977 2.65748,-2.65748 z"
         style="fill:none;stroke:#ff0000;stroke-width:0.35433072;stroke-miterlimit:4;stroke-dasharray:none" />
      <path
         inkscape:connector-curvature="0"
         id="path5387"
         d="m 566.04613,18.97419 c 0,-1.467709 -1.18981,-2.657481 -2.65748,-2.657481 -1.46767,0 -2.65748,1.189772 -2.65748,2.657481 0,1.467673 1.18981,2.65748 2.65748,2.65748 1.46767,0 2.65748,-1.189807 2.65748,-2.65748 z"
         style="fill:none;stroke:#ff0000;stroke-width:0.35433072;stroke-miterlimit:4;stroke-dasharray:none" />
      <path
         inkscape:connector-curvature="0"
         id="path5385"
         d="m 447.93589,18.97419 c 0,-1.467709 -1.18979,-2.657481 -2.65748,-2.657481 -1.46769,0 -2.65748,1.189772 -2.65748,2.657481 0,1.467673 1.18979,2.65748 2.65748,2.65748 1.46769,0 2.65748,-1.189807 2.65748,-2.65748 z"
         style="fill:none;stroke:#ff0000;stroke-width:0.35433072;stroke-miterlimit:4;stroke-dasharray:none" />
      <path
         inkscape:connector-curvature="0"
         id="path5383"
         d="m 1629.0382,-571.57699 c 0,-1.46771 -1.1898,-2.65748 -2.6574,-2.65748 -1.4677,0 -2.6575,1.18977 -2.6575,2.65748 0,1.46767 1.1898,2.65748 2.6575,2.65748 1.4676,0 2.6574,-1.18981 2.6574,-2.65748 z"
         style="fill:none;stroke:#ff0000;stroke-width:0.35433072;stroke-miterlimit:4;stroke-dasharray:none" />
      <path
         inkscape:connector-curvature="0"
         id="path5381"
         d="m 1747.1485,-571.57699 c 0,-1.46771 -1.1898,-2.65748 -2.6575,-2.65748 -1.4677,0 -2.6575,1.18977 -2.6575,2.65748 0,1.46767 1.1898,2.65748 2.6575,2.65748 1.4677,0 2.6575,-1.18981 2.6575,-2.65748 z"
         style="fill:none;stroke:#ff0000;stroke-width:0.35433072;stroke-miterlimit:4;stroke-dasharray:none" />
      <path
         inkscape:connector-curvature="0"
         id="path5379"
         d="m 1865.2587,-571.57699 c 0,-1.46771 -1.1898,-2.65748 -2.6575,-2.65748 -1.4677,0 -2.6575,1.18977 -2.6575,2.65748 0,1.46767 1.1898,2.65748 2.6575,2.65748 1.4677,0 2.6575,-1.18981 2.6575,-2.65748 z"
         style="fill:none;stroke:#ff0000;stroke-width:0.35433072;stroke-miterlimit:4;stroke-dasharray:none" />
      <path
         inkscape:connector-curvature="0"
         id="path5377"
         d="m 1038.4871,-571.57699 c 0,-1.46771 -1.1899,-2.65748 -2.6575,-2.65748 -1.4677,0 -2.6575,1.18977 -2.6575,2.65748 0,1.46767 1.1898,2.65748 2.6575,2.65748 1.4676,0 2.6575,-1.18981 2.6575,-2.65748 z"
         style="fill:none;stroke:#ff0000;stroke-width:0.35433072;stroke-miterlimit:4;stroke-dasharray:none" />
      <path
         inkscape:connector-curvature="0"
         id="path5375"
         d="m 920.37683,-571.57699 c 0,-1.46771 -1.18981,-2.65748 -2.65748,-2.65748 -1.46767,0 -2.65748,1.18977 -2.65748,2.65748 0,1.46767 1.18981,2.65748 2.65748,2.65748 1.46767,0 2.65748,-1.18981 2.65748,-2.65748 z"
         style="fill:none;stroke:#ff0000;stroke-width:0.35433072;stroke-miterlimit:4;stroke-dasharray:none" />
      <path
         inkscape:connector-curvature="0"
         id="path5373"
         d="m 802.26661,-571.57699 c 0,-1.46771 -1.18977,-2.65748 -2.65748,-2.65748 -1.46767,0 -2.65748,1.18977 -2.65748,2.65748 0,1.46767 1.18981,2.65748 2.65748,2.65748 1.46771,0 2.65748,-1.18981 2.65748,-2.65748 z"
         style="fill:none;stroke:#ff0000;stroke-width:0.35433072;stroke-miterlimit:4;stroke-dasharray:none" />
      <path
         inkscape:connector-curvature="0"
         id="path5371"
         d="m 684.15635,-571.57699 c 0,-1.46771 -1.1898,-2.65748 -2.65748,-2.65748 -1.46771,0 -2.65748,1.18977 -2.65748,2.65748 0,1.46767 1.18977,2.65748 2.65748,2.65748 1.46768,0 2.65748,-1.18981 2.65748,-2.65748 z"
         style="fill:none;stroke:#ff0000;stroke-width:0.35433072;stroke-miterlimit:4;stroke-dasharray:none" />
      <path
         inkscape:connector-curvature="0"
         id="path5369"
         d="m 1274.7075,-571.57699 c 0,-1.46771 -1.1898,-2.65748 -2.6574,-2.65748 -1.4677,0 -2.6575,1.18977 -2.6575,2.65748 0,1.46767 1.1898,2.65748 2.6575,2.65748 1.4676,0 2.6574,-1.18981 2.6574,-2.65748 z"
         style="fill:none;stroke:#ff0000;stroke-width:0.35433072;stroke-miterlimit:4;stroke-dasharray:none" />
      <path
         inkscape:connector-curvature="0"
         id="path5367"
         d="m 1156.5973,-571.57699 c 0,-1.46771 -1.1898,-2.65748 -2.6575,-2.65748 -1.4677,0 -2.6575,1.18977 -2.6575,2.65748 0,1.46767 1.1898,2.65748 2.6575,2.65748 1.4677,0 2.6575,-1.18981 2.6575,-2.65748 z"
         style="fill:none;stroke:#ff0000;stroke-width:0.35433072;stroke-miterlimit:4;stroke-dasharray:none" />
      <path
         inkscape:connector-curvature="0"
         id="path5365"
         d="m 1392.8178,-571.57699 c 0,-1.46771 -1.1898,-2.65748 -2.6575,-2.65748 -1.4677,0 -2.6575,1.18977 -2.6575,2.65748 0,1.46767 1.1898,2.65748 2.6575,2.65748 1.4677,0 2.6575,-1.18981 2.6575,-2.65748 z"
         style="fill:none;stroke:#ff0000;stroke-width:0.35433072;stroke-miterlimit:4;stroke-dasharray:none" />
      <path
         inkscape:connector-curvature="0"
         id="path5363"
         d="m 1510.928,-571.57699 c 0,-1.46771 -1.1898,-2.65748 -2.6575,-2.65748 -1.4677,0 -2.6575,1.18977 -2.6575,2.65748 0,1.46767 1.1898,2.65748 2.6575,2.65748 1.4677,0 2.6575,-1.18981 2.6575,-2.65748 z"
         style="fill:none;stroke:#ff0000;stroke-width:0.35433072;stroke-miterlimit:4;stroke-dasharray:none" />
      <path
         inkscape:connector-curvature="0"
         id="path5361"
         d="m 684.15635,-453.46673 c 0,-1.46768 -1.1898,-2.65748 -2.65748,-2.65748 -1.46771,0 -2.65748,1.1898 -2.65748,2.65748 0,1.46767 1.18977,2.65748 2.65748,2.65748 1.46768,0 2.65748,-1.18981 2.65748,-2.65748 z"
         style="fill:none;stroke:#ff0000;stroke-width:0.35433072;stroke-miterlimit:4;stroke-dasharray:none" />
      <path
         inkscape:connector-curvature="0"
         id="path5359"
         d="m 802.26661,-453.46673 c 0,-1.46768 -1.18977,-2.65748 -2.65748,-2.65748 -1.46767,0 -2.65748,1.1898 -2.65748,2.65748 0,1.46767 1.18981,2.65748 2.65748,2.65748 1.46771,0 2.65748,-1.18981 2.65748,-2.65748 z"
         style="fill:none;stroke:#ff0000;stroke-width:0.35433072;stroke-miterlimit:4;stroke-dasharray:none" />
      <path
         inkscape:connector-curvature="0"
         id="path5357"
         d="m 1747.1485,-453.46673 c 0,-1.46768 -1.1898,-2.65748 -2.6575,-2.65748 -1.4677,0 -2.6575,1.1898 -2.6575,2.65748 0,1.46767 1.1898,2.65748 2.6575,2.65748 1.4677,0 2.6575,-1.18981 2.6575,-2.65748 z"
         style="fill:none;stroke:#ff0000;stroke-width:0.35433072;stroke-miterlimit:4;stroke-dasharray:none" />
      <path
         inkscape:connector-curvature="0"
         id="path5355"
         d="m 1629.0382,-453.46673 c 0,-1.46768 -1.1898,-2.65748 -2.6574,-2.65748 -1.4677,0 -2.6575,1.1898 -2.6575,2.65748 0,1.46767 1.1898,2.65748 2.6575,2.65748 1.4676,0 2.6574,-1.18981 2.6574,-2.65748 z"
         style="fill:none;stroke:#ff0000;stroke-width:0.35433072;stroke-miterlimit:4;stroke-dasharray:none" />
      <path
         inkscape:connector-curvature="0"
         id="path5353"
         d="m 1510.928,-453.46673 c 0,-1.46768 -1.1898,-2.65748 -2.6575,-2.65748 -1.4677,0 -2.6575,1.1898 -2.6575,2.65748 0,1.46767 1.1898,2.65748 2.6575,2.65748 1.4677,0 2.6575,-1.18981 2.6575,-2.65748 z"
         style="fill:none;stroke:#ff0000;stroke-width:0.35433072;stroke-miterlimit:4;stroke-dasharray:none" />
      <path
         inkscape:connector-curvature="0"
         id="path5351"
         d="m 1274.7075,-453.46673 c 0,-1.46768 -1.1898,-2.65748 -2.6574,-2.65748 -1.4677,0 -2.6575,1.1898 -2.6575,2.65748 0,1.46767 1.1898,2.65748 2.6575,2.65748 1.4676,0 2.6574,-1.18981 2.6574,-2.65748 z"
         style="fill:none;stroke:#ff0000;stroke-width:0.35433072;stroke-miterlimit:4;stroke-dasharray:none" />
      <path
         inkscape:connector-curvature="0"
         id="path5349"
         d="m 1392.8178,-453.46673 c 0,-1.46768 -1.1898,-2.65748 -2.6575,-2.65748 -1.4677,0 -2.6575,1.1898 -2.6575,2.65748 0,1.46767 1.1898,2.65748 2.6575,2.65748 1.4677,0 2.6575,-1.18981 2.6575,-2.65748 z"
         style="fill:none;stroke:#ff0000;stroke-width:0.35433072;stroke-miterlimit:4;stroke-dasharray:none" />
      <path
         inkscape:connector-curvature="0"
         id="path5347"
         d="m 1156.5973,-453.46673 c 0,-1.46768 -1.1898,-2.65748 -2.6575,-2.65748 -1.4677,0 -2.6575,1.1898 -2.6575,2.65748 0,1.46767 1.1898,2.65748 2.6575,2.65748 1.4677,0 2.6575,-1.18981 2.6575,-2.65748 z"
         style="fill:none;stroke:#ff0000;stroke-width:0.35433072;stroke-miterlimit:4;stroke-dasharray:none" />
      <path
         inkscape:connector-curvature="0"
         id="path5345"
         d="m 1038.4871,-453.46673 c 0,-1.46768 -1.1899,-2.65748 -2.6575,-2.65748 -1.4677,0 -2.6575,1.1898 -2.6575,2.65748 0,1.46767 1.1898,2.65748 2.6575,2.65748 1.4676,0 2.6575,-1.18981 2.6575,-2.65748 z"
         style="fill:none;stroke:#ff0000;stroke-width:0.35433072;stroke-miterlimit:4;stroke-dasharray:none" />
      <path
         inkscape:connector-curvature="0"
         id="path5343"
         d="m 920.37683,-453.46673 c 0,-1.46768 -1.18981,-2.65748 -2.65748,-2.65748 -1.46767,0 -2.65748,1.1898 -2.65748,2.65748 0,1.46767 1.18981,2.65748 2.65748,2.65748 1.46767,0 2.65748,-1.18981 2.65748,-2.65748 z"
         style="fill:none;stroke:#ff0000;stroke-width:0.35433072;stroke-miterlimit:4;stroke-dasharray:none" />
      <path
         inkscape:connector-curvature="0"
         id="path5341"
         d="m 1865.2587,-335.35648 c 0,-1.46767 -1.1898,-2.65748 -2.6575,-2.65748 -1.4677,0 -2.6575,1.18981 -2.6575,2.65748 0,1.46771 1.1898,2.65749 2.6575,2.65749 1.4677,0 2.6575,-1.18978 2.6575,-2.65749 z"
         style="fill:none;stroke:#ff0000;stroke-width:0.35433072;stroke-miterlimit:4;stroke-dasharray:none" />
      <path
         inkscape:connector-curvature="0"
         id="path5339"
         d="m 1865.2587,-217.24629 c 0,-1.46771 -1.1898,-2.65748 -2.6575,-2.65748 -1.4677,0 -2.6575,1.18977 -2.6575,2.65748 0,1.46767 1.1898,2.65748 2.6575,2.65748 1.4677,0 2.6575,-1.18981 2.6575,-2.65748 z"
         style="fill:none;stroke:#ff0000;stroke-width:0.35433072;stroke-miterlimit:4;stroke-dasharray:none" />
      <path
         inkscape:connector-curvature="0"
         id="path5337"
         d="m 1865.2587,137.08445 c 0,-1.46768 -1.1898,-2.65748 -2.6575,-2.65748 -1.4677,0 -2.6575,1.1898 -2.6575,2.65748 0,1.46771 1.1898,2.65748 2.6575,2.65748 1.4677,0 2.6575,-1.18977 2.6575,-2.65748 z"
         style="fill:none;stroke:#ff0000;stroke-width:0.35433072;stroke-miterlimit:4;stroke-dasharray:none" />
      <path
         inkscape:connector-curvature="0"
         id="path5335"
         d="m 1865.2587,-99.136032 c 0,-1.467678 -1.1898,-2.657478 -2.6575,-2.657478 -1.4677,0 -2.6575,1.1898 -2.6575,2.657478 0,1.467673 1.1898,2.65748 2.6575,2.65748 1.4677,0 2.6575,-1.189807 2.6575,-2.65748 z"
         style="fill:none;stroke:#ff0000;stroke-width:0.35433072;stroke-miterlimit:4;stroke-dasharray:none" />
      <path
         inkscape:connector-curvature="0"
         id="path5333"
         d="m 1865.2587,373.30492 c 0,-1.46767 -1.1898,-2.65748 -2.6575,-2.65748 -1.4677,0 -2.6575,1.18981 -2.6575,2.65748 0,1.46771 1.1898,2.65749 2.6575,2.65749 1.4677,0 2.6575,-1.18978 2.6575,-2.65749 z"
         style="fill:none;stroke:#ff0000;stroke-width:0.35433072;stroke-miterlimit:4;stroke-dasharray:none" />
      <path
         inkscape:connector-curvature="0"
         id="path5331"
         d="m 1865.2587,491.41513 c 0,-1.46769 -1.1898,-2.65748 -2.6575,-2.65748 -1.4677,0 -2.6575,1.18979 -2.6575,2.65748 0,1.46768 1.1898,2.65748 2.6575,2.65748 1.4677,0 2.6575,-1.1898 2.6575,-2.65748 z"
         style="fill:none;stroke:#ff0000;stroke-width:0.35433072;stroke-miterlimit:4;stroke-dasharray:none" />
      <path
         inkscape:connector-curvature="0"
         id="path5329"
         d="m 1156.5973,491.41513 c 0,-1.46769 -1.1898,-2.65748 -2.6575,-2.65748 -1.4677,0 -2.6575,1.18979 -2.6575,2.65748 0,1.46768 1.1898,2.65748 2.6575,2.65748 1.4677,0 2.6575,-1.1898 2.6575,-2.65748 z"
         style="fill:none;stroke:#ff0000;stroke-width:0.35433072;stroke-miterlimit:4;stroke-dasharray:none" />
      <path
         inkscape:connector-curvature="0"
         id="path5327"
         d="m 1156.5973,137.08445 c 0,-1.46768 -1.1898,-2.65748 -2.6575,-2.65748 -1.4677,0 -2.6575,1.1898 -2.6575,2.65748 0,1.46771 1.1898,2.65748 2.6575,2.65748 1.4677,0 2.6575,-1.18977 2.6575,-2.65748 z"
         style="fill:none;stroke:#ff0000;stroke-width:0.35433072;stroke-miterlimit:4;stroke-dasharray:none" />
      <path
         inkscape:connector-curvature="0"
         id="path5325"
         d="m 1274.7075,137.08445 c 0,-1.46768 -1.1898,-2.65748 -2.6574,-2.65748 -1.4677,0 -2.6575,1.1898 -2.6575,2.65748 0,1.46771 1.1898,2.65748 2.6575,2.65748 1.4676,0 2.6574,-1.18977 2.6574,-2.65748 z"
         style="fill:none;stroke:#ff0000;stroke-width:0.35433072;stroke-miterlimit:4;stroke-dasharray:none" />
      <path
         inkscape:connector-curvature="0"
         id="path5323"
         d="m 1274.7075,255.19467 c 0,-1.46768 -1.1898,-2.65748 -2.6574,-2.65748 -1.4677,0 -2.6575,1.1898 -2.6575,2.65748 0,1.46767 1.1898,2.65748 2.6575,2.65748 1.4676,0 2.6574,-1.18981 2.6574,-2.65748 z"
         style="fill:none;stroke:#ff0000;stroke-width:0.35433072;stroke-miterlimit:4;stroke-dasharray:none" />
      <path
         inkscape:connector-curvature="0"
         id="path5321"
         d="m 1274.7075,373.30492 c 0,-1.46767 -1.1898,-2.65748 -2.6574,-2.65748 -1.4677,0 -2.6575,1.18981 -2.6575,2.65748 0,1.46771 1.1898,2.65749 2.6575,2.65749 1.4676,0 2.6574,-1.18978 2.6574,-2.65749 z"
         style="fill:none;stroke:#ff0000;stroke-width:0.35433072;stroke-miterlimit:4;stroke-dasharray:none" />
      <path
         inkscape:connector-curvature="0"
         id="path5319"
         d="m 920.37683,373.30492 c 0,-1.46767 -1.18981,-2.65748 -2.65748,-2.65748 -1.46767,0 -2.65748,1.18981 -2.65748,2.65748 0,1.46771 1.18981,2.65749 2.65748,2.65749 1.46767,0 2.65748,-1.18978 2.65748,-2.65749 z"
         style="fill:none;stroke:#ff0000;stroke-width:0.35433072;stroke-miterlimit:4;stroke-dasharray:none" />
      <path
         inkscape:connector-curvature="0"
         id="path5317"
         d="m 920.37683,255.19467 c 0,-1.46768 -1.18981,-2.65748 -2.65748,-2.65748 -1.46767,0 -2.65748,1.1898 -2.65748,2.65748 0,1.46767 1.18981,2.65748 2.65748,2.65748 1.46767,0 2.65748,-1.18981 2.65748,-2.65748 z"
         style="fill:none;stroke:#ff0000;stroke-width:0.35433072;stroke-miterlimit:4;stroke-dasharray:none" />
      <path
         inkscape:connector-curvature="0"
         id="path5315"
         d="m 1038.4871,255.19467 c 0,-1.46768 -1.1899,-2.65748 -2.6575,-2.65748 -1.4677,0 -2.6575,1.1898 -2.6575,2.65748 0,1.46767 1.1898,2.65748 2.6575,2.65748 1.4676,0 2.6575,-1.18981 2.6575,-2.65748 z"
         style="fill:none;stroke:#ff0000;stroke-width:0.35433072;stroke-miterlimit:4;stroke-dasharray:none" />
      <path
         inkscape:connector-curvature="0"
         id="path5313"
         d="m 1156.5973,255.19467 c 0,-1.46768 -1.1898,-2.65748 -2.6575,-2.65748 -1.4677,0 -2.6575,1.1898 -2.6575,2.65748 0,1.46767 1.1898,2.65748 2.6575,2.65748 1.4677,0 2.6575,-1.18981 2.6575,-2.65748 z"
         style="fill:none;stroke:#ff0000;stroke-width:0.35433072;stroke-miterlimit:4;stroke-dasharray:none" />
      <path
         inkscape:connector-curvature="0"
         id="path5311"
         d="m 1156.5973,373.30492 c 0,-1.46767 -1.1898,-2.65748 -2.6575,-2.65748 -1.4677,0 -2.6575,1.18981 -2.6575,2.65748 0,1.46771 1.1898,2.65749 2.6575,2.65749 1.4677,0 2.6575,-1.18978 2.6575,-2.65749 z"
         style="fill:none;stroke:#ff0000;stroke-width:0.35433072;stroke-miterlimit:4;stroke-dasharray:none" />
      <path
         inkscape:connector-curvature="0"
         id="path5309"
         d="m 1156.5973,18.97419 c 0,-1.467709 -1.1898,-2.657481 -2.6575,-2.657481 -1.4677,0 -2.6575,1.189772 -2.6575,2.657481 0,1.467673 1.1898,2.65748 2.6575,2.65748 1.4677,0 2.6575,-1.189807 2.6575,-2.65748 z"
         style="fill:none;stroke:#ff0000;stroke-width:0.35433072;stroke-miterlimit:4;stroke-dasharray:none" />
      <path
         inkscape:connector-curvature="0"
         id="path5307"
         d="m 1038.4871,18.97419 c 0,-1.467709 -1.1899,-2.657481 -2.6575,-2.657481 -1.4677,0 -2.6575,1.189772 -2.6575,2.657481 0,1.467673 1.1898,2.65748 2.6575,2.65748 1.4676,0 2.6575,-1.189807 2.6575,-2.65748 z"
         style="fill:none;stroke:#ff0000;stroke-width:0.35433072;stroke-miterlimit:4;stroke-dasharray:none" />
      <path
         inkscape:connector-curvature="0"
         id="path5305"
         d="m 1274.7075,18.97419 c 0,-1.467709 -1.1898,-2.657481 -2.6574,-2.657481 -1.4677,0 -2.6575,1.189772 -2.6575,2.657481 0,1.467673 1.1898,2.65748 2.6575,2.65748 1.4676,0 2.6574,-1.189807 2.6574,-2.65748 z"
         style="fill:none;stroke:#ff0000;stroke-width:0.35433072;stroke-miterlimit:4;stroke-dasharray:none" />
      <path
         inkscape:connector-curvature="0"
         id="path5303"
         d="m 920.37683,-335.35648 c 0,-1.46767 -1.18981,-2.65748 -2.65748,-2.65748 -1.46767,0 -2.65748,1.18981 -2.65748,2.65748 0,1.46771 1.18981,2.65749 2.65748,2.65749 1.46767,0 2.65748,-1.18978 2.65748,-2.65749 z"
         style="fill:none;stroke:#ff0000;stroke-width:0.35433072;stroke-miterlimit:4;stroke-dasharray:none" />
      <path
         inkscape:connector-curvature="0"
         id="path5301"
         d="m 1038.4871,-335.35648 c 0,-1.46767 -1.1899,-2.65748 -2.6575,-2.65748 -1.4677,0 -2.6575,1.18981 -2.6575,2.65748 0,1.46771 1.1898,2.65749 2.6575,2.65749 1.4676,0 2.6575,-1.18978 2.6575,-2.65749 z"
         style="fill:none;stroke:#ff0000;stroke-width:0.35433072;stroke-miterlimit:4;stroke-dasharray:none" />
      <path
         inkscape:connector-curvature="0"
         id="path5299"
         d="m 1038.4871,-217.24629 c 0,-1.46771 -1.1899,-2.65748 -2.6575,-2.65748 -1.4677,0 -2.6575,1.18977 -2.6575,2.65748 0,1.46767 1.1898,2.65748 2.6575,2.65748 1.4676,0 2.6575,-1.18981 2.6575,-2.65748 z"
         style="fill:none;stroke:#ff0000;stroke-width:0.35433072;stroke-miterlimit:4;stroke-dasharray:none" />
      <path
         inkscape:connector-curvature="0"
         id="path5297"
         d="m 920.37683,-217.24629 c 0,-1.46771 -1.18981,-2.65748 -2.65748,-2.65748 -1.46767,0 -2.65748,1.18977 -2.65748,2.65748 0,1.46767 1.18981,2.65748 2.65748,2.65748 1.46767,0 2.65748,-1.18981 2.65748,-2.65748 z"
         style="fill:none;stroke:#ff0000;stroke-width:0.35433072;stroke-miterlimit:4;stroke-dasharray:none" />
      <path
         inkscape:connector-curvature="0"
         id="path5295"
         d="m 920.37683,-99.136032 c 0,-1.467678 -1.18981,-2.657478 -2.65748,-2.657478 -1.46767,0 -2.65748,1.1898 -2.65748,2.657478 0,1.467673 1.18981,2.65748 2.65748,2.65748 1.46767,0 2.65748,-1.189807 2.65748,-2.65748 z"
         style="fill:none;stroke:#ff0000;stroke-width:0.35433072;stroke-miterlimit:4;stroke-dasharray:none" />
      <path
         inkscape:connector-curvature="0"
         id="path5293"
         d="m 1274.7075,-99.136032 c 0,-1.467678 -1.1898,-2.657478 -2.6574,-2.657478 -1.4677,0 -2.6575,1.1898 -2.6575,2.657478 0,1.467673 1.1898,2.65748 2.6575,2.65748 1.4676,0 2.6574,-1.189807 2.6574,-2.65748 z"
         style="fill:none;stroke:#ff0000;stroke-width:0.35433072;stroke-miterlimit:4;stroke-dasharray:none" />
      <path
         inkscape:connector-curvature="0"
         id="path5291"
         d="m 1156.5973,-99.136032 c 0,-1.467678 -1.1898,-2.657478 -2.6575,-2.657478 -1.4677,0 -2.6575,1.1898 -2.6575,2.657478 0,1.467673 1.1898,2.65748 2.6575,2.65748 1.4677,0 2.6575,-1.189807 2.6575,-2.65748 z"
         style="fill:none;stroke:#ff0000;stroke-width:0.35433072;stroke-miterlimit:4;stroke-dasharray:none" />
      <path
         inkscape:connector-curvature="0"
         id="path5289"
         d="m 1274.7075,-217.24629 c 0,-1.46771 -1.1898,-2.65748 -2.6574,-2.65748 -1.4677,0 -2.6575,1.18977 -2.6575,2.65748 0,1.46767 1.1898,2.65748 2.6575,2.65748 1.4676,0 2.6574,-1.18981 2.6574,-2.65748 z"
         style="fill:none;stroke:#ff0000;stroke-width:0.35433072;stroke-miterlimit:4;stroke-dasharray:none" />
      <path
         inkscape:connector-curvature="0"
         id="path5287"
         d="m 1274.7075,-335.35648 c 0,-1.46767 -1.1898,-2.65748 -2.6574,-2.65748 -1.4677,0 -2.6575,1.18981 -2.6575,2.65748 0,1.46771 1.1898,2.65749 2.6575,2.65749 1.4676,0 2.6574,-1.18978 2.6574,-2.65749 z"
         style="fill:none;stroke:#ff0000;stroke-width:0.35433072;stroke-miterlimit:4;stroke-dasharray:none" />
      <path
         inkscape:connector-curvature="0"
         id="path5285"
         d="m 920.37683,18.97419 c 0,-1.467709 -1.18981,-2.657481 -2.65748,-2.657481 -1.46767,0 -2.65748,1.189772 -2.65748,2.657481 0,1.467673 1.18981,2.65748 2.65748,2.65748 1.46767,0 2.65748,-1.189807 2.65748,-2.65748 z"
         style="fill:none;stroke:#ff0000;stroke-width:0.35433072;stroke-miterlimit:4;stroke-dasharray:none" />
      <path
         inkscape:connector-curvature="0"
         id="path5283"
         d="m 920.37683,137.08445 c 0,-1.46768 -1.18981,-2.65748 -2.65748,-2.65748 -1.46767,0 -2.65748,1.1898 -2.65748,2.65748 0,1.46771 1.18981,2.65748 2.65748,2.65748 1.46767,0 2.65748,-1.18977 2.65748,-2.65748 z"
         style="fill:none;stroke:#ff0000;stroke-width:0.35433072;stroke-miterlimit:4;stroke-dasharray:none" />
      <path
         inkscape:connector-curvature="0"
         id="path5281"
         d="m 1038.4871,373.30492 c 0,-1.46767 -1.1899,-2.65748 -2.6575,-2.65748 -1.4677,0 -2.6575,1.18981 -2.6575,2.65748 0,1.46771 1.1898,2.65749 2.6575,2.65749 1.4676,0 2.6575,-1.18978 2.6575,-2.65749 z"
         style="fill:none;stroke:#ff0000;stroke-width:0.35433072;stroke-miterlimit:4;stroke-dasharray:none" />
      <path
         inkscape:connector-curvature="0"
         id="path5279"
         d="m 920.37683,491.41513 c 0,-1.46769 -1.18981,-2.65748 -2.65748,-2.65748 -1.46767,0 -2.65748,1.18979 -2.65748,2.65748 0,1.46768 1.18981,2.65748 2.65748,2.65748 1.46767,0 2.65748,-1.1898 2.65748,-2.65748 z"
         style="fill:none;stroke:#ff0000;stroke-width:0.35433072;stroke-miterlimit:4;stroke-dasharray:none" />
      <path
         inkscape:connector-curvature="0"
         id="path5277"
         d="m 1038.4871,491.41513 c 0,-1.46769 -1.1899,-2.65748 -2.6575,-2.65748 -1.4677,0 -2.6575,1.18979 -2.6575,2.65748 0,1.46768 1.1898,2.65748 2.6575,2.65748 1.4676,0 2.6575,-1.1898 2.6575,-2.65748 z"
         style="fill:none;stroke:#ff0000;stroke-width:0.35433072;stroke-miterlimit:4;stroke-dasharray:none" />
      <path
         inkscape:connector-curvature="0"
         id="path5275"
         d="m 684.15635,137.08445 c 0,-1.46768 -1.1898,-2.65748 -2.65748,-2.65748 -1.46771,0 -2.65748,1.1898 -2.65748,2.65748 0,1.46771 1.18977,2.65748 2.65748,2.65748 1.46768,0 2.65748,-1.18977 2.65748,-2.65748 z"
         style="fill:none;stroke:#ff0000;stroke-width:0.35433072;stroke-miterlimit:4;stroke-dasharray:none" />
      <path
         inkscape:connector-curvature="0"
         id="path5273"
         d="m 684.15635,255.19467 c 0,-1.46768 -1.1898,-2.65748 -2.65748,-2.65748 -1.46771,0 -2.65748,1.1898 -2.65748,2.65748 0,1.46767 1.18977,2.65748 2.65748,2.65748 1.46768,0 2.65748,-1.18981 2.65748,-2.65748 z"
         style="fill:none;stroke:#ff0000;stroke-width:0.35433072;stroke-miterlimit:4;stroke-dasharray:none" />
      <path
         inkscape:connector-curvature="0"
         id="path5271"
         d="m 802.26661,255.19467 c 0,-1.46768 -1.18977,-2.65748 -2.65748,-2.65748 -1.46767,0 -2.65748,1.1898 -2.65748,2.65748 0,1.46767 1.18981,2.65748 2.65748,2.65748 1.46771,0 2.65748,-1.18981 2.65748,-2.65748 z"
         style="fill:none;stroke:#ff0000;stroke-width:0.35433072;stroke-miterlimit:4;stroke-dasharray:none" />
      <path
         inkscape:connector-curvature="0"
         id="path5269"
         d="m 802.26661,137.08445 c 0,-1.46768 -1.18977,-2.65748 -2.65748,-2.65748 -1.46767,0 -2.65748,1.1898 -2.65748,2.65748 0,1.46771 1.18981,2.65748 2.65748,2.65748 1.46771,0 2.65748,-1.18977 2.65748,-2.65748 z"
         style="fill:none;stroke:#ff0000;stroke-width:0.35433072;stroke-miterlimit:4;stroke-dasharray:none" />
      <path
         inkscape:connector-curvature="0"
         id="path5267"
         d="m 684.15635,373.30492 c 0,-1.46767 -1.1898,-2.65748 -2.65748,-2.65748 -1.46771,0 -2.65748,1.18981 -2.65748,2.65748 0,1.46771 1.18977,2.65749 2.65748,2.65749 1.46768,0 2.65748,-1.18978 2.65748,-2.65749 z"
         style="fill:none;stroke:#ff0000;stroke-width:0.35433072;stroke-miterlimit:4;stroke-dasharray:none" />
      <path
         inkscape:connector-curvature="0"
         id="path5265"
         d="m 802.26661,373.30492 c 0,-1.46767 -1.18977,-2.65748 -2.65748,-2.65748 -1.46767,0 -2.65748,1.18981 -2.65748,2.65748 0,1.46771 1.18981,2.65749 2.65748,2.65749 1.46771,0 2.65748,-1.18978 2.65748,-2.65749 z"
         style="fill:none;stroke:#ff0000;stroke-width:0.35433072;stroke-miterlimit:4;stroke-dasharray:none" />
      <path
         inkscape:connector-curvature="0"
         id="path5263"
         d="m 684.15635,491.41513 c 0,-1.46769 -1.1898,-2.65748 -2.65748,-2.65748 -1.46771,0 -2.65748,1.18979 -2.65748,2.65748 0,1.46768 1.18977,2.65748 2.65748,2.65748 1.46768,0 2.65748,-1.1898 2.65748,-2.65748 z"
         style="fill:none;stroke:#ff0000;stroke-width:0.35433072;stroke-miterlimit:4;stroke-dasharray:none" />
      <path
         inkscape:connector-curvature="0"
         id="path5261"
         d="m 802.26661,491.41513 c 0,-1.46769 -1.18977,-2.65748 -2.65748,-2.65748 -1.46767,0 -2.65748,1.18979 -2.65748,2.65748 0,1.46768 1.18981,2.65748 2.65748,2.65748 1.46771,0 2.65748,-1.1898 2.65748,-2.65748 z"
         style="fill:none;stroke:#ff0000;stroke-width:0.35433072;stroke-miterlimit:4;stroke-dasharray:none" />
      <path
         inkscape:connector-curvature="0"
         id="path5259"
         d="m 684.15635,18.97419 c 0,-1.467709 -1.1898,-2.657481 -2.65748,-2.657481 -1.46771,0 -2.65748,1.189772 -2.65748,2.657481 0,1.467673 1.18977,2.65748 2.65748,2.65748 1.46768,0 2.65748,-1.189807 2.65748,-2.65748 z"
         style="fill:none;stroke:#ff0000;stroke-width:0.35433072;stroke-miterlimit:4;stroke-dasharray:none" />
      <path
         inkscape:connector-curvature="0"
         id="path5257"
         d="m 802.26661,-335.35648 c 0,-1.46767 -1.18977,-2.65748 -2.65748,-2.65748 -1.46767,0 -2.65748,1.18981 -2.65748,2.65748 0,1.46771 1.18981,2.65749 2.65748,2.65749 1.46771,0 2.65748,-1.18978 2.65748,-2.65749 z"
         style="fill:none;stroke:#ff0000;stroke-width:0.35433072;stroke-miterlimit:4;stroke-dasharray:none" />
      <path
         inkscape:connector-curvature="0"
         id="path5255"
         d="m 802.26661,-99.136032 c 0,-1.467678 -1.18977,-2.657478 -2.65748,-2.657478 -1.46767,0 -2.65748,1.1898 -2.65748,2.657478 0,1.467673 1.18981,2.65748 2.65748,2.65748 1.46771,0 2.65748,-1.189807 2.65748,-2.65748 z"
         style="fill:none;stroke:#ff0000;stroke-width:0.35433072;stroke-miterlimit:4;stroke-dasharray:none" />
      <path
         inkscape:connector-curvature="0"
         id="path5253"
         d="m 802.26661,-217.24629 c 0,-1.46771 -1.18977,-2.65748 -2.65748,-2.65748 -1.46767,0 -2.65748,1.18977 -2.65748,2.65748 0,1.46767 1.18981,2.65748 2.65748,2.65748 1.46771,0 2.65748,-1.18981 2.65748,-2.65748 z"
         style="fill:none;stroke:#ff0000;stroke-width:0.35433072;stroke-miterlimit:4;stroke-dasharray:none" />
      <path
         inkscape:connector-curvature="0"
         id="path5251"
         d="m 684.15635,-217.24629 c 0,-1.46771 -1.1898,-2.65748 -2.65748,-2.65748 -1.46771,0 -2.65748,1.18977 -2.65748,2.65748 0,1.46767 1.18977,2.65748 2.65748,2.65748 1.46768,0 2.65748,-1.18981 2.65748,-2.65748 z"
         style="fill:none;stroke:#ff0000;stroke-width:0.35433072;stroke-miterlimit:4;stroke-dasharray:none" />
      <path
         inkscape:connector-curvature="0"
         id="path5249"
         d="m 684.15635,-99.136032 c 0,-1.467678 -1.1898,-2.657478 -2.65748,-2.657478 -1.46771,0 -2.65748,1.1898 -2.65748,2.657478 0,1.467673 1.18977,2.65748 2.65748,2.65748 1.46768,0 2.65748,-1.189807 2.65748,-2.65748 z"
         style="fill:none;stroke:#ff0000;stroke-width:0.35433072;stroke-miterlimit:4;stroke-dasharray:none" />
      <path
         inkscape:connector-curvature="0"
         id="path5247"
         d="m 684.15635,-335.35648 c 0,-1.46767 -1.1898,-2.65748 -2.65748,-2.65748 -1.46771,0 -2.65748,1.18981 -2.65748,2.65748 0,1.46771 1.18977,2.65749 2.65748,2.65749 1.46768,0 2.65748,-1.18978 2.65748,-2.65749 z"
         style="fill:none;stroke:#ff0000;stroke-width:0.35433072;stroke-miterlimit:4;stroke-dasharray:none" />
      <path
         inkscape:connector-curvature="0"
         id="path5245"
         d="m 1510.928,-335.35648 c 0,-1.46767 -1.1898,-2.65748 -2.6575,-2.65748 -1.4677,0 -2.6575,1.18981 -2.6575,2.65748 0,1.46771 1.1898,2.65749 2.6575,2.65749 1.4677,0 2.6575,-1.18978 2.6575,-2.65749 z"
         style="fill:none;stroke:#ff0000;stroke-width:0.35433072;stroke-miterlimit:4;stroke-dasharray:none" />
      <path
         inkscape:connector-curvature="0"
         id="path5243"
         d="m 1392.8178,-335.35648 c 0,-1.46767 -1.1898,-2.65748 -2.6575,-2.65748 -1.4677,0 -2.6575,1.18981 -2.6575,2.65748 0,1.46771 1.1898,2.65749 2.6575,2.65749 1.4677,0 2.6575,-1.18978 2.6575,-2.65749 z"
         style="fill:none;stroke:#ff0000;stroke-width:0.35433072;stroke-miterlimit:4;stroke-dasharray:none" />
      <path
         inkscape:connector-curvature="0"
         id="path5241"
         d="m 1629.0382,-335.35648 c 0,-1.46767 -1.1898,-2.65748 -2.6574,-2.65748 -1.4677,0 -2.6575,1.18981 -2.6575,2.65748 0,1.46771 1.1898,2.65749 2.6575,2.65749 1.4676,0 2.6574,-1.18978 2.6574,-2.65749 z"
         style="fill:none;stroke:#ff0000;stroke-width:0.35433072;stroke-miterlimit:4;stroke-dasharray:none" />
      <path
         inkscape:connector-curvature="0"
         id="path5239"
         d="m 1156.5973,-217.24629 c 0,-1.46771 -1.1898,-2.65748 -2.6575,-2.65748 -1.4677,0 -2.6575,1.18977 -2.6575,2.65748 0,1.46767 1.1898,2.65748 2.6575,2.65748 1.4677,0 2.6575,-1.18981 2.6575,-2.65748 z"
         style="fill:none;stroke:#ff0000;stroke-width:0.35433072;stroke-miterlimit:4;stroke-dasharray:none" />
      <path
         inkscape:connector-curvature="0"
         id="path5237"
         d="m 1629.0382,-217.24629 c 0,-1.46771 -1.1898,-2.65748 -2.6574,-2.65748 -1.4677,0 -2.6575,1.18977 -2.6575,2.65748 0,1.46767 1.1898,2.65748 2.6575,2.65748 1.4676,0 2.6574,-1.18981 2.6574,-2.65748 z"
         style="fill:none;stroke:#ff0000;stroke-width:0.35433072;stroke-miterlimit:4;stroke-dasharray:none" />
      <path
         inkscape:connector-curvature="0"
         id="path5235"
         d="m 1747.1485,-99.136032 c 0,-1.467678 -1.1898,-2.657478 -2.6575,-2.657478 -1.4677,0 -2.6575,1.1898 -2.6575,2.657478 0,1.467673 1.1898,2.65748 2.6575,2.65748 1.4677,0 2.6575,-1.189807 2.6575,-2.65748 z"
         style="fill:none;stroke:#ff0000;stroke-width:0.35433072;stroke-miterlimit:4;stroke-dasharray:none" />
      <path
         inkscape:connector-curvature="0"
         id="path5233"
         d="m 1629.0382,-99.136032 c 0,-1.467678 -1.1898,-2.657478 -2.6574,-2.657478 -1.4677,0 -2.6575,1.1898 -2.6575,2.657478 0,1.467673 1.1898,2.65748 2.6575,2.65748 1.4676,0 2.6574,-1.189807 2.6574,-2.65748 z"
         style="fill:none;stroke:#ff0000;stroke-width:0.35433072;stroke-miterlimit:4;stroke-dasharray:none" />
      <path
         inkscape:connector-curvature="0"
         id="path5231"
         d="m 1038.4871,-99.136032 c 0,-1.467678 -1.1899,-2.657478 -2.6575,-2.657478 -1.4677,0 -2.6575,1.1898 -2.6575,2.657478 0,1.467673 1.1898,2.65748 2.6575,2.65748 1.4676,0 2.6575,-1.189807 2.6575,-2.65748 z"
         style="fill:none;stroke:#ff0000;stroke-width:0.35433072;stroke-miterlimit:4;stroke-dasharray:none" />
      <path
         inkscape:connector-curvature="0"
         id="path5229"
         d="m 1392.8178,-99.136032 c 0,-1.467678 -1.1898,-2.657478 -2.6575,-2.657478 -1.4677,0 -2.6575,1.1898 -2.6575,2.657478 0,1.467673 1.1898,2.65748 2.6575,2.65748 1.4677,0 2.6575,-1.189807 2.6575,-2.65748 z"
         style="fill:none;stroke:#ff0000;stroke-width:0.35433072;stroke-miterlimit:4;stroke-dasharray:none" />
      <path
         inkscape:connector-curvature="0"
         id="path5227"
         d="m 1510.928,-99.136032 c 0,-1.467678 -1.1898,-2.657478 -2.6575,-2.657478 -1.4677,0 -2.6575,1.1898 -2.6575,2.657478 0,1.467673 1.1898,2.65748 2.6575,2.65748 1.4677,0 2.6575,-1.189807 2.6575,-2.65748 z"
         style="fill:none;stroke:#ff0000;stroke-width:0.35433072;stroke-miterlimit:4;stroke-dasharray:none" />
      <path
         inkscape:connector-curvature="0"
         id="path5225"
         d="m 1747.1485,18.97419 c 0,-1.467709 -1.1898,-2.657481 -2.6575,-2.657481 -1.4677,0 -2.6575,1.189772 -2.6575,2.657481 0,1.467673 1.1898,2.65748 2.6575,2.65748 1.4677,0 2.6575,-1.189807 2.6575,-2.65748 z"
         style="fill:none;stroke:#ff0000;stroke-width:0.35433072;stroke-miterlimit:4;stroke-dasharray:none" />
      <path
         inkscape:connector-curvature="0"
         id="path5223"
         d="m 1629.0382,18.97419 c 0,-1.467709 -1.1898,-2.657481 -2.6574,-2.657481 -1.4677,0 -2.6575,1.189772 -2.6575,2.657481 0,1.467673 1.1898,2.65748 2.6575,2.65748 1.4676,0 2.6574,-1.189807 2.6574,-2.65748 z"
         style="fill:none;stroke:#ff0000;stroke-width:0.35433072;stroke-miterlimit:4;stroke-dasharray:none" />
      <path
         inkscape:connector-curvature="0"
         id="path5221"
         d="m 1510.928,18.97419 c 0,-1.467709 -1.1898,-2.657481 -2.6575,-2.657481 -1.4677,0 -2.6575,1.189772 -2.6575,2.657481 0,1.467673 1.1898,2.65748 2.6575,2.65748 1.4677,0 2.6575,-1.189807 2.6575,-2.65748 z"
         style="fill:none;stroke:#ff0000;stroke-width:0.35433072;stroke-miterlimit:4;stroke-dasharray:none" />
      <path
         inkscape:connector-curvature="0"
         id="path5219"
         d="m 1392.8178,18.97419 c 0,-1.467709 -1.1898,-2.657481 -2.6575,-2.657481 -1.4677,0 -2.6575,1.189772 -2.6575,2.657481 0,1.467673 1.1898,2.65748 2.6575,2.65748 1.4677,0 2.6575,-1.189807 2.6575,-2.65748 z"
         style="fill:none;stroke:#ff0000;stroke-width:0.35433072;stroke-miterlimit:4;stroke-dasharray:none" />
      <path
         inkscape:connector-curvature="0"
         id="path5217"
         d="m 1747.1485,373.30492 c 0,-1.46767 -1.1898,-2.65748 -2.6575,-2.65748 -1.4677,0 -2.6575,1.18981 -2.6575,2.65748 0,1.46771 1.1898,2.65749 2.6575,2.65749 1.4677,0 2.6575,-1.18978 2.6575,-2.65749 z"
         style="fill:none;stroke:#ff0000;stroke-width:0.35433072;stroke-miterlimit:4;stroke-dasharray:none" />
      <path
         inkscape:connector-curvature="0"
         id="path5215"
         d="m 1747.1485,491.41513 c 0,-1.46769 -1.1898,-2.65748 -2.6575,-2.65748 -1.4677,0 -2.6575,1.18979 -2.6575,2.65748 0,1.46768 1.1898,2.65748 2.6575,2.65748 1.4677,0 2.6575,-1.1898 2.6575,-2.65748 z"
         style="fill:none;stroke:#ff0000;stroke-width:0.35433072;stroke-miterlimit:4;stroke-dasharray:none" />
      <path
         inkscape:connector-curvature="0"
         id="path5213"
         d="m 1510.928,373.30492 c 0,-1.46767 -1.1898,-2.65748 -2.6575,-2.65748 -1.4677,0 -2.6575,1.18981 -2.6575,2.65748 0,1.46771 1.1898,2.65749 2.6575,2.65749 1.4677,0 2.6575,-1.18978 2.6575,-2.65749 z"
         style="fill:none;stroke:#ff0000;stroke-width:0.35433072;stroke-miterlimit:4;stroke-dasharray:none" />
      <path
         inkscape:connector-curvature="0"
         id="path5211"
         d="m 1510.928,491.41513 c 0,-1.46769 -1.1898,-2.65748 -2.6575,-2.65748 -1.4677,0 -2.6575,1.18979 -2.6575,2.65748 0,1.46768 1.1898,2.65748 2.6575,2.65748 1.4677,0 2.6575,-1.1898 2.6575,-2.65748 z"
         style="fill:none;stroke:#ff0000;stroke-width:0.35433072;stroke-miterlimit:4;stroke-dasharray:none" />
      <path
         inkscape:connector-curvature="0"
         id="path5209"
         d="m 1629.0382,373.30492 c 0,-1.46767 -1.1898,-2.65748 -2.6574,-2.65748 -1.4677,0 -2.6575,1.18981 -2.6575,2.65748 0,1.46771 1.1898,2.65749 2.6575,2.65749 1.4676,0 2.6574,-1.18978 2.6574,-2.65749 z"
         style="fill:none;stroke:#ff0000;stroke-width:0.35433072;stroke-miterlimit:4;stroke-dasharray:none" />
      <path
         inkscape:connector-curvature="0"
         id="path5207"
         d="m 1629.0382,491.41513 c 0,-1.46769 -1.1898,-2.65748 -2.6574,-2.65748 -1.4677,0 -2.6575,1.18979 -2.6575,2.65748 0,1.46768 1.1898,2.65748 2.6575,2.65748 1.4676,0 2.6574,-1.1898 2.6574,-2.65748 z"
         style="fill:none;stroke:#ff0000;stroke-width:0.35433072;stroke-miterlimit:4;stroke-dasharray:none" />
      <path
         inkscape:connector-curvature="0"
         id="path5205"
         d="m 1392.8178,491.41513 c 0,-1.46769 -1.1898,-2.65748 -2.6575,-2.65748 -1.4677,0 -2.6575,1.18979 -2.6575,2.65748 0,1.46768 1.1898,2.65748 2.6575,2.65748 1.4677,0 2.6575,-1.1898 2.6575,-2.65748 z"
         style="fill:none;stroke:#ff0000;stroke-width:0.35433072;stroke-miterlimit:4;stroke-dasharray:none" />
      <path
         inkscape:connector-curvature="0"
         id="path5203"
         d="m 1392.8178,373.30492 c 0,-1.46767 -1.1898,-2.65748 -2.6575,-2.65748 -1.4677,0 -2.6575,1.18981 -2.6575,2.65748 0,1.46771 1.1898,2.65749 2.6575,2.65749 1.4677,0 2.6575,-1.18978 2.6575,-2.65749 z"
         style="fill:none;stroke:#ff0000;stroke-width:0.35433072;stroke-miterlimit:4;stroke-dasharray:none" />
      <path
         inkscape:connector-curvature="0"
         id="path5201"
         d="m 1274.7075,491.41513 c 0,-1.46769 -1.1898,-2.65748 -2.6574,-2.65748 -1.4677,0 -2.6575,1.18979 -2.6575,2.65748 0,1.46768 1.1898,2.65748 2.6575,2.65748 1.4676,0 2.6574,-1.1898 2.6574,-2.65748 z"
         style="fill:none;stroke:#ff0000;stroke-width:0.35433072;stroke-miterlimit:4;stroke-dasharray:none" />
      <path
         inkscape:connector-curvature="0"
         id="path5199"
         d="m 1747.1485,137.08445 c 0,-1.46768 -1.1898,-2.65748 -2.6575,-2.65748 -1.4677,0 -2.6575,1.1898 -2.6575,2.65748 0,1.46771 1.1898,2.65748 2.6575,2.65748 1.4677,0 2.6575,-1.18977 2.6575,-2.65748 z"
         style="fill:none;stroke:#ff0000;stroke-width:0.35433072;stroke-miterlimit:4;stroke-dasharray:none" />
      <path
         inkscape:connector-curvature="0"
         id="path5197"
         d="m 1392.8178,137.08445 c 0,-1.46768 -1.1898,-2.65748 -2.6575,-2.65748 -1.4677,0 -2.6575,1.1898 -2.6575,2.65748 0,1.46771 1.1898,2.65748 2.6575,2.65748 1.4677,0 2.6575,-1.18977 2.6575,-2.65748 z"
         style="fill:none;stroke:#ff0000;stroke-width:0.35433072;stroke-miterlimit:4;stroke-dasharray:none" />
      <path
         inkscape:connector-curvature="0"
         id="path5195"
         d="m 1629.0382,137.08445 c 0,-1.46768 -1.1898,-2.65748 -2.6574,-2.65748 -1.4677,0 -2.6575,1.1898 -2.6575,2.65748 0,1.46771 1.1898,2.65748 2.6575,2.65748 1.4676,0 2.6574,-1.18977 2.6574,-2.65748 z"
         style="fill:none;stroke:#ff0000;stroke-width:0.35433072;stroke-miterlimit:4;stroke-dasharray:none" />
      <path
         inkscape:connector-curvature="0"
         id="path5193"
         d="m 1510.928,137.08445 c 0,-1.46768 -1.1898,-2.65748 -2.6575,-2.65748 -1.4677,0 -2.6575,1.1898 -2.6575,2.65748 0,1.46771 1.1898,2.65748 2.6575,2.65748 1.4677,0 2.6575,-1.18977 2.6575,-2.65748 z"
         style="fill:none;stroke:#ff0000;stroke-width:0.35433072;stroke-miterlimit:4;stroke-dasharray:none" />
      <path
         inkscape:connector-curvature="0"
         id="path5191"
         d="m 1510.928,255.19467 c 0,-1.46768 -1.1898,-2.65748 -2.6575,-2.65748 -1.4677,0 -2.6575,1.1898 -2.6575,2.65748 0,1.46767 1.1898,2.65748 2.6575,2.65748 1.4677,0 2.6575,-1.18981 2.6575,-2.65748 z"
         style="fill:none;stroke:#ff0000;stroke-width:0.35433072;stroke-miterlimit:4;stroke-dasharray:none" />
      <path
         inkscape:connector-curvature="0"
         id="path5189"
         d="m 1392.8178,255.19467 c 0,-1.46768 -1.1898,-2.65748 -2.6575,-2.65748 -1.4677,0 -2.6575,1.1898 -2.6575,2.65748 0,1.46767 1.1898,2.65748 2.6575,2.65748 1.4677,0 2.6575,-1.18981 2.6575,-2.65748 z"
         style="fill:none;stroke:#ff0000;stroke-width:0.35433072;stroke-miterlimit:4;stroke-dasharray:none" />
      <path
         inkscape:connector-curvature="0"
         id="path5187"
         d="m 1747.1485,255.19467 c 0,-1.46768 -1.1898,-2.65748 -2.6575,-2.65748 -1.4677,0 -2.6575,1.1898 -2.6575,2.65748 0,1.46767 1.1898,2.65748 2.6575,2.65748 1.4677,0 2.6575,-1.18981 2.6575,-2.65748 z"
         style="fill:none;stroke:#ff0000;stroke-width:0.35433072;stroke-miterlimit:4;stroke-dasharray:none" />
      <path
         inkscape:connector-curvature="0"
         id="path5185"
         d="m 1038.4871,137.08445 c 0,-1.46768 -1.1899,-2.65748 -2.6575,-2.65748 -1.4677,0 -2.6575,1.1898 -2.6575,2.65748 0,1.46771 1.1898,2.65748 2.6575,2.65748 1.4676,0 2.6575,-1.18977 2.6575,-2.65748 z"
         style="fill:none;stroke:#ff0000;stroke-width:0.35433072;stroke-miterlimit:4;stroke-dasharray:none" />
      <path
         inkscape:connector-curvature="0"
         id="circle459"
         d="m 199.3139,-994.70687 110.96145,0 -4e-5,17.71653 93.24492,0 4e-5,-17.71653 93.24492,0 -4e-5,17.71653 93.24493,0 4e-5,-17.71653 93.24493,0 -4e-5,17.71653 93.24492,0 4e-5,-17.71653 93.24492,0 -4e-5,17.71653 93.24493,0 4e-5,-17.71653 93.24488,0 0,17.71653 93.2449,0 0,-17.71653 93.2449,0 0,17.71653 93.2449,0 0,-17.71653 93.245,0 0,17.71653 93.2449,0 0,-17.71653 93.2449,0 0,17.71653 93.2449,0 0,-17.71653 93.2449,0 0,17.71653 93.245,0 0,-17.71653 110.9615,0 0,110.96145 -17.7166,0 0,93.24492 17.7166,0 0,93.24493 -17.7166,0 0,93.24492 17.7166,0 0,93.24492 -17.7166,0 0,93.24493 17.7166,0 0,93.24492 -17.7166,0 0,93.24492 17.7166,0 0,93.24493 -17.7166,0 0,93.244883 17.7166,0 0,93.244922 -17.7166,0 0,93.244925 17.7166,0 0,93.24492 -17.7166,0 0,93.24492 17.7166,0 0,93.24493 -17.7166,0 0,93.24493 17.7166,0 0,93.24492 -17.7166,0 0,93.24492 17.7166,0 0,110.96151 -110.9615,0 0,-17.71659 -93.245,0 0,17.71659 -93.2449,0 0,-17.71659 -93.2449,0 0,17.71659 -93.2449,0 0,-17.71659 -93.2449,0 0,17.71659 -93.245,0 0,-17.71659 -93.2449,0 0,17.71659 -93.2449,0 0,-17.71659 -93.2449,0 0,17.71659 -93.24492,0 0,-17.71659 -93.24493,0 0,17.71659 -93.24492,0 0,-17.71659 -93.24492,0 0,17.71659 -93.24493,0 0,-17.71659 -93.24493,0 0,17.71659 -93.24492,0 0,-17.71659 -93.24492,0 0,17.71659 -110.96145,0 0,-110.96151 17.71653,0 0,-93.24492 -17.71653,0 0,-93.24492 17.71653,0 0,-53.3361 7.08662,0 0,-42.51968 -7.08662,0 -3.3e-4,2.61007 -17.7162,7.8e-4 0,-93.24493 17.71653,0 0,-93.24492 -17.71653,0 0,-93.24492 17.71653,0 0,-93.244925 -17.71653,0 0,-93.244922 17.71653,0 0,-93.244883 -17.71653,0 0,-93.24493 17.71653,0 0,-93.24492 -17.71653,0 0,-93.24492 17.71653,0 0,-93.24493 -17.71653,0 0,-93.24492 17.71653,0 0,-93.24492 -17.71653,0 0,-93.24493 17.71653,0 0,-93.24492 -17.71653,0 z"
         style="fill:none;stroke:#0000ff;stroke-width:0.35433072;stroke-miterlimit:4;stroke-dasharray:none"
         sodipodi:nodetypes="ccccccccccccccccccccccccccccccccccccccccccccccccccccccccccccccccccccccccccccccccccccccccccccccccccccccccccccccccccccccccccccccccccccccccccccccccccccccccc" />
    </g>
    <path
       sodipodi:nodetypes="cccccccccccc"
       inkscape:connector-curvature="0"
       d="m 1889.9401,590.96828 0,24.8031 17.7165,0 0,46.063 -17.7165,0 0,46.063 -1771.65359,0 0,-46.063 -17.71649,0 0,-46.063 17.71649,0 0,-24.8031"
       style="fill:none;stroke:#0000ff;stroke-width:0.35433072;stroke-miterlimit:4;stroke-dasharray:none"
       id="Shape2DView_nwe0047" />
    <path
       sodipodi:nodetypes="cccccccccccc"
       id="Shape2DView_nwe0000"
       d="m 100.57002,590.96825 -24.803142,0 0,-17.71653 -46.062999,0 0,17.71653 -46.062991,0 0,-1807.08665 46.062991,0 0,17.7166 46.062999,0 0,-17.7166 24.803142,0"
       style="fill:none;stroke:#0000ff;stroke-width:0.35433072;stroke-miterlimit:4;stroke-dasharray:none"
       inkscape:connector-curvature="0" />
    <path
       style="fill:none;stroke:#0000ff;stroke-width:0.35433071999999999;stroke-linecap:butt;stroke-linejoin:miter;stroke-miterlimit:4;stroke-opacity:1;stroke-dasharray:none"
       d="m 118.28622,1273.8932 0,39.9083"
       id="path3463"
       inkscape:connector-curvature="0"
       transform="translate(0,-1073.622)"
       sodipodi:nodetypes="cc" />
    <path
       sodipodi:nodetypes="cccccccccccc"
       id="Shape2DView_nwe0000-5"
       d="m 1907.6566,590.96825 24.8031,0 0,-17.71651 46.063,0 0,17.71651 46.063,0 0,-1807.08665 -46.063,0 0,17.7166 -46.063,0 0,-17.7166 -24.8031,0"
       style="fill:none;stroke:#0000ff;stroke-width:0.35433072;stroke-miterlimit:4;stroke-dasharray:none"
       inkscape:connector-curvature="0" />
    <path
       sodipodi:nodetypes="cccccccccccc"
       inkscape:connector-curvature="0"
       d="m 1889.9401,-1216.1184 0,-24.8031 17.7165,0 0,-46.063 -17.7165,0 0,-46.063 -1771.65363,0 0,46.063 -17.71645,0 0,46.063 17.71645,0 0,24.8031"
       style="fill:none;stroke:#0000ff;stroke-width:0.35433072;stroke-miterlimit:4;stroke-dasharray:none"
       id="Shape2DView_nwe0047-9" />
  </g>
</svg>
